<?xml version="1.0" encoding="UTF-8" standalone="no"?>
<svg
   xmlns:dc="http://purl.org/dc/elements/1.1/"
   xmlns:cc="http://creativecommons.org/ns#"
   xmlns:rdf="http://www.w3.org/1999/02/22-rdf-syntax-ns#"
   xmlns:svg="http://www.w3.org/2000/svg"
   xmlns="http://www.w3.org/2000/svg"
   xmlns:sodipodi="http://sodipodi.sourceforge.net/DTD/sodipodi-0.dtd"
   xmlns:inkscape="http://www.inkscape.org/namespaces/inkscape"
   width="1714.3104"
   height="616.31232"
   version="1.1"
   id="svg836"
   sodipodi:docname="7d3a20b078e0d9f213c11634e30a1e5856e40049_open.svg"
   inkscape:version="0.92.4 (f8dce91, 2019-08-02)">
  <metadata
     id="metadata840">
    <rdf:RDF>
      <cc:Work
         rdf:about="">
        <dc:format>image/svg+xml</dc:format>
        <dc:type
           rdf:resource="http://purl.org/dc/dcmitype/StillImage" />
        <dc:title></dc:title>
      </cc:Work>
    </rdf:RDF>
  </metadata>
  <sodipodi:namedview
     pagecolor="#ffffff"
     bordercolor="#666666"
     borderopacity="1"
     objecttolerance="10"
     gridtolerance="10"
     guidetolerance="10"
     inkscape:pageopacity="0"
     inkscape:pageshadow="2"
     inkscape:window-width="1366"
     inkscape:window-height="713"
     id="namedview838"
     showgrid="false"
     inkscape:zoom="0.4739338"
     inkscape:cx="748.10125"
     inkscape:cy="-37.787452"
     inkscape:window-x="0"
     inkscape:window-y="27"
     inkscape:window-maximized="1"
     inkscape:current-layer="g834" />
  <desc
     id="desc820">/home/kevin/Downloads/7d3a20b078e0d9f213c11634e30a1e5856e40049_switch.dxf - scale = 1.000000, origin = (0.000000, 0.000000), method = manual</desc>
  <defs
     id="defs832">
    <marker
       id="DistanceX"
       orient="auto"
       refX="0"
       refY="0"
       style="overflow:visible">
      <path
         d="M 3,-3 -3,3 M 0,-5 V 5"
         style="stroke:#000000;stroke-width:0.5"
         id="path822"
         inkscape:connector-curvature="0" />
    </marker>
    <pattern
       height="8"
       id="Hatch"
       patternUnits="userSpaceOnUse"
       width="8"
       x="0"
       y="0">
      <path
         d="M8 4 l-4,4"
         linecap="square"
         stroke="#000000"
         stroke-width="0.25"
         id="path825" />
      <path
         d="M6 2 l-4,4"
         linecap="square"
         stroke="#000000"
         stroke-width="0.25"
         id="path827" />
      <path
         d="M4 0 l-4,4"
         linecap="square"
         stroke="#000000"
         stroke-width="0.25"
         id="path829" />
    </pattern>
    <marker
       style="overflow:visible"
       refY="0"
       refX="0"
       orient="auto"
       id="DistanceX-3">
      <path
         id="path865"
         style="stroke:#000000;stroke-width:0.5"
         d="M 3,-3 -3,3 M 0,-5 V 5"
         inkscape:connector-curvature="0" />
    </marker>
    <pattern
       y="0"
       x="0"
       width="8"
       patternUnits="userSpaceOnUse"
       id="Hatch-6"
       height="8">
      <path
         id="path868"
         stroke-width="0.25"
         stroke="#000000"
         linecap="square"
         d="M8 4 l-4,4" />
      <path
         id="path870"
         stroke-width="0.25"
         stroke="#000000"
         linecap="square"
         d="M6 2 l-4,4" />
      <path
         id="path872"
         stroke-width="0.25"
         stroke="#000000"
         linecap="square"
         d="M4 0 l-4,4" />
    </pattern>
    <marker
       style="overflow:visible"
       refY="0"
       refX="0"
       orient="auto"
       id="DistanceX-7">
      <path
         id="path913"
         style="stroke:#000000;stroke-width:0.5"
         d="M 3,-3 -3,3 M 0,-5 V 5"
         inkscape:connector-curvature="0" />
    </marker>
    <pattern
       y="0"
       x="0"
       width="8"
       patternUnits="userSpaceOnUse"
       id="Hatch-5"
       height="8">
      <path
         id="path916"
         stroke-width="0.25"
         stroke="#000000"
         linecap="square"
         d="M8 4 l-4,4" />
      <path
         id="path918"
         stroke-width="0.25"
         stroke="#000000"
         linecap="square"
         d="M6 2 l-4,4" />
      <path
         id="path920"
         stroke-width="0.25"
         stroke="#000000"
         linecap="square"
         d="M4 0 l-4,4" />
    </pattern>
  </defs>
  <g
     inkscape:groupmode="layer"
     inkscape:label="0"
     id="g834"
     transform="translate(351.25084,-75.959959)">
    <g
       id="g877"
       inkscape:label="0" />
    <g
       id="g925"
       inkscape:label="0" />
    <g
       id="g1681"
       transform="matrix(3.7795275,0,0,3.7795275,-369.79136,57.419442)">
      <polygon
         id="polygon1658"
         style="fill:none;stroke:#000000;stroke-width:0.05mm"
         points="448.389,157.877 448.389,15.001 236.694,15.001 236.694,5.001 453.389,5.001 453.781,5.016 454.171,5.062 454.556,5.139 454.934,5.245 455.302,5.381 455.659,5.545 456.001,5.737 456.328,5.955 456.636,6.198 456.925,6.465 457.191,6.753 457.434,7.062 457.652,7.388 457.844,7.731 458.008,8.087 458.144,8.455 458.251,8.833 458.327,9.218 458.374,9.608 458.389,10.001 458.389,162.877 458.374,163.269 458.327,163.659 458.251,164.044 458.144,164.422 458.008,164.79 457.844,165.146 457.652,165.489 457.434,165.815 457.191,166.124 456.925,166.412 456.636,166.679 456.328,166.922 456.001,167.14 455.659,167.332 455.302,167.496 454.934,167.632 454.556,167.738 454.171,167.815 453.781,167.861 453.389,167.877 10.001,167.877 9.608,167.861 9.218,167.815 8.833,167.738 8.455,167.632 8.087,167.496 7.731,167.332 7.388,167.14 7.062,166.922 6.753,166.679 6.465,166.412 6.198,166.124 5.955,165.815 5.737,165.489 5.545,165.146 5.381,164.79 5.245,164.422 5.139,164.044 5.062,163.659 5.016,163.269 5,162.877 5.001,10.001 5.016,9.608 5.062,9.218 5.139,8.833 5.245,8.455 5.381,8.087 5.545,7.731 5.737,7.388 5.955,7.062 6.198,6.753 6.465,6.465 6.753,6.198 7.062,5.955 7.388,5.737 7.731,5.545 8.087,5.381 8.455,5.245 8.833,5.139 9.218,5.062 9.608,5.016 10.001,5 226.694,5 226.694,15.001 15.001,15.001 15.001,157.877 " />
      <polygon
         id="polygon1660"
         style="fill:none;stroke:#000000;stroke-width:0.05mm"
         points="452.139,162.877 452.2,163.263 452.378,163.611 452.654,163.888 453.003,164.065 453.389,164.127 453.775,164.065 454.124,163.888 454.4,163.611 454.578,163.263 454.639,162.877 454.578,162.49 454.4,162.142 454.124,161.865 453.775,161.688 453.389,161.627 453.003,161.688 452.654,161.865 452.378,162.142 452.2,162.49 " />
      <polygon
         id="polygon1662"
         style="fill:none;stroke:#000000;stroke-width:0.05mm"
         points="8.751,162.877 8.812,163.263 8.989,163.611 9.266,163.888 9.614,164.065 10.001,164.127 10.387,164.065 10.735,163.888 11.012,163.611 11.189,163.263 11.251,162.877 11.189,162.49 11.012,162.142 10.735,161.865 10.387,161.688 10.001,161.627 9.614,161.688 9.266,161.865 8.989,162.142 8.812,162.49 " />
      <polygon
         id="polygon1664"
         style="fill:none;stroke:#000000;stroke-width:0.05mm"
         points="452.139,10.001 452.2,10.387 452.378,10.735 452.654,11.012 453.003,11.189 453.389,11.251 453.775,11.189 454.124,11.012 454.4,10.735 454.578,10.387 454.639,10.001 454.578,9.614 454.4,9.266 454.124,8.989 453.775,8.812 453.389,8.751 453.003,8.812 452.654,8.989 452.378,9.266 452.2,9.614 " />
      <polygon
         id="polygon1666"
         style="fill:none;stroke:#000000;stroke-width:0.05mm"
         points="8.751,10.001 8.812,10.387 8.989,10.735 9.266,11.012 9.614,11.189 10.001,11.251 10.387,11.189 10.735,11.012 11.012,10.735 11.189,10.387 11.251,10.001 11.189,9.614 11.012,9.266 10.735,8.989 10.387,8.812 10.001,8.751 9.614,8.812 9.266,8.989 8.989,9.266 8.812,9.614 " />
    </g>
  </g>
</svg>
