<?xml version="1.0" encoding="UTF-8" standalone="no"?>
<svg
   xmlns:dc="http://purl.org/dc/elements/1.1/"
   xmlns:cc="http://creativecommons.org/ns#"
   xmlns:rdf="http://www.w3.org/1999/02/22-rdf-syntax-ns#"
   xmlns:svg="http://www.w3.org/2000/svg"
   xmlns="http://www.w3.org/2000/svg"
   xmlns:sodipodi="http://sodipodi.sourceforge.net/DTD/sodipodi-0.dtd"
   xmlns:inkscape="http://www.inkscape.org/namespaces/inkscape"
   width="1714.3104"
   height="616.31232"
   version="1.1"
   id="svg836"
   sodipodi:docname="7d3a20b078e0d9f213c11634e30a1e5856e40049_switch.svg"
   inkscape:version="0.92.4 (f8dce91, 2019-08-02)">
  <metadata
     id="metadata840">
    <rdf:RDF>
      <cc:Work
         rdf:about="">
        <dc:format>image/svg+xml</dc:format>
        <dc:type
           rdf:resource="http://purl.org/dc/dcmitype/StillImage" />
        <dc:title></dc:title>
      </cc:Work>
    </rdf:RDF>
  </metadata>
  <sodipodi:namedview
     pagecolor="#ffffff"
     bordercolor="#666666"
     borderopacity="1"
     objecttolerance="10"
     gridtolerance="10"
     guidetolerance="10"
     inkscape:pageopacity="0"
     inkscape:pageshadow="2"
     inkscape:window-width="1366"
     inkscape:window-height="713"
     id="namedview838"
     showgrid="false"
     inkscape:zoom="0.4739338"
     inkscape:cx="764.48577"
     inkscape:cy="215.3162"
     inkscape:window-x="0"
     inkscape:window-y="27"
     inkscape:window-maximized="1"
     inkscape:current-layer="g834" />
  <desc
     id="desc820">/home/kevin/Downloads/7d3a20b078e0d9f213c11634e30a1e5856e40049_switch.dxf - scale = 1.000000, origin = (0.000000, 0.000000), method = manual</desc>
  <defs
     id="defs832">
    <marker
       id="DistanceX"
       orient="auto"
       refX="0"
       refY="0"
       style="overflow:visible">
      <path
         d="M 3,-3 -3,3 M 0,-5 V 5"
         style="stroke:#000000;stroke-width:0.5"
         id="path822"
         inkscape:connector-curvature="0" />
    </marker>
    <pattern
       height="8"
       id="Hatch"
       patternUnits="userSpaceOnUse"
       width="8"
       x="0"
       y="0">
      <path
         d="M8 4 l-4,4"
         linecap="square"
         stroke="#000000"
         stroke-width="0.25"
         id="path825" />
      <path
         d="M6 2 l-4,4"
         linecap="square"
         stroke="#000000"
         stroke-width="0.25"
         id="path827" />
      <path
         d="M4 0 l-4,4"
         linecap="square"
         stroke="#000000"
         stroke-width="0.25"
         id="path829" />
    </pattern>
    <marker
       style="overflow:visible"
       refY="0"
       refX="0"
       orient="auto"
       id="DistanceX-3">
      <path
         id="path865"
         style="stroke:#000000;stroke-width:0.5"
         d="M 3,-3 -3,3 M 0,-5 V 5"
         inkscape:connector-curvature="0" />
    </marker>
    <pattern
       y="0"
       x="0"
       width="8"
       patternUnits="userSpaceOnUse"
       id="Hatch-6"
       height="8">
      <path
         id="path868"
         stroke-width="0.25"
         stroke="#000000"
         linecap="square"
         d="M8 4 l-4,4" />
      <path
         id="path870"
         stroke-width="0.25"
         stroke="#000000"
         linecap="square"
         d="M6 2 l-4,4" />
      <path
         id="path872"
         stroke-width="0.25"
         stroke="#000000"
         linecap="square"
         d="M4 0 l-4,4" />
    </pattern>
    <marker
       style="overflow:visible"
       refY="0"
       refX="0"
       orient="auto"
       id="DistanceX-7">
      <path
         id="path913"
         style="stroke:#000000;stroke-width:0.5"
         d="M 3,-3 -3,3 M 0,-5 V 5"
         inkscape:connector-curvature="0" />
    </marker>
    <pattern
       y="0"
       x="0"
       width="8"
       patternUnits="userSpaceOnUse"
       id="Hatch-5"
       height="8">
      <path
         id="path916"
         stroke-width="0.25"
         stroke="#000000"
         linecap="square"
         d="M8 4 l-4,4" />
      <path
         id="path918"
         stroke-width="0.25"
         stroke="#000000"
         linecap="square"
         d="M6 2 l-4,4" />
      <path
         id="path920"
         stroke-width="0.25"
         stroke="#000000"
         linecap="square"
         d="M4 0 l-4,4" />
    </pattern>
  </defs>
  <g
     inkscape:groupmode="layer"
     inkscape:label="0"
     id="g834"
     transform="translate(367.63536,-329.06364)">
    <g
       id="g877"
       inkscape:label="0" />
    <g
       id="g925"
       inkscape:label="0" />
    <g
       id="g1581"
       transform="matrix(3.7795275,0,0,3.7795275,-386.17588,310.52312)">
      <polygon
         id="polygon1222"
         style="fill:none;stroke:#000000;stroke-width:0.05mm"
         points="455.659,5.545 456.001,5.737 456.328,5.955 456.636,6.198 456.925,6.465 457.191,6.753 457.434,7.062 457.652,7.388 457.844,7.731 458.008,8.087 458.144,8.455 458.251,8.833 458.327,9.218 458.374,9.608 458.389,10.001 458.389,162.877 458.374,163.269 458.327,163.659 458.251,164.044 458.144,164.422 458.008,164.79 457.844,165.146 457.652,165.489 457.434,165.815 457.191,166.124 456.925,166.412 456.636,166.679 456.328,166.922 456.001,167.14 455.659,167.332 455.302,167.496 454.934,167.632 454.556,167.738 454.171,167.815 453.781,167.861 453.389,167.877 10.001,167.877 9.608,167.861 9.218,167.815 8.833,167.738 8.455,167.632 8.087,167.496 7.731,167.332 7.388,167.14 7.062,166.922 6.753,166.679 6.465,166.412 6.198,166.124 5.955,165.815 5.737,165.489 5.545,165.146 5.381,164.79 5.245,164.422 5.139,164.044 5.062,163.659 5.016,163.269 5,162.877 5.001,10.001 5.016,9.608 5.062,9.218 5.139,8.833 5.245,8.455 5.381,8.087 5.545,7.731 5.737,7.388 5.955,7.062 6.198,6.753 6.465,6.465 6.753,6.198 7.062,5.955 7.388,5.737 7.731,5.545 8.087,5.381 8.455,5.245 8.833,5.139 9.218,5.062 9.608,5.016 10.001,5 453.389,5.001 453.781,5.016 454.171,5.062 454.556,5.139 454.934,5.245 455.302,5.381 " />
      <polygon
         id="polygon1224"
         style="fill:none;stroke:#000000;stroke-width:0.05mm"
         points="452.378,163.611 452.654,163.888 453.003,164.065 453.389,164.127 453.775,164.065 454.124,163.888 454.4,163.611 454.578,163.263 454.639,162.877 454.578,162.49 454.4,162.142 454.124,161.865 453.775,161.688 453.389,161.627 453.003,161.688 452.654,161.865 452.378,162.142 452.2,162.49 452.139,162.877 452.2,163.263 " />
      <polygon
         id="polygon1226"
         style="fill:none;stroke:#000000;stroke-width:0.05mm"
         points="8.989,163.611 9.266,163.888 9.614,164.065 10.001,164.127 10.387,164.065 10.735,163.888 11.012,163.611 11.189,163.263 11.251,162.877 11.189,162.49 11.012,162.142 10.735,161.865 10.387,161.688 10.001,161.627 9.614,161.688 9.266,161.865 8.989,162.142 8.812,162.49 8.751,162.877 8.812,163.263 " />
      <polygon
         id="polygon1228"
         style="fill:none;stroke:#000000;stroke-width:0.05mm"
         points="23.8,142.821 23.8,141.901 20.5,141.901 20.5,142.821 18.776,142.821 18.776,146.051 17.95,146.051 17.95,148.851 18.776,148.851 18.776,155.121 20.5,155.121 20.5,156.101 23.8,156.101 23.8,155.121 25.526,155.121 25.526,150.651 26.25,150.651 26.25,154.751 27.05,154.751 27.05,155.351 41.051,155.351 41.051,154.751 41.85,154.751 41.85,150.651 42.575,150.651 42.575,155.121 44.301,155.121 44.301,156.101 47.6,156.101 47.6,155.121 49.325,155.121 49.325,148.851 50.151,148.851 50.151,146.051 49.325,146.051 49.325,142.821 47.6,142.821 47.6,141.901 44.301,141.901 44.301,142.821 42.575,142.821 42.575,146.051 41.85,146.051 41.85,141.951 41.051,141.951 41.051,141.351 27.05,141.351 27.05,141.951 26.25,141.951 26.25,146.051 25.526,146.051 25.526,142.821 " />
      <polygon
         id="polygon1230"
         style="fill:none;stroke:#000000;stroke-width:0.05mm"
         points="183.344,142.821 183.344,141.901 180.044,141.901 180.044,142.821 178.319,142.821 178.319,146.051 177.494,146.051 177.494,148.851 178.319,148.851 178.319,155.121 180.044,155.121 180.044,156.101 183.344,156.101 183.344,155.121 185.069,155.121 185.069,150.651 223.894,150.651 223.894,154.751 224.694,154.751 224.694,155.351 238.694,155.351 238.694,154.751 239.494,154.751 239.494,150.651 278.319,150.651 278.319,155.121 280.044,155.121 280.044,156.101 283.344,156.101 283.344,155.121 285.069,155.121 285.069,148.851 285.894,148.851 285.894,146.051 285.069,146.051 285.069,142.821 283.344,142.821 283.344,141.901 280.044,141.901 280.044,142.821 278.319,142.821 278.319,146.051 239.494,146.051 239.494,141.951 238.694,141.951 238.694,141.351 224.694,141.351 224.694,141.951 223.894,141.951 223.894,146.051 185.069,146.051 185.069,142.821 " />
      <polygon
         id="polygon1232"
         style="fill:none;stroke:#000000;stroke-width:0.05mm"
         points="69.626,155.351 69.626,154.751 70.426,154.751 70.426,141.951 69.626,141.951 69.626,141.351 55.626,141.351 55.626,141.951 54.826,141.951 54.826,154.751 55.626,154.751 55.626,155.351 " />
      <polygon
         id="polygon1234"
         style="fill:none;stroke:#000000;stroke-width:0.05mm"
         points="119.632,155.351 119.632,154.751 120.432,154.751 120.432,141.951 119.632,141.951 119.632,141.351 105.632,141.351 105.632,141.951 104.832,141.951 104.832,154.751 105.632,154.751 105.632,155.351 " />
      <polygon
         id="polygon1236"
         style="fill:none;stroke:#000000;stroke-width:0.05mm"
         points="143.444,155.351 143.444,154.751 144.244,154.751 144.244,141.951 143.444,141.951 143.444,141.351 129.444,141.351 129.444,141.951 128.644,141.951 128.644,154.751 129.444,154.751 129.444,155.351 " />
      <polygon
         id="polygon1238"
         style="fill:none;stroke:#000000;stroke-width:0.05mm"
         points="167.257,155.351 167.257,154.751 168.057,154.751 168.057,141.951 167.257,141.951 167.257,141.351 153.257,141.351 153.257,141.951 152.457,141.951 152.457,154.751 153.257,154.751 153.257,155.351 " />
      <polygon
         id="polygon1240"
         style="fill:none;stroke:#000000;stroke-width:0.05mm"
         points="310.132,155.351 310.132,154.751 310.932,154.751 310.932,141.951 310.132,141.951 310.132,141.351 296.132,141.351 296.132,141.951 295.332,141.951 295.332,154.751 296.132,154.751 296.132,155.351 " />
      <polygon
         id="polygon1242"
         style="fill:none;stroke:#000000;stroke-width:0.05mm"
         points="333.944,155.351 333.944,154.751 334.744,154.751 334.744,141.951 333.944,141.951 333.944,141.351 319.944,141.351 319.944,141.951 319.144,141.951 319.144,154.751 319.944,154.751 319.944,155.351 " />
      <polygon
         id="polygon1244"
         style="fill:none;stroke:#000000;stroke-width:0.05mm"
         points="357.757,155.351 357.757,154.751 358.557,154.751 358.557,141.951 357.757,141.951 357.757,141.351 343.757,141.351 343.757,141.951 342.957,141.951 342.957,154.751 343.757,154.751 343.757,155.351 " />
      <polygon
         id="polygon1246"
         style="fill:none;stroke:#000000;stroke-width:0.05mm"
         points="381.569,155.351 381.569,154.751 382.369,154.751 382.369,141.951 381.569,141.951 381.569,141.351 367.569,141.351 367.569,141.951 366.769,141.951 366.769,154.751 367.569,154.751 367.569,155.351 " />
      <polygon
         id="polygon1248"
         style="fill:none;stroke:#000000;stroke-width:0.05mm"
         points="407.763,155.351 407.763,154.751 408.563,154.751 408.563,141.951 407.763,141.951 407.763,141.351 393.763,141.351 393.763,141.951 392.963,141.951 392.963,154.751 393.763,154.751 393.763,155.351 " />
      <polygon
         id="polygon1250"
         style="fill:none;stroke:#000000;stroke-width:0.05mm"
         points="426.813,155.351 426.813,154.751 427.613,154.751 427.613,141.951 426.813,141.951 426.813,141.351 412.813,141.351 412.813,141.951 412.013,141.951 412.013,154.751 412.813,154.751 412.813,155.351 " />
      <polygon
         id="polygon1252"
         style="fill:none;stroke:#000000;stroke-width:0.05mm"
         points="445.863,155.351 445.863,154.751 446.663,154.751 446.663,141.951 445.863,141.951 445.863,141.351 431.863,141.351 431.863,141.951 431.063,141.951 431.063,154.751 431.863,154.751 431.863,155.351 " />
      <polygon
         id="polygon1254"
         style="fill:none;stroke:#000000;stroke-width:0.05mm"
         points="74.906,128.575 74.906,130.301 79.376,130.301 79.376,131.026 75.275,131.026 75.275,131.826 74.676,131.826 74.676,145.826 75.275,145.826 75.275,146.626 79.376,146.626 79.376,147.351 74.906,147.351 74.906,149.076 73.926,149.076 73.926,152.376 74.906,152.376 74.906,154.101 81.176,154.101 81.176,154.926 83.976,154.926 83.976,154.101 87.206,154.101 87.206,152.376 88.126,152.376 88.126,149.076 87.206,149.076 87.206,147.351 83.976,147.351 83.976,146.626 88.076,146.626 88.076,145.826 88.676,145.826 88.676,131.826 88.076,131.826 88.076,131.026 83.976,131.026 83.976,130.301 87.206,130.301 87.206,128.575 88.126,128.575 88.126,125.276 87.206,125.276 87.206,123.551 83.976,123.551 83.976,122.726 81.176,122.726 81.176,123.551 74.906,123.551 74.906,125.276 73.926,125.276 73.926,128.575 " />
      <polygon
         id="polygon1256"
         style="fill:none;stroke:#000000;stroke-width:0.05mm"
         points="111.907,123.771 111.907,122.851 108.607,122.851 108.607,123.771 106.882,123.771 106.882,127.001 106.057,127.001 106.057,129.801 106.882,129.801 106.882,136.071 108.607,136.071 108.607,137.051 111.907,137.051 111.907,136.071 113.632,136.071 113.632,131.601 114.357,131.601 114.357,135.701 115.157,135.701 115.157,136.301 129.157,136.301 129.157,135.701 129.956,135.701 129.956,131.601 130.682,131.601 130.682,136.071 132.407,136.071 132.407,137.051 135.707,137.051 135.707,136.071 137.432,136.071 137.432,129.801 138.257,129.801 138.257,127.001 137.432,127.001 137.432,123.771 135.707,123.771 135.707,122.851 132.407,122.851 132.407,123.771 130.682,123.771 130.682,127.001 129.956,127.001 129.956,122.901 129.157,122.901 129.157,122.301 115.157,122.301 115.157,122.901 114.357,122.901 114.357,127.001 113.632,127.001 113.632,123.771 " />
      <polygon
         id="polygon1258"
         style="fill:none;stroke:#000000;stroke-width:0.05mm"
         points="350.032,123.771 350.032,122.851 346.732,122.851 346.732,123.771 345.007,123.771 345.007,127.001 344.182,127.001 344.182,129.801 345.007,129.801 345.007,136.071 346.732,136.071 346.732,137.051 350.032,137.051 350.032,136.071 351.757,136.071 351.757,131.601 352.482,131.601 352.482,135.701 353.282,135.701 353.282,136.301 367.282,136.301 367.282,135.701 368.082,135.701 368.082,131.601 368.807,131.601 368.807,136.071 370.532,136.071 370.532,137.051 373.832,137.051 373.832,136.071 375.557,136.071 375.557,129.801 376.382,129.801 376.382,127.001 375.557,127.001 375.557,123.771 373.832,123.771 373.832,122.851 370.532,122.851 370.532,123.771 368.807,123.771 368.807,127.001 368.082,127.001 368.082,122.901 367.282,122.901 367.282,122.301 353.282,122.301 353.282,122.901 352.482,122.901 352.482,127.001 351.757,127.001 351.757,123.771 " />
      <polygon
         id="polygon1260"
         style="fill:none;stroke:#000000;stroke-width:0.05mm"
         points="31.526,136.301 31.526,135.701 32.324,135.701 32.324,122.901 31.526,122.901 31.526,122.301 17.526,122.301 17.526,122.901 16.725,122.901 16.725,135.701 17.526,135.701 17.526,136.301 " />
      <polygon
         id="polygon1262"
         style="fill:none;stroke:#000000;stroke-width:0.05mm"
         points="50.576,136.301 50.576,135.701 51.376,135.701 51.376,122.901 50.576,122.901 50.576,122.301 36.576,122.301 36.576,122.901 35.776,122.901 35.776,135.701 36.576,135.701 36.576,136.301 " />
      <polygon
         id="polygon1264"
         style="fill:none;stroke:#000000;stroke-width:0.05mm"
         points="69.626,136.301 69.626,135.701 70.426,135.701 70.426,122.901 69.626,122.901 69.626,122.301 55.626,122.301 55.626,122.901 54.826,122.901 54.826,135.701 55.626,135.701 55.626,136.301 " />
      <polygon
         id="polygon1266"
         style="fill:none;stroke:#000000;stroke-width:0.05mm"
         points="160.113,136.301 160.113,135.701 160.913,135.701 160.913,122.901 160.113,122.901 160.113,122.301 146.113,122.301 146.113,122.901 145.313,122.901 145.313,135.701 146.113,135.701 146.113,136.301 " />
      <polygon
         id="polygon1268"
         style="fill:none;stroke:#000000;stroke-width:0.05mm"
         points="179.163,136.301 179.163,135.701 179.963,135.701 179.963,122.901 179.163,122.901 179.163,122.301 165.163,122.301 165.163,122.901 164.363,122.901 164.363,135.701 165.163,135.701 165.163,136.301 " />
      <polygon
         id="polygon1270"
         style="fill:none;stroke:#000000;stroke-width:0.05mm"
         points="198.213,136.301 198.213,135.701 199.013,135.701 199.013,122.901 198.213,122.901 198.213,122.301 184.213,122.301 184.213,122.901 183.413,122.901 183.413,135.701 184.213,135.701 184.213,136.301 " />
      <polygon
         id="polygon1272"
         style="fill:none;stroke:#000000;stroke-width:0.05mm"
         points="217.263,136.301 217.263,135.701 218.063,135.701 218.063,122.901 217.263,122.901 217.263,122.301 203.263,122.301 203.263,122.901 202.463,122.901 202.463,135.701 203.263,135.701 203.263,136.301 " />
      <polygon
         id="polygon1274"
         style="fill:none;stroke:#000000;stroke-width:0.05mm"
         points="236.313,136.301 236.313,135.701 237.113,135.701 237.113,122.901 236.313,122.901 236.313,122.301 222.313,122.301 222.313,122.901 221.513,122.901 221.513,135.701 222.313,135.701 222.313,136.301 " />
      <polygon
         id="polygon1276"
         style="fill:none;stroke:#000000;stroke-width:0.05mm"
         points="255.363,136.301 255.363,135.701 256.162,135.701 256.162,122.901 255.363,122.901 255.363,122.301 241.363,122.301 241.363,122.901 240.563,122.901 240.563,135.701 241.363,135.701 241.363,136.301 " />
      <polygon
         id="polygon1278"
         style="fill:none;stroke:#000000;stroke-width:0.05mm"
         points="274.413,136.301 274.413,135.701 275.213,135.701 275.213,122.901 274.413,122.901 274.413,122.301 260.412,122.301 260.412,122.901 259.613,122.901 259.613,135.701 260.412,135.701 260.412,136.301 " />
      <polygon
         id="polygon1280"
         style="fill:none;stroke:#000000;stroke-width:0.05mm"
         points="293.463,136.301 293.463,135.701 294.263,135.701 294.263,122.901 293.463,122.901 293.463,122.301 279.463,122.301 279.463,122.901 278.663,122.901 278.663,135.701 279.463,135.701 279.463,136.301 " />
      <polygon
         id="polygon1282"
         style="fill:none;stroke:#000000;stroke-width:0.05mm"
         points="312.513,136.301 312.513,135.701 313.313,135.701 313.313,122.901 312.513,122.901 312.513,122.301 298.513,122.301 298.513,122.901 297.713,122.901 297.713,135.701 298.513,135.701 298.513,136.301 " />
      <polygon
         id="polygon1284"
         style="fill:none;stroke:#000000;stroke-width:0.05mm"
         points="331.563,136.301 331.563,135.701 332.363,135.701 332.363,122.901 331.563,122.901 331.563,122.301 317.563,122.301 317.563,122.901 316.763,122.901 316.763,135.701 317.563,135.701 317.563,136.301 " />
      <polygon
         id="polygon1286"
         style="fill:none;stroke:#000000;stroke-width:0.05mm"
         points="426.813,136.301 426.813,135.701 427.613,135.701 427.613,122.901 426.813,122.901 426.813,122.301 412.813,122.301 412.813,122.901 412.013,122.901 412.013,135.701 412.813,135.701 412.813,136.301 " />
      <polygon
         id="polygon1288"
         style="fill:none;stroke:#000000;stroke-width:0.05mm"
         points="354.794,104.721 354.794,103.801 351.494,103.801 351.494,104.721 349.769,104.721 349.769,107.951 348.944,107.951 348.944,110.751 349.769,110.751 349.769,117.021 351.494,117.021 351.494,118.001 354.794,118.001 354.794,117.021 356.519,117.021 356.519,112.551 357.244,112.551 357.244,116.651 358.044,116.651 358.044,117.251 372.044,117.251 372.044,116.651 372.844,116.651 372.844,112.551 373.569,112.551 373.569,117.021 375.294,117.021 375.294,118.001 378.594,118.001 378.594,117.021 380.319,117.021 380.319,110.751 381.144,110.751 381.144,107.951 380.319,107.951 380.319,104.721 378.594,104.721 378.594,103.801 375.294,103.801 375.294,104.721 373.569,104.721 373.569,107.951 372.844,107.951 372.844,103.851 372.044,103.851 372.044,103.251 358.044,103.251 358.044,103.851 357.244,103.851 357.244,107.951 356.519,107.951 356.519,104.721 " />
      <polygon
         id="polygon1290"
         style="fill:none;stroke:#000000;stroke-width:0.05mm"
         points="31.526,117.251 31.526,116.651 32.324,116.651 32.324,103.851 31.526,103.851 31.526,103.251 17.526,103.251 17.526,103.851 16.725,103.851 16.725,116.651 17.526,116.651 17.526,117.251 " />
      <polygon
         id="polygon1292"
         style="fill:none;stroke:#000000;stroke-width:0.05mm"
         points="50.576,117.251 50.576,116.651 51.376,116.651 51.376,103.851 50.576,103.851 50.576,103.251 36.576,103.251 36.576,103.851 35.776,103.851 35.776,116.651 36.576,116.651 36.576,117.251 " />
      <polygon
         id="polygon1294"
         style="fill:none;stroke:#000000;stroke-width:0.05mm"
         points="69.626,117.251 69.626,116.651 70.426,116.651 70.426,103.851 69.626,103.851 69.626,103.251 55.626,103.251 55.626,103.851 54.826,103.851 54.826,116.651 55.626,116.651 55.626,117.251 " />
      <polygon
         id="polygon1296"
         style="fill:none;stroke:#000000;stroke-width:0.05mm"
         points="124.394,117.251 124.394,116.651 125.194,116.651 125.194,103.851 124.394,103.851 124.394,103.251 110.394,103.251 110.394,103.851 109.594,103.851 109.594,116.651 110.394,116.651 110.394,117.251 " />
      <polygon
         id="polygon1298"
         style="fill:none;stroke:#000000;stroke-width:0.05mm"
         points="150.588,117.251 150.588,116.651 151.388,116.651 151.388,103.851 150.588,103.851 150.588,103.251 136.588,103.251 136.588,103.851 135.788,103.851 135.788,116.651 136.588,116.651 136.588,117.251 " />
      <polygon
         id="polygon1300"
         style="fill:none;stroke:#000000;stroke-width:0.05mm"
         points="169.638,117.251 169.638,116.651 170.438,116.651 170.438,103.851 169.638,103.851 169.638,103.251 155.638,103.251 155.638,103.851 154.838,103.851 154.838,116.651 155.638,116.651 155.638,117.251 " />
      <polygon
         id="polygon1302"
         style="fill:none;stroke:#000000;stroke-width:0.05mm"
         points="188.688,117.251 188.688,116.651 189.488,116.651 189.488,103.851 188.688,103.851 188.688,103.251 174.688,103.251 174.688,103.851 173.888,103.851 173.888,116.651 174.688,116.651 174.688,117.251 " />
      <polygon
         id="polygon1304"
         style="fill:none;stroke:#000000;stroke-width:0.05mm"
         points="207.738,117.251 207.738,116.651 208.538,116.651 208.538,103.851 207.738,103.851 207.738,103.251 193.738,103.251 193.738,103.851 192.938,103.851 192.938,116.651 193.738,116.651 193.738,117.251 " />
      <polygon
         id="polygon1306"
         style="fill:none;stroke:#000000;stroke-width:0.05mm"
         points="226.788,117.251 226.788,116.651 227.588,116.651 227.588,103.851 226.788,103.851 226.788,103.251 212.788,103.251 212.788,103.851 211.988,103.851 211.988,116.651 212.788,116.651 212.788,117.251 " />
      <polygon
         id="polygon1308"
         style="fill:none;stroke:#000000;stroke-width:0.05mm"
         points="245.838,117.251 245.838,116.651 246.638,116.651 246.638,103.851 245.838,103.851 245.838,103.251 231.838,103.251 231.838,103.851 231.038,103.851 231.038,116.651 231.838,116.651 231.838,117.251 " />
      <polygon
         id="polygon1310"
         style="fill:none;stroke:#000000;stroke-width:0.05mm"
         points="264.888,117.251 264.888,116.651 265.688,116.651 265.688,103.851 264.888,103.851 264.888,103.251 250.888,103.251 250.888,103.851 250.088,103.851 250.088,116.651 250.888,116.651 250.888,117.251 " />
      <polygon
         id="polygon1312"
         style="fill:none;stroke:#000000;stroke-width:0.05mm"
         points="283.938,117.251 283.938,116.651 284.738,116.651 284.738,103.851 283.938,103.851 283.938,103.251 269.938,103.251 269.938,103.851 269.138,103.851 269.138,116.651 269.938,116.651 269.938,117.251 " />
      <polygon
         id="polygon1314"
         style="fill:none;stroke:#000000;stroke-width:0.05mm"
         points="302.988,117.251 302.988,116.651 303.788,116.651 303.788,103.851 302.988,103.851 302.988,103.251 288.988,103.251 288.988,103.851 288.188,103.851 288.188,116.651 288.988,116.651 288.988,117.251 " />
      <polygon
         id="polygon1316"
         style="fill:none;stroke:#000000;stroke-width:0.05mm"
         points="322.038,117.251 322.038,116.651 322.838,116.651 322.838,103.851 322.038,103.851 322.038,103.251 308.038,103.251 308.038,103.851 307.238,103.851 307.238,116.651 308.038,116.651 308.038,117.251 " />
      <polygon
         id="polygon1318"
         style="fill:none;stroke:#000000;stroke-width:0.05mm"
         points="341.088,117.251 341.088,116.651 341.888,116.651 341.888,103.851 341.088,103.851 341.088,103.251 327.088,103.251 327.088,103.851 326.288,103.851 326.288,116.651 327.088,116.651 327.088,117.251 " />
      <polygon
         id="polygon1320"
         style="fill:none;stroke:#000000;stroke-width:0.05mm"
         points="74.906,90.476 74.906,92.201 79.376,92.201 79.376,92.926 75.275,92.926 75.275,93.726 74.676,93.726 74.676,107.726 75.275,107.726 75.275,108.526 79.376,108.526 79.376,109.251 74.906,109.251 74.906,110.976 73.926,110.976 73.926,114.276 74.906,114.276 74.906,116.001 81.176,116.001 81.176,116.826 83.976,116.826 83.976,116.001 87.206,116.001 87.206,114.276 88.126,114.276 88.126,110.976 87.206,110.976 87.206,109.251 83.976,109.251 83.976,108.526 88.076,108.526 88.076,107.726 88.676,107.726 88.676,93.726 88.076,93.726 88.076,92.926 83.976,92.926 83.976,92.201 87.206,92.201 87.206,90.476 88.126,90.476 88.126,87.176 87.206,87.176 87.206,85.451 83.976,85.451 83.976,84.626 81.176,84.626 81.176,85.451 74.906,85.451 74.906,87.176 73.926,87.176 73.926,90.476 " />
      <polygon
         id="polygon1322"
         style="fill:none;stroke:#000000;stroke-width:0.05mm"
         points="31.526,98.201 31.526,97.601 32.324,97.601 32.324,84.801 31.526,84.801 31.526,84.201 17.526,84.201 17.526,84.801 16.725,84.801 16.725,97.601 17.526,97.601 17.526,98.201 " />
      <polygon
         id="polygon1324"
         style="fill:none;stroke:#000000;stroke-width:0.05mm"
         points="50.576,98.201 50.576,97.601 51.376,97.601 51.376,84.801 50.576,84.801 50.576,84.201 36.576,84.201 36.576,84.801 35.776,84.801 35.776,97.601 36.576,97.601 36.576,98.201 " />
      <polygon
         id="polygon1326"
         style="fill:none;stroke:#000000;stroke-width:0.05mm"
         points="69.626,98.201 69.626,97.601 70.426,97.601 70.426,84.801 69.626,84.801 69.626,84.201 55.626,84.201 55.626,84.801 54.826,84.801 54.826,97.601 55.626,97.601 55.626,98.201 " />
      <polygon
         id="polygon1328"
         style="fill:none;stroke:#000000;stroke-width:0.05mm"
         points="124.394,98.201 124.394,97.601 125.194,97.601 125.194,84.801 124.394,84.801 124.394,84.201 110.394,84.201 110.394,84.801 109.594,84.801 109.594,97.601 110.394,97.601 110.394,98.201 " />
      <polygon
         id="polygon1330"
         style="fill:none;stroke:#000000;stroke-width:0.05mm"
         points="145.826,98.201 145.826,97.601 146.626,97.601 146.626,84.801 145.826,84.801 145.826,84.201 131.826,84.201 131.826,84.801 131.025,84.801 131.025,97.601 131.826,97.601 131.826,98.201 " />
      <polygon
         id="polygon1332"
         style="fill:none;stroke:#000000;stroke-width:0.05mm"
         points="164.876,98.201 164.876,97.601 165.676,97.601 165.676,84.801 164.876,84.801 164.876,84.201 150.876,84.201 150.876,84.801 150.076,84.801 150.076,97.601 150.876,97.601 150.876,98.201 " />
      <polygon
         id="polygon1334"
         style="fill:none;stroke:#000000;stroke-width:0.05mm"
         points="183.926,98.201 183.926,97.601 184.726,97.601 184.726,84.801 183.926,84.801 183.926,84.201 169.926,84.201 169.926,84.801 169.126,84.801 169.126,97.601 169.926,97.601 169.926,98.201 " />
      <polygon
         id="polygon1336"
         style="fill:none;stroke:#000000;stroke-width:0.05mm"
         points="202.976,98.201 202.976,97.601 203.776,97.601 203.776,84.801 202.976,84.801 202.976,84.201 188.976,84.201 188.976,84.801 188.176,84.801 188.176,97.601 188.976,97.601 188.976,98.201 " />
      <polygon
         id="polygon1338"
         style="fill:none;stroke:#000000;stroke-width:0.05mm"
         points="222.026,98.201 222.026,97.601 222.826,97.601 222.826,84.801 222.026,84.801 222.026,84.201 208.026,84.201 208.026,84.801 207.226,84.801 207.226,97.601 208.026,97.601 208.026,98.201 " />
      <polygon
         id="polygon1340"
         style="fill:none;stroke:#000000;stroke-width:0.05mm"
         points="241.076,98.201 241.076,97.601 241.876,97.601 241.876,84.801 241.076,84.801 241.076,84.201 227.076,84.201 227.076,84.801 226.276,84.801 226.276,97.601 227.076,97.601 227.076,98.201 " />
      <polygon
         id="polygon1342"
         style="fill:none;stroke:#000000;stroke-width:0.05mm"
         points="260.126,98.201 260.126,97.601 260.926,97.601 260.926,84.801 260.126,84.801 260.126,84.201 246.126,84.201 246.126,84.801 245.326,84.801 245.326,97.601 246.126,97.601 246.126,98.201 " />
      <polygon
         id="polygon1344"
         style="fill:none;stroke:#000000;stroke-width:0.05mm"
         points="279.176,98.201 279.176,97.601 279.976,97.601 279.976,84.801 279.176,84.801 279.176,84.201 265.176,84.201 265.176,84.801 264.376,84.801 264.376,97.601 265.176,97.601 265.176,98.201 " />
      <polygon
         id="polygon1346"
         style="fill:none;stroke:#000000;stroke-width:0.05mm"
         points="298.226,98.201 298.226,97.601 299.026,97.601 299.026,84.801 298.226,84.801 298.226,84.201 284.226,84.201 284.226,84.801 283.426,84.801 283.426,97.601 284.226,97.601 284.226,98.201 " />
      <polygon
         id="polygon1348"
         style="fill:none;stroke:#000000;stroke-width:0.05mm"
         points="317.276,98.201 317.276,97.601 318.076,97.601 318.076,84.801 317.276,84.801 317.276,84.201 303.276,84.201 303.276,84.801 302.476,84.801 302.476,97.601 303.276,97.601 303.276,98.201 " />
      <polygon
         id="polygon1350"
         style="fill:none;stroke:#000000;stroke-width:0.05mm"
         points="336.326,98.201 336.326,97.601 337.126,97.601 337.126,84.801 336.326,84.801 336.326,84.201 322.326,84.201 322.326,84.801 321.526,84.801 321.526,97.601 322.326,97.601 322.326,98.201 " />
      <polygon
         id="polygon1352"
         style="fill:none;stroke:#000000;stroke-width:0.05mm"
         points="355.376,98.201 355.376,97.601 356.176,97.601 356.176,84.801 355.376,84.801 355.376,84.201 341.376,84.201 341.376,84.801 340.576,84.801 340.576,97.601 341.376,97.601 341.376,98.201 " />
      <polygon
         id="polygon1354"
         style="fill:none;stroke:#000000;stroke-width:0.05mm"
         points="379.188,98.201 379.188,97.601 379.988,97.601 379.988,84.801 379.188,84.801 379.188,84.201 365.188,84.201 365.188,84.801 364.388,84.801 364.388,97.601 365.188,97.601 365.188,98.201 " />
      <polygon
         id="polygon1356"
         style="fill:none;stroke:#000000;stroke-width:0.05mm"
         points="407.763,98.201 407.763,97.601 408.563,97.601 408.563,84.801 407.763,84.801 407.763,84.201 393.763,84.201 393.763,84.801 392.963,84.801 392.963,97.601 393.763,97.601 393.763,98.201 " />
      <polygon
         id="polygon1358"
         style="fill:none;stroke:#000000;stroke-width:0.05mm"
         points="426.813,98.201 426.813,97.601 427.613,97.601 427.613,84.801 426.813,84.801 426.813,84.201 412.813,84.201 412.813,84.801 412.013,84.801 412.013,97.601 412.813,97.601 412.813,98.201 " />
      <polygon
         id="polygon1360"
         style="fill:none;stroke:#000000;stroke-width:0.05mm"
         points="445.863,98.201 445.863,97.601 446.663,97.601 446.663,84.801 445.863,84.801 445.863,84.201 431.863,84.201 431.863,84.801 431.063,84.801 431.063,97.601 431.863,97.601 431.863,98.201 " />
      <polygon
         id="polygon1362"
         style="fill:none;stroke:#000000;stroke-width:0.05mm"
         points="357.176,66.621 357.176,65.701 353.876,65.701 353.876,66.621 352.151,66.621 352.151,69.851 351.326,69.851 351.326,72.651 352.151,72.651 352.151,78.921 353.876,78.921 353.876,79.901 357.176,79.901 357.176,78.921 358.901,78.921 358.901,74.451 359.626,74.451 359.626,78.551 360.426,78.551 360.426,79.151 374.426,79.151 374.426,78.551 375.226,78.551 375.226,74.451 375.951,74.451 375.951,78.921 377.676,78.921 377.676,79.901 380.976,79.901 380.976,78.921 382.701,78.921 382.701,72.651 383.526,72.651 383.526,69.851 382.701,69.851 382.701,66.621 380.976,66.621 380.976,65.701 377.676,65.701 377.676,66.621 375.951,66.621 375.951,69.851 375.226,69.851 375.226,65.751 374.426,65.751 374.426,65.151 360.426,65.151 360.426,65.751 359.626,65.751 359.626,69.851 358.901,69.851 358.901,66.621 " />
      <polygon
         id="polygon1364"
         style="fill:none;stroke:#000000;stroke-width:0.05mm"
         points="31.526,79.151 31.526,78.551 32.324,78.551 32.324,65.751 31.526,65.751 31.526,65.151 17.526,65.151 17.526,65.751 16.725,65.751 16.725,78.551 17.526,78.551 17.526,79.151 " />
      <polygon
         id="polygon1366"
         style="fill:none;stroke:#000000;stroke-width:0.05mm"
         points="50.576,79.151 50.576,78.551 51.376,78.551 51.376,65.751 50.576,65.751 50.576,65.151 36.576,65.151 36.576,65.751 35.776,65.751 35.776,78.551 36.576,78.551 36.576,79.151 " />
      <polygon
         id="polygon1368"
         style="fill:none;stroke:#000000;stroke-width:0.05mm"
         points="69.626,79.151 69.626,78.551 70.426,78.551 70.426,65.751 69.626,65.751 69.626,65.151 55.626,65.151 55.626,65.751 54.826,65.751 54.826,78.551 55.626,78.551 55.626,79.151 " />
      <polygon
         id="polygon1370"
         style="fill:none;stroke:#000000;stroke-width:0.05mm"
         points="88.676,79.151 88.676,78.551 89.476,78.551 89.476,65.751 88.676,65.751 88.676,65.151 74.676,65.151 74.676,65.751 73.876,65.751 73.876,78.551 74.676,78.551 74.676,79.151 " />
      <polygon
         id="polygon1372"
         style="fill:none;stroke:#000000;stroke-width:0.05mm"
         points="117.251,79.151 117.251,78.551 118.051,78.551 118.051,65.751 117.251,65.751 117.251,65.151 103.251,65.151 103.251,65.751 102.451,65.751 102.451,78.551 103.251,78.551 103.251,79.151 " />
      <polygon
         id="polygon1374"
         style="fill:none;stroke:#000000;stroke-width:0.05mm"
         points="136.301,79.151 136.301,78.551 137.101,78.551 137.101,65.751 136.301,65.751 136.301,65.151 122.301,65.151 122.301,65.751 121.501,65.751 121.501,78.551 122.301,78.551 122.301,79.151 " />
      <polygon
         id="polygon1376"
         style="fill:none;stroke:#000000;stroke-width:0.05mm"
         points="155.351,79.151 155.351,78.551 156.151,78.551 156.151,65.751 155.351,65.751 155.351,65.151 141.351,65.151 141.351,65.751 140.551,65.751 140.551,78.551 141.351,78.551 141.351,79.151 " />
      <polygon
         id="polygon1378"
         style="fill:none;stroke:#000000;stroke-width:0.05mm"
         points="174.401,79.151 174.401,78.551 175.201,78.551 175.201,65.751 174.401,65.751 174.401,65.151 160.401,65.151 160.401,65.751 159.601,65.751 159.601,78.551 160.401,78.551 160.401,79.151 " />
      <polygon
         id="polygon1380"
         style="fill:none;stroke:#000000;stroke-width:0.05mm"
         points="193.451,79.151 193.451,78.551 194.251,78.551 194.251,65.751 193.451,65.751 193.451,65.151 179.451,65.151 179.451,65.751 178.651,65.751 178.651,78.551 179.451,78.551 179.451,79.151 " />
      <polygon
         id="polygon1382"
         style="fill:none;stroke:#000000;stroke-width:0.05mm"
         points="212.501,79.151 212.501,78.551 213.301,78.551 213.301,65.751 212.501,65.751 212.501,65.151 198.501,65.151 198.501,65.751 197.701,65.751 197.701,78.551 198.501,78.551 198.501,79.151 " />
      <polygon
         id="polygon1384"
         style="fill:none;stroke:#000000;stroke-width:0.05mm"
         points="231.551,79.151 231.551,78.551 232.351,78.551 232.351,65.751 231.551,65.751 231.551,65.151 217.551,65.151 217.551,65.751 216.751,65.751 216.751,78.551 217.551,78.551 217.551,79.151 " />
      <polygon
         id="polygon1386"
         style="fill:none;stroke:#000000;stroke-width:0.05mm"
         points="250.601,79.151 250.601,78.551 251.401,78.551 251.401,65.751 250.601,65.751 250.601,65.151 236.601,65.151 236.601,65.751 235.801,65.751 235.801,78.551 236.601,78.551 236.601,79.151 " />
      <polygon
         id="polygon1388"
         style="fill:none;stroke:#000000;stroke-width:0.05mm"
         points="269.651,79.151 269.651,78.551 270.451,78.551 270.451,65.751 269.651,65.751 269.651,65.151 255.651,65.151 255.651,65.751 254.851,65.751 254.851,78.551 255.651,78.551 255.651,79.151 " />
      <polygon
         id="polygon1390"
         style="fill:none;stroke:#000000;stroke-width:0.05mm"
         points="288.701,79.151 288.701,78.551 289.501,78.551 289.501,65.751 288.701,65.751 288.701,65.151 274.701,65.151 274.701,65.751 273.901,65.751 273.901,78.551 274.701,78.551 274.701,79.151 " />
      <polygon
         id="polygon1392"
         style="fill:none;stroke:#000000;stroke-width:0.05mm"
         points="307.751,79.151 307.751,78.551 308.551,78.551 308.551,65.751 307.751,65.751 307.751,65.151 293.751,65.151 293.751,65.751 292.951,65.751 292.951,78.551 293.751,78.551 293.751,79.151 " />
      <polygon
         id="polygon1394"
         style="fill:none;stroke:#000000;stroke-width:0.05mm"
         points="326.801,79.151 326.801,78.551 327.601,78.551 327.601,65.751 326.801,65.751 326.801,65.151 312.801,65.151 312.801,65.751 312.001,65.751 312.001,78.551 312.801,78.551 312.801,79.151 " />
      <polygon
         id="polygon1396"
         style="fill:none;stroke:#000000;stroke-width:0.05mm"
         points="345.851,79.151 345.851,78.551 346.651,78.551 346.651,65.751 345.851,65.751 345.851,65.151 331.851,65.151 331.851,65.751 331.051,65.751 331.051,78.551 331.851,78.551 331.851,79.151 " />
      <polygon
         id="polygon1398"
         style="fill:none;stroke:#000000;stroke-width:0.05mm"
         points="407.763,79.151 407.763,78.551 408.563,78.551 408.563,65.751 407.763,65.751 407.763,65.151 393.763,65.151 393.763,65.751 392.963,65.751 392.963,78.551 393.763,78.551 393.763,79.151 " />
      <polygon
         id="polygon1400"
         style="fill:none;stroke:#000000;stroke-width:0.05mm"
         points="426.813,79.151 426.813,78.551 427.613,78.551 427.613,65.751 426.813,65.751 426.813,65.151 412.813,65.151 412.813,65.751 412.013,65.751 412.013,78.551 412.813,78.551 412.813,79.151 " />
      <polygon
         id="polygon1402"
         style="fill:none;stroke:#000000;stroke-width:0.05mm"
         points="445.863,79.151 445.863,78.551 446.663,78.551 446.663,65.751 445.863,65.751 445.863,65.151 431.863,65.151 431.863,65.751 431.063,65.751 431.063,78.551 431.863,78.551 431.863,79.151 " />
      <polygon
         id="polygon1404"
         style="fill:none;stroke:#000000;stroke-width:0.05mm"
         points="31.526,50.576 31.526,49.976 32.324,49.976 32.324,37.176 31.526,37.176 31.526,36.576 17.526,36.576 17.526,37.176 16.725,37.176 16.725,49.976 17.526,49.976 17.526,50.576 " />
      <polygon
         id="polygon1406"
         style="fill:none;stroke:#000000;stroke-width:0.05mm"
         points="50.576,50.576 50.576,49.976 51.376,49.976 51.376,37.176 50.576,37.176 50.576,36.576 36.576,36.576 36.576,37.176 35.776,37.176 35.776,49.976 36.576,49.976 36.576,50.576 " />
      <polygon
         id="polygon1408"
         style="fill:none;stroke:#000000;stroke-width:0.05mm"
         points="69.626,50.576 69.626,49.976 70.426,49.976 70.426,37.176 69.626,37.176 69.626,36.576 55.626,36.576 55.626,37.176 54.826,37.176 54.826,49.976 55.626,49.976 55.626,50.576 " />
      <polygon
         id="polygon1410"
         style="fill:none;stroke:#000000;stroke-width:0.05mm"
         points="88.676,50.576 88.676,49.976 89.476,49.976 89.476,37.176 88.676,37.176 88.676,36.576 74.676,36.576 74.676,37.176 73.876,37.176 73.876,49.976 74.676,49.976 74.676,50.576 " />
      <polygon
         id="polygon1412"
         style="fill:none;stroke:#000000;stroke-width:0.05mm"
         points="117.251,50.576 117.251,49.976 118.051,49.976 118.051,37.176 117.251,37.176 117.251,36.576 103.251,36.576 103.251,37.176 102.451,37.176 102.451,49.976 103.251,49.976 103.251,50.576 " />
      <polygon
         id="polygon1414"
         style="fill:none;stroke:#000000;stroke-width:0.05mm"
         points="155.351,50.576 155.351,49.976 156.151,49.976 156.151,37.176 155.351,37.176 155.351,36.576 141.351,36.576 141.351,37.176 140.55,37.176 140.55,49.976 141.351,49.976 141.351,50.576 " />
      <polygon
         id="polygon1416"
         style="fill:none;stroke:#000000;stroke-width:0.05mm"
         points="174.401,50.576 174.401,49.976 175.201,49.976 175.201,37.176 174.401,37.176 174.401,36.576 160.401,36.576 160.401,37.176 159.601,37.176 159.601,49.976 160.401,49.976 160.401,50.576 " />
      <polygon
         id="polygon1418"
         style="fill:none;stroke:#000000;stroke-width:0.05mm"
         points="193.451,50.576 193.451,49.976 194.251,49.976 194.251,37.176 193.451,37.176 193.451,36.576 179.451,36.576 179.451,37.176 178.651,37.176 178.651,49.976 179.451,49.976 179.451,50.576 " />
      <polygon
         id="polygon1420"
         style="fill:none;stroke:#000000;stroke-width:0.05mm"
         points="212.501,50.576 212.501,49.976 213.301,49.976 213.301,37.176 212.501,37.176 212.501,36.576 198.501,36.576 198.501,37.176 197.701,37.176 197.701,49.976 198.501,49.976 198.501,50.576 " />
      <polygon
         id="polygon1422"
         style="fill:none;stroke:#000000;stroke-width:0.05mm"
         points="241.076,50.576 241.076,49.976 241.876,49.976 241.876,37.176 241.076,37.176 241.076,36.576 227.076,36.576 227.076,37.176 226.276,37.176 226.276,49.976 227.076,49.976 227.076,50.576 " />
      <polygon
         id="polygon1424"
         style="fill:none;stroke:#000000;stroke-width:0.05mm"
         points="260.126,50.576 260.126,49.976 260.926,49.976 260.926,37.176 260.126,37.176 260.126,36.576 246.126,36.576 246.126,37.176 245.326,37.176 245.326,49.976 246.126,49.976 246.126,50.576 " />
      <polygon
         id="polygon1426"
         style="fill:none;stroke:#000000;stroke-width:0.05mm"
         points="279.176,50.576 279.176,49.976 279.976,49.976 279.976,37.176 279.176,37.176 279.176,36.576 265.176,36.576 265.176,37.176 264.376,37.176 264.376,49.976 265.176,49.976 265.176,50.576 " />
      <polygon
         id="polygon1428"
         style="fill:none;stroke:#000000;stroke-width:0.05mm"
         points="298.226,50.576 298.226,49.976 299.026,49.976 299.026,37.176 298.226,37.176 298.226,36.576 284.226,36.576 284.226,37.176 283.426,37.176 283.426,49.976 284.226,49.976 284.226,50.576 " />
      <polygon
         id="polygon1430"
         style="fill:none;stroke:#000000;stroke-width:0.05mm"
         points="326.801,50.576 326.801,49.976 327.601,49.976 327.601,37.176 326.801,37.176 326.801,36.576 312.801,36.576 312.801,37.176 312.001,37.176 312.001,49.976 312.801,49.976 312.801,50.576 " />
      <polygon
         id="polygon1432"
         style="fill:none;stroke:#000000;stroke-width:0.05mm"
         points="345.851,50.576 345.851,49.976 346.651,49.976 346.651,37.176 345.851,37.176 345.851,36.576 331.851,36.576 331.851,37.176 331.051,37.176 331.051,49.976 331.851,49.976 331.851,50.576 " />
      <polygon
         id="polygon1434"
         style="fill:none;stroke:#000000;stroke-width:0.05mm"
         points="364.901,50.576 364.901,49.976 365.701,49.976 365.701,37.176 364.901,37.176 364.901,36.576 350.901,36.576 350.901,37.176 350.101,37.176 350.101,49.976 350.901,49.976 350.901,50.576 " />
      <polygon
         id="polygon1436"
         style="fill:none;stroke:#000000;stroke-width:0.05mm"
         points="383.951,50.576 383.951,49.976 384.751,49.976 384.751,37.176 383.951,37.176 383.951,36.576 369.951,36.576 369.951,37.176 369.151,37.176 369.151,49.976 369.951,49.976 369.951,50.576 " />
      <polygon
         id="polygon1438"
         style="fill:none;stroke:#000000;stroke-width:0.05mm"
         points="31.526,31.526 31.526,30.925 32.324,30.925 32.324,18.126 31.526,18.126 31.526,17.526 17.526,17.526 17.526,18.126 16.725,18.126 16.725,30.925 17.526,30.925 17.526,31.526 " />
      <polygon
         id="polygon1440"
         style="fill:none;stroke:#000000;stroke-width:0.05mm"
         points="50.576,31.526 50.576,30.925 51.376,30.925 51.376,18.126 50.576,18.126 50.576,17.526 36.576,17.526 36.576,18.126 35.776,18.126 35.776,30.925 36.576,30.925 36.576,31.526 " />
      <polygon
         id="polygon1442"
         style="fill:none;stroke:#000000;stroke-width:0.05mm"
         points="69.626,31.526 69.626,30.925 70.426,30.925 70.426,18.126 69.626,18.126 69.626,17.526 55.626,17.526 55.626,18.126 54.826,18.126 54.826,30.925 55.626,30.925 55.626,31.526 " />
      <polygon
         id="polygon1444"
         style="fill:none;stroke:#000000;stroke-width:0.05mm"
         points="88.676,31.526 88.676,30.925 89.476,30.925 89.476,18.126 88.676,18.126 88.676,17.526 74.676,17.526 74.676,18.126 73.876,18.126 73.876,30.925 74.676,30.925 74.676,31.526 " />
      <polygon
         id="polygon1446"
         style="fill:none;stroke:#000000;stroke-width:0.05mm"
         points="345.851,31.526 345.851,30.925 346.651,30.925 346.651,18.126 345.851,18.126 345.851,17.526 331.851,17.526 331.851,18.126 331.051,18.126 331.051,30.925 331.851,30.925 331.851,31.526 " />
      <polygon
         id="polygon1448"
         style="fill:none;stroke:#000000;stroke-width:0.05mm"
         points="364.901,31.526 364.901,30.925 365.701,30.925 365.701,18.126 364.901,18.126 364.901,17.526 350.901,17.526 350.901,18.126 350.101,18.126 350.101,30.925 350.901,30.925 350.901,31.526 " />
      <polygon
         id="polygon1450"
         style="fill:none;stroke:#000000;stroke-width:0.05mm"
         points="383.951,31.526 383.951,30.925 384.751,30.925 384.751,18.126 383.951,18.126 383.951,17.526 369.951,17.526 369.951,18.126 369.151,18.126 369.151,30.925 369.951,30.925 369.951,31.526 " />
      <polygon
         id="polygon1452"
         style="fill:none;stroke:#000000;stroke-width:0.05mm"
         points="452.378,10.735 452.654,11.012 453.003,11.189 453.389,11.251 453.775,11.189 454.124,11.012 454.4,10.735 454.578,10.387 454.639,10.001 454.578,9.614 454.4,9.266 454.124,8.989 453.775,8.812 453.389,8.751 453.003,8.812 452.654,8.989 452.378,9.266 452.2,9.614 452.139,10.001 452.2,10.387 " />
      <polygon
         id="polygon1454"
         style="fill:none;stroke:#000000;stroke-width:0.05mm"
         points="8.989,10.735 9.266,11.012 9.614,11.189 10.001,11.251 10.387,11.189 10.735,11.012 11.012,10.735 11.189,10.387 11.251,10.001 11.189,9.614 11.012,9.266 10.735,8.989 10.387,8.812 10.001,8.751 9.614,8.812 9.266,8.989 8.989,9.266 8.812,9.614 8.751,10.001 8.812,10.387 " />
    </g>
  </g>
</svg>
