G04 #@! TF.GenerationSoftware,KiCad,Pcbnew,(5.1.5)-3*
G04 #@! TF.CreationDate,2020-05-08T22:50:54-04:00*
G04 #@! TF.ProjectId,metropolislefty,6d657472-6f70-46f6-9c69-736c65667479,rev?*
G04 #@! TF.SameCoordinates,Original*
G04 #@! TF.FileFunction,Soldermask,Bot*
G04 #@! TF.FilePolarity,Negative*
%FSLAX46Y46*%
G04 Gerber Fmt 4.6, Leading zero omitted, Abs format (unit mm)*
G04 Created by KiCad (PCBNEW (5.1.5)-3) date 2020-05-08 22:50:54*
%MOMM*%
%LPD*%
G04 APERTURE LIST*
%ADD10C,0.100000*%
G04 APERTURE END LIST*
D10*
G36*
X82176000Y-125038500D02*
G01*
X78874000Y-125038500D01*
X78874000Y-122936500D01*
X82176000Y-122936500D01*
X82176000Y-125038500D01*
G37*
G36*
X96291978Y-121895453D02*
G01*
X96446850Y-121959603D01*
X96586231Y-122052735D01*
X96704765Y-122171269D01*
X96797897Y-122310650D01*
X96862047Y-122465522D01*
X96894750Y-122629934D01*
X96894750Y-122797566D01*
X96862047Y-122961978D01*
X96797897Y-123116850D01*
X96704765Y-123256231D01*
X96586231Y-123374765D01*
X96446850Y-123467897D01*
X96291978Y-123532047D01*
X96127566Y-123564750D01*
X95959934Y-123564750D01*
X95795522Y-123532047D01*
X95640650Y-123467897D01*
X95501269Y-123374765D01*
X95382735Y-123256231D01*
X95289603Y-123116850D01*
X95225453Y-122961978D01*
X95192750Y-122797566D01*
X95192750Y-122629934D01*
X95225453Y-122465522D01*
X95289603Y-122310650D01*
X95382735Y-122171269D01*
X95501269Y-122052735D01*
X95640650Y-121959603D01*
X95795522Y-121895453D01*
X95959934Y-121862750D01*
X96127566Y-121862750D01*
X96291978Y-121895453D01*
G37*
G36*
X92323228Y-121895453D02*
G01*
X92478100Y-121959603D01*
X92617481Y-122052735D01*
X92736015Y-122171269D01*
X92829147Y-122310650D01*
X92893297Y-122465522D01*
X92926000Y-122629934D01*
X92926000Y-122797566D01*
X92893297Y-122961978D01*
X92829147Y-123116850D01*
X92736015Y-123256231D01*
X92617481Y-123374765D01*
X92478100Y-123467897D01*
X92323228Y-123532047D01*
X92158816Y-123564750D01*
X91991184Y-123564750D01*
X91826772Y-123532047D01*
X91671900Y-123467897D01*
X91532519Y-123374765D01*
X91413985Y-123256231D01*
X91320853Y-123116850D01*
X91256703Y-122961978D01*
X91224000Y-122797566D01*
X91224000Y-122629934D01*
X91256703Y-122465522D01*
X91320853Y-122310650D01*
X91413985Y-122171269D01*
X91532519Y-122052735D01*
X91671900Y-121959603D01*
X91826772Y-121895453D01*
X91991184Y-121862750D01*
X92158816Y-121862750D01*
X92323228Y-121895453D01*
G37*
G36*
X73331564Y-119876889D02*
G01*
X73522833Y-119956115D01*
X73522835Y-119956116D01*
X73694973Y-120071135D01*
X73841365Y-120217527D01*
X73956385Y-120389667D01*
X74035611Y-120580936D01*
X74076000Y-120783984D01*
X74076000Y-120991016D01*
X74035611Y-121194064D01*
X73956385Y-121385333D01*
X73956384Y-121385335D01*
X73841365Y-121557473D01*
X73694973Y-121703865D01*
X73522835Y-121818884D01*
X73522834Y-121818885D01*
X73522833Y-121818885D01*
X73331564Y-121898111D01*
X73128516Y-121938500D01*
X72921484Y-121938500D01*
X72718436Y-121898111D01*
X72527167Y-121818885D01*
X72527166Y-121818885D01*
X72527165Y-121818884D01*
X72355027Y-121703865D01*
X72208635Y-121557473D01*
X72093616Y-121385335D01*
X72093615Y-121385333D01*
X72014389Y-121194064D01*
X71974000Y-120991016D01*
X71974000Y-120783984D01*
X72014389Y-120580936D01*
X72093615Y-120389667D01*
X72208635Y-120217527D01*
X72355027Y-120071135D01*
X72527165Y-119956116D01*
X72527167Y-119956115D01*
X72718436Y-119876889D01*
X72921484Y-119836500D01*
X73128516Y-119836500D01*
X73331564Y-119876889D01*
G37*
G36*
X87831564Y-119876889D02*
G01*
X88022833Y-119956115D01*
X88022835Y-119956116D01*
X88194973Y-120071135D01*
X88341365Y-120217527D01*
X88456385Y-120389667D01*
X88535611Y-120580936D01*
X88576000Y-120783984D01*
X88576000Y-120991016D01*
X88535611Y-121194064D01*
X88456385Y-121385333D01*
X88456384Y-121385335D01*
X88341365Y-121557473D01*
X88194973Y-121703865D01*
X88022835Y-121818884D01*
X88022834Y-121818885D01*
X88022833Y-121818885D01*
X87831564Y-121898111D01*
X87628516Y-121938500D01*
X87421484Y-121938500D01*
X87218436Y-121898111D01*
X87027167Y-121818885D01*
X87027166Y-121818885D01*
X87027165Y-121818884D01*
X86855027Y-121703865D01*
X86708635Y-121557473D01*
X86593616Y-121385335D01*
X86593615Y-121385333D01*
X86514389Y-121194064D01*
X86474000Y-120991016D01*
X86474000Y-120783984D01*
X86514389Y-120580936D01*
X86593615Y-120389667D01*
X86708635Y-120217527D01*
X86855027Y-120071135D01*
X87027165Y-119956116D01*
X87027167Y-119956115D01*
X87218436Y-119876889D01*
X87421484Y-119836500D01*
X87628516Y-119836500D01*
X87831564Y-119876889D01*
G37*
G36*
X66903218Y-118316065D02*
G01*
X66941888Y-118327796D01*
X66977527Y-118346846D01*
X67008767Y-118372483D01*
X67034404Y-118403723D01*
X67053454Y-118439362D01*
X67065185Y-118478032D01*
X67069750Y-118524388D01*
X67069750Y-119600612D01*
X67065185Y-119646968D01*
X67053454Y-119685638D01*
X67034404Y-119721277D01*
X67008767Y-119752517D01*
X66977527Y-119778154D01*
X66941888Y-119797204D01*
X66903218Y-119808935D01*
X66856862Y-119813500D01*
X66205638Y-119813500D01*
X66159282Y-119808935D01*
X66120612Y-119797204D01*
X66084973Y-119778154D01*
X66053733Y-119752517D01*
X66028096Y-119721277D01*
X66009046Y-119685638D01*
X65997315Y-119646968D01*
X65992750Y-119600612D01*
X65992750Y-118524388D01*
X65997315Y-118478032D01*
X66009046Y-118439362D01*
X66028096Y-118403723D01*
X66053733Y-118372483D01*
X66084973Y-118346846D01*
X66120612Y-118327796D01*
X66159282Y-118316065D01*
X66205638Y-118311500D01*
X66856862Y-118311500D01*
X66903218Y-118316065D01*
G37*
G36*
X68778218Y-118316065D02*
G01*
X68816888Y-118327796D01*
X68852527Y-118346846D01*
X68883767Y-118372483D01*
X68909404Y-118403723D01*
X68928454Y-118439362D01*
X68940185Y-118478032D01*
X68944750Y-118524388D01*
X68944750Y-119600612D01*
X68940185Y-119646968D01*
X68928454Y-119685638D01*
X68909404Y-119721277D01*
X68883767Y-119752517D01*
X68852527Y-119778154D01*
X68816888Y-119797204D01*
X68778218Y-119808935D01*
X68731862Y-119813500D01*
X68080638Y-119813500D01*
X68034282Y-119808935D01*
X67995612Y-119797204D01*
X67959973Y-119778154D01*
X67928733Y-119752517D01*
X67903096Y-119721277D01*
X67884046Y-119685638D01*
X67872315Y-119646968D01*
X67867750Y-119600612D01*
X67867750Y-118524388D01*
X67872315Y-118478032D01*
X67884046Y-118439362D01*
X67903096Y-118403723D01*
X67928733Y-118372483D01*
X67959973Y-118346846D01*
X67995612Y-118327796D01*
X68034282Y-118316065D01*
X68080638Y-118311500D01*
X68731862Y-118311500D01*
X68778218Y-118316065D01*
G37*
G36*
X73331564Y-117376889D02*
G01*
X73522833Y-117456115D01*
X73522835Y-117456116D01*
X73694973Y-117571135D01*
X73841365Y-117717527D01*
X73956385Y-117889667D01*
X74035611Y-118080936D01*
X74076000Y-118283984D01*
X74076000Y-118491016D01*
X74035611Y-118694064D01*
X73956385Y-118885333D01*
X73956384Y-118885335D01*
X73841365Y-119057473D01*
X73694973Y-119203865D01*
X73522835Y-119318884D01*
X73522834Y-119318885D01*
X73522833Y-119318885D01*
X73331564Y-119398111D01*
X73128516Y-119438500D01*
X72921484Y-119438500D01*
X72718436Y-119398111D01*
X72527167Y-119318885D01*
X72527166Y-119318885D01*
X72527165Y-119318884D01*
X72355027Y-119203865D01*
X72208635Y-119057473D01*
X72093616Y-118885335D01*
X72093615Y-118885333D01*
X72014389Y-118694064D01*
X71974000Y-118491016D01*
X71974000Y-118283984D01*
X72014389Y-118080936D01*
X72093615Y-117889667D01*
X72208635Y-117717527D01*
X72355027Y-117571135D01*
X72527165Y-117456116D01*
X72527167Y-117456115D01*
X72718436Y-117376889D01*
X72921484Y-117336500D01*
X73128516Y-117336500D01*
X73331564Y-117376889D01*
G37*
G36*
X87831564Y-114876889D02*
G01*
X88022833Y-114956115D01*
X88022835Y-114956116D01*
X88194973Y-115071135D01*
X88341365Y-115217527D01*
X88456385Y-115389667D01*
X88535611Y-115580936D01*
X88576000Y-115783984D01*
X88576000Y-115991016D01*
X88535611Y-116194064D01*
X88456385Y-116385333D01*
X88456384Y-116385335D01*
X88341365Y-116557473D01*
X88194973Y-116703865D01*
X88022835Y-116818884D01*
X88022834Y-116818885D01*
X88022833Y-116818885D01*
X87831564Y-116898111D01*
X87628516Y-116938500D01*
X87421484Y-116938500D01*
X87218436Y-116898111D01*
X87027167Y-116818885D01*
X87027166Y-116818885D01*
X87027165Y-116818884D01*
X86855027Y-116703865D01*
X86708635Y-116557473D01*
X86593616Y-116385335D01*
X86593615Y-116385333D01*
X86514389Y-116194064D01*
X86474000Y-115991016D01*
X86474000Y-115783984D01*
X86514389Y-115580936D01*
X86593615Y-115389667D01*
X86708635Y-115217527D01*
X86855027Y-115071135D01*
X87027165Y-114956116D01*
X87027167Y-114956115D01*
X87218436Y-114876889D01*
X87421484Y-114836500D01*
X87628516Y-114836500D01*
X87831564Y-114876889D01*
G37*
G36*
X74076000Y-116938500D02*
G01*
X71974000Y-116938500D01*
X71974000Y-114836500D01*
X74076000Y-114836500D01*
X74076000Y-116938500D01*
G37*
G36*
X96894750Y-115944750D02*
G01*
X95192750Y-115944750D01*
X95192750Y-114242750D01*
X96894750Y-114242750D01*
X96894750Y-115944750D01*
G37*
G36*
X92926000Y-115944750D02*
G01*
X91224000Y-115944750D01*
X91224000Y-114242750D01*
X92926000Y-114242750D01*
X92926000Y-115944750D01*
G37*
G36*
X107600175Y-113619488D02*
G01*
X107766460Y-113652563D01*
X107949086Y-113728209D01*
X108113444Y-113838030D01*
X108253220Y-113977806D01*
X108363041Y-114142164D01*
X108438687Y-114324790D01*
X108477250Y-114518664D01*
X108477250Y-114716336D01*
X108438687Y-114910210D01*
X108363041Y-115092836D01*
X108253220Y-115257194D01*
X108113444Y-115396970D01*
X107949086Y-115506791D01*
X107766460Y-115582437D01*
X107600175Y-115615512D01*
X107572587Y-115621000D01*
X107374913Y-115621000D01*
X107347325Y-115615512D01*
X107181040Y-115582437D01*
X106998414Y-115506791D01*
X106834056Y-115396970D01*
X106694280Y-115257194D01*
X106584459Y-115092836D01*
X106508813Y-114910210D01*
X106470250Y-114716336D01*
X106470250Y-114518664D01*
X106508813Y-114324790D01*
X106584459Y-114142164D01*
X106694280Y-113977806D01*
X106834056Y-113838030D01*
X106998414Y-113728209D01*
X107181040Y-113652563D01*
X107347325Y-113619488D01*
X107374913Y-113614000D01*
X107572587Y-113614000D01*
X107600175Y-113619488D01*
G37*
G36*
X128237675Y-113619488D02*
G01*
X128403960Y-113652563D01*
X128586586Y-113728209D01*
X128750944Y-113838030D01*
X128890720Y-113977806D01*
X129000541Y-114142164D01*
X129076187Y-114324790D01*
X129114750Y-114518664D01*
X129114750Y-114716336D01*
X129076187Y-114910210D01*
X129000541Y-115092836D01*
X128890720Y-115257194D01*
X128750944Y-115396970D01*
X128586586Y-115506791D01*
X128403960Y-115582437D01*
X128237675Y-115615512D01*
X128210087Y-115621000D01*
X128012413Y-115621000D01*
X127984825Y-115615512D01*
X127818540Y-115582437D01*
X127635914Y-115506791D01*
X127471556Y-115396970D01*
X127331780Y-115257194D01*
X127221959Y-115092836D01*
X127146313Y-114910210D01*
X127107750Y-114716336D01*
X127107750Y-114518664D01*
X127146313Y-114324790D01*
X127221959Y-114142164D01*
X127331780Y-113977806D01*
X127471556Y-113838030D01*
X127635914Y-113728209D01*
X127818540Y-113652563D01*
X127984825Y-113619488D01*
X128012413Y-113614000D01*
X128210087Y-113614000D01*
X128237675Y-113619488D01*
G37*
G36*
X131654750Y-115621000D02*
G01*
X129647750Y-115621000D01*
X129647750Y-113614000D01*
X131654750Y-113614000D01*
X131654750Y-115621000D01*
G37*
G36*
X111017250Y-115621000D02*
G01*
X109010250Y-115621000D01*
X109010250Y-113614000D01*
X111017250Y-113614000D01*
X111017250Y-115621000D01*
G37*
G36*
X82176000Y-113838500D02*
G01*
X78874000Y-113838500D01*
X78874000Y-111736500D01*
X82176000Y-111736500D01*
X82176000Y-113838500D01*
G37*
G36*
X86309468Y-110734815D02*
G01*
X86348138Y-110746546D01*
X86383777Y-110765596D01*
X86415017Y-110791233D01*
X86440654Y-110822473D01*
X86459704Y-110858112D01*
X86471435Y-110896782D01*
X86476000Y-110943138D01*
X86476000Y-111594362D01*
X86471435Y-111640718D01*
X86459704Y-111679388D01*
X86440654Y-111715027D01*
X86415017Y-111746267D01*
X86383777Y-111771904D01*
X86348138Y-111790954D01*
X86309468Y-111802685D01*
X86263112Y-111807250D01*
X85186888Y-111807250D01*
X85140532Y-111802685D01*
X85101862Y-111790954D01*
X85066223Y-111771904D01*
X85034983Y-111746267D01*
X85009346Y-111715027D01*
X84990296Y-111679388D01*
X84978565Y-111640718D01*
X84974000Y-111594362D01*
X84974000Y-110943138D01*
X84978565Y-110896782D01*
X84990296Y-110858112D01*
X85009346Y-110822473D01*
X85034983Y-110791233D01*
X85066223Y-110765596D01*
X85101862Y-110746546D01*
X85140532Y-110734815D01*
X85186888Y-110730250D01*
X86263112Y-110730250D01*
X86309468Y-110734815D01*
G37*
G36*
X89484468Y-110734815D02*
G01*
X89523138Y-110746546D01*
X89558777Y-110765596D01*
X89590017Y-110791233D01*
X89615654Y-110822473D01*
X89634704Y-110858112D01*
X89646435Y-110896782D01*
X89651000Y-110943138D01*
X89651000Y-111594362D01*
X89646435Y-111640718D01*
X89634704Y-111679388D01*
X89615654Y-111715027D01*
X89590017Y-111746267D01*
X89558777Y-111771904D01*
X89523138Y-111790954D01*
X89484468Y-111802685D01*
X89438112Y-111807250D01*
X88361888Y-111807250D01*
X88315532Y-111802685D01*
X88276862Y-111790954D01*
X88241223Y-111771904D01*
X88209983Y-111746267D01*
X88184346Y-111715027D01*
X88165296Y-111679388D01*
X88153565Y-111640718D01*
X88149000Y-111594362D01*
X88149000Y-110943138D01*
X88153565Y-110896782D01*
X88165296Y-110858112D01*
X88184346Y-110822473D01*
X88209983Y-110791233D01*
X88241223Y-110765596D01*
X88276862Y-110746546D01*
X88315532Y-110734815D01*
X88361888Y-110730250D01*
X89438112Y-110730250D01*
X89484468Y-110734815D01*
G37*
G36*
X129977724Y-107571184D02*
G01*
X130195724Y-107661483D01*
X130349873Y-107725333D01*
X130684798Y-107949123D01*
X130969627Y-108233952D01*
X131193417Y-108568877D01*
X131225812Y-108647086D01*
X131347566Y-108941026D01*
X131426150Y-109336094D01*
X131426150Y-109738906D01*
X131347566Y-110133974D01*
X131296701Y-110256772D01*
X131193417Y-110506123D01*
X130969627Y-110841048D01*
X130684798Y-111125877D01*
X130349873Y-111349667D01*
X130195724Y-111413517D01*
X129977724Y-111503816D01*
X129582656Y-111582400D01*
X129179844Y-111582400D01*
X128784776Y-111503816D01*
X128566776Y-111413517D01*
X128412627Y-111349667D01*
X128077702Y-111125877D01*
X127792873Y-110841048D01*
X127569083Y-110506123D01*
X127465799Y-110256772D01*
X127414934Y-110133974D01*
X127336350Y-109738906D01*
X127336350Y-109336094D01*
X127414934Y-108941026D01*
X127536688Y-108647086D01*
X127569083Y-108568877D01*
X127792873Y-108233952D01*
X128077702Y-107949123D01*
X128412627Y-107725333D01*
X128566776Y-107661483D01*
X128784776Y-107571184D01*
X129179844Y-107492600D01*
X129582656Y-107492600D01*
X129977724Y-107571184D01*
G37*
G36*
X109340224Y-107571184D02*
G01*
X109558224Y-107661483D01*
X109712373Y-107725333D01*
X110047298Y-107949123D01*
X110332127Y-108233952D01*
X110555917Y-108568877D01*
X110588312Y-108647086D01*
X110710066Y-108941026D01*
X110788650Y-109336094D01*
X110788650Y-109738906D01*
X110710066Y-110133974D01*
X110659201Y-110256772D01*
X110555917Y-110506123D01*
X110332127Y-110841048D01*
X110047298Y-111125877D01*
X109712373Y-111349667D01*
X109558224Y-111413517D01*
X109340224Y-111503816D01*
X108945156Y-111582400D01*
X108542344Y-111582400D01*
X108147276Y-111503816D01*
X107929276Y-111413517D01*
X107775127Y-111349667D01*
X107440202Y-111125877D01*
X107155373Y-110841048D01*
X106931583Y-110506123D01*
X106828299Y-110256772D01*
X106777434Y-110133974D01*
X106698850Y-109738906D01*
X106698850Y-109336094D01*
X106777434Y-108941026D01*
X106899188Y-108647086D01*
X106931583Y-108568877D01*
X107155373Y-108233952D01*
X107440202Y-107949123D01*
X107775127Y-107725333D01*
X107929276Y-107661483D01*
X108147276Y-107571184D01*
X108542344Y-107492600D01*
X108945156Y-107492600D01*
X109340224Y-107571184D01*
G37*
G36*
X65315718Y-109584815D02*
G01*
X65354388Y-109596546D01*
X65390027Y-109615596D01*
X65421267Y-109641233D01*
X65446904Y-109672473D01*
X65465954Y-109708112D01*
X65477685Y-109746782D01*
X65482250Y-109793138D01*
X65482250Y-110869362D01*
X65477685Y-110915718D01*
X65465954Y-110954388D01*
X65446904Y-110990027D01*
X65421267Y-111021267D01*
X65390027Y-111046904D01*
X65354388Y-111065954D01*
X65315718Y-111077685D01*
X65269362Y-111082250D01*
X64618138Y-111082250D01*
X64571782Y-111077685D01*
X64533112Y-111065954D01*
X64497473Y-111046904D01*
X64466233Y-111021267D01*
X64440596Y-110990027D01*
X64421546Y-110954388D01*
X64409815Y-110915718D01*
X64405250Y-110869362D01*
X64405250Y-109793138D01*
X64409815Y-109746782D01*
X64421546Y-109708112D01*
X64440596Y-109672473D01*
X64466233Y-109641233D01*
X64497473Y-109615596D01*
X64533112Y-109596546D01*
X64571782Y-109584815D01*
X64618138Y-109580250D01*
X65269362Y-109580250D01*
X65315718Y-109584815D01*
G37*
G36*
X67190718Y-109584815D02*
G01*
X67229388Y-109596546D01*
X67265027Y-109615596D01*
X67296267Y-109641233D01*
X67321904Y-109672473D01*
X67340954Y-109708112D01*
X67352685Y-109746782D01*
X67357250Y-109793138D01*
X67357250Y-110869362D01*
X67352685Y-110915718D01*
X67340954Y-110954388D01*
X67321904Y-110990027D01*
X67296267Y-111021267D01*
X67265027Y-111046904D01*
X67229388Y-111065954D01*
X67190718Y-111077685D01*
X67144362Y-111082250D01*
X66493138Y-111082250D01*
X66446782Y-111077685D01*
X66408112Y-111065954D01*
X66372473Y-111046904D01*
X66341233Y-111021267D01*
X66315596Y-110990027D01*
X66296546Y-110954388D01*
X66284815Y-110915718D01*
X66280250Y-110869362D01*
X66280250Y-109793138D01*
X66284815Y-109746782D01*
X66296546Y-109708112D01*
X66315596Y-109672473D01*
X66341233Y-109641233D01*
X66372473Y-109615596D01*
X66408112Y-109596546D01*
X66446782Y-109584815D01*
X66493138Y-109580250D01*
X67144362Y-109580250D01*
X67190718Y-109584815D01*
G37*
G36*
X83928218Y-109941065D02*
G01*
X83966888Y-109952796D01*
X84002527Y-109971846D01*
X84033767Y-109997483D01*
X84059404Y-110028723D01*
X84078454Y-110064362D01*
X84090185Y-110103032D01*
X84094750Y-110149388D01*
X84094750Y-110800612D01*
X84090185Y-110846968D01*
X84078454Y-110885638D01*
X84059404Y-110921277D01*
X84033767Y-110952517D01*
X84002527Y-110978154D01*
X83966888Y-110997204D01*
X83928218Y-111008935D01*
X83881862Y-111013500D01*
X82805638Y-111013500D01*
X82759282Y-111008935D01*
X82720612Y-110997204D01*
X82684973Y-110978154D01*
X82653733Y-110952517D01*
X82628096Y-110921277D01*
X82609046Y-110885638D01*
X82597315Y-110846968D01*
X82592750Y-110800612D01*
X82592750Y-110149388D01*
X82597315Y-110103032D01*
X82609046Y-110064362D01*
X82628096Y-110028723D01*
X82653733Y-109997483D01*
X82684973Y-109971846D01*
X82720612Y-109952796D01*
X82759282Y-109941065D01*
X82805638Y-109936500D01*
X83881862Y-109936500D01*
X83928218Y-109941065D01*
G37*
G36*
X134731354Y-108647085D02*
G01*
X134899876Y-108716889D01*
X135051541Y-108818228D01*
X135180522Y-108947209D01*
X135281861Y-109098874D01*
X135351665Y-109267396D01*
X135387250Y-109446297D01*
X135387250Y-109628703D01*
X135351665Y-109807604D01*
X135281861Y-109976126D01*
X135180522Y-110127791D01*
X135051541Y-110256772D01*
X134899876Y-110358111D01*
X134731354Y-110427915D01*
X134552453Y-110463500D01*
X134370047Y-110463500D01*
X134191146Y-110427915D01*
X134022624Y-110358111D01*
X133870959Y-110256772D01*
X133741978Y-110127791D01*
X133640639Y-109976126D01*
X133570835Y-109807604D01*
X133535250Y-109628703D01*
X133535250Y-109446297D01*
X133570835Y-109267396D01*
X133640639Y-109098874D01*
X133741978Y-108947209D01*
X133870959Y-108818228D01*
X134022624Y-108716889D01*
X134191146Y-108647085D01*
X134370047Y-108611500D01*
X134552453Y-108611500D01*
X134731354Y-108647085D01*
G37*
G36*
X114093854Y-108647085D02*
G01*
X114262376Y-108716889D01*
X114414041Y-108818228D01*
X114543022Y-108947209D01*
X114644361Y-109098874D01*
X114714165Y-109267396D01*
X114749750Y-109446297D01*
X114749750Y-109628703D01*
X114714165Y-109807604D01*
X114644361Y-109976126D01*
X114543022Y-110127791D01*
X114414041Y-110256772D01*
X114262376Y-110358111D01*
X114093854Y-110427915D01*
X113914953Y-110463500D01*
X113732547Y-110463500D01*
X113553646Y-110427915D01*
X113385124Y-110358111D01*
X113233459Y-110256772D01*
X113104478Y-110127791D01*
X113003139Y-109976126D01*
X112933335Y-109807604D01*
X112897750Y-109628703D01*
X112897750Y-109446297D01*
X112933335Y-109267396D01*
X113003139Y-109098874D01*
X113104478Y-108947209D01*
X113233459Y-108818228D01*
X113385124Y-108716889D01*
X113553646Y-108647085D01*
X113732547Y-108611500D01*
X113914953Y-108611500D01*
X114093854Y-108647085D01*
G37*
G36*
X124571354Y-108647085D02*
G01*
X124739876Y-108716889D01*
X124891541Y-108818228D01*
X125020522Y-108947209D01*
X125121861Y-109098874D01*
X125191665Y-109267396D01*
X125227250Y-109446297D01*
X125227250Y-109628703D01*
X125191665Y-109807604D01*
X125121861Y-109976126D01*
X125020522Y-110127791D01*
X124891541Y-110256772D01*
X124739876Y-110358111D01*
X124571354Y-110427915D01*
X124392453Y-110463500D01*
X124210047Y-110463500D01*
X124031146Y-110427915D01*
X123862624Y-110358111D01*
X123710959Y-110256772D01*
X123581978Y-110127791D01*
X123480639Y-109976126D01*
X123410835Y-109807604D01*
X123375250Y-109628703D01*
X123375250Y-109446297D01*
X123410835Y-109267396D01*
X123480639Y-109098874D01*
X123581978Y-108947209D01*
X123710959Y-108818228D01*
X123862624Y-108716889D01*
X124031146Y-108647085D01*
X124210047Y-108611500D01*
X124392453Y-108611500D01*
X124571354Y-108647085D01*
G37*
G36*
X103933854Y-108647085D02*
G01*
X104102376Y-108716889D01*
X104254041Y-108818228D01*
X104383022Y-108947209D01*
X104484361Y-109098874D01*
X104554165Y-109267396D01*
X104589750Y-109446297D01*
X104589750Y-109628703D01*
X104554165Y-109807604D01*
X104484361Y-109976126D01*
X104383022Y-110127791D01*
X104254041Y-110256772D01*
X104102376Y-110358111D01*
X103933854Y-110427915D01*
X103754953Y-110463500D01*
X103572547Y-110463500D01*
X103393646Y-110427915D01*
X103225124Y-110358111D01*
X103073459Y-110256772D01*
X102944478Y-110127791D01*
X102843139Y-109976126D01*
X102773335Y-109807604D01*
X102737750Y-109628703D01*
X102737750Y-109446297D01*
X102773335Y-109267396D01*
X102843139Y-109098874D01*
X102944478Y-108947209D01*
X103073459Y-108818228D01*
X103225124Y-108716889D01*
X103393646Y-108647085D01*
X103572547Y-108611500D01*
X103754953Y-108611500D01*
X103933854Y-108647085D01*
G37*
G36*
X89484468Y-108859815D02*
G01*
X89523138Y-108871546D01*
X89558777Y-108890596D01*
X89590017Y-108916233D01*
X89615654Y-108947473D01*
X89634704Y-108983112D01*
X89646435Y-109021782D01*
X89651000Y-109068138D01*
X89651000Y-109719362D01*
X89646435Y-109765718D01*
X89634704Y-109804388D01*
X89615654Y-109840027D01*
X89590017Y-109871267D01*
X89558777Y-109896904D01*
X89523138Y-109915954D01*
X89484468Y-109927685D01*
X89438112Y-109932250D01*
X88361888Y-109932250D01*
X88315532Y-109927685D01*
X88276862Y-109915954D01*
X88241223Y-109896904D01*
X88209983Y-109871267D01*
X88184346Y-109840027D01*
X88165296Y-109804388D01*
X88153565Y-109765718D01*
X88149000Y-109719362D01*
X88149000Y-109068138D01*
X88153565Y-109021782D01*
X88165296Y-108983112D01*
X88184346Y-108947473D01*
X88209983Y-108916233D01*
X88241223Y-108890596D01*
X88276862Y-108871546D01*
X88315532Y-108859815D01*
X88361888Y-108855250D01*
X89438112Y-108855250D01*
X89484468Y-108859815D01*
G37*
G36*
X86309468Y-108859815D02*
G01*
X86348138Y-108871546D01*
X86383777Y-108890596D01*
X86415017Y-108916233D01*
X86440654Y-108947473D01*
X86459704Y-108983112D01*
X86471435Y-109021782D01*
X86476000Y-109068138D01*
X86476000Y-109719362D01*
X86471435Y-109765718D01*
X86459704Y-109804388D01*
X86440654Y-109840027D01*
X86415017Y-109871267D01*
X86383777Y-109896904D01*
X86348138Y-109915954D01*
X86309468Y-109927685D01*
X86263112Y-109932250D01*
X85186888Y-109932250D01*
X85140532Y-109927685D01*
X85101862Y-109915954D01*
X85066223Y-109896904D01*
X85034983Y-109871267D01*
X85009346Y-109840027D01*
X84990296Y-109804388D01*
X84978565Y-109765718D01*
X84974000Y-109719362D01*
X84974000Y-109068138D01*
X84978565Y-109021782D01*
X84990296Y-108983112D01*
X85009346Y-108947473D01*
X85034983Y-108916233D01*
X85066223Y-108890596D01*
X85101862Y-108871546D01*
X85140532Y-108859815D01*
X85186888Y-108855250D01*
X86263112Y-108855250D01*
X86309468Y-108859815D01*
G37*
G36*
X83928218Y-108066065D02*
G01*
X83966888Y-108077796D01*
X84002527Y-108096846D01*
X84033767Y-108122483D01*
X84059404Y-108153723D01*
X84078454Y-108189362D01*
X84090185Y-108228032D01*
X84094750Y-108274388D01*
X84094750Y-108925612D01*
X84090185Y-108971968D01*
X84078454Y-109010638D01*
X84059404Y-109046277D01*
X84033767Y-109077517D01*
X84002527Y-109103154D01*
X83966888Y-109122204D01*
X83928218Y-109133935D01*
X83881862Y-109138500D01*
X82805638Y-109138500D01*
X82759282Y-109133935D01*
X82720612Y-109122204D01*
X82684973Y-109103154D01*
X82653733Y-109077517D01*
X82628096Y-109046277D01*
X82609046Y-109010638D01*
X82597315Y-108971968D01*
X82592750Y-108925612D01*
X82592750Y-108274388D01*
X82597315Y-108228032D01*
X82609046Y-108189362D01*
X82628096Y-108153723D01*
X82653733Y-108122483D01*
X82684973Y-108096846D01*
X82720612Y-108077796D01*
X82759282Y-108066065D01*
X82805638Y-108061500D01*
X83881862Y-108061500D01*
X83928218Y-108066065D01*
G37*
G36*
X73609468Y-107559815D02*
G01*
X73648138Y-107571546D01*
X73683777Y-107590596D01*
X73715017Y-107616233D01*
X73740654Y-107647473D01*
X73759704Y-107683112D01*
X73771435Y-107721782D01*
X73776000Y-107768138D01*
X73776000Y-108419362D01*
X73771435Y-108465718D01*
X73759704Y-108504388D01*
X73740654Y-108540027D01*
X73715017Y-108571267D01*
X73683777Y-108596904D01*
X73648138Y-108615954D01*
X73609468Y-108627685D01*
X73563112Y-108632250D01*
X72486888Y-108632250D01*
X72440532Y-108627685D01*
X72401862Y-108615954D01*
X72366223Y-108596904D01*
X72334983Y-108571267D01*
X72309346Y-108540027D01*
X72290296Y-108504388D01*
X72278565Y-108465718D01*
X72274000Y-108419362D01*
X72274000Y-107768138D01*
X72278565Y-107721782D01*
X72290296Y-107683112D01*
X72309346Y-107647473D01*
X72334983Y-107616233D01*
X72366223Y-107590596D01*
X72401862Y-107571546D01*
X72440532Y-107559815D01*
X72486888Y-107555250D01*
X73563112Y-107555250D01*
X73609468Y-107559815D01*
G37*
G36*
X126904455Y-104361381D02*
G01*
X126909895Y-104361500D01*
X126997078Y-104361500D01*
X127013347Y-104364736D01*
X127032206Y-104367015D01*
X127048782Y-104367746D01*
X127133473Y-104388510D01*
X127138768Y-104389684D01*
X127224277Y-104406693D01*
X127239612Y-104413045D01*
X127257651Y-104418955D01*
X127273771Y-104422907D01*
X127352754Y-104459780D01*
X127357744Y-104461977D01*
X127438295Y-104495342D01*
X127452091Y-104504560D01*
X127468643Y-104513882D01*
X127483676Y-104520900D01*
X127553944Y-104572471D01*
X127558442Y-104575622D01*
X127630906Y-104624041D01*
X127642633Y-104635768D01*
X127657059Y-104648148D01*
X127670429Y-104657961D01*
X127670430Y-104657962D01*
X127729271Y-104722233D01*
X127733079Y-104726214D01*
X127794709Y-104787844D01*
X127803924Y-104801635D01*
X127815646Y-104816578D01*
X127826855Y-104828821D01*
X127872049Y-104903374D01*
X127874996Y-104908001D01*
X127923408Y-104980455D01*
X127929755Y-104995777D01*
X127938342Y-105012731D01*
X127946941Y-105026917D01*
X127976728Y-105108868D01*
X127978702Y-105113948D01*
X128012057Y-105194473D01*
X128012057Y-105194474D01*
X128015291Y-105210733D01*
X128020408Y-105229042D01*
X128026075Y-105244634D01*
X128039305Y-105330845D01*
X128040251Y-105336213D01*
X128057250Y-105421673D01*
X128057250Y-105438252D01*
X128058694Y-105457192D01*
X128061213Y-105473604D01*
X128057370Y-105560749D01*
X128057250Y-105566189D01*
X128057250Y-105653325D01*
X128054016Y-105669583D01*
X128051738Y-105688441D01*
X128051006Y-105705031D01*
X128030238Y-105789737D01*
X128029062Y-105795037D01*
X128012057Y-105880527D01*
X128005707Y-105895857D01*
X127999799Y-105913893D01*
X127995845Y-105930020D01*
X127958961Y-106009026D01*
X127956761Y-106014023D01*
X127923408Y-106094545D01*
X127914194Y-106108335D01*
X127904872Y-106124887D01*
X127897852Y-106139924D01*
X127846261Y-106210220D01*
X127843116Y-106214710D01*
X127794711Y-106287154D01*
X127737710Y-106344155D01*
X127733061Y-106349063D01*
X127398525Y-106721904D01*
X126407973Y-107825876D01*
X126279929Y-107943102D01*
X126180881Y-108003145D01*
X126081833Y-108063189D01*
X125864116Y-108142323D01*
X125635145Y-108177461D01*
X125403720Y-108167254D01*
X125178731Y-108112093D01*
X125081442Y-108066674D01*
X124968829Y-108014102D01*
X124872088Y-107943102D01*
X124782073Y-107877039D01*
X124682373Y-107768138D01*
X124625648Y-107706179D01*
X124555581Y-107590596D01*
X124505561Y-107508083D01*
X124426427Y-107290366D01*
X124391289Y-107061395D01*
X124401496Y-106829970D01*
X124456657Y-106604981D01*
X124511269Y-106488000D01*
X124554648Y-106395080D01*
X124554650Y-106395077D01*
X124657364Y-106255122D01*
X125412495Y-105413527D01*
X125944037Y-104821121D01*
X125954931Y-104807089D01*
X125967789Y-104787846D01*
X126024823Y-104730812D01*
X126029473Y-104725903D01*
X126044528Y-104709124D01*
X126065951Y-104689511D01*
X126069932Y-104685703D01*
X126131596Y-104624039D01*
X126145393Y-104614820D01*
X126160352Y-104603085D01*
X126172571Y-104591898D01*
X126206588Y-104571277D01*
X126247080Y-104546731D01*
X126251671Y-104543808D01*
X126324205Y-104495342D01*
X126339550Y-104488986D01*
X126356498Y-104480401D01*
X126370666Y-104471812D01*
X126370667Y-104471812D01*
X126370668Y-104471811D01*
X126452562Y-104442045D01*
X126457660Y-104440063D01*
X126538223Y-104406693D01*
X126554502Y-104403455D01*
X126572792Y-104398344D01*
X126588385Y-104392677D01*
X126674550Y-104379454D01*
X126679913Y-104378509D01*
X126765423Y-104361500D01*
X126782016Y-104361500D01*
X126800959Y-104360055D01*
X126817356Y-104357539D01*
X126904455Y-104361381D01*
G37*
G36*
X106266955Y-104361381D02*
G01*
X106272395Y-104361500D01*
X106359578Y-104361500D01*
X106375847Y-104364736D01*
X106394706Y-104367015D01*
X106411282Y-104367746D01*
X106495973Y-104388510D01*
X106501268Y-104389684D01*
X106586777Y-104406693D01*
X106602112Y-104413045D01*
X106620151Y-104418955D01*
X106636271Y-104422907D01*
X106715254Y-104459780D01*
X106720244Y-104461977D01*
X106800795Y-104495342D01*
X106814591Y-104504560D01*
X106831143Y-104513882D01*
X106846176Y-104520900D01*
X106916444Y-104572471D01*
X106920942Y-104575622D01*
X106993406Y-104624041D01*
X107005133Y-104635768D01*
X107019559Y-104648148D01*
X107032929Y-104657961D01*
X107032930Y-104657962D01*
X107091771Y-104722233D01*
X107095579Y-104726214D01*
X107157209Y-104787844D01*
X107166424Y-104801635D01*
X107178146Y-104816578D01*
X107189355Y-104828821D01*
X107234549Y-104903374D01*
X107237496Y-104908001D01*
X107285908Y-104980455D01*
X107292255Y-104995777D01*
X107300842Y-105012731D01*
X107309441Y-105026917D01*
X107339228Y-105108868D01*
X107341202Y-105113948D01*
X107374557Y-105194473D01*
X107374557Y-105194474D01*
X107377791Y-105210733D01*
X107382908Y-105229042D01*
X107388575Y-105244634D01*
X107401805Y-105330845D01*
X107402751Y-105336213D01*
X107419750Y-105421673D01*
X107419750Y-105438252D01*
X107421194Y-105457192D01*
X107423713Y-105473604D01*
X107419870Y-105560749D01*
X107419750Y-105566189D01*
X107419750Y-105653325D01*
X107416516Y-105669583D01*
X107414238Y-105688441D01*
X107413506Y-105705031D01*
X107392738Y-105789737D01*
X107391562Y-105795037D01*
X107374557Y-105880527D01*
X107368207Y-105895857D01*
X107362299Y-105913893D01*
X107358345Y-105930020D01*
X107321461Y-106009026D01*
X107319261Y-106014023D01*
X107285908Y-106094545D01*
X107276694Y-106108335D01*
X107267372Y-106124887D01*
X107260352Y-106139924D01*
X107208761Y-106210220D01*
X107205616Y-106214710D01*
X107157211Y-106287154D01*
X107100210Y-106344155D01*
X107095561Y-106349063D01*
X106761025Y-106721904D01*
X105770473Y-107825876D01*
X105642429Y-107943102D01*
X105543381Y-108003145D01*
X105444333Y-108063189D01*
X105226616Y-108142323D01*
X104997645Y-108177461D01*
X104766220Y-108167254D01*
X104541231Y-108112093D01*
X104443942Y-108066674D01*
X104331329Y-108014102D01*
X104234588Y-107943102D01*
X104144573Y-107877039D01*
X104044873Y-107768138D01*
X103988148Y-107706179D01*
X103918081Y-107590596D01*
X103868061Y-107508083D01*
X103788927Y-107290366D01*
X103753789Y-107061395D01*
X103763996Y-106829970D01*
X103819157Y-106604981D01*
X103873769Y-106488000D01*
X103917148Y-106395080D01*
X103917150Y-106395077D01*
X104019864Y-106255122D01*
X104774995Y-105413527D01*
X105306537Y-104821121D01*
X105317431Y-104807089D01*
X105330289Y-104787846D01*
X105387323Y-104730812D01*
X105391973Y-104725903D01*
X105407028Y-104709124D01*
X105428451Y-104689511D01*
X105432432Y-104685703D01*
X105494096Y-104624039D01*
X105507893Y-104614820D01*
X105522852Y-104603085D01*
X105535071Y-104591898D01*
X105569088Y-104571277D01*
X105609580Y-104546731D01*
X105614171Y-104543808D01*
X105686705Y-104495342D01*
X105702050Y-104488986D01*
X105718998Y-104480401D01*
X105733166Y-104471812D01*
X105733167Y-104471812D01*
X105733168Y-104471811D01*
X105815062Y-104442045D01*
X105820160Y-104440063D01*
X105900723Y-104406693D01*
X105917002Y-104403455D01*
X105935292Y-104398344D01*
X105950885Y-104392677D01*
X106037050Y-104379454D01*
X106042413Y-104378509D01*
X106127923Y-104361500D01*
X106144516Y-104361500D01*
X106163459Y-104360055D01*
X106179856Y-104357539D01*
X106266955Y-104361381D01*
G37*
G36*
X73609468Y-105684815D02*
G01*
X73648138Y-105696546D01*
X73683777Y-105715596D01*
X73715017Y-105741233D01*
X73740654Y-105772473D01*
X73759704Y-105808112D01*
X73771435Y-105846782D01*
X73776000Y-105893138D01*
X73776000Y-106544362D01*
X73771435Y-106590718D01*
X73759704Y-106629388D01*
X73740654Y-106665027D01*
X73715017Y-106696267D01*
X73683777Y-106721904D01*
X73648138Y-106740954D01*
X73609468Y-106752685D01*
X73563112Y-106757250D01*
X72486888Y-106757250D01*
X72440532Y-106752685D01*
X72401862Y-106740954D01*
X72366223Y-106721904D01*
X72334983Y-106696267D01*
X72309346Y-106665027D01*
X72290296Y-106629388D01*
X72278565Y-106590718D01*
X72274000Y-106544362D01*
X72274000Y-105893138D01*
X72278565Y-105846782D01*
X72290296Y-105808112D01*
X72309346Y-105772473D01*
X72334983Y-105741233D01*
X72366223Y-105715596D01*
X72401862Y-105696546D01*
X72440532Y-105684815D01*
X72486888Y-105680250D01*
X73563112Y-105680250D01*
X73609468Y-105684815D01*
G37*
G36*
X87326000Y-106513500D02*
G01*
X78674000Y-106513500D01*
X78674000Y-104911500D01*
X87326000Y-104911500D01*
X87326000Y-106513500D01*
G37*
G36*
X111371877Y-103279761D02*
G01*
X111392650Y-103281500D01*
X111399577Y-103281500D01*
X111494504Y-103300382D01*
X111498098Y-103301042D01*
X111593480Y-103317124D01*
X111599953Y-103319585D01*
X111619978Y-103325341D01*
X111626777Y-103326693D01*
X111689164Y-103352534D01*
X111716193Y-103363730D01*
X111719594Y-103365081D01*
X111810005Y-103399461D01*
X111815877Y-103403140D01*
X111834386Y-103412687D01*
X111840795Y-103415342D01*
X111921313Y-103469142D01*
X111924304Y-103471078D01*
X112006307Y-103522459D01*
X112011334Y-103527200D01*
X112027646Y-103540191D01*
X112033402Y-103544037D01*
X112101860Y-103612495D01*
X112104439Y-103614999D01*
X112174840Y-103681389D01*
X112178476Y-103686500D01*
X112178845Y-103687019D01*
X112192309Y-103702944D01*
X112197209Y-103707844D01*
X112250994Y-103788339D01*
X112253041Y-103791307D01*
X112309130Y-103870145D01*
X112311964Y-103876458D01*
X112322058Y-103894693D01*
X112325908Y-103900455D01*
X112362970Y-103989930D01*
X112364374Y-103993185D01*
X112404015Y-104081473D01*
X112405565Y-104088225D01*
X112411902Y-104108062D01*
X112414557Y-104114473D01*
X112433442Y-104209417D01*
X112434188Y-104212901D01*
X112455848Y-104307251D01*
X112455848Y-104307254D01*
X112456050Y-104314154D01*
X112458397Y-104334870D01*
X112459750Y-104341674D01*
X112459750Y-104438486D01*
X112459803Y-104442084D01*
X112460938Y-104480777D01*
X112460045Y-104493725D01*
X112459750Y-104502297D01*
X112459750Y-104573326D01*
X112453831Y-104603085D01*
X112453354Y-104605479D01*
X112451250Y-104621250D01*
X112412988Y-105176045D01*
X112384126Y-105347230D01*
X112301788Y-105563755D01*
X112178791Y-105760057D01*
X112019861Y-105928590D01*
X111831105Y-106062880D01*
X111619777Y-106157765D01*
X111393999Y-106209598D01*
X111162448Y-106216389D01*
X111162447Y-106216389D01*
X111116762Y-106208686D01*
X110934020Y-106177876D01*
X110717495Y-106095538D01*
X110521193Y-105972541D01*
X110352660Y-105813611D01*
X110218370Y-105624855D01*
X110123485Y-105413527D01*
X110071652Y-105187749D01*
X110066562Y-105014223D01*
X110107454Y-104421294D01*
X110107750Y-104412696D01*
X110107750Y-104341674D01*
X110126638Y-104246719D01*
X110127294Y-104243145D01*
X110132981Y-104209417D01*
X110143374Y-104147770D01*
X110145835Y-104141299D01*
X110151592Y-104121267D01*
X110152943Y-104114474D01*
X110155593Y-104108076D01*
X110190014Y-104024976D01*
X110191303Y-104021730D01*
X110225712Y-103931245D01*
X110229386Y-103925381D01*
X110238937Y-103906865D01*
X110241592Y-103900455D01*
X110295407Y-103819915D01*
X110297327Y-103816949D01*
X110348709Y-103734943D01*
X110353461Y-103729904D01*
X110366439Y-103713607D01*
X110370287Y-103707848D01*
X110438743Y-103639392D01*
X110441296Y-103636762D01*
X110445903Y-103631877D01*
X110507639Y-103566410D01*
X110513271Y-103562403D01*
X110529197Y-103548938D01*
X110534096Y-103544039D01*
X110614574Y-103490266D01*
X110617556Y-103488210D01*
X110696395Y-103432120D01*
X110702705Y-103429287D01*
X110720944Y-103419191D01*
X110726701Y-103415344D01*
X110726704Y-103415343D01*
X110726705Y-103415342D01*
X110816179Y-103378281D01*
X110819437Y-103376875D01*
X110907723Y-103337235D01*
X110914475Y-103335685D01*
X110934312Y-103329348D01*
X110940723Y-103326693D01*
X111035649Y-103307811D01*
X111039196Y-103307051D01*
X111133501Y-103285401D01*
X111135880Y-103285331D01*
X111140415Y-103285198D01*
X111161131Y-103282851D01*
X111167924Y-103281500D01*
X111264709Y-103281500D01*
X111268334Y-103281447D01*
X111365052Y-103278610D01*
X111371877Y-103279761D01*
G37*
G36*
X132009377Y-103279761D02*
G01*
X132030150Y-103281500D01*
X132037077Y-103281500D01*
X132132004Y-103300382D01*
X132135598Y-103301042D01*
X132230980Y-103317124D01*
X132237453Y-103319585D01*
X132257478Y-103325341D01*
X132264277Y-103326693D01*
X132326664Y-103352534D01*
X132353693Y-103363730D01*
X132357094Y-103365081D01*
X132447505Y-103399461D01*
X132453377Y-103403140D01*
X132471886Y-103412687D01*
X132478295Y-103415342D01*
X132558813Y-103469142D01*
X132561804Y-103471078D01*
X132643807Y-103522459D01*
X132648834Y-103527200D01*
X132665146Y-103540191D01*
X132670902Y-103544037D01*
X132739360Y-103612495D01*
X132741939Y-103614999D01*
X132812340Y-103681389D01*
X132815976Y-103686500D01*
X132816345Y-103687019D01*
X132829809Y-103702944D01*
X132834709Y-103707844D01*
X132888494Y-103788339D01*
X132890541Y-103791307D01*
X132946630Y-103870145D01*
X132949464Y-103876458D01*
X132959558Y-103894693D01*
X132963408Y-103900455D01*
X133000470Y-103989930D01*
X133001874Y-103993185D01*
X133041515Y-104081473D01*
X133043065Y-104088225D01*
X133049402Y-104108062D01*
X133052057Y-104114473D01*
X133070942Y-104209417D01*
X133071688Y-104212901D01*
X133093348Y-104307251D01*
X133093348Y-104307254D01*
X133093550Y-104314154D01*
X133095897Y-104334870D01*
X133097250Y-104341674D01*
X133097250Y-104438486D01*
X133097303Y-104442084D01*
X133098438Y-104480777D01*
X133097545Y-104493725D01*
X133097250Y-104502297D01*
X133097250Y-104573326D01*
X133091331Y-104603085D01*
X133090854Y-104605479D01*
X133088750Y-104621250D01*
X133050488Y-105176045D01*
X133021626Y-105347230D01*
X132939288Y-105563755D01*
X132816291Y-105760057D01*
X132657361Y-105928590D01*
X132468605Y-106062880D01*
X132257277Y-106157765D01*
X132031499Y-106209598D01*
X131799948Y-106216389D01*
X131799947Y-106216389D01*
X131754262Y-106208686D01*
X131571520Y-106177876D01*
X131354995Y-106095538D01*
X131158693Y-105972541D01*
X130990160Y-105813611D01*
X130855870Y-105624855D01*
X130760985Y-105413527D01*
X130709152Y-105187749D01*
X130704062Y-105014223D01*
X130744954Y-104421294D01*
X130745250Y-104412696D01*
X130745250Y-104341674D01*
X130764138Y-104246719D01*
X130764794Y-104243145D01*
X130770481Y-104209417D01*
X130780874Y-104147770D01*
X130783335Y-104141299D01*
X130789092Y-104121267D01*
X130790443Y-104114474D01*
X130793093Y-104108076D01*
X130827514Y-104024976D01*
X130828803Y-104021730D01*
X130863212Y-103931245D01*
X130866886Y-103925381D01*
X130876437Y-103906865D01*
X130879092Y-103900455D01*
X130932907Y-103819915D01*
X130934827Y-103816949D01*
X130986209Y-103734943D01*
X130990961Y-103729904D01*
X131003939Y-103713607D01*
X131007787Y-103707848D01*
X131076243Y-103639392D01*
X131078796Y-103636762D01*
X131083403Y-103631877D01*
X131145139Y-103566410D01*
X131150771Y-103562403D01*
X131166697Y-103548938D01*
X131171596Y-103544039D01*
X131252074Y-103490266D01*
X131255056Y-103488210D01*
X131333895Y-103432120D01*
X131340205Y-103429287D01*
X131358444Y-103419191D01*
X131364201Y-103415344D01*
X131364204Y-103415343D01*
X131364205Y-103415342D01*
X131453679Y-103378281D01*
X131456937Y-103376875D01*
X131545223Y-103337235D01*
X131551975Y-103335685D01*
X131571812Y-103329348D01*
X131578223Y-103326693D01*
X131673149Y-103307811D01*
X131676696Y-103307051D01*
X131771001Y-103285401D01*
X131773380Y-103285331D01*
X131777915Y-103285198D01*
X131798631Y-103282851D01*
X131805424Y-103281500D01*
X131902209Y-103281500D01*
X131905834Y-103281447D01*
X132002552Y-103278610D01*
X132009377Y-103279761D01*
G37*
G36*
X71228218Y-103591065D02*
G01*
X71266888Y-103602796D01*
X71302527Y-103621846D01*
X71333767Y-103647483D01*
X71359404Y-103678723D01*
X71378454Y-103714362D01*
X71390185Y-103753032D01*
X71394750Y-103799388D01*
X71394750Y-104450612D01*
X71390185Y-104496968D01*
X71378454Y-104535638D01*
X71359404Y-104571277D01*
X71333767Y-104602517D01*
X71302527Y-104628154D01*
X71266888Y-104647204D01*
X71228218Y-104658935D01*
X71181862Y-104663500D01*
X70105638Y-104663500D01*
X70059282Y-104658935D01*
X70020612Y-104647204D01*
X69984973Y-104628154D01*
X69953733Y-104602517D01*
X69928096Y-104571277D01*
X69909046Y-104535638D01*
X69897315Y-104496968D01*
X69892750Y-104450612D01*
X69892750Y-103799388D01*
X69897315Y-103753032D01*
X69909046Y-103714362D01*
X69928096Y-103678723D01*
X69953733Y-103647483D01*
X69984973Y-103621846D01*
X70020612Y-103602796D01*
X70059282Y-103591065D01*
X70105638Y-103586500D01*
X71181862Y-103586500D01*
X71228218Y-103591065D01*
G37*
G36*
X89501000Y-104338500D02*
G01*
X87899000Y-104338500D01*
X87899000Y-95686500D01*
X89501000Y-95686500D01*
X89501000Y-104338500D01*
G37*
G36*
X78101000Y-104338500D02*
G01*
X76499000Y-104338500D01*
X76499000Y-95686500D01*
X78101000Y-95686500D01*
X78101000Y-104338500D01*
G37*
G36*
X93890718Y-101647315D02*
G01*
X93929388Y-101659046D01*
X93965027Y-101678096D01*
X93996267Y-101703733D01*
X94021904Y-101734973D01*
X94040954Y-101770612D01*
X94052685Y-101809282D01*
X94057250Y-101855638D01*
X94057250Y-102931862D01*
X94052685Y-102978218D01*
X94040954Y-103016888D01*
X94021904Y-103052527D01*
X93996267Y-103083767D01*
X93965027Y-103109404D01*
X93929388Y-103128454D01*
X93890718Y-103140185D01*
X93844362Y-103144750D01*
X93193138Y-103144750D01*
X93146782Y-103140185D01*
X93108112Y-103128454D01*
X93072473Y-103109404D01*
X93041233Y-103083767D01*
X93015596Y-103052527D01*
X92996546Y-103016888D01*
X92984815Y-102978218D01*
X92980250Y-102931862D01*
X92980250Y-101855638D01*
X92984815Y-101809282D01*
X92996546Y-101770612D01*
X93015596Y-101734973D01*
X93041233Y-101703733D01*
X93072473Y-101678096D01*
X93108112Y-101659046D01*
X93146782Y-101647315D01*
X93193138Y-101642750D01*
X93844362Y-101642750D01*
X93890718Y-101647315D01*
G37*
G36*
X95765718Y-101647315D02*
G01*
X95804388Y-101659046D01*
X95840027Y-101678096D01*
X95871267Y-101703733D01*
X95896904Y-101734973D01*
X95915954Y-101770612D01*
X95927685Y-101809282D01*
X95932250Y-101855638D01*
X95932250Y-102931862D01*
X95927685Y-102978218D01*
X95915954Y-103016888D01*
X95896904Y-103052527D01*
X95871267Y-103083767D01*
X95840027Y-103109404D01*
X95804388Y-103128454D01*
X95765718Y-103140185D01*
X95719362Y-103144750D01*
X95068138Y-103144750D01*
X95021782Y-103140185D01*
X94983112Y-103128454D01*
X94947473Y-103109404D01*
X94916233Y-103083767D01*
X94890596Y-103052527D01*
X94871546Y-103016888D01*
X94859815Y-102978218D01*
X94855250Y-102931862D01*
X94855250Y-101855638D01*
X94859815Y-101809282D01*
X94871546Y-101770612D01*
X94890596Y-101734973D01*
X94916233Y-101703733D01*
X94947473Y-101678096D01*
X94983112Y-101659046D01*
X95021782Y-101647315D01*
X95068138Y-101642750D01*
X95719362Y-101642750D01*
X95765718Y-101647315D01*
G37*
G36*
X71228218Y-101716065D02*
G01*
X71266888Y-101727796D01*
X71302527Y-101746846D01*
X71333767Y-101772483D01*
X71359404Y-101803723D01*
X71378454Y-101839362D01*
X71390185Y-101878032D01*
X71394750Y-101924388D01*
X71394750Y-102575612D01*
X71390185Y-102621968D01*
X71378454Y-102660638D01*
X71359404Y-102696277D01*
X71333767Y-102727517D01*
X71302527Y-102753154D01*
X71266888Y-102772204D01*
X71228218Y-102783935D01*
X71181862Y-102788500D01*
X70105638Y-102788500D01*
X70059282Y-102783935D01*
X70020612Y-102772204D01*
X69984973Y-102753154D01*
X69953733Y-102727517D01*
X69928096Y-102696277D01*
X69909046Y-102660638D01*
X69897315Y-102621968D01*
X69892750Y-102575612D01*
X69892750Y-101924388D01*
X69897315Y-101878032D01*
X69909046Y-101839362D01*
X69928096Y-101803723D01*
X69953733Y-101772483D01*
X69984973Y-101746846D01*
X70020612Y-101727796D01*
X70059282Y-101716065D01*
X70105638Y-101711500D01*
X71181862Y-101711500D01*
X71228218Y-101716065D01*
G37*
G36*
X96307250Y-100719750D02*
G01*
X94805250Y-100719750D01*
X94805250Y-99417750D01*
X96307250Y-99417750D01*
X96307250Y-100719750D01*
G37*
G36*
X94107250Y-100719750D02*
G01*
X92605250Y-100719750D01*
X92605250Y-99417750D01*
X94107250Y-99417750D01*
X94107250Y-100719750D01*
G37*
G36*
X96307250Y-99019750D02*
G01*
X94805250Y-99019750D01*
X94805250Y-97717750D01*
X96307250Y-97717750D01*
X96307250Y-99019750D01*
G37*
G36*
X94107250Y-99019750D02*
G01*
X92605250Y-99019750D01*
X92605250Y-97717750D01*
X94107250Y-97717750D01*
X94107250Y-99019750D01*
G37*
G36*
X93890718Y-95297315D02*
G01*
X93929388Y-95309046D01*
X93965027Y-95328096D01*
X93996267Y-95353733D01*
X94021904Y-95384973D01*
X94040954Y-95420612D01*
X94052685Y-95459282D01*
X94057250Y-95505638D01*
X94057250Y-96581862D01*
X94052685Y-96628218D01*
X94040954Y-96666888D01*
X94021904Y-96702527D01*
X93996267Y-96733767D01*
X93965027Y-96759404D01*
X93929388Y-96778454D01*
X93890718Y-96790185D01*
X93844362Y-96794750D01*
X93193138Y-96794750D01*
X93146782Y-96790185D01*
X93108112Y-96778454D01*
X93072473Y-96759404D01*
X93041233Y-96733767D01*
X93015596Y-96702527D01*
X92996546Y-96666888D01*
X92984815Y-96628218D01*
X92980250Y-96581862D01*
X92980250Y-95505638D01*
X92984815Y-95459282D01*
X92996546Y-95420612D01*
X93015596Y-95384973D01*
X93041233Y-95353733D01*
X93072473Y-95328096D01*
X93108112Y-95309046D01*
X93146782Y-95297315D01*
X93193138Y-95292750D01*
X93844362Y-95292750D01*
X93890718Y-95297315D01*
G37*
G36*
X95765718Y-95297315D02*
G01*
X95804388Y-95309046D01*
X95840027Y-95328096D01*
X95871267Y-95353733D01*
X95896904Y-95384973D01*
X95915954Y-95420612D01*
X95927685Y-95459282D01*
X95932250Y-95505638D01*
X95932250Y-96581862D01*
X95927685Y-96628218D01*
X95915954Y-96666888D01*
X95896904Y-96702527D01*
X95871267Y-96733767D01*
X95840027Y-96759404D01*
X95804388Y-96778454D01*
X95765718Y-96790185D01*
X95719362Y-96794750D01*
X95068138Y-96794750D01*
X95021782Y-96790185D01*
X94983112Y-96778454D01*
X94947473Y-96759404D01*
X94916233Y-96733767D01*
X94890596Y-96702527D01*
X94871546Y-96666888D01*
X94859815Y-96628218D01*
X94855250Y-96581862D01*
X94855250Y-95505638D01*
X94859815Y-95459282D01*
X94871546Y-95420612D01*
X94890596Y-95384973D01*
X94916233Y-95353733D01*
X94947473Y-95328096D01*
X94983112Y-95309046D01*
X95021782Y-95297315D01*
X95068138Y-95292750D01*
X95719362Y-95292750D01*
X95765718Y-95297315D01*
G37*
G36*
X92384468Y-95603565D02*
G01*
X92423138Y-95615296D01*
X92458777Y-95634346D01*
X92490017Y-95659983D01*
X92515654Y-95691223D01*
X92534704Y-95726862D01*
X92546435Y-95765532D01*
X92551000Y-95811888D01*
X92551000Y-96463112D01*
X92546435Y-96509468D01*
X92534704Y-96548138D01*
X92515654Y-96583777D01*
X92490017Y-96615017D01*
X92458777Y-96640654D01*
X92423138Y-96659704D01*
X92384468Y-96671435D01*
X92338112Y-96676000D01*
X91261888Y-96676000D01*
X91215532Y-96671435D01*
X91176862Y-96659704D01*
X91141223Y-96640654D01*
X91109983Y-96615017D01*
X91084346Y-96583777D01*
X91065296Y-96548138D01*
X91053565Y-96509468D01*
X91049000Y-96463112D01*
X91049000Y-95811888D01*
X91053565Y-95765532D01*
X91065296Y-95726862D01*
X91084346Y-95691223D01*
X91109983Y-95659983D01*
X91141223Y-95634346D01*
X91176862Y-95615296D01*
X91215532Y-95603565D01*
X91261888Y-95599000D01*
X92338112Y-95599000D01*
X92384468Y-95603565D01*
G37*
G36*
X74403218Y-94859815D02*
G01*
X74441888Y-94871546D01*
X74477527Y-94890596D01*
X74508767Y-94916233D01*
X74534404Y-94947473D01*
X74553454Y-94983112D01*
X74565185Y-95021782D01*
X74569750Y-95068138D01*
X74569750Y-95719362D01*
X74565185Y-95765718D01*
X74553454Y-95804388D01*
X74534404Y-95840027D01*
X74508767Y-95871267D01*
X74477527Y-95896904D01*
X74441888Y-95915954D01*
X74403218Y-95927685D01*
X74356862Y-95932250D01*
X73280638Y-95932250D01*
X73234282Y-95927685D01*
X73195612Y-95915954D01*
X73159973Y-95896904D01*
X73128733Y-95871267D01*
X73103096Y-95840027D01*
X73084046Y-95804388D01*
X73072315Y-95765718D01*
X73067750Y-95719362D01*
X73067750Y-95068138D01*
X73072315Y-95021782D01*
X73084046Y-94983112D01*
X73103096Y-94947473D01*
X73128733Y-94916233D01*
X73159973Y-94890596D01*
X73195612Y-94871546D01*
X73234282Y-94859815D01*
X73280638Y-94855250D01*
X74356862Y-94855250D01*
X74403218Y-94859815D01*
G37*
G36*
X87326000Y-95113500D02*
G01*
X78674000Y-95113500D01*
X78674000Y-93511500D01*
X87326000Y-93511500D01*
X87326000Y-95113500D01*
G37*
G36*
X111017250Y-94983500D02*
G01*
X109010250Y-94983500D01*
X109010250Y-92976500D01*
X111017250Y-92976500D01*
X111017250Y-94983500D01*
G37*
G36*
X107591439Y-92980250D02*
G01*
X107766460Y-93015063D01*
X107949086Y-93090709D01*
X108113444Y-93200530D01*
X108253220Y-93340306D01*
X108363041Y-93504664D01*
X108438687Y-93687290D01*
X108477250Y-93881164D01*
X108477250Y-94078836D01*
X108438687Y-94272710D01*
X108363041Y-94455336D01*
X108253220Y-94619694D01*
X108113444Y-94759470D01*
X107949086Y-94869291D01*
X107766460Y-94944937D01*
X107600175Y-94978012D01*
X107572587Y-94983500D01*
X107374913Y-94983500D01*
X107347325Y-94978012D01*
X107181040Y-94944937D01*
X106998414Y-94869291D01*
X106834056Y-94759470D01*
X106694280Y-94619694D01*
X106584459Y-94455336D01*
X106508813Y-94272710D01*
X106470250Y-94078836D01*
X106470250Y-93881164D01*
X106508813Y-93687290D01*
X106584459Y-93504664D01*
X106694280Y-93340306D01*
X106834056Y-93200530D01*
X106998414Y-93090709D01*
X107181040Y-93015063D01*
X107356061Y-92980250D01*
X107374913Y-92976500D01*
X107572587Y-92976500D01*
X107591439Y-92980250D01*
G37*
G36*
X128228939Y-92980250D02*
G01*
X128403960Y-93015063D01*
X128586586Y-93090709D01*
X128750944Y-93200530D01*
X128890720Y-93340306D01*
X129000541Y-93504664D01*
X129076187Y-93687290D01*
X129114750Y-93881164D01*
X129114750Y-94078836D01*
X129076187Y-94272710D01*
X129000541Y-94455336D01*
X128890720Y-94619694D01*
X128750944Y-94759470D01*
X128586586Y-94869291D01*
X128403960Y-94944937D01*
X128237675Y-94978012D01*
X128210087Y-94983500D01*
X128012413Y-94983500D01*
X127984825Y-94978012D01*
X127818540Y-94944937D01*
X127635914Y-94869291D01*
X127471556Y-94759470D01*
X127331780Y-94619694D01*
X127221959Y-94455336D01*
X127146313Y-94272710D01*
X127107750Y-94078836D01*
X127107750Y-93881164D01*
X127146313Y-93687290D01*
X127221959Y-93504664D01*
X127331780Y-93340306D01*
X127471556Y-93200530D01*
X127635914Y-93090709D01*
X127818540Y-93015063D01*
X127993561Y-92980250D01*
X128012413Y-92976500D01*
X128210087Y-92976500D01*
X128228939Y-92980250D01*
G37*
G36*
X131654750Y-94983500D02*
G01*
X129647750Y-94983500D01*
X129647750Y-92976500D01*
X131654750Y-92976500D01*
X131654750Y-94983500D01*
G37*
G36*
X92384468Y-93728565D02*
G01*
X92423138Y-93740296D01*
X92458777Y-93759346D01*
X92490017Y-93784983D01*
X92515654Y-93816223D01*
X92534704Y-93851862D01*
X92546435Y-93890532D01*
X92551000Y-93936888D01*
X92551000Y-94588112D01*
X92546435Y-94634468D01*
X92534704Y-94673138D01*
X92515654Y-94708777D01*
X92490017Y-94740017D01*
X92458777Y-94765654D01*
X92423138Y-94784704D01*
X92384468Y-94796435D01*
X92338112Y-94801000D01*
X91261888Y-94801000D01*
X91215532Y-94796435D01*
X91176862Y-94784704D01*
X91141223Y-94765654D01*
X91109983Y-94740017D01*
X91084346Y-94708777D01*
X91065296Y-94673138D01*
X91053565Y-94634468D01*
X91049000Y-94588112D01*
X91049000Y-93936888D01*
X91053565Y-93890532D01*
X91065296Y-93851862D01*
X91084346Y-93816223D01*
X91109983Y-93784983D01*
X91141223Y-93759346D01*
X91176862Y-93740296D01*
X91215532Y-93728565D01*
X91261888Y-93724000D01*
X92338112Y-93724000D01*
X92384468Y-93728565D01*
G37*
G36*
X74403218Y-92984815D02*
G01*
X74441888Y-92996546D01*
X74477527Y-93015596D01*
X74508767Y-93041233D01*
X74534404Y-93072473D01*
X74553454Y-93108112D01*
X74565185Y-93146782D01*
X74569750Y-93193138D01*
X74569750Y-93844362D01*
X74565185Y-93890718D01*
X74553454Y-93929388D01*
X74534404Y-93965027D01*
X74508767Y-93996267D01*
X74477527Y-94021904D01*
X74441888Y-94040954D01*
X74403218Y-94052685D01*
X74356862Y-94057250D01*
X73280638Y-94057250D01*
X73234282Y-94052685D01*
X73195612Y-94040954D01*
X73159973Y-94021904D01*
X73128733Y-93996267D01*
X73103096Y-93965027D01*
X73084046Y-93929388D01*
X73072315Y-93890718D01*
X73067750Y-93844362D01*
X73067750Y-93193138D01*
X73072315Y-93146782D01*
X73084046Y-93108112D01*
X73103096Y-93072473D01*
X73128733Y-93041233D01*
X73159973Y-93015596D01*
X73195612Y-92996546D01*
X73234282Y-92984815D01*
X73280638Y-92980250D01*
X74356862Y-92980250D01*
X74403218Y-92984815D01*
G37*
G36*
X97701000Y-92157250D02*
G01*
X96499000Y-92157250D01*
X96499000Y-90255250D01*
X97701000Y-90255250D01*
X97701000Y-92157250D01*
G37*
G36*
X94001000Y-92157250D02*
G01*
X92799000Y-92157250D01*
X92799000Y-90255250D01*
X94001000Y-90255250D01*
X94001000Y-92157250D01*
G37*
G36*
X85159468Y-89741065D02*
G01*
X85198138Y-89752796D01*
X85233777Y-89771846D01*
X85265017Y-89797483D01*
X85290654Y-89828723D01*
X85309704Y-89864362D01*
X85321435Y-89903032D01*
X85326000Y-89949388D01*
X85326000Y-91025612D01*
X85321435Y-91071968D01*
X85309704Y-91110638D01*
X85290654Y-91146277D01*
X85265017Y-91177517D01*
X85233777Y-91203154D01*
X85198138Y-91222204D01*
X85159468Y-91233935D01*
X85113112Y-91238500D01*
X84461888Y-91238500D01*
X84415532Y-91233935D01*
X84376862Y-91222204D01*
X84341223Y-91203154D01*
X84309983Y-91177517D01*
X84284346Y-91146277D01*
X84265296Y-91110638D01*
X84253565Y-91071968D01*
X84249000Y-91025612D01*
X84249000Y-89949388D01*
X84253565Y-89903032D01*
X84265296Y-89864362D01*
X84284346Y-89828723D01*
X84309983Y-89797483D01*
X84341223Y-89771846D01*
X84376862Y-89752796D01*
X84415532Y-89741065D01*
X84461888Y-89736500D01*
X85113112Y-89736500D01*
X85159468Y-89741065D01*
G37*
G36*
X87034468Y-89741065D02*
G01*
X87073138Y-89752796D01*
X87108777Y-89771846D01*
X87140017Y-89797483D01*
X87165654Y-89828723D01*
X87184704Y-89864362D01*
X87196435Y-89903032D01*
X87201000Y-89949388D01*
X87201000Y-91025612D01*
X87196435Y-91071968D01*
X87184704Y-91110638D01*
X87165654Y-91146277D01*
X87140017Y-91177517D01*
X87108777Y-91203154D01*
X87073138Y-91222204D01*
X87034468Y-91233935D01*
X86988112Y-91238500D01*
X86336888Y-91238500D01*
X86290532Y-91233935D01*
X86251862Y-91222204D01*
X86216223Y-91203154D01*
X86184983Y-91177517D01*
X86159346Y-91146277D01*
X86140296Y-91110638D01*
X86128565Y-91071968D01*
X86124000Y-91025612D01*
X86124000Y-89949388D01*
X86128565Y-89903032D01*
X86140296Y-89864362D01*
X86159346Y-89828723D01*
X86184983Y-89797483D01*
X86216223Y-89771846D01*
X86251862Y-89752796D01*
X86290532Y-89741065D01*
X86336888Y-89736500D01*
X86988112Y-89736500D01*
X87034468Y-89741065D01*
G37*
G36*
X129977724Y-86933684D02*
G01*
X130195724Y-87023983D01*
X130349873Y-87087833D01*
X130684798Y-87311623D01*
X130969627Y-87596452D01*
X131193417Y-87931377D01*
X131225812Y-88009586D01*
X131347566Y-88303526D01*
X131426150Y-88698594D01*
X131426150Y-89101406D01*
X131347566Y-89496474D01*
X131296701Y-89619272D01*
X131193417Y-89868623D01*
X130969627Y-90203548D01*
X130684798Y-90488377D01*
X130349873Y-90712167D01*
X130195724Y-90776017D01*
X129977724Y-90866316D01*
X129582656Y-90944900D01*
X129179844Y-90944900D01*
X128784776Y-90866316D01*
X128566776Y-90776017D01*
X128412627Y-90712167D01*
X128077702Y-90488377D01*
X127792873Y-90203548D01*
X127569083Y-89868623D01*
X127465799Y-89619272D01*
X127414934Y-89496474D01*
X127336350Y-89101406D01*
X127336350Y-88698594D01*
X127414934Y-88303526D01*
X127536688Y-88009586D01*
X127569083Y-87931377D01*
X127792873Y-87596452D01*
X128077702Y-87311623D01*
X128412627Y-87087833D01*
X128566776Y-87023983D01*
X128784776Y-86933684D01*
X129179844Y-86855100D01*
X129582656Y-86855100D01*
X129977724Y-86933684D01*
G37*
G36*
X109340224Y-86933684D02*
G01*
X109558224Y-87023983D01*
X109712373Y-87087833D01*
X110047298Y-87311623D01*
X110332127Y-87596452D01*
X110555917Y-87931377D01*
X110588312Y-88009586D01*
X110710066Y-88303526D01*
X110788650Y-88698594D01*
X110788650Y-89101406D01*
X110710066Y-89496474D01*
X110659201Y-89619272D01*
X110555917Y-89868623D01*
X110332127Y-90203548D01*
X110047298Y-90488377D01*
X109712373Y-90712167D01*
X109558224Y-90776017D01*
X109340224Y-90866316D01*
X108945156Y-90944900D01*
X108542344Y-90944900D01*
X108147276Y-90866316D01*
X107929276Y-90776017D01*
X107775127Y-90712167D01*
X107440202Y-90488377D01*
X107155373Y-90203548D01*
X106931583Y-89868623D01*
X106828299Y-89619272D01*
X106777434Y-89496474D01*
X106698850Y-89101406D01*
X106698850Y-88698594D01*
X106777434Y-88303526D01*
X106899188Y-88009586D01*
X106931583Y-87931377D01*
X107155373Y-87596452D01*
X107440202Y-87311623D01*
X107775127Y-87087833D01*
X107929276Y-87023983D01*
X108147276Y-86933684D01*
X108542344Y-86855100D01*
X108945156Y-86855100D01*
X109340224Y-86933684D01*
G37*
G36*
X124571354Y-88009585D02*
G01*
X124739876Y-88079389D01*
X124891541Y-88180728D01*
X125020522Y-88309709D01*
X125121861Y-88461374D01*
X125191665Y-88629896D01*
X125227250Y-88808797D01*
X125227250Y-88991203D01*
X125191665Y-89170104D01*
X125121861Y-89338626D01*
X125020522Y-89490291D01*
X124891541Y-89619272D01*
X124739876Y-89720611D01*
X124571354Y-89790415D01*
X124392453Y-89826000D01*
X124210047Y-89826000D01*
X124031146Y-89790415D01*
X123862624Y-89720611D01*
X123710959Y-89619272D01*
X123581978Y-89490291D01*
X123480639Y-89338626D01*
X123410835Y-89170104D01*
X123375250Y-88991203D01*
X123375250Y-88808797D01*
X123410835Y-88629896D01*
X123480639Y-88461374D01*
X123581978Y-88309709D01*
X123710959Y-88180728D01*
X123862624Y-88079389D01*
X124031146Y-88009585D01*
X124210047Y-87974000D01*
X124392453Y-87974000D01*
X124571354Y-88009585D01*
G37*
G36*
X103933854Y-88009585D02*
G01*
X104102376Y-88079389D01*
X104254041Y-88180728D01*
X104383022Y-88309709D01*
X104484361Y-88461374D01*
X104554165Y-88629896D01*
X104589750Y-88808797D01*
X104589750Y-88991203D01*
X104554165Y-89170104D01*
X104484361Y-89338626D01*
X104383022Y-89490291D01*
X104254041Y-89619272D01*
X104102376Y-89720611D01*
X103933854Y-89790415D01*
X103754953Y-89826000D01*
X103572547Y-89826000D01*
X103393646Y-89790415D01*
X103225124Y-89720611D01*
X103073459Y-89619272D01*
X102944478Y-89490291D01*
X102843139Y-89338626D01*
X102773335Y-89170104D01*
X102737750Y-88991203D01*
X102737750Y-88808797D01*
X102773335Y-88629896D01*
X102843139Y-88461374D01*
X102944478Y-88309709D01*
X103073459Y-88180728D01*
X103225124Y-88079389D01*
X103393646Y-88009585D01*
X103572547Y-87974000D01*
X103754953Y-87974000D01*
X103933854Y-88009585D01*
G37*
G36*
X114093854Y-88009585D02*
G01*
X114262376Y-88079389D01*
X114414041Y-88180728D01*
X114543022Y-88309709D01*
X114644361Y-88461374D01*
X114714165Y-88629896D01*
X114749750Y-88808797D01*
X114749750Y-88991203D01*
X114714165Y-89170104D01*
X114644361Y-89338626D01*
X114543022Y-89490291D01*
X114414041Y-89619272D01*
X114262376Y-89720611D01*
X114093854Y-89790415D01*
X113914953Y-89826000D01*
X113732547Y-89826000D01*
X113553646Y-89790415D01*
X113385124Y-89720611D01*
X113233459Y-89619272D01*
X113104478Y-89490291D01*
X113003139Y-89338626D01*
X112933335Y-89170104D01*
X112897750Y-88991203D01*
X112897750Y-88808797D01*
X112933335Y-88629896D01*
X113003139Y-88461374D01*
X113104478Y-88309709D01*
X113233459Y-88180728D01*
X113385124Y-88079389D01*
X113553646Y-88009585D01*
X113732547Y-87974000D01*
X113914953Y-87974000D01*
X114093854Y-88009585D01*
G37*
G36*
X134731354Y-88009585D02*
G01*
X134899876Y-88079389D01*
X135051541Y-88180728D01*
X135180522Y-88309709D01*
X135281861Y-88461374D01*
X135351665Y-88629896D01*
X135387250Y-88808797D01*
X135387250Y-88991203D01*
X135351665Y-89170104D01*
X135281861Y-89338626D01*
X135180522Y-89490291D01*
X135051541Y-89619272D01*
X134899876Y-89720611D01*
X134731354Y-89790415D01*
X134552453Y-89826000D01*
X134370047Y-89826000D01*
X134191146Y-89790415D01*
X134022624Y-89720611D01*
X133870959Y-89619272D01*
X133741978Y-89490291D01*
X133640639Y-89338626D01*
X133570835Y-89170104D01*
X133535250Y-88991203D01*
X133535250Y-88808797D01*
X133570835Y-88629896D01*
X133640639Y-88461374D01*
X133741978Y-88309709D01*
X133870959Y-88180728D01*
X134022624Y-88079389D01*
X134191146Y-88009585D01*
X134370047Y-87974000D01*
X134552453Y-87974000D01*
X134731354Y-88009585D01*
G37*
G36*
X76784468Y-87066065D02*
G01*
X76823138Y-87077796D01*
X76858777Y-87096846D01*
X76890017Y-87122483D01*
X76915654Y-87153723D01*
X76934704Y-87189362D01*
X76946435Y-87228032D01*
X76951000Y-87274388D01*
X76951000Y-87925612D01*
X76946435Y-87971968D01*
X76934704Y-88010638D01*
X76915654Y-88046277D01*
X76890017Y-88077517D01*
X76858777Y-88103154D01*
X76823138Y-88122204D01*
X76784468Y-88133935D01*
X76738112Y-88138500D01*
X75661888Y-88138500D01*
X75615532Y-88133935D01*
X75576862Y-88122204D01*
X75541223Y-88103154D01*
X75509983Y-88077517D01*
X75484346Y-88046277D01*
X75465296Y-88010638D01*
X75453565Y-87971968D01*
X75449000Y-87925612D01*
X75449000Y-87274388D01*
X75453565Y-87228032D01*
X75465296Y-87189362D01*
X75484346Y-87153723D01*
X75509983Y-87122483D01*
X75541223Y-87096846D01*
X75576862Y-87077796D01*
X75615532Y-87066065D01*
X75661888Y-87061500D01*
X76738112Y-87061500D01*
X76784468Y-87066065D01*
G37*
G36*
X83134468Y-86922315D02*
G01*
X83173138Y-86934046D01*
X83208777Y-86953096D01*
X83240017Y-86978733D01*
X83265654Y-87009973D01*
X83284704Y-87045612D01*
X83296435Y-87084282D01*
X83301000Y-87130638D01*
X83301000Y-87781862D01*
X83296435Y-87828218D01*
X83284704Y-87866888D01*
X83265654Y-87902527D01*
X83240017Y-87933767D01*
X83208777Y-87959404D01*
X83173138Y-87978454D01*
X83134468Y-87990185D01*
X83088112Y-87994750D01*
X82011888Y-87994750D01*
X81965532Y-87990185D01*
X81926862Y-87978454D01*
X81891223Y-87959404D01*
X81859983Y-87933767D01*
X81834346Y-87902527D01*
X81815296Y-87866888D01*
X81803565Y-87828218D01*
X81799000Y-87781862D01*
X81799000Y-87130638D01*
X81803565Y-87084282D01*
X81815296Y-87045612D01*
X81834346Y-87009973D01*
X81859983Y-86978733D01*
X81891223Y-86953096D01*
X81926862Y-86934046D01*
X81965532Y-86922315D01*
X82011888Y-86917750D01*
X83088112Y-86917750D01*
X83134468Y-86922315D01*
G37*
G36*
X86309468Y-86922315D02*
G01*
X86348138Y-86934046D01*
X86383777Y-86953096D01*
X86415017Y-86978733D01*
X86440654Y-87009973D01*
X86459704Y-87045612D01*
X86471435Y-87084282D01*
X86476000Y-87130638D01*
X86476000Y-87781862D01*
X86471435Y-87828218D01*
X86459704Y-87866888D01*
X86440654Y-87902527D01*
X86415017Y-87933767D01*
X86383777Y-87959404D01*
X86348138Y-87978454D01*
X86309468Y-87990185D01*
X86263112Y-87994750D01*
X85186888Y-87994750D01*
X85140532Y-87990185D01*
X85101862Y-87978454D01*
X85066223Y-87959404D01*
X85034983Y-87933767D01*
X85009346Y-87902527D01*
X84990296Y-87866888D01*
X84978565Y-87828218D01*
X84974000Y-87781862D01*
X84974000Y-87130638D01*
X84978565Y-87084282D01*
X84990296Y-87045612D01*
X85009346Y-87009973D01*
X85034983Y-86978733D01*
X85066223Y-86953096D01*
X85101862Y-86934046D01*
X85140532Y-86922315D01*
X85186888Y-86917750D01*
X86263112Y-86917750D01*
X86309468Y-86922315D01*
G37*
G36*
X89484468Y-86922315D02*
G01*
X89523138Y-86934046D01*
X89558777Y-86953096D01*
X89590017Y-86978733D01*
X89615654Y-87009973D01*
X89634704Y-87045612D01*
X89646435Y-87084282D01*
X89651000Y-87130638D01*
X89651000Y-87781862D01*
X89646435Y-87828218D01*
X89634704Y-87866888D01*
X89615654Y-87902527D01*
X89590017Y-87933767D01*
X89558777Y-87959404D01*
X89523138Y-87978454D01*
X89484468Y-87990185D01*
X89438112Y-87994750D01*
X88361888Y-87994750D01*
X88315532Y-87990185D01*
X88276862Y-87978454D01*
X88241223Y-87959404D01*
X88209983Y-87933767D01*
X88184346Y-87902527D01*
X88165296Y-87866888D01*
X88153565Y-87828218D01*
X88149000Y-87781862D01*
X88149000Y-87130638D01*
X88153565Y-87084282D01*
X88165296Y-87045612D01*
X88184346Y-87009973D01*
X88209983Y-86978733D01*
X88241223Y-86953096D01*
X88276862Y-86934046D01*
X88315532Y-86922315D01*
X88361888Y-86917750D01*
X89438112Y-86917750D01*
X89484468Y-86922315D01*
G37*
G36*
X79959468Y-86922315D02*
G01*
X79998138Y-86934046D01*
X80033777Y-86953096D01*
X80065017Y-86978733D01*
X80090654Y-87009973D01*
X80109704Y-87045612D01*
X80121435Y-87084282D01*
X80126000Y-87130638D01*
X80126000Y-87781862D01*
X80121435Y-87828218D01*
X80109704Y-87866888D01*
X80090654Y-87902527D01*
X80065017Y-87933767D01*
X80033777Y-87959404D01*
X79998138Y-87978454D01*
X79959468Y-87990185D01*
X79913112Y-87994750D01*
X78836888Y-87994750D01*
X78790532Y-87990185D01*
X78751862Y-87978454D01*
X78716223Y-87959404D01*
X78684983Y-87933767D01*
X78659346Y-87902527D01*
X78640296Y-87866888D01*
X78628565Y-87828218D01*
X78624000Y-87781862D01*
X78624000Y-87130638D01*
X78628565Y-87084282D01*
X78640296Y-87045612D01*
X78659346Y-87009973D01*
X78684983Y-86978733D01*
X78716223Y-86953096D01*
X78751862Y-86934046D01*
X78790532Y-86922315D01*
X78836888Y-86917750D01*
X79913112Y-86917750D01*
X79959468Y-86922315D01*
G37*
G36*
X126904455Y-83723881D02*
G01*
X126909895Y-83724000D01*
X126997078Y-83724000D01*
X127013347Y-83727236D01*
X127032206Y-83729515D01*
X127048782Y-83730246D01*
X127133473Y-83751010D01*
X127138768Y-83752184D01*
X127224277Y-83769193D01*
X127239612Y-83775545D01*
X127257651Y-83781455D01*
X127273771Y-83785407D01*
X127352754Y-83822280D01*
X127357744Y-83824477D01*
X127438295Y-83857842D01*
X127452091Y-83867060D01*
X127468643Y-83876382D01*
X127483676Y-83883400D01*
X127553944Y-83934971D01*
X127558442Y-83938122D01*
X127630906Y-83986541D01*
X127642633Y-83998268D01*
X127657059Y-84010648D01*
X127670429Y-84020461D01*
X127670430Y-84020462D01*
X127729271Y-84084733D01*
X127733079Y-84088714D01*
X127794709Y-84150344D01*
X127803924Y-84164135D01*
X127815646Y-84179078D01*
X127826855Y-84191321D01*
X127872049Y-84265874D01*
X127874996Y-84270501D01*
X127923408Y-84342955D01*
X127929755Y-84358277D01*
X127938342Y-84375231D01*
X127946941Y-84389417D01*
X127976728Y-84471368D01*
X127978702Y-84476448D01*
X128012057Y-84556973D01*
X128012057Y-84556974D01*
X128015291Y-84573233D01*
X128020408Y-84591542D01*
X128026075Y-84607134D01*
X128039305Y-84693345D01*
X128040251Y-84698713D01*
X128057250Y-84784173D01*
X128057250Y-84800752D01*
X128058694Y-84819692D01*
X128061213Y-84836104D01*
X128057370Y-84923249D01*
X128057250Y-84928689D01*
X128057250Y-85015825D01*
X128054016Y-85032083D01*
X128051738Y-85050941D01*
X128051006Y-85067531D01*
X128030238Y-85152237D01*
X128029062Y-85157537D01*
X128012057Y-85243027D01*
X128005707Y-85258357D01*
X127999799Y-85276393D01*
X127995845Y-85292520D01*
X127958961Y-85371526D01*
X127956761Y-85376523D01*
X127923408Y-85457045D01*
X127914194Y-85470835D01*
X127904872Y-85487387D01*
X127897852Y-85502424D01*
X127846261Y-85572720D01*
X127843116Y-85577210D01*
X127794711Y-85649654D01*
X127737710Y-85706655D01*
X127733061Y-85711563D01*
X126968362Y-86563821D01*
X126407973Y-87188376D01*
X126279929Y-87305602D01*
X126180881Y-87365645D01*
X126081833Y-87425689D01*
X125864116Y-87504823D01*
X125635145Y-87539961D01*
X125403720Y-87529754D01*
X125178731Y-87474593D01*
X125073977Y-87425689D01*
X124968829Y-87376602D01*
X124872088Y-87305602D01*
X124782073Y-87239539D01*
X124703508Y-87153723D01*
X124625648Y-87068679D01*
X124555581Y-86953096D01*
X124505561Y-86870583D01*
X124426427Y-86652866D01*
X124391289Y-86423895D01*
X124401496Y-86192470D01*
X124456657Y-85967481D01*
X124511269Y-85850500D01*
X124554648Y-85757580D01*
X124554650Y-85757577D01*
X124657364Y-85617622D01*
X125412495Y-84776027D01*
X125944037Y-84183621D01*
X125954931Y-84169589D01*
X125967789Y-84150346D01*
X126024823Y-84093312D01*
X126029473Y-84088403D01*
X126044528Y-84071624D01*
X126065951Y-84052011D01*
X126069932Y-84048203D01*
X126131596Y-83986539D01*
X126145393Y-83977320D01*
X126160352Y-83965585D01*
X126172571Y-83954398D01*
X126204635Y-83934961D01*
X126247080Y-83909231D01*
X126251671Y-83906308D01*
X126324205Y-83857842D01*
X126339550Y-83851486D01*
X126356498Y-83842901D01*
X126370666Y-83834312D01*
X126370667Y-83834312D01*
X126370668Y-83834311D01*
X126452562Y-83804545D01*
X126457660Y-83802563D01*
X126538223Y-83769193D01*
X126554502Y-83765955D01*
X126572792Y-83760844D01*
X126588385Y-83755177D01*
X126674550Y-83741954D01*
X126679913Y-83741009D01*
X126765423Y-83724000D01*
X126782016Y-83724000D01*
X126800959Y-83722555D01*
X126817356Y-83720039D01*
X126904455Y-83723881D01*
G37*
G36*
X106266955Y-83723881D02*
G01*
X106272395Y-83724000D01*
X106359578Y-83724000D01*
X106375847Y-83727236D01*
X106394706Y-83729515D01*
X106411282Y-83730246D01*
X106495973Y-83751010D01*
X106501268Y-83752184D01*
X106586777Y-83769193D01*
X106602112Y-83775545D01*
X106620151Y-83781455D01*
X106636271Y-83785407D01*
X106715254Y-83822280D01*
X106720244Y-83824477D01*
X106800795Y-83857842D01*
X106814591Y-83867060D01*
X106831143Y-83876382D01*
X106846176Y-83883400D01*
X106916444Y-83934971D01*
X106920942Y-83938122D01*
X106993406Y-83986541D01*
X107005133Y-83998268D01*
X107019559Y-84010648D01*
X107032929Y-84020461D01*
X107032930Y-84020462D01*
X107091771Y-84084733D01*
X107095579Y-84088714D01*
X107157209Y-84150344D01*
X107166424Y-84164135D01*
X107178146Y-84179078D01*
X107189355Y-84191321D01*
X107234549Y-84265874D01*
X107237496Y-84270501D01*
X107285908Y-84342955D01*
X107292255Y-84358277D01*
X107300842Y-84375231D01*
X107309441Y-84389417D01*
X107339228Y-84471368D01*
X107341202Y-84476448D01*
X107374557Y-84556973D01*
X107374557Y-84556974D01*
X107377791Y-84573233D01*
X107382908Y-84591542D01*
X107388575Y-84607134D01*
X107401805Y-84693345D01*
X107402751Y-84698713D01*
X107419750Y-84784173D01*
X107419750Y-84800752D01*
X107421194Y-84819692D01*
X107423713Y-84836104D01*
X107419870Y-84923249D01*
X107419750Y-84928689D01*
X107419750Y-85015825D01*
X107416516Y-85032083D01*
X107414238Y-85050941D01*
X107413506Y-85067531D01*
X107392738Y-85152237D01*
X107391562Y-85157537D01*
X107374557Y-85243027D01*
X107368207Y-85258357D01*
X107362299Y-85276393D01*
X107358345Y-85292520D01*
X107321461Y-85371526D01*
X107319261Y-85376523D01*
X107285908Y-85457045D01*
X107276694Y-85470835D01*
X107267372Y-85487387D01*
X107260352Y-85502424D01*
X107208761Y-85572720D01*
X107205616Y-85577210D01*
X107157211Y-85649654D01*
X107100210Y-85706655D01*
X107095561Y-85711563D01*
X106330862Y-86563821D01*
X105770473Y-87188376D01*
X105642429Y-87305602D01*
X105543381Y-87365645D01*
X105444333Y-87425689D01*
X105226616Y-87504823D01*
X104997645Y-87539961D01*
X104766220Y-87529754D01*
X104541231Y-87474593D01*
X104436477Y-87425689D01*
X104331329Y-87376602D01*
X104234588Y-87305602D01*
X104144573Y-87239539D01*
X104066008Y-87153723D01*
X103988148Y-87068679D01*
X103918081Y-86953096D01*
X103868061Y-86870583D01*
X103788927Y-86652866D01*
X103753789Y-86423895D01*
X103763996Y-86192470D01*
X103819157Y-85967481D01*
X103873769Y-85850500D01*
X103917148Y-85757580D01*
X103917150Y-85757577D01*
X104019864Y-85617622D01*
X104774995Y-84776027D01*
X105306537Y-84183621D01*
X105317431Y-84169589D01*
X105330289Y-84150346D01*
X105387323Y-84093312D01*
X105391973Y-84088403D01*
X105407028Y-84071624D01*
X105428451Y-84052011D01*
X105432432Y-84048203D01*
X105494096Y-83986539D01*
X105507893Y-83977320D01*
X105522852Y-83965585D01*
X105535071Y-83954398D01*
X105567135Y-83934961D01*
X105609580Y-83909231D01*
X105614171Y-83906308D01*
X105686705Y-83857842D01*
X105702050Y-83851486D01*
X105718998Y-83842901D01*
X105733166Y-83834312D01*
X105733167Y-83834312D01*
X105733168Y-83834311D01*
X105815062Y-83804545D01*
X105820160Y-83802563D01*
X105900723Y-83769193D01*
X105917002Y-83765955D01*
X105935292Y-83760844D01*
X105950885Y-83755177D01*
X106037050Y-83741954D01*
X106042413Y-83741009D01*
X106127923Y-83724000D01*
X106144516Y-83724000D01*
X106163459Y-83722555D01*
X106179856Y-83720039D01*
X106266955Y-83723881D01*
G37*
G36*
X68362354Y-84803347D02*
G01*
X68398894Y-84814432D01*
X68432571Y-84832433D01*
X68462091Y-84856659D01*
X68486317Y-84886179D01*
X68504318Y-84919856D01*
X68515403Y-84956396D01*
X68519750Y-85000538D01*
X68519750Y-86449462D01*
X68515403Y-86493604D01*
X68504318Y-86530144D01*
X68486317Y-86563821D01*
X68462091Y-86593341D01*
X68432571Y-86617567D01*
X68398894Y-86635568D01*
X68362354Y-86646653D01*
X68318212Y-86651000D01*
X67369288Y-86651000D01*
X67325146Y-86646653D01*
X67288606Y-86635568D01*
X67254929Y-86617567D01*
X67225409Y-86593341D01*
X67201183Y-86563821D01*
X67183182Y-86530144D01*
X67172097Y-86493604D01*
X67167750Y-86449462D01*
X67167750Y-85000538D01*
X67172097Y-84956396D01*
X67183182Y-84919856D01*
X67201183Y-84886179D01*
X67225409Y-84856659D01*
X67254929Y-84832433D01*
X67288606Y-84814432D01*
X67325146Y-84803347D01*
X67369288Y-84799000D01*
X68318212Y-84799000D01*
X68362354Y-84803347D01*
G37*
G36*
X71162354Y-84803347D02*
G01*
X71198894Y-84814432D01*
X71232571Y-84832433D01*
X71262091Y-84856659D01*
X71286317Y-84886179D01*
X71304318Y-84919856D01*
X71315403Y-84956396D01*
X71319750Y-85000538D01*
X71319750Y-86449462D01*
X71315403Y-86493604D01*
X71304318Y-86530144D01*
X71286317Y-86563821D01*
X71262091Y-86593341D01*
X71232571Y-86617567D01*
X71198894Y-86635568D01*
X71162354Y-86646653D01*
X71118212Y-86651000D01*
X70169288Y-86651000D01*
X70125146Y-86646653D01*
X70088606Y-86635568D01*
X70054929Y-86617567D01*
X70025409Y-86593341D01*
X70001183Y-86563821D01*
X69983182Y-86530144D01*
X69972097Y-86493604D01*
X69967750Y-86449462D01*
X69967750Y-85000538D01*
X69972097Y-84956396D01*
X69983182Y-84919856D01*
X70001183Y-84886179D01*
X70025409Y-84856659D01*
X70054929Y-84832433D01*
X70088606Y-84814432D01*
X70125146Y-84803347D01*
X70169288Y-84799000D01*
X71118212Y-84799000D01*
X71162354Y-84803347D01*
G37*
G36*
X76784468Y-85191065D02*
G01*
X76823138Y-85202796D01*
X76858777Y-85221846D01*
X76890017Y-85247483D01*
X76915654Y-85278723D01*
X76934704Y-85314362D01*
X76946435Y-85353032D01*
X76951000Y-85399388D01*
X76951000Y-86050612D01*
X76946435Y-86096968D01*
X76934704Y-86135638D01*
X76915654Y-86171277D01*
X76890017Y-86202517D01*
X76858777Y-86228154D01*
X76823138Y-86247204D01*
X76784468Y-86258935D01*
X76738112Y-86263500D01*
X75661888Y-86263500D01*
X75615532Y-86258935D01*
X75576862Y-86247204D01*
X75541223Y-86228154D01*
X75509983Y-86202517D01*
X75484346Y-86171277D01*
X75465296Y-86135638D01*
X75453565Y-86096968D01*
X75449000Y-86050612D01*
X75449000Y-85399388D01*
X75453565Y-85353032D01*
X75465296Y-85314362D01*
X75484346Y-85278723D01*
X75509983Y-85247483D01*
X75541223Y-85221846D01*
X75576862Y-85202796D01*
X75615532Y-85191065D01*
X75661888Y-85186500D01*
X76738112Y-85186500D01*
X76784468Y-85191065D01*
G37*
G36*
X86309468Y-85047315D02*
G01*
X86348138Y-85059046D01*
X86383777Y-85078096D01*
X86415017Y-85103733D01*
X86440654Y-85134973D01*
X86459704Y-85170612D01*
X86471435Y-85209282D01*
X86476000Y-85255638D01*
X86476000Y-85906862D01*
X86471435Y-85953218D01*
X86459704Y-85991888D01*
X86440654Y-86027527D01*
X86415017Y-86058767D01*
X86383777Y-86084404D01*
X86348138Y-86103454D01*
X86309468Y-86115185D01*
X86263112Y-86119750D01*
X85186888Y-86119750D01*
X85140532Y-86115185D01*
X85101862Y-86103454D01*
X85066223Y-86084404D01*
X85034983Y-86058767D01*
X85009346Y-86027527D01*
X84990296Y-85991888D01*
X84978565Y-85953218D01*
X84974000Y-85906862D01*
X84974000Y-85255638D01*
X84978565Y-85209282D01*
X84990296Y-85170612D01*
X85009346Y-85134973D01*
X85034983Y-85103733D01*
X85066223Y-85078096D01*
X85101862Y-85059046D01*
X85140532Y-85047315D01*
X85186888Y-85042750D01*
X86263112Y-85042750D01*
X86309468Y-85047315D01*
G37*
G36*
X83134468Y-85047315D02*
G01*
X83173138Y-85059046D01*
X83208777Y-85078096D01*
X83240017Y-85103733D01*
X83265654Y-85134973D01*
X83284704Y-85170612D01*
X83296435Y-85209282D01*
X83301000Y-85255638D01*
X83301000Y-85906862D01*
X83296435Y-85953218D01*
X83284704Y-85991888D01*
X83265654Y-86027527D01*
X83240017Y-86058767D01*
X83208777Y-86084404D01*
X83173138Y-86103454D01*
X83134468Y-86115185D01*
X83088112Y-86119750D01*
X82011888Y-86119750D01*
X81965532Y-86115185D01*
X81926862Y-86103454D01*
X81891223Y-86084404D01*
X81859983Y-86058767D01*
X81834346Y-86027527D01*
X81815296Y-85991888D01*
X81803565Y-85953218D01*
X81799000Y-85906862D01*
X81799000Y-85255638D01*
X81803565Y-85209282D01*
X81815296Y-85170612D01*
X81834346Y-85134973D01*
X81859983Y-85103733D01*
X81891223Y-85078096D01*
X81926862Y-85059046D01*
X81965532Y-85047315D01*
X82011888Y-85042750D01*
X83088112Y-85042750D01*
X83134468Y-85047315D01*
G37*
G36*
X79959468Y-85047315D02*
G01*
X79998138Y-85059046D01*
X80033777Y-85078096D01*
X80065017Y-85103733D01*
X80090654Y-85134973D01*
X80109704Y-85170612D01*
X80121435Y-85209282D01*
X80126000Y-85255638D01*
X80126000Y-85906862D01*
X80121435Y-85953218D01*
X80109704Y-85991888D01*
X80090654Y-86027527D01*
X80065017Y-86058767D01*
X80033777Y-86084404D01*
X79998138Y-86103454D01*
X79959468Y-86115185D01*
X79913112Y-86119750D01*
X78836888Y-86119750D01*
X78790532Y-86115185D01*
X78751862Y-86103454D01*
X78716223Y-86084404D01*
X78684983Y-86058767D01*
X78659346Y-86027527D01*
X78640296Y-85991888D01*
X78628565Y-85953218D01*
X78624000Y-85906862D01*
X78624000Y-85255638D01*
X78628565Y-85209282D01*
X78640296Y-85170612D01*
X78659346Y-85134973D01*
X78684983Y-85103733D01*
X78716223Y-85078096D01*
X78751862Y-85059046D01*
X78790532Y-85047315D01*
X78836888Y-85042750D01*
X79913112Y-85042750D01*
X79959468Y-85047315D01*
G37*
G36*
X89484468Y-85047315D02*
G01*
X89523138Y-85059046D01*
X89558777Y-85078096D01*
X89590017Y-85103733D01*
X89615654Y-85134973D01*
X89634704Y-85170612D01*
X89646435Y-85209282D01*
X89651000Y-85255638D01*
X89651000Y-85906862D01*
X89646435Y-85953218D01*
X89634704Y-85991888D01*
X89615654Y-86027527D01*
X89590017Y-86058767D01*
X89558777Y-86084404D01*
X89523138Y-86103454D01*
X89484468Y-86115185D01*
X89438112Y-86119750D01*
X88361888Y-86119750D01*
X88315532Y-86115185D01*
X88276862Y-86103454D01*
X88241223Y-86084404D01*
X88209983Y-86058767D01*
X88184346Y-86027527D01*
X88165296Y-85991888D01*
X88153565Y-85953218D01*
X88149000Y-85906862D01*
X88149000Y-85255638D01*
X88153565Y-85209282D01*
X88165296Y-85170612D01*
X88184346Y-85134973D01*
X88209983Y-85103733D01*
X88241223Y-85078096D01*
X88276862Y-85059046D01*
X88315532Y-85047315D01*
X88361888Y-85042750D01*
X89438112Y-85042750D01*
X89484468Y-85047315D01*
G37*
G36*
X97701000Y-85957250D02*
G01*
X96499000Y-85957250D01*
X96499000Y-84055250D01*
X97701000Y-84055250D01*
X97701000Y-85957250D01*
G37*
G36*
X94001000Y-85957250D02*
G01*
X92799000Y-85957250D01*
X92799000Y-84055250D01*
X94001000Y-84055250D01*
X94001000Y-85957250D01*
G37*
G36*
X132009377Y-82642261D02*
G01*
X132030150Y-82644000D01*
X132037077Y-82644000D01*
X132132004Y-82662882D01*
X132135598Y-82663542D01*
X132230980Y-82679624D01*
X132237453Y-82682085D01*
X132257478Y-82687841D01*
X132264277Y-82689193D01*
X132326664Y-82715034D01*
X132353693Y-82726230D01*
X132357094Y-82727581D01*
X132447505Y-82761961D01*
X132453377Y-82765640D01*
X132471886Y-82775187D01*
X132478295Y-82777842D01*
X132558813Y-82831642D01*
X132561804Y-82833578D01*
X132643807Y-82884959D01*
X132648834Y-82889700D01*
X132665146Y-82902691D01*
X132670902Y-82906537D01*
X132739360Y-82974995D01*
X132741939Y-82977499D01*
X132812340Y-83043889D01*
X132816345Y-83049519D01*
X132829809Y-83065444D01*
X132834709Y-83070344D01*
X132888494Y-83150839D01*
X132890541Y-83153807D01*
X132946630Y-83232645D01*
X132949464Y-83238958D01*
X132959558Y-83257193D01*
X132963408Y-83262955D01*
X133000470Y-83352430D01*
X133001874Y-83355685D01*
X133041515Y-83443973D01*
X133043065Y-83450725D01*
X133049402Y-83470562D01*
X133052057Y-83476973D01*
X133070942Y-83571917D01*
X133071688Y-83575401D01*
X133093348Y-83669751D01*
X133093348Y-83669754D01*
X133093550Y-83676654D01*
X133095897Y-83697370D01*
X133097250Y-83704174D01*
X133097250Y-83800986D01*
X133097303Y-83804584D01*
X133098438Y-83843277D01*
X133097545Y-83856225D01*
X133097250Y-83864797D01*
X133097250Y-83935826D01*
X133091331Y-83965585D01*
X133090854Y-83967979D01*
X133088750Y-83983750D01*
X133050488Y-84538545D01*
X133021626Y-84709730D01*
X132939288Y-84926255D01*
X132816291Y-85122557D01*
X132657361Y-85291090D01*
X132468605Y-85425380D01*
X132257277Y-85520265D01*
X132031499Y-85572098D01*
X131799948Y-85578889D01*
X131799947Y-85578889D01*
X131754262Y-85571186D01*
X131571520Y-85540376D01*
X131354995Y-85458038D01*
X131158693Y-85335041D01*
X130990160Y-85176111D01*
X130855870Y-84987355D01*
X130760985Y-84776027D01*
X130709152Y-84550249D01*
X130704062Y-84376723D01*
X130744954Y-83783794D01*
X130745250Y-83775196D01*
X130745250Y-83704175D01*
X130764132Y-83609250D01*
X130764794Y-83605645D01*
X130770481Y-83571917D01*
X130780874Y-83510270D01*
X130783335Y-83503799D01*
X130789092Y-83483767D01*
X130790443Y-83476974D01*
X130793093Y-83470576D01*
X130827514Y-83387476D01*
X130828803Y-83384230D01*
X130863212Y-83293745D01*
X130866886Y-83287881D01*
X130876437Y-83269365D01*
X130879092Y-83262955D01*
X130932907Y-83182415D01*
X130934827Y-83179449D01*
X130986209Y-83097443D01*
X130990961Y-83092404D01*
X131003939Y-83076107D01*
X131007787Y-83070348D01*
X131076243Y-83001892D01*
X131078796Y-82999262D01*
X131099273Y-82977548D01*
X131145139Y-82928910D01*
X131150771Y-82924903D01*
X131166697Y-82911438D01*
X131171596Y-82906539D01*
X131252074Y-82852766D01*
X131255056Y-82850710D01*
X131333895Y-82794620D01*
X131340205Y-82791787D01*
X131358444Y-82781691D01*
X131364201Y-82777844D01*
X131364204Y-82777843D01*
X131364205Y-82777842D01*
X131453679Y-82740781D01*
X131456937Y-82739375D01*
X131545223Y-82699735D01*
X131551975Y-82698185D01*
X131571812Y-82691848D01*
X131578223Y-82689193D01*
X131673149Y-82670311D01*
X131676696Y-82669551D01*
X131771001Y-82647901D01*
X131773380Y-82647831D01*
X131777915Y-82647698D01*
X131798631Y-82645351D01*
X131805424Y-82644000D01*
X131902209Y-82644000D01*
X131905834Y-82643947D01*
X132002552Y-82641110D01*
X132009377Y-82642261D01*
G37*
G36*
X111371877Y-82642261D02*
G01*
X111392650Y-82644000D01*
X111399577Y-82644000D01*
X111494504Y-82662882D01*
X111498098Y-82663542D01*
X111593480Y-82679624D01*
X111599953Y-82682085D01*
X111619978Y-82687841D01*
X111626777Y-82689193D01*
X111689164Y-82715034D01*
X111716193Y-82726230D01*
X111719594Y-82727581D01*
X111810005Y-82761961D01*
X111815877Y-82765640D01*
X111834386Y-82775187D01*
X111840795Y-82777842D01*
X111921313Y-82831642D01*
X111924304Y-82833578D01*
X112006307Y-82884959D01*
X112011334Y-82889700D01*
X112027646Y-82902691D01*
X112033402Y-82906537D01*
X112101860Y-82974995D01*
X112104439Y-82977499D01*
X112174840Y-83043889D01*
X112178845Y-83049519D01*
X112192309Y-83065444D01*
X112197209Y-83070344D01*
X112250994Y-83150839D01*
X112253041Y-83153807D01*
X112309130Y-83232645D01*
X112311964Y-83238958D01*
X112322058Y-83257193D01*
X112325908Y-83262955D01*
X112362970Y-83352430D01*
X112364374Y-83355685D01*
X112404015Y-83443973D01*
X112405565Y-83450725D01*
X112411902Y-83470562D01*
X112414557Y-83476973D01*
X112433442Y-83571917D01*
X112434188Y-83575401D01*
X112455848Y-83669751D01*
X112455848Y-83669754D01*
X112456050Y-83676654D01*
X112458397Y-83697370D01*
X112459750Y-83704174D01*
X112459750Y-83800986D01*
X112459803Y-83804584D01*
X112460938Y-83843277D01*
X112460045Y-83856225D01*
X112459750Y-83864797D01*
X112459750Y-83935826D01*
X112453831Y-83965585D01*
X112453354Y-83967979D01*
X112451250Y-83983750D01*
X112412988Y-84538545D01*
X112384126Y-84709730D01*
X112301788Y-84926255D01*
X112178791Y-85122557D01*
X112019861Y-85291090D01*
X111831105Y-85425380D01*
X111619777Y-85520265D01*
X111393999Y-85572098D01*
X111162448Y-85578889D01*
X111162447Y-85578889D01*
X111116762Y-85571186D01*
X110934020Y-85540376D01*
X110717495Y-85458038D01*
X110521193Y-85335041D01*
X110352660Y-85176111D01*
X110218370Y-84987355D01*
X110123485Y-84776027D01*
X110071652Y-84550249D01*
X110066562Y-84376723D01*
X110107454Y-83783794D01*
X110107750Y-83775196D01*
X110107750Y-83704175D01*
X110126632Y-83609250D01*
X110127294Y-83605645D01*
X110132981Y-83571917D01*
X110143374Y-83510270D01*
X110145835Y-83503799D01*
X110151592Y-83483767D01*
X110152943Y-83476974D01*
X110155593Y-83470576D01*
X110190014Y-83387476D01*
X110191303Y-83384230D01*
X110225712Y-83293745D01*
X110229386Y-83287881D01*
X110238937Y-83269365D01*
X110241592Y-83262955D01*
X110295407Y-83182415D01*
X110297327Y-83179449D01*
X110348709Y-83097443D01*
X110353461Y-83092404D01*
X110366439Y-83076107D01*
X110370287Y-83070348D01*
X110438743Y-83001892D01*
X110441296Y-82999262D01*
X110461773Y-82977548D01*
X110507639Y-82928910D01*
X110513271Y-82924903D01*
X110529197Y-82911438D01*
X110534096Y-82906539D01*
X110614574Y-82852766D01*
X110617556Y-82850710D01*
X110696395Y-82794620D01*
X110702705Y-82791787D01*
X110720944Y-82781691D01*
X110726701Y-82777844D01*
X110726704Y-82777843D01*
X110726705Y-82777842D01*
X110816179Y-82740781D01*
X110819437Y-82739375D01*
X110907723Y-82699735D01*
X110914475Y-82698185D01*
X110934312Y-82691848D01*
X110940723Y-82689193D01*
X111035649Y-82670311D01*
X111039196Y-82669551D01*
X111133501Y-82647901D01*
X111135880Y-82647831D01*
X111140415Y-82647698D01*
X111161131Y-82645351D01*
X111167924Y-82644000D01*
X111264709Y-82644000D01*
X111268334Y-82643947D01*
X111365052Y-82641110D01*
X111371877Y-82642261D01*
G37*
G36*
X96101000Y-82607250D02*
G01*
X94399000Y-82607250D01*
X94399000Y-80905250D01*
X96101000Y-80905250D01*
X96101000Y-82607250D01*
G37*
G36*
X92132250Y-82607250D02*
G01*
X90430250Y-82607250D01*
X90430250Y-80905250D01*
X92132250Y-80905250D01*
X92132250Y-82607250D01*
G37*
G36*
X84538500Y-79908500D02*
G01*
X77386500Y-79908500D01*
X77386500Y-78356500D01*
X84538500Y-78356500D01*
X84538500Y-79908500D01*
G37*
G36*
X78182172Y-77325949D02*
G01*
X78182174Y-77325950D01*
X78182175Y-77325950D01*
X78250603Y-77354293D01*
X78312186Y-77395442D01*
X78364558Y-77447814D01*
X78405707Y-77509397D01*
X78434050Y-77577825D01*
X78448500Y-77650467D01*
X78448500Y-77724533D01*
X78434050Y-77797175D01*
X78405707Y-77865603D01*
X78364558Y-77927186D01*
X78312186Y-77979558D01*
X78250603Y-78020707D01*
X78182175Y-78049050D01*
X78182174Y-78049050D01*
X78182172Y-78049051D01*
X78109534Y-78063500D01*
X78035466Y-78063500D01*
X77962828Y-78049051D01*
X77962826Y-78049050D01*
X77962825Y-78049050D01*
X77894397Y-78020707D01*
X77832814Y-77979558D01*
X77780442Y-77927186D01*
X77739293Y-77865603D01*
X77710950Y-77797175D01*
X77696500Y-77724533D01*
X77696500Y-77650467D01*
X77710950Y-77577825D01*
X77739293Y-77509397D01*
X77780442Y-77447814D01*
X77832814Y-77395442D01*
X77894397Y-77354293D01*
X77962825Y-77325950D01*
X77962826Y-77325950D01*
X77962828Y-77325949D01*
X78035466Y-77311500D01*
X78109534Y-77311500D01*
X78182172Y-77325949D01*
G37*
G36*
X83962172Y-77325949D02*
G01*
X83962174Y-77325950D01*
X83962175Y-77325950D01*
X84030603Y-77354293D01*
X84092186Y-77395442D01*
X84144558Y-77447814D01*
X84185707Y-77509397D01*
X84214050Y-77577825D01*
X84228500Y-77650467D01*
X84228500Y-77724533D01*
X84214050Y-77797175D01*
X84185707Y-77865603D01*
X84144558Y-77927186D01*
X84092186Y-77979558D01*
X84030603Y-78020707D01*
X83962175Y-78049050D01*
X83962174Y-78049050D01*
X83962172Y-78049051D01*
X83889534Y-78063500D01*
X83815466Y-78063500D01*
X83742828Y-78049051D01*
X83742826Y-78049050D01*
X83742825Y-78049050D01*
X83674397Y-78020707D01*
X83612814Y-77979558D01*
X83560442Y-77927186D01*
X83519293Y-77865603D01*
X83490950Y-77797175D01*
X83476500Y-77724533D01*
X83476500Y-77650467D01*
X83490950Y-77577825D01*
X83519293Y-77509397D01*
X83560442Y-77447814D01*
X83612814Y-77395442D01*
X83674397Y-77354293D01*
X83742825Y-77325950D01*
X83742826Y-77325950D01*
X83742828Y-77325949D01*
X83815466Y-77311500D01*
X83889534Y-77311500D01*
X83962172Y-77325949D01*
G37*
G36*
X91529478Y-73317953D02*
G01*
X91684350Y-73382103D01*
X91823731Y-73475235D01*
X91942265Y-73593769D01*
X92035397Y-73733150D01*
X92099547Y-73888022D01*
X92132250Y-74052434D01*
X92132250Y-74220066D01*
X92099547Y-74384478D01*
X92035397Y-74539350D01*
X91942265Y-74678731D01*
X91823731Y-74797265D01*
X91684350Y-74890397D01*
X91529478Y-74954547D01*
X91365066Y-74987250D01*
X91197434Y-74987250D01*
X91033022Y-74954547D01*
X90878150Y-74890397D01*
X90738769Y-74797265D01*
X90620235Y-74678731D01*
X90527103Y-74539350D01*
X90462953Y-74384478D01*
X90430250Y-74220066D01*
X90430250Y-74052434D01*
X90462953Y-73888022D01*
X90527103Y-73733150D01*
X90620235Y-73593769D01*
X90738769Y-73475235D01*
X90878150Y-73382103D01*
X91033022Y-73317953D01*
X91197434Y-73285250D01*
X91365066Y-73285250D01*
X91529478Y-73317953D01*
G37*
G36*
X95498228Y-73317953D02*
G01*
X95653100Y-73382103D01*
X95792481Y-73475235D01*
X95911015Y-73593769D01*
X96004147Y-73733150D01*
X96068297Y-73888022D01*
X96101000Y-74052434D01*
X96101000Y-74220066D01*
X96068297Y-74384478D01*
X96004147Y-74539350D01*
X95911015Y-74678731D01*
X95792481Y-74797265D01*
X95653100Y-74890397D01*
X95498228Y-74954547D01*
X95333816Y-74987250D01*
X95166184Y-74987250D01*
X95001772Y-74954547D01*
X94846900Y-74890397D01*
X94707519Y-74797265D01*
X94588985Y-74678731D01*
X94495853Y-74539350D01*
X94431703Y-74384478D01*
X94399000Y-74220066D01*
X94399000Y-74052434D01*
X94431703Y-73888022D01*
X94495853Y-73733150D01*
X94588985Y-73593769D01*
X94707519Y-73475235D01*
X94846900Y-73382103D01*
X95001772Y-73317953D01*
X95166184Y-73285250D01*
X95333816Y-73285250D01*
X95498228Y-73317953D01*
G37*
M02*
