G04 #@! TF.GenerationSoftware,KiCad,Pcbnew,(5.1.5)-3*
G04 #@! TF.CreationDate,2020-05-08T22:50:54-04:00*
G04 #@! TF.ProjectId,metropolislefty,6d657472-6f70-46f6-9c69-736c65667479,rev?*
G04 #@! TF.SameCoordinates,Original*
G04 #@! TF.FileFunction,Paste,Top*
G04 #@! TF.FilePolarity,Positive*
%FSLAX46Y46*%
G04 Gerber Fmt 4.6, Leading zero omitted, Abs format (unit mm)*
G04 Created by KiCad (PCBNEW (5.1.5)-3) date 2020-05-08 22:50:54*
%MOMM*%
%LPD*%
G04 APERTURE LIST*
%ADD10C,0.100000*%
%ADD11R,1.500000X1.000000*%
G04 APERTURE END LIST*
D10*
G36*
X58861392Y-84232424D02*
G01*
X58885053Y-84235934D01*
X58908257Y-84241746D01*
X58930779Y-84249804D01*
X58952403Y-84260032D01*
X58972920Y-84272329D01*
X58992133Y-84286579D01*
X59009857Y-84302643D01*
X59025921Y-84320367D01*
X59040171Y-84339580D01*
X59052468Y-84360097D01*
X59062696Y-84381721D01*
X59070754Y-84404243D01*
X59076566Y-84427447D01*
X59080076Y-84451108D01*
X59081250Y-84475000D01*
X59081250Y-85387500D01*
X59080076Y-85411392D01*
X59076566Y-85435053D01*
X59070754Y-85458257D01*
X59062696Y-85480779D01*
X59052468Y-85502403D01*
X59040171Y-85522920D01*
X59025921Y-85542133D01*
X59009857Y-85559857D01*
X58992133Y-85575921D01*
X58972920Y-85590171D01*
X58952403Y-85602468D01*
X58930779Y-85612696D01*
X58908257Y-85620754D01*
X58885053Y-85626566D01*
X58861392Y-85630076D01*
X58837500Y-85631250D01*
X58350000Y-85631250D01*
X58326108Y-85630076D01*
X58302447Y-85626566D01*
X58279243Y-85620754D01*
X58256721Y-85612696D01*
X58235097Y-85602468D01*
X58214580Y-85590171D01*
X58195367Y-85575921D01*
X58177643Y-85559857D01*
X58161579Y-85542133D01*
X58147329Y-85522920D01*
X58135032Y-85502403D01*
X58124804Y-85480779D01*
X58116746Y-85458257D01*
X58110934Y-85435053D01*
X58107424Y-85411392D01*
X58106250Y-85387500D01*
X58106250Y-84475000D01*
X58107424Y-84451108D01*
X58110934Y-84427447D01*
X58116746Y-84404243D01*
X58124804Y-84381721D01*
X58135032Y-84360097D01*
X58147329Y-84339580D01*
X58161579Y-84320367D01*
X58177643Y-84302643D01*
X58195367Y-84286579D01*
X58214580Y-84272329D01*
X58235097Y-84260032D01*
X58256721Y-84249804D01*
X58279243Y-84241746D01*
X58302447Y-84235934D01*
X58326108Y-84232424D01*
X58350000Y-84231250D01*
X58837500Y-84231250D01*
X58861392Y-84232424D01*
G37*
G36*
X60736392Y-84232424D02*
G01*
X60760053Y-84235934D01*
X60783257Y-84241746D01*
X60805779Y-84249804D01*
X60827403Y-84260032D01*
X60847920Y-84272329D01*
X60867133Y-84286579D01*
X60884857Y-84302643D01*
X60900921Y-84320367D01*
X60915171Y-84339580D01*
X60927468Y-84360097D01*
X60937696Y-84381721D01*
X60945754Y-84404243D01*
X60951566Y-84427447D01*
X60955076Y-84451108D01*
X60956250Y-84475000D01*
X60956250Y-85387500D01*
X60955076Y-85411392D01*
X60951566Y-85435053D01*
X60945754Y-85458257D01*
X60937696Y-85480779D01*
X60927468Y-85502403D01*
X60915171Y-85522920D01*
X60900921Y-85542133D01*
X60884857Y-85559857D01*
X60867133Y-85575921D01*
X60847920Y-85590171D01*
X60827403Y-85602468D01*
X60805779Y-85612696D01*
X60783257Y-85620754D01*
X60760053Y-85626566D01*
X60736392Y-85630076D01*
X60712500Y-85631250D01*
X60225000Y-85631250D01*
X60201108Y-85630076D01*
X60177447Y-85626566D01*
X60154243Y-85620754D01*
X60131721Y-85612696D01*
X60110097Y-85602468D01*
X60089580Y-85590171D01*
X60070367Y-85575921D01*
X60052643Y-85559857D01*
X60036579Y-85542133D01*
X60022329Y-85522920D01*
X60010032Y-85502403D01*
X59999804Y-85480779D01*
X59991746Y-85458257D01*
X59985934Y-85435053D01*
X59982424Y-85411392D01*
X59981250Y-85387500D01*
X59981250Y-84475000D01*
X59982424Y-84451108D01*
X59985934Y-84427447D01*
X59991746Y-84404243D01*
X59999804Y-84381721D01*
X60010032Y-84360097D01*
X60022329Y-84339580D01*
X60036579Y-84320367D01*
X60052643Y-84302643D01*
X60070367Y-84286579D01*
X60089580Y-84272329D01*
X60110097Y-84260032D01*
X60131721Y-84249804D01*
X60154243Y-84241746D01*
X60177447Y-84235934D01*
X60201108Y-84232424D01*
X60225000Y-84231250D01*
X60712500Y-84231250D01*
X60736392Y-84232424D01*
G37*
D11*
X57081250Y-108731250D03*
X57081250Y-111931250D03*
X61981250Y-108731250D03*
X61981250Y-111931250D03*
X57081250Y-98412500D03*
X57081250Y-101612500D03*
X61981250Y-98412500D03*
X61981250Y-101612500D03*
X57081250Y-89681250D03*
X57081250Y-92881250D03*
X61981250Y-89681250D03*
X61981250Y-92881250D03*
M02*
