G04 #@! TF.GenerationSoftware,KiCad,Pcbnew,(5.1.5)-3*
G04 #@! TF.CreationDate,2020-05-08T22:50:54-04:00*
G04 #@! TF.ProjectId,metropolislefty,6d657472-6f70-46f6-9c69-736c65667479,rev?*
G04 #@! TF.SameCoordinates,Original*
G04 #@! TF.FileFunction,Soldermask,Top*
G04 #@! TF.FilePolarity,Negative*
%FSLAX46Y46*%
G04 Gerber Fmt 4.6, Leading zero omitted, Abs format (unit mm)*
G04 Created by KiCad (PCBNEW (5.1.5)-3) date 2020-05-08 22:50:54*
%MOMM*%
%LPD*%
G04 APERTURE LIST*
%ADD10C,0.100000*%
G04 APERTURE END LIST*
D10*
G36*
X82176000Y-125038500D02*
G01*
X78874000Y-125038500D01*
X78874000Y-122936500D01*
X82176000Y-122936500D01*
X82176000Y-125038500D01*
G37*
G36*
X96291978Y-121895453D02*
G01*
X96446850Y-121959603D01*
X96586231Y-122052735D01*
X96704765Y-122171269D01*
X96797897Y-122310650D01*
X96862047Y-122465522D01*
X96894750Y-122629934D01*
X96894750Y-122797566D01*
X96862047Y-122961978D01*
X96797897Y-123116850D01*
X96704765Y-123256231D01*
X96586231Y-123374765D01*
X96446850Y-123467897D01*
X96291978Y-123532047D01*
X96127566Y-123564750D01*
X95959934Y-123564750D01*
X95795522Y-123532047D01*
X95640650Y-123467897D01*
X95501269Y-123374765D01*
X95382735Y-123256231D01*
X95289603Y-123116850D01*
X95225453Y-122961978D01*
X95192750Y-122797566D01*
X95192750Y-122629934D01*
X95225453Y-122465522D01*
X95289603Y-122310650D01*
X95382735Y-122171269D01*
X95501269Y-122052735D01*
X95640650Y-121959603D01*
X95795522Y-121895453D01*
X95959934Y-121862750D01*
X96127566Y-121862750D01*
X96291978Y-121895453D01*
G37*
G36*
X92323228Y-121895453D02*
G01*
X92478100Y-121959603D01*
X92617481Y-122052735D01*
X92736015Y-122171269D01*
X92829147Y-122310650D01*
X92893297Y-122465522D01*
X92926000Y-122629934D01*
X92926000Y-122797566D01*
X92893297Y-122961978D01*
X92829147Y-123116850D01*
X92736015Y-123256231D01*
X92617481Y-123374765D01*
X92478100Y-123467897D01*
X92323228Y-123532047D01*
X92158816Y-123564750D01*
X91991184Y-123564750D01*
X91826772Y-123532047D01*
X91671900Y-123467897D01*
X91532519Y-123374765D01*
X91413985Y-123256231D01*
X91320853Y-123116850D01*
X91256703Y-122961978D01*
X91224000Y-122797566D01*
X91224000Y-122629934D01*
X91256703Y-122465522D01*
X91320853Y-122310650D01*
X91413985Y-122171269D01*
X91532519Y-122052735D01*
X91671900Y-121959603D01*
X91826772Y-121895453D01*
X91991184Y-121862750D01*
X92158816Y-121862750D01*
X92323228Y-121895453D01*
G37*
G36*
X73331564Y-119876889D02*
G01*
X73522833Y-119956115D01*
X73522835Y-119956116D01*
X73694973Y-120071135D01*
X73841365Y-120217527D01*
X73956385Y-120389667D01*
X74035611Y-120580936D01*
X74076000Y-120783984D01*
X74076000Y-120991016D01*
X74035611Y-121194064D01*
X73956385Y-121385333D01*
X73956384Y-121385335D01*
X73841365Y-121557473D01*
X73694973Y-121703865D01*
X73522835Y-121818884D01*
X73522834Y-121818885D01*
X73522833Y-121818885D01*
X73331564Y-121898111D01*
X73128516Y-121938500D01*
X72921484Y-121938500D01*
X72718436Y-121898111D01*
X72527167Y-121818885D01*
X72527166Y-121818885D01*
X72527165Y-121818884D01*
X72355027Y-121703865D01*
X72208635Y-121557473D01*
X72093616Y-121385335D01*
X72093615Y-121385333D01*
X72014389Y-121194064D01*
X71974000Y-120991016D01*
X71974000Y-120783984D01*
X72014389Y-120580936D01*
X72093615Y-120389667D01*
X72208635Y-120217527D01*
X72355027Y-120071135D01*
X72527165Y-119956116D01*
X72527167Y-119956115D01*
X72718436Y-119876889D01*
X72921484Y-119836500D01*
X73128516Y-119836500D01*
X73331564Y-119876889D01*
G37*
G36*
X87831564Y-119876889D02*
G01*
X88022833Y-119956115D01*
X88022835Y-119956116D01*
X88194973Y-120071135D01*
X88341365Y-120217527D01*
X88456385Y-120389667D01*
X88535611Y-120580936D01*
X88576000Y-120783984D01*
X88576000Y-120991016D01*
X88535611Y-121194064D01*
X88456385Y-121385333D01*
X88456384Y-121385335D01*
X88341365Y-121557473D01*
X88194973Y-121703865D01*
X88022835Y-121818884D01*
X88022834Y-121818885D01*
X88022833Y-121818885D01*
X87831564Y-121898111D01*
X87628516Y-121938500D01*
X87421484Y-121938500D01*
X87218436Y-121898111D01*
X87027167Y-121818885D01*
X87027166Y-121818885D01*
X87027165Y-121818884D01*
X86855027Y-121703865D01*
X86708635Y-121557473D01*
X86593616Y-121385335D01*
X86593615Y-121385333D01*
X86514389Y-121194064D01*
X86474000Y-120991016D01*
X86474000Y-120783984D01*
X86514389Y-120580936D01*
X86593615Y-120389667D01*
X86708635Y-120217527D01*
X86855027Y-120071135D01*
X87027165Y-119956116D01*
X87027167Y-119956115D01*
X87218436Y-119876889D01*
X87421484Y-119836500D01*
X87628516Y-119836500D01*
X87831564Y-119876889D01*
G37*
G36*
X73331564Y-117376889D02*
G01*
X73522833Y-117456115D01*
X73522835Y-117456116D01*
X73694973Y-117571135D01*
X73841365Y-117717527D01*
X73956385Y-117889667D01*
X74035611Y-118080936D01*
X74076000Y-118283984D01*
X74076000Y-118491016D01*
X74035611Y-118694064D01*
X73956385Y-118885333D01*
X73956384Y-118885335D01*
X73841365Y-119057473D01*
X73694973Y-119203865D01*
X73522835Y-119318884D01*
X73522834Y-119318885D01*
X73522833Y-119318885D01*
X73331564Y-119398111D01*
X73128516Y-119438500D01*
X72921484Y-119438500D01*
X72718436Y-119398111D01*
X72527167Y-119318885D01*
X72527166Y-119318885D01*
X72527165Y-119318884D01*
X72355027Y-119203865D01*
X72208635Y-119057473D01*
X72093616Y-118885335D01*
X72093615Y-118885333D01*
X72014389Y-118694064D01*
X71974000Y-118491016D01*
X71974000Y-118283984D01*
X72014389Y-118080936D01*
X72093615Y-117889667D01*
X72208635Y-117717527D01*
X72355027Y-117571135D01*
X72527165Y-117456116D01*
X72527167Y-117456115D01*
X72718436Y-117376889D01*
X72921484Y-117336500D01*
X73128516Y-117336500D01*
X73331564Y-117376889D01*
G37*
G36*
X87831564Y-114876889D02*
G01*
X88022833Y-114956115D01*
X88022835Y-114956116D01*
X88194973Y-115071135D01*
X88341365Y-115217527D01*
X88456385Y-115389667D01*
X88535611Y-115580936D01*
X88576000Y-115783984D01*
X88576000Y-115991016D01*
X88535611Y-116194064D01*
X88456385Y-116385333D01*
X88456384Y-116385335D01*
X88341365Y-116557473D01*
X88194973Y-116703865D01*
X88022835Y-116818884D01*
X88022834Y-116818885D01*
X88022833Y-116818885D01*
X87831564Y-116898111D01*
X87628516Y-116938500D01*
X87421484Y-116938500D01*
X87218436Y-116898111D01*
X87027167Y-116818885D01*
X87027166Y-116818885D01*
X87027165Y-116818884D01*
X86855027Y-116703865D01*
X86708635Y-116557473D01*
X86593616Y-116385335D01*
X86593615Y-116385333D01*
X86514389Y-116194064D01*
X86474000Y-115991016D01*
X86474000Y-115783984D01*
X86514389Y-115580936D01*
X86593615Y-115389667D01*
X86708635Y-115217527D01*
X86855027Y-115071135D01*
X87027165Y-114956116D01*
X87027167Y-114956115D01*
X87218436Y-114876889D01*
X87421484Y-114836500D01*
X87628516Y-114836500D01*
X87831564Y-114876889D01*
G37*
G36*
X74076000Y-116938500D02*
G01*
X71974000Y-116938500D01*
X71974000Y-114836500D01*
X74076000Y-114836500D01*
X74076000Y-116938500D01*
G37*
G36*
X96894750Y-115944750D02*
G01*
X95192750Y-115944750D01*
X95192750Y-114242750D01*
X96894750Y-114242750D01*
X96894750Y-115944750D01*
G37*
G36*
X92926000Y-115944750D02*
G01*
X91224000Y-115944750D01*
X91224000Y-114242750D01*
X92926000Y-114242750D01*
X92926000Y-115944750D01*
G37*
G36*
X82176000Y-113838500D02*
G01*
X78874000Y-113838500D01*
X78874000Y-111736500D01*
X82176000Y-111736500D01*
X82176000Y-113838500D01*
G37*
G36*
X57882250Y-112482250D02*
G01*
X56280250Y-112482250D01*
X56280250Y-111380250D01*
X57882250Y-111380250D01*
X57882250Y-112482250D01*
G37*
G36*
X62782250Y-112482250D02*
G01*
X61180250Y-112482250D01*
X61180250Y-111380250D01*
X62782250Y-111380250D01*
X62782250Y-112482250D01*
G37*
G36*
X129977724Y-107571184D02*
G01*
X130195724Y-107661483D01*
X130349873Y-107725333D01*
X130684798Y-107949123D01*
X130969627Y-108233952D01*
X131193417Y-108568877D01*
X131225812Y-108647086D01*
X131347566Y-108941026D01*
X131426150Y-109336094D01*
X131426150Y-109738906D01*
X131347566Y-110133974D01*
X131296701Y-110256772D01*
X131193417Y-110506123D01*
X130969627Y-110841048D01*
X130684798Y-111125877D01*
X130349873Y-111349667D01*
X130195724Y-111413517D01*
X129977724Y-111503816D01*
X129582656Y-111582400D01*
X129179844Y-111582400D01*
X128784776Y-111503816D01*
X128566776Y-111413517D01*
X128412627Y-111349667D01*
X128077702Y-111125877D01*
X127792873Y-110841048D01*
X127569083Y-110506123D01*
X127465799Y-110256772D01*
X127414934Y-110133974D01*
X127336350Y-109738906D01*
X127336350Y-109336094D01*
X127414934Y-108941026D01*
X127536688Y-108647086D01*
X127569083Y-108568877D01*
X127792873Y-108233952D01*
X128077702Y-107949123D01*
X128412627Y-107725333D01*
X128566776Y-107661483D01*
X128784776Y-107571184D01*
X129179844Y-107492600D01*
X129582656Y-107492600D01*
X129977724Y-107571184D01*
G37*
G36*
X109340224Y-107571184D02*
G01*
X109558224Y-107661483D01*
X109712373Y-107725333D01*
X110047298Y-107949123D01*
X110332127Y-108233952D01*
X110555917Y-108568877D01*
X110588312Y-108647086D01*
X110710066Y-108941026D01*
X110788650Y-109336094D01*
X110788650Y-109738906D01*
X110710066Y-110133974D01*
X110659201Y-110256772D01*
X110555917Y-110506123D01*
X110332127Y-110841048D01*
X110047298Y-111125877D01*
X109712373Y-111349667D01*
X109558224Y-111413517D01*
X109340224Y-111503816D01*
X108945156Y-111582400D01*
X108542344Y-111582400D01*
X108147276Y-111503816D01*
X107929276Y-111413517D01*
X107775127Y-111349667D01*
X107440202Y-111125877D01*
X107155373Y-110841048D01*
X106931583Y-110506123D01*
X106828299Y-110256772D01*
X106777434Y-110133974D01*
X106698850Y-109738906D01*
X106698850Y-109336094D01*
X106777434Y-108941026D01*
X106899188Y-108647086D01*
X106931583Y-108568877D01*
X107155373Y-108233952D01*
X107440202Y-107949123D01*
X107775127Y-107725333D01*
X107929276Y-107661483D01*
X108147276Y-107571184D01*
X108542344Y-107492600D01*
X108945156Y-107492600D01*
X109340224Y-107571184D01*
G37*
G36*
X134731354Y-108647085D02*
G01*
X134899876Y-108716889D01*
X135051541Y-108818228D01*
X135180522Y-108947209D01*
X135281861Y-109098874D01*
X135351665Y-109267396D01*
X135387250Y-109446297D01*
X135387250Y-109628703D01*
X135351665Y-109807604D01*
X135281861Y-109976126D01*
X135180522Y-110127791D01*
X135051541Y-110256772D01*
X134899876Y-110358111D01*
X134731354Y-110427915D01*
X134552453Y-110463500D01*
X134370047Y-110463500D01*
X134191146Y-110427915D01*
X134022624Y-110358111D01*
X133870959Y-110256772D01*
X133741978Y-110127791D01*
X133640639Y-109976126D01*
X133570835Y-109807604D01*
X133535250Y-109628703D01*
X133535250Y-109446297D01*
X133570835Y-109267396D01*
X133640639Y-109098874D01*
X133741978Y-108947209D01*
X133870959Y-108818228D01*
X134022624Y-108716889D01*
X134191146Y-108647085D01*
X134370047Y-108611500D01*
X134552453Y-108611500D01*
X134731354Y-108647085D01*
G37*
G36*
X103933854Y-108647085D02*
G01*
X104102376Y-108716889D01*
X104254041Y-108818228D01*
X104383022Y-108947209D01*
X104484361Y-109098874D01*
X104554165Y-109267396D01*
X104589750Y-109446297D01*
X104589750Y-109628703D01*
X104554165Y-109807604D01*
X104484361Y-109976126D01*
X104383022Y-110127791D01*
X104254041Y-110256772D01*
X104102376Y-110358111D01*
X103933854Y-110427915D01*
X103754953Y-110463500D01*
X103572547Y-110463500D01*
X103393646Y-110427915D01*
X103225124Y-110358111D01*
X103073459Y-110256772D01*
X102944478Y-110127791D01*
X102843139Y-109976126D01*
X102773335Y-109807604D01*
X102737750Y-109628703D01*
X102737750Y-109446297D01*
X102773335Y-109267396D01*
X102843139Y-109098874D01*
X102944478Y-108947209D01*
X103073459Y-108818228D01*
X103225124Y-108716889D01*
X103393646Y-108647085D01*
X103572547Y-108611500D01*
X103754953Y-108611500D01*
X103933854Y-108647085D01*
G37*
G36*
X124571354Y-108647085D02*
G01*
X124739876Y-108716889D01*
X124891541Y-108818228D01*
X125020522Y-108947209D01*
X125121861Y-109098874D01*
X125191665Y-109267396D01*
X125227250Y-109446297D01*
X125227250Y-109628703D01*
X125191665Y-109807604D01*
X125121861Y-109976126D01*
X125020522Y-110127791D01*
X124891541Y-110256772D01*
X124739876Y-110358111D01*
X124571354Y-110427915D01*
X124392453Y-110463500D01*
X124210047Y-110463500D01*
X124031146Y-110427915D01*
X123862624Y-110358111D01*
X123710959Y-110256772D01*
X123581978Y-110127791D01*
X123480639Y-109976126D01*
X123410835Y-109807604D01*
X123375250Y-109628703D01*
X123375250Y-109446297D01*
X123410835Y-109267396D01*
X123480639Y-109098874D01*
X123581978Y-108947209D01*
X123710959Y-108818228D01*
X123862624Y-108716889D01*
X124031146Y-108647085D01*
X124210047Y-108611500D01*
X124392453Y-108611500D01*
X124571354Y-108647085D01*
G37*
G36*
X114093854Y-108647085D02*
G01*
X114262376Y-108716889D01*
X114414041Y-108818228D01*
X114543022Y-108947209D01*
X114644361Y-109098874D01*
X114714165Y-109267396D01*
X114749750Y-109446297D01*
X114749750Y-109628703D01*
X114714165Y-109807604D01*
X114644361Y-109976126D01*
X114543022Y-110127791D01*
X114414041Y-110256772D01*
X114262376Y-110358111D01*
X114093854Y-110427915D01*
X113914953Y-110463500D01*
X113732547Y-110463500D01*
X113553646Y-110427915D01*
X113385124Y-110358111D01*
X113233459Y-110256772D01*
X113104478Y-110127791D01*
X113003139Y-109976126D01*
X112933335Y-109807604D01*
X112897750Y-109628703D01*
X112897750Y-109446297D01*
X112933335Y-109267396D01*
X113003139Y-109098874D01*
X113104478Y-108947209D01*
X113233459Y-108818228D01*
X113385124Y-108716889D01*
X113553646Y-108647085D01*
X113732547Y-108611500D01*
X113914953Y-108611500D01*
X114093854Y-108647085D01*
G37*
G36*
X62782250Y-109282250D02*
G01*
X61180250Y-109282250D01*
X61180250Y-108180250D01*
X62782250Y-108180250D01*
X62782250Y-109282250D01*
G37*
G36*
X57882250Y-109282250D02*
G01*
X56280250Y-109282250D01*
X56280250Y-108180250D01*
X57882250Y-108180250D01*
X57882250Y-109282250D01*
G37*
G36*
X57882250Y-102163500D02*
G01*
X56280250Y-102163500D01*
X56280250Y-101061500D01*
X57882250Y-101061500D01*
X57882250Y-102163500D01*
G37*
G36*
X62782250Y-102163500D02*
G01*
X61180250Y-102163500D01*
X61180250Y-101061500D01*
X62782250Y-101061500D01*
X62782250Y-102163500D01*
G37*
G36*
X62782250Y-98963500D02*
G01*
X61180250Y-98963500D01*
X61180250Y-97861500D01*
X62782250Y-97861500D01*
X62782250Y-98963500D01*
G37*
G36*
X57882250Y-98963500D02*
G01*
X56280250Y-98963500D01*
X56280250Y-97861500D01*
X57882250Y-97861500D01*
X57882250Y-98963500D01*
G37*
G36*
X62782250Y-93432250D02*
G01*
X61180250Y-93432250D01*
X61180250Y-92330250D01*
X62782250Y-92330250D01*
X62782250Y-93432250D01*
G37*
G36*
X57882250Y-93432250D02*
G01*
X56280250Y-93432250D01*
X56280250Y-92330250D01*
X57882250Y-92330250D01*
X57882250Y-93432250D01*
G37*
G36*
X109340224Y-86933684D02*
G01*
X109558224Y-87023983D01*
X109712373Y-87087833D01*
X110047298Y-87311623D01*
X110332127Y-87596452D01*
X110555917Y-87931377D01*
X110588312Y-88009586D01*
X110710066Y-88303526D01*
X110788650Y-88698594D01*
X110788650Y-89101406D01*
X110710066Y-89496474D01*
X110659201Y-89619272D01*
X110555917Y-89868623D01*
X110332127Y-90203548D01*
X110047298Y-90488377D01*
X109712373Y-90712167D01*
X109558224Y-90776017D01*
X109340224Y-90866316D01*
X108945156Y-90944900D01*
X108542344Y-90944900D01*
X108147276Y-90866316D01*
X107929276Y-90776017D01*
X107775127Y-90712167D01*
X107440202Y-90488377D01*
X107155373Y-90203548D01*
X106931583Y-89868623D01*
X106828299Y-89619272D01*
X106777434Y-89496474D01*
X106698850Y-89101406D01*
X106698850Y-88698594D01*
X106777434Y-88303526D01*
X106899188Y-88009586D01*
X106931583Y-87931377D01*
X107155373Y-87596452D01*
X107440202Y-87311623D01*
X107775127Y-87087833D01*
X107929276Y-87023983D01*
X108147276Y-86933684D01*
X108542344Y-86855100D01*
X108945156Y-86855100D01*
X109340224Y-86933684D01*
G37*
G36*
X129977724Y-86933684D02*
G01*
X130195724Y-87023983D01*
X130349873Y-87087833D01*
X130684798Y-87311623D01*
X130969627Y-87596452D01*
X131193417Y-87931377D01*
X131225812Y-88009586D01*
X131347566Y-88303526D01*
X131426150Y-88698594D01*
X131426150Y-89101406D01*
X131347566Y-89496474D01*
X131296701Y-89619272D01*
X131193417Y-89868623D01*
X130969627Y-90203548D01*
X130684798Y-90488377D01*
X130349873Y-90712167D01*
X130195724Y-90776017D01*
X129977724Y-90866316D01*
X129582656Y-90944900D01*
X129179844Y-90944900D01*
X128784776Y-90866316D01*
X128566776Y-90776017D01*
X128412627Y-90712167D01*
X128077702Y-90488377D01*
X127792873Y-90203548D01*
X127569083Y-89868623D01*
X127465799Y-89619272D01*
X127414934Y-89496474D01*
X127336350Y-89101406D01*
X127336350Y-88698594D01*
X127414934Y-88303526D01*
X127536688Y-88009586D01*
X127569083Y-87931377D01*
X127792873Y-87596452D01*
X128077702Y-87311623D01*
X128412627Y-87087833D01*
X128566776Y-87023983D01*
X128784776Y-86933684D01*
X129179844Y-86855100D01*
X129582656Y-86855100D01*
X129977724Y-86933684D01*
G37*
G36*
X62782250Y-90232250D02*
G01*
X61180250Y-90232250D01*
X61180250Y-89130250D01*
X62782250Y-89130250D01*
X62782250Y-90232250D01*
G37*
G36*
X57882250Y-90232250D02*
G01*
X56280250Y-90232250D01*
X56280250Y-89130250D01*
X57882250Y-89130250D01*
X57882250Y-90232250D01*
G37*
G36*
X114093854Y-88009585D02*
G01*
X114262376Y-88079389D01*
X114414041Y-88180728D01*
X114543022Y-88309709D01*
X114644361Y-88461374D01*
X114714165Y-88629896D01*
X114749750Y-88808797D01*
X114749750Y-88991203D01*
X114714165Y-89170104D01*
X114644361Y-89338626D01*
X114543022Y-89490291D01*
X114414041Y-89619272D01*
X114262376Y-89720611D01*
X114093854Y-89790415D01*
X113914953Y-89826000D01*
X113732547Y-89826000D01*
X113553646Y-89790415D01*
X113385124Y-89720611D01*
X113233459Y-89619272D01*
X113104478Y-89490291D01*
X113003139Y-89338626D01*
X112933335Y-89170104D01*
X112897750Y-88991203D01*
X112897750Y-88808797D01*
X112933335Y-88629896D01*
X113003139Y-88461374D01*
X113104478Y-88309709D01*
X113233459Y-88180728D01*
X113385124Y-88079389D01*
X113553646Y-88009585D01*
X113732547Y-87974000D01*
X113914953Y-87974000D01*
X114093854Y-88009585D01*
G37*
G36*
X124571354Y-88009585D02*
G01*
X124739876Y-88079389D01*
X124891541Y-88180728D01*
X125020522Y-88309709D01*
X125121861Y-88461374D01*
X125191665Y-88629896D01*
X125227250Y-88808797D01*
X125227250Y-88991203D01*
X125191665Y-89170104D01*
X125121861Y-89338626D01*
X125020522Y-89490291D01*
X124891541Y-89619272D01*
X124739876Y-89720611D01*
X124571354Y-89790415D01*
X124392453Y-89826000D01*
X124210047Y-89826000D01*
X124031146Y-89790415D01*
X123862624Y-89720611D01*
X123710959Y-89619272D01*
X123581978Y-89490291D01*
X123480639Y-89338626D01*
X123410835Y-89170104D01*
X123375250Y-88991203D01*
X123375250Y-88808797D01*
X123410835Y-88629896D01*
X123480639Y-88461374D01*
X123581978Y-88309709D01*
X123710959Y-88180728D01*
X123862624Y-88079389D01*
X124031146Y-88009585D01*
X124210047Y-87974000D01*
X124392453Y-87974000D01*
X124571354Y-88009585D01*
G37*
G36*
X134731354Y-88009585D02*
G01*
X134899876Y-88079389D01*
X135051541Y-88180728D01*
X135180522Y-88309709D01*
X135281861Y-88461374D01*
X135351665Y-88629896D01*
X135387250Y-88808797D01*
X135387250Y-88991203D01*
X135351665Y-89170104D01*
X135281861Y-89338626D01*
X135180522Y-89490291D01*
X135051541Y-89619272D01*
X134899876Y-89720611D01*
X134731354Y-89790415D01*
X134552453Y-89826000D01*
X134370047Y-89826000D01*
X134191146Y-89790415D01*
X134022624Y-89720611D01*
X133870959Y-89619272D01*
X133741978Y-89490291D01*
X133640639Y-89338626D01*
X133570835Y-89170104D01*
X133535250Y-88991203D01*
X133535250Y-88808797D01*
X133570835Y-88629896D01*
X133640639Y-88461374D01*
X133741978Y-88309709D01*
X133870959Y-88180728D01*
X134022624Y-88079389D01*
X134191146Y-88009585D01*
X134370047Y-87974000D01*
X134552453Y-87974000D01*
X134731354Y-88009585D01*
G37*
G36*
X103933854Y-88009585D02*
G01*
X104102376Y-88079389D01*
X104254041Y-88180728D01*
X104383022Y-88309709D01*
X104484361Y-88461374D01*
X104554165Y-88629896D01*
X104589750Y-88808797D01*
X104589750Y-88991203D01*
X104554165Y-89170104D01*
X104484361Y-89338626D01*
X104383022Y-89490291D01*
X104254041Y-89619272D01*
X104102376Y-89720611D01*
X103933854Y-89790415D01*
X103754953Y-89826000D01*
X103572547Y-89826000D01*
X103393646Y-89790415D01*
X103225124Y-89720611D01*
X103073459Y-89619272D01*
X102944478Y-89490291D01*
X102843139Y-89338626D01*
X102773335Y-89170104D01*
X102737750Y-88991203D01*
X102737750Y-88808797D01*
X102773335Y-88629896D01*
X102843139Y-88461374D01*
X102944478Y-88309709D01*
X103073459Y-88180728D01*
X103225124Y-88079389D01*
X103393646Y-88009585D01*
X103572547Y-87974000D01*
X103754953Y-87974000D01*
X103933854Y-88009585D01*
G37*
G36*
X58965718Y-84184815D02*
G01*
X59004388Y-84196546D01*
X59040027Y-84215596D01*
X59071267Y-84241233D01*
X59096904Y-84272473D01*
X59115954Y-84308112D01*
X59127685Y-84346782D01*
X59132250Y-84393138D01*
X59132250Y-85469362D01*
X59127685Y-85515718D01*
X59115954Y-85554388D01*
X59096904Y-85590027D01*
X59071267Y-85621267D01*
X59040027Y-85646904D01*
X59004388Y-85665954D01*
X58965718Y-85677685D01*
X58919362Y-85682250D01*
X58268138Y-85682250D01*
X58221782Y-85677685D01*
X58183112Y-85665954D01*
X58147473Y-85646904D01*
X58116233Y-85621267D01*
X58090596Y-85590027D01*
X58071546Y-85554388D01*
X58059815Y-85515718D01*
X58055250Y-85469362D01*
X58055250Y-84393138D01*
X58059815Y-84346782D01*
X58071546Y-84308112D01*
X58090596Y-84272473D01*
X58116233Y-84241233D01*
X58147473Y-84215596D01*
X58183112Y-84196546D01*
X58221782Y-84184815D01*
X58268138Y-84180250D01*
X58919362Y-84180250D01*
X58965718Y-84184815D01*
G37*
G36*
X60840718Y-84184815D02*
G01*
X60879388Y-84196546D01*
X60915027Y-84215596D01*
X60946267Y-84241233D01*
X60971904Y-84272473D01*
X60990954Y-84308112D01*
X61002685Y-84346782D01*
X61007250Y-84393138D01*
X61007250Y-85469362D01*
X61002685Y-85515718D01*
X60990954Y-85554388D01*
X60971904Y-85590027D01*
X60946267Y-85621267D01*
X60915027Y-85646904D01*
X60879388Y-85665954D01*
X60840718Y-85677685D01*
X60794362Y-85682250D01*
X60143138Y-85682250D01*
X60096782Y-85677685D01*
X60058112Y-85665954D01*
X60022473Y-85646904D01*
X59991233Y-85621267D01*
X59965596Y-85590027D01*
X59946546Y-85554388D01*
X59934815Y-85515718D01*
X59930250Y-85469362D01*
X59930250Y-84393138D01*
X59934815Y-84346782D01*
X59946546Y-84308112D01*
X59965596Y-84272473D01*
X59991233Y-84241233D01*
X60022473Y-84215596D01*
X60058112Y-84196546D01*
X60096782Y-84184815D01*
X60143138Y-84180250D01*
X60794362Y-84180250D01*
X60840718Y-84184815D01*
G37*
G36*
X92132250Y-82607250D02*
G01*
X90430250Y-82607250D01*
X90430250Y-80905250D01*
X92132250Y-80905250D01*
X92132250Y-82607250D01*
G37*
G36*
X96101000Y-82607250D02*
G01*
X94399000Y-82607250D01*
X94399000Y-80905250D01*
X96101000Y-80905250D01*
X96101000Y-82607250D01*
G37*
G36*
X76750514Y-77124473D02*
G01*
X76854378Y-77155979D01*
X76898407Y-77179513D01*
X76950099Y-77207143D01*
X76950101Y-77207144D01*
X76950100Y-77207144D01*
X77034001Y-77275999D01*
X77102856Y-77359900D01*
X77154021Y-77455621D01*
X77185527Y-77559485D01*
X77193500Y-77640433D01*
X77193500Y-78794567D01*
X77185527Y-78875515D01*
X77154021Y-78979379D01*
X77154019Y-78979382D01*
X77102857Y-79075100D01*
X77034001Y-79159001D01*
X76950100Y-79227857D01*
X76881555Y-79264495D01*
X76854379Y-79279021D01*
X76750515Y-79310527D01*
X76642500Y-79321166D01*
X76534486Y-79310527D01*
X76430622Y-79279021D01*
X76403446Y-79264495D01*
X76334901Y-79227857D01*
X76251000Y-79159001D01*
X76182144Y-79075100D01*
X76130982Y-78979382D01*
X76130980Y-78979379D01*
X76099474Y-78875515D01*
X76091501Y-78794567D01*
X76091500Y-77640434D01*
X76099473Y-77559486D01*
X76130979Y-77455622D01*
X76182144Y-77359900D01*
X76250999Y-77275999D01*
X76334900Y-77207144D01*
X76334899Y-77207144D01*
X76334901Y-77207143D01*
X76386593Y-77179513D01*
X76430621Y-77155979D01*
X76534485Y-77124473D01*
X76642500Y-77113834D01*
X76750514Y-77124473D01*
G37*
G36*
X85390514Y-77124473D02*
G01*
X85494378Y-77155979D01*
X85538407Y-77179513D01*
X85590099Y-77207143D01*
X85590101Y-77207144D01*
X85590100Y-77207144D01*
X85674001Y-77275999D01*
X85742856Y-77359900D01*
X85794021Y-77455621D01*
X85825527Y-77559485D01*
X85833500Y-77640433D01*
X85833500Y-78794567D01*
X85825527Y-78875515D01*
X85794021Y-78979379D01*
X85794019Y-78979382D01*
X85742857Y-79075100D01*
X85674001Y-79159001D01*
X85590100Y-79227857D01*
X85521555Y-79264495D01*
X85494379Y-79279021D01*
X85390515Y-79310527D01*
X85282500Y-79321166D01*
X85174486Y-79310527D01*
X85070622Y-79279021D01*
X85043446Y-79264495D01*
X84974901Y-79227857D01*
X84891000Y-79159001D01*
X84822144Y-79075100D01*
X84770982Y-78979382D01*
X84770980Y-78979379D01*
X84739474Y-78875515D01*
X84731501Y-78794567D01*
X84731500Y-77640434D01*
X84739473Y-77559486D01*
X84770979Y-77455622D01*
X84822144Y-77359900D01*
X84890999Y-77275999D01*
X84974900Y-77207144D01*
X84974899Y-77207144D01*
X84974901Y-77207143D01*
X85026593Y-77179513D01*
X85070621Y-77155979D01*
X85174485Y-77124473D01*
X85282500Y-77113834D01*
X85390514Y-77124473D01*
G37*
G36*
X83962172Y-77325949D02*
G01*
X83962174Y-77325950D01*
X83962175Y-77325950D01*
X84030603Y-77354293D01*
X84092186Y-77395442D01*
X84144558Y-77447814D01*
X84185707Y-77509397D01*
X84214050Y-77577825D01*
X84214051Y-77577828D01*
X84228500Y-77650466D01*
X84228500Y-77724533D01*
X84214050Y-77797175D01*
X84185707Y-77865603D01*
X84144558Y-77927186D01*
X84092186Y-77979558D01*
X84030603Y-78020707D01*
X83962175Y-78049050D01*
X83962174Y-78049050D01*
X83962172Y-78049051D01*
X83889534Y-78063500D01*
X83815466Y-78063500D01*
X83742828Y-78049051D01*
X83742826Y-78049050D01*
X83742825Y-78049050D01*
X83674397Y-78020707D01*
X83612814Y-77979558D01*
X83560442Y-77927186D01*
X83519293Y-77865603D01*
X83490950Y-77797175D01*
X83476500Y-77724533D01*
X83476500Y-77650466D01*
X83490949Y-77577828D01*
X83490950Y-77577825D01*
X83519293Y-77509397D01*
X83560442Y-77447814D01*
X83612814Y-77395442D01*
X83674397Y-77354293D01*
X83742825Y-77325950D01*
X83742826Y-77325950D01*
X83742828Y-77325949D01*
X83815466Y-77311500D01*
X83889534Y-77311500D01*
X83962172Y-77325949D01*
G37*
G36*
X78182172Y-77325949D02*
G01*
X78182174Y-77325950D01*
X78182175Y-77325950D01*
X78250603Y-77354293D01*
X78312186Y-77395442D01*
X78364558Y-77447814D01*
X78405707Y-77509397D01*
X78434050Y-77577825D01*
X78434051Y-77577828D01*
X78448500Y-77650466D01*
X78448500Y-77724533D01*
X78434050Y-77797175D01*
X78405707Y-77865603D01*
X78364558Y-77927186D01*
X78312186Y-77979558D01*
X78250603Y-78020707D01*
X78182175Y-78049050D01*
X78182174Y-78049050D01*
X78182172Y-78049051D01*
X78109534Y-78063500D01*
X78035466Y-78063500D01*
X77962828Y-78049051D01*
X77962826Y-78049050D01*
X77962825Y-78049050D01*
X77894397Y-78020707D01*
X77832814Y-77979558D01*
X77780442Y-77927186D01*
X77739293Y-77865603D01*
X77710950Y-77797175D01*
X77696500Y-77724533D01*
X77696500Y-77650466D01*
X77710949Y-77577828D01*
X77710950Y-77577825D01*
X77739293Y-77509397D01*
X77780442Y-77447814D01*
X77832814Y-77395442D01*
X77894397Y-77354293D01*
X77962825Y-77325950D01*
X77962826Y-77325950D01*
X77962828Y-77325949D01*
X78035466Y-77311500D01*
X78109534Y-77311500D01*
X78182172Y-77325949D01*
G37*
G36*
X95498228Y-73317953D02*
G01*
X95653100Y-73382103D01*
X95792481Y-73475235D01*
X95911015Y-73593769D01*
X96004147Y-73733150D01*
X96068297Y-73888022D01*
X96101000Y-74052434D01*
X96101000Y-74220066D01*
X96068297Y-74384478D01*
X96004147Y-74539350D01*
X95911015Y-74678731D01*
X95792481Y-74797265D01*
X95653100Y-74890397D01*
X95498228Y-74954547D01*
X95333816Y-74987250D01*
X95166184Y-74987250D01*
X95001772Y-74954547D01*
X94846900Y-74890397D01*
X94707519Y-74797265D01*
X94588985Y-74678731D01*
X94495853Y-74539350D01*
X94431703Y-74384478D01*
X94399000Y-74220066D01*
X94399000Y-74052434D01*
X94431703Y-73888022D01*
X94495853Y-73733150D01*
X94588985Y-73593769D01*
X94707519Y-73475235D01*
X94846900Y-73382103D01*
X95001772Y-73317953D01*
X95166184Y-73285250D01*
X95333816Y-73285250D01*
X95498228Y-73317953D01*
G37*
G36*
X91529478Y-73317953D02*
G01*
X91684350Y-73382103D01*
X91823731Y-73475235D01*
X91942265Y-73593769D01*
X92035397Y-73733150D01*
X92099547Y-73888022D01*
X92132250Y-74052434D01*
X92132250Y-74220066D01*
X92099547Y-74384478D01*
X92035397Y-74539350D01*
X91942265Y-74678731D01*
X91823731Y-74797265D01*
X91684350Y-74890397D01*
X91529478Y-74954547D01*
X91365066Y-74987250D01*
X91197434Y-74987250D01*
X91033022Y-74954547D01*
X90878150Y-74890397D01*
X90738769Y-74797265D01*
X90620235Y-74678731D01*
X90527103Y-74539350D01*
X90462953Y-74384478D01*
X90430250Y-74220066D01*
X90430250Y-74052434D01*
X90462953Y-73888022D01*
X90527103Y-73733150D01*
X90620235Y-73593769D01*
X90738769Y-73475235D01*
X90878150Y-73382103D01*
X91033022Y-73317953D01*
X91197434Y-73285250D01*
X91365066Y-73285250D01*
X91529478Y-73317953D01*
G37*
G36*
X85390514Y-73194473D02*
G01*
X85494378Y-73225979D01*
X85538407Y-73249513D01*
X85590099Y-73277143D01*
X85590101Y-73277144D01*
X85590100Y-73277144D01*
X85674001Y-73345999D01*
X85742856Y-73429900D01*
X85794021Y-73525621D01*
X85825527Y-73629485D01*
X85833500Y-73710433D01*
X85833500Y-74364567D01*
X85825527Y-74445515D01*
X85794021Y-74549379D01*
X85794019Y-74549382D01*
X85742857Y-74645100D01*
X85674001Y-74729001D01*
X85590100Y-74797857D01*
X85521555Y-74834495D01*
X85494379Y-74849021D01*
X85390515Y-74880527D01*
X85282500Y-74891166D01*
X85174486Y-74880527D01*
X85070622Y-74849021D01*
X85043446Y-74834495D01*
X84974901Y-74797857D01*
X84891000Y-74729001D01*
X84822145Y-74645101D01*
X84770980Y-74549379D01*
X84767937Y-74539347D01*
X84739473Y-74445515D01*
X84731500Y-74364567D01*
X84731500Y-73710434D01*
X84739473Y-73629486D01*
X84770979Y-73525622D01*
X84822144Y-73429900D01*
X84890999Y-73345999D01*
X84974900Y-73277144D01*
X84974899Y-73277144D01*
X84974901Y-73277143D01*
X85026593Y-73249513D01*
X85070621Y-73225979D01*
X85174485Y-73194473D01*
X85282500Y-73183834D01*
X85390514Y-73194473D01*
G37*
G36*
X76750514Y-73194473D02*
G01*
X76854378Y-73225979D01*
X76898407Y-73249513D01*
X76950099Y-73277143D01*
X76950101Y-73277144D01*
X76950100Y-73277144D01*
X77034001Y-73345999D01*
X77102856Y-73429900D01*
X77154021Y-73525621D01*
X77185527Y-73629485D01*
X77193500Y-73710433D01*
X77193500Y-74364567D01*
X77185527Y-74445515D01*
X77154021Y-74549379D01*
X77154019Y-74549382D01*
X77102857Y-74645100D01*
X77034001Y-74729001D01*
X76950100Y-74797857D01*
X76881555Y-74834495D01*
X76854379Y-74849021D01*
X76750515Y-74880527D01*
X76642500Y-74891166D01*
X76534486Y-74880527D01*
X76430622Y-74849021D01*
X76403446Y-74834495D01*
X76334901Y-74797857D01*
X76251000Y-74729001D01*
X76182145Y-74645101D01*
X76130980Y-74549379D01*
X76127937Y-74539347D01*
X76099473Y-74445515D01*
X76091500Y-74364567D01*
X76091500Y-73710434D01*
X76099473Y-73629486D01*
X76130979Y-73525622D01*
X76182144Y-73429900D01*
X76250999Y-73345999D01*
X76334900Y-73277144D01*
X76334899Y-73277144D01*
X76334901Y-73277143D01*
X76386593Y-73249513D01*
X76430621Y-73225979D01*
X76534485Y-73194473D01*
X76642500Y-73183834D01*
X76750514Y-73194473D01*
G37*
M02*
