M48
; DRILL file {KiCad (5.1.5)-3} date 5/8/2020 10:51:07 PM
; FORMAT={-:-/ absolute / inch / decimal}
; #@! TF.CreationDate,2020-05-08T22:51:07-04:00
; #@! TF.GenerationSoftware,Kicad,Pcbnew,(5.1.5)-3
; #@! TF.FileFunction,Plated,1,2,PTH
FMAT,2
INCH
T1C0.0157
T2C0.0236
T3C0.0315
T4C0.0394
T5C0.0409
T6C0.0579
T7C0.0591
%
G90
G05
T1
X2.2782Y-3.4376
X2.5625Y-4.4375
X2.6875Y-4.0938
X2.75Y-3.5312
X2.75Y-4.1875
X2.7579Y-3.6272
X2.8438Y-3.3125
X2.875Y-3.9688
X2.875Y-4.1305
X2.9062Y-3.4062
X2.9724Y-3.6417
X3.0312Y-4.1875
X3.0906Y-3.6417
X3.1562Y-4.3125
X3.3438Y-4.25
X3.4449Y-3.6417
X3.4688Y-4.2188
X3.5312Y-4.1875
X3.5433Y-3.7008
X3.5625Y-3.4688
X3.5625Y-4.125
X3.5719Y-3.748
X3.5938Y-3.5938
X3.5973Y-4.2536
X3.625Y-4.125
X3.7008Y-3.6811
X3.9062Y-3.6875
X3.9375Y-4.25
T3
X3.5938Y-2.9187
X3.5938Y-3.2188
X3.75Y-2.9187
X3.75Y-3.2188
X3.625Y-4.5312
X3.625Y-4.8312
X3.7812Y-4.5312
X3.7812Y-4.8312
T4
X2.875Y-4.5625
X2.875Y-4.6609
X2.875Y-4.7594
X3.4459Y-4.5625
X3.4459Y-4.7594
T5
X5.0438Y-4.5125
X5.1437Y-4.5125
X5.0438Y-3.7
X5.1437Y-3.7
X4.2313Y-4.5125
X4.3312Y-4.5125
X4.2313Y-3.7
X4.3312Y-3.7
T6
X4.1312Y-3.4
X4.1828Y-3.3425
X4.3797Y-3.3228
X4.3812Y-3.3
X4.9437Y-4.2125
X4.9953Y-4.155
X5.1922Y-4.1353
X5.1937Y-4.1125
X4.9437Y-3.4
X4.9953Y-3.3425
X5.1922Y-3.3228
X5.1937Y-3.3
X4.1312Y-4.2125
X4.1828Y-4.155
X4.3797Y-4.1353
X4.3812Y-4.1125
T2
G00X3.0174Y-2.9031
M15
G01X3.0174Y-2.9267
M16
G05
G00X3.0174Y-3.0578
M15
G01X3.0174Y-3.1011
M16
G05
G00X3.3576Y-2.9031
M15
G01X3.3576Y-2.9267
M16
G05
G00X3.3576Y-3.0578
M15
G01X3.3576Y-3.1011
M16
G05
T7
G00X3.1447Y-4.4405
M15
G01X3.1959Y-4.4405
M16
G05
G00X3.1447Y-4.8814
M15
G01X3.1959Y-4.8814
M16
G05
T0
M30
