G04 #@! TF.GenerationSoftware,KiCad,Pcbnew,(5.1.5)-3*
G04 #@! TF.CreationDate,2020-05-08T22:50:54-04:00*
G04 #@! TF.ProjectId,metropolislefty,6d657472-6f70-46f6-9c69-736c65667479,rev?*
G04 #@! TF.SameCoordinates,Original*
G04 #@! TF.FileFunction,Copper,L1,Top*
G04 #@! TF.FilePolarity,Positive*
%FSLAX46Y46*%
G04 Gerber Fmt 4.6, Leading zero omitted, Abs format (unit mm)*
G04 Created by KiCad (PCBNEW (5.1.5)-3) date 2020-05-08 22:50:54*
%MOMM*%
%LPD*%
G04 APERTURE LIST*
%ADD10O,1.000000X2.100000*%
%ADD11O,1.000000X1.600000*%
%ADD12O,1.600000X1.600000*%
%ADD13R,1.600000X1.600000*%
%ADD14R,2.000000X2.000000*%
%ADD15C,2.000000*%
%ADD16R,3.200000X2.000000*%
%ADD17C,0.100000*%
%ADD18R,1.500000X1.000000*%
%ADD19R,1.905000X1.905000*%
%ADD20C,1.905000*%
%ADD21C,2.250000*%
%ADD22C,2.250000*%
%ADD23C,0.800000*%
%ADD24C,0.381000*%
%ADD25C,0.254000*%
G04 APERTURE END LIST*
D10*
X76642500Y-78217500D03*
X85282500Y-78217500D03*
D11*
X76642500Y-74037500D03*
X85282500Y-74037500D03*
D12*
X96043750Y-122713750D03*
D13*
X96043750Y-115093750D03*
D12*
X92075000Y-122713750D03*
D13*
X92075000Y-115093750D03*
D12*
X95250000Y-74136250D03*
D13*
X95250000Y-81756250D03*
D12*
X91281250Y-74136250D03*
D13*
X91281250Y-81756250D03*
D14*
X73025000Y-115887500D03*
D15*
X73025000Y-118387500D03*
X73025000Y-120887500D03*
D16*
X80525000Y-112787500D03*
X80525000Y-123987500D03*
D15*
X87525000Y-115887500D03*
X87525000Y-120887500D03*
G04 #@! TA.AperFunction,SMDPad,CuDef*
D17*
G36*
X58861392Y-84232424D02*
G01*
X58885053Y-84235934D01*
X58908257Y-84241746D01*
X58930779Y-84249804D01*
X58952403Y-84260032D01*
X58972920Y-84272329D01*
X58992133Y-84286579D01*
X59009857Y-84302643D01*
X59025921Y-84320367D01*
X59040171Y-84339580D01*
X59052468Y-84360097D01*
X59062696Y-84381721D01*
X59070754Y-84404243D01*
X59076566Y-84427447D01*
X59080076Y-84451108D01*
X59081250Y-84475000D01*
X59081250Y-85387500D01*
X59080076Y-85411392D01*
X59076566Y-85435053D01*
X59070754Y-85458257D01*
X59062696Y-85480779D01*
X59052468Y-85502403D01*
X59040171Y-85522920D01*
X59025921Y-85542133D01*
X59009857Y-85559857D01*
X58992133Y-85575921D01*
X58972920Y-85590171D01*
X58952403Y-85602468D01*
X58930779Y-85612696D01*
X58908257Y-85620754D01*
X58885053Y-85626566D01*
X58861392Y-85630076D01*
X58837500Y-85631250D01*
X58350000Y-85631250D01*
X58326108Y-85630076D01*
X58302447Y-85626566D01*
X58279243Y-85620754D01*
X58256721Y-85612696D01*
X58235097Y-85602468D01*
X58214580Y-85590171D01*
X58195367Y-85575921D01*
X58177643Y-85559857D01*
X58161579Y-85542133D01*
X58147329Y-85522920D01*
X58135032Y-85502403D01*
X58124804Y-85480779D01*
X58116746Y-85458257D01*
X58110934Y-85435053D01*
X58107424Y-85411392D01*
X58106250Y-85387500D01*
X58106250Y-84475000D01*
X58107424Y-84451108D01*
X58110934Y-84427447D01*
X58116746Y-84404243D01*
X58124804Y-84381721D01*
X58135032Y-84360097D01*
X58147329Y-84339580D01*
X58161579Y-84320367D01*
X58177643Y-84302643D01*
X58195367Y-84286579D01*
X58214580Y-84272329D01*
X58235097Y-84260032D01*
X58256721Y-84249804D01*
X58279243Y-84241746D01*
X58302447Y-84235934D01*
X58326108Y-84232424D01*
X58350000Y-84231250D01*
X58837500Y-84231250D01*
X58861392Y-84232424D01*
G37*
G04 #@! TD.AperFunction*
G04 #@! TA.AperFunction,SMDPad,CuDef*
G36*
X60736392Y-84232424D02*
G01*
X60760053Y-84235934D01*
X60783257Y-84241746D01*
X60805779Y-84249804D01*
X60827403Y-84260032D01*
X60847920Y-84272329D01*
X60867133Y-84286579D01*
X60884857Y-84302643D01*
X60900921Y-84320367D01*
X60915171Y-84339580D01*
X60927468Y-84360097D01*
X60937696Y-84381721D01*
X60945754Y-84404243D01*
X60951566Y-84427447D01*
X60955076Y-84451108D01*
X60956250Y-84475000D01*
X60956250Y-85387500D01*
X60955076Y-85411392D01*
X60951566Y-85435053D01*
X60945754Y-85458257D01*
X60937696Y-85480779D01*
X60927468Y-85502403D01*
X60915171Y-85522920D01*
X60900921Y-85542133D01*
X60884857Y-85559857D01*
X60867133Y-85575921D01*
X60847920Y-85590171D01*
X60827403Y-85602468D01*
X60805779Y-85612696D01*
X60783257Y-85620754D01*
X60760053Y-85626566D01*
X60736392Y-85630076D01*
X60712500Y-85631250D01*
X60225000Y-85631250D01*
X60201108Y-85630076D01*
X60177447Y-85626566D01*
X60154243Y-85620754D01*
X60131721Y-85612696D01*
X60110097Y-85602468D01*
X60089580Y-85590171D01*
X60070367Y-85575921D01*
X60052643Y-85559857D01*
X60036579Y-85542133D01*
X60022329Y-85522920D01*
X60010032Y-85502403D01*
X59999804Y-85480779D01*
X59991746Y-85458257D01*
X59985934Y-85435053D01*
X59982424Y-85411392D01*
X59981250Y-85387500D01*
X59981250Y-84475000D01*
X59982424Y-84451108D01*
X59985934Y-84427447D01*
X59991746Y-84404243D01*
X59999804Y-84381721D01*
X60010032Y-84360097D01*
X60022329Y-84339580D01*
X60036579Y-84320367D01*
X60052643Y-84302643D01*
X60070367Y-84286579D01*
X60089580Y-84272329D01*
X60110097Y-84260032D01*
X60131721Y-84249804D01*
X60154243Y-84241746D01*
X60177447Y-84235934D01*
X60201108Y-84232424D01*
X60225000Y-84231250D01*
X60712500Y-84231250D01*
X60736392Y-84232424D01*
G37*
G04 #@! TD.AperFunction*
D18*
X57081250Y-108731250D03*
X57081250Y-111931250D03*
X61981250Y-108731250D03*
X61981250Y-111931250D03*
X57081250Y-98412500D03*
X57081250Y-101612500D03*
X61981250Y-98412500D03*
X61981250Y-101612500D03*
X57081250Y-89681250D03*
X57081250Y-92881250D03*
X61981250Y-89681250D03*
X61981250Y-92881250D03*
D19*
X130651250Y-114617500D03*
D20*
X128111250Y-114617500D03*
D21*
X126881250Y-105537500D03*
D22*
X125571250Y-106997500D02*
X126881252Y-105537500D01*
D21*
X131921250Y-104457500D03*
D22*
X131881250Y-105037500D02*
X131921250Y-104457500D01*
D19*
X110013750Y-114617500D03*
D20*
X107473750Y-114617500D03*
D21*
X106243750Y-105537500D03*
D22*
X104933750Y-106997500D02*
X106243752Y-105537500D01*
D21*
X111283750Y-104457500D03*
D22*
X111243750Y-105037500D02*
X111283750Y-104457500D01*
D19*
X130651250Y-93980000D03*
D20*
X128111250Y-93980000D03*
D21*
X126881250Y-84900000D03*
D22*
X125571250Y-86360000D02*
X126881252Y-84900000D01*
D21*
X131921250Y-83820000D03*
D22*
X131881250Y-84400000D02*
X131921250Y-83820000D01*
D19*
X110013750Y-93980000D03*
D20*
X107473750Y-93980000D03*
D21*
X106243750Y-84900000D03*
D22*
X104933750Y-86360000D02*
X106243752Y-84900000D01*
D21*
X111283750Y-83820000D03*
D22*
X111243750Y-84400000D02*
X111283750Y-83820000D01*
D23*
X65087500Y-112712500D03*
X73818750Y-86518750D03*
X72231250Y-84137500D03*
X84931250Y-107950000D03*
X88106250Y-107156250D03*
X57866937Y-87314243D03*
X70049750Y-92131000D03*
X68262500Y-103981250D03*
X80168750Y-109537500D03*
X100012500Y-107950000D03*
X99218750Y-93662500D03*
X94000000Y-93500000D03*
X87500000Y-92500000D03*
X75500000Y-92500000D03*
X78500000Y-92500000D03*
X90727000Y-95200000D03*
X91281250Y-91281250D03*
X91371468Y-108040218D03*
X89693750Y-106362500D03*
X90487500Y-104775000D03*
X92075000Y-104775000D03*
X90487500Y-88106250D03*
X90000000Y-94000000D03*
X69850000Y-106362500D03*
X76993750Y-106362500D03*
X73025000Y-104915500D03*
X73025000Y-100806250D03*
X69850000Y-89693750D03*
D24*
X70762500Y-118387500D02*
X73025000Y-118387500D01*
X65087500Y-112712500D02*
X70762500Y-118387500D01*
X62762500Y-112712500D02*
X61981250Y-111931250D01*
X65087500Y-112712500D02*
X62762500Y-112712500D01*
X63121751Y-111921749D02*
X63112250Y-111931250D01*
X63112250Y-111931250D02*
X61981250Y-111931250D01*
X61981250Y-102493500D02*
X63121751Y-103634001D01*
X63121751Y-103634001D02*
X63121751Y-111921749D01*
X61981250Y-101612500D02*
X61981250Y-102493500D01*
X63121751Y-101602999D02*
X63112250Y-101612500D01*
X63121751Y-94902751D02*
X63121751Y-101602999D01*
X63112250Y-101612500D02*
X61981250Y-101612500D01*
X61981250Y-93762250D02*
X63121751Y-94902751D01*
X61981250Y-92881250D02*
X61981250Y-93762250D01*
X73818750Y-86518750D02*
X73818750Y-85725000D01*
X73818750Y-85725000D02*
X72231250Y-84137500D01*
X63112250Y-92881250D02*
X61981250Y-92881250D01*
X67832442Y-92881250D02*
X63112250Y-92881250D01*
X72231250Y-88482442D02*
X67832442Y-92881250D01*
X72231250Y-84137500D02*
X72231250Y-88482442D01*
X84931250Y-107950000D02*
X87312500Y-107950000D01*
X87312500Y-107950000D02*
X88106250Y-107156250D01*
X57081250Y-89681250D02*
X57081250Y-88099930D01*
X57081250Y-88099930D02*
X57866937Y-87314243D01*
X55940749Y-98402999D02*
X55950250Y-98412500D01*
X55940749Y-89690751D02*
X55940749Y-98402999D01*
X55950250Y-89681250D02*
X55940749Y-89690751D01*
X57081250Y-89681250D02*
X55950250Y-89681250D01*
X55950250Y-108731250D02*
X57081250Y-108731250D01*
X55940749Y-108721749D02*
X55950250Y-108731250D01*
X55940749Y-98422001D02*
X55940749Y-108721749D01*
X55950250Y-98412500D02*
X55940749Y-98422001D01*
X57081250Y-98412500D02*
X55950250Y-98412500D01*
X69649751Y-92530999D02*
X69649751Y-96243999D01*
X70049750Y-92131000D02*
X69649751Y-92530999D01*
X69649751Y-96243999D02*
X68262500Y-97631250D01*
X68262500Y-105944942D02*
X68262500Y-107950000D01*
X68262500Y-107950000D02*
X69850000Y-109537500D01*
X69850000Y-109537500D02*
X80168750Y-109537500D01*
X68262500Y-103981250D02*
X68262500Y-105944942D01*
X68262500Y-97631250D02*
X68262500Y-103981250D01*
X80168750Y-109537500D02*
X99218750Y-109537500D01*
X99218750Y-109537500D02*
X100012500Y-108743750D01*
X100012500Y-108743750D02*
X100012500Y-107950000D01*
X99218750Y-93662500D02*
X94162500Y-93662500D01*
X94162500Y-93662500D02*
X94000000Y-93500000D01*
X87500000Y-92838685D02*
X87500000Y-92500000D01*
X75500000Y-92500000D02*
X78500000Y-92500000D01*
X89234316Y-94800001D02*
X87500000Y-93065685D01*
X90327001Y-94800001D02*
X89234316Y-94800001D01*
X87500000Y-93065685D02*
X87500000Y-92500000D01*
X90727000Y-95200000D02*
X90327001Y-94800001D01*
D25*
X91281250Y-91281250D02*
X91281250Y-81756250D01*
X91371468Y-108040218D02*
X89693750Y-106362500D01*
X104933750Y-106997500D02*
X92710000Y-106997500D01*
X92710000Y-106997500D02*
X90487500Y-104775000D01*
X92075000Y-104775000D02*
X93662500Y-106362500D01*
X93662500Y-106362500D02*
X101600000Y-106362500D01*
X101600000Y-106362500D02*
X105568750Y-102393750D01*
X120967500Y-102393750D02*
X125571250Y-106997500D01*
X105568750Y-102393750D02*
X120967500Y-102393750D01*
X90000000Y-88593750D02*
X90487500Y-88106250D01*
X90000000Y-94000000D02*
X90000000Y-88593750D01*
X69850000Y-106362500D02*
X76993750Y-106362500D01*
X73025000Y-104915500D02*
X73025000Y-100806250D01*
X57081250Y-93635250D02*
X57081250Y-92881250D01*
X57081250Y-94516500D02*
X57081250Y-93635250D01*
X60977250Y-98412500D02*
X57081250Y-94516500D01*
X61981250Y-98412500D02*
X60977250Y-98412500D01*
X60977250Y-89681250D02*
X61981250Y-89681250D01*
X58593750Y-87297750D02*
X60977250Y-89681250D01*
X58593750Y-84931250D02*
X58593750Y-87297750D01*
X57081250Y-102366500D02*
X57081250Y-101612500D01*
X57081250Y-104835250D02*
X57081250Y-102366500D01*
X60977250Y-108731250D02*
X57081250Y-104835250D01*
X61981250Y-108731250D02*
X60977250Y-108731250D01*
X65231250Y-89693750D02*
X60468750Y-84931250D01*
X69850000Y-89693750D02*
X65231250Y-89693750D01*
M02*
