G04 #@! TF.GenerationSoftware,KiCad,Pcbnew,(5.1.5)-3*
G04 #@! TF.CreationDate,2020-05-08T22:50:54-04:00*
G04 #@! TF.ProjectId,metropolislefty,6d657472-6f70-46f6-9c69-736c65667479,rev?*
G04 #@! TF.SameCoordinates,Original*
G04 #@! TF.FileFunction,Legend,Top*
G04 #@! TF.FilePolarity,Positive*
%FSLAX46Y46*%
G04 Gerber Fmt 4.6, Leading zero omitted, Abs format (unit mm)*
G04 Created by KiCad (PCBNEW (5.1.5)-3) date 2020-05-08 22:50:54*
%MOMM*%
%LPD*%
G04 APERTURE LIST*
%ADD10C,0.150000*%
%ADD11C,0.120000*%
%ADD12C,0.752000*%
%ADD13O,1.102000X2.202000*%
%ADD14O,1.102000X1.702000*%
%ADD15O,1.702000X1.702000*%
%ADD16R,1.702000X1.702000*%
%ADD17R,2.102000X2.102000*%
%ADD18C,2.102000*%
%ADD19R,3.302000X2.102000*%
%ADD20C,0.100000*%
%ADD21R,1.602000X1.102000*%
%ADD22C,1.852000*%
%ADD23C,4.089800*%
G04 APERTURE END LIST*
D10*
X77065773Y-97196130D02*
X77065773Y-96196130D01*
X77637202Y-97196130D02*
X77208630Y-96624702D01*
X77637202Y-96196130D02*
X77065773Y-96767559D01*
X78446726Y-97148511D02*
X78351488Y-97196130D01*
X78161011Y-97196130D01*
X78065773Y-97148511D01*
X78018154Y-97053273D01*
X78018154Y-96672321D01*
X78065773Y-96577083D01*
X78161011Y-96529464D01*
X78351488Y-96529464D01*
X78446726Y-96577083D01*
X78494345Y-96672321D01*
X78494345Y-96767559D01*
X78018154Y-96862797D01*
X78827678Y-96529464D02*
X79065773Y-97196130D01*
X79303869Y-96529464D01*
X79684821Y-97196130D02*
X79684821Y-96529464D01*
X79684821Y-96196130D02*
X79637202Y-96243750D01*
X79684821Y-96291369D01*
X79732440Y-96243750D01*
X79684821Y-96196130D01*
X79684821Y-96291369D01*
X80161011Y-96529464D02*
X80161011Y-97196130D01*
X80161011Y-96624702D02*
X80208630Y-96577083D01*
X80303869Y-96529464D01*
X80446726Y-96529464D01*
X80541964Y-96577083D01*
X80589583Y-96672321D01*
X80589583Y-97196130D01*
X81827678Y-97196130D02*
X81827678Y-96196130D01*
X82399107Y-97196130D02*
X81970535Y-96624702D01*
X82399107Y-96196130D02*
X81827678Y-96767559D01*
X83256250Y-97196130D02*
X83256250Y-96672321D01*
X83208630Y-96577083D01*
X83113392Y-96529464D01*
X82922916Y-96529464D01*
X82827678Y-96577083D01*
X83256250Y-97148511D02*
X83161011Y-97196130D01*
X82922916Y-97196130D01*
X82827678Y-97148511D01*
X82780059Y-97053273D01*
X82780059Y-96958035D01*
X82827678Y-96862797D01*
X82922916Y-96815178D01*
X83161011Y-96815178D01*
X83256250Y-96767559D01*
X83684821Y-97148511D02*
X83780059Y-97196130D01*
X83970535Y-97196130D01*
X84065773Y-97148511D01*
X84113392Y-97053273D01*
X84113392Y-97005654D01*
X84065773Y-96910416D01*
X83970535Y-96862797D01*
X83827678Y-96862797D01*
X83732440Y-96815178D01*
X83684821Y-96719940D01*
X83684821Y-96672321D01*
X83732440Y-96577083D01*
X83827678Y-96529464D01*
X83970535Y-96529464D01*
X84065773Y-96577083D01*
X84541964Y-96529464D02*
X84541964Y-97529464D01*
X84541964Y-96577083D02*
X84637202Y-96529464D01*
X84827678Y-96529464D01*
X84922916Y-96577083D01*
X84970535Y-96624702D01*
X85018154Y-96719940D01*
X85018154Y-97005654D01*
X84970535Y-97100892D01*
X84922916Y-97148511D01*
X84827678Y-97196130D01*
X84637202Y-97196130D01*
X84541964Y-97148511D01*
X85827678Y-97148511D02*
X85732440Y-97196130D01*
X85541964Y-97196130D01*
X85446726Y-97148511D01*
X85399107Y-97053273D01*
X85399107Y-96672321D01*
X85446726Y-96577083D01*
X85541964Y-96529464D01*
X85732440Y-96529464D01*
X85827678Y-96577083D01*
X85875297Y-96672321D01*
X85875297Y-96767559D01*
X85399107Y-96862797D01*
X86303869Y-97196130D02*
X86303869Y-96529464D01*
X86303869Y-96719940D02*
X86351488Y-96624702D01*
X86399107Y-96577083D01*
X86494345Y-96529464D01*
X86589583Y-96529464D01*
X77708630Y-99496130D02*
X77946726Y-100496130D01*
X78137202Y-99781845D01*
X78327678Y-100496130D01*
X78565773Y-99496130D01*
X78946726Y-100496130D02*
X78946726Y-99496130D01*
X79375297Y-100496130D02*
X79375297Y-99972321D01*
X79327678Y-99877083D01*
X79232440Y-99829464D01*
X79089583Y-99829464D01*
X78994345Y-99877083D01*
X78946726Y-99924702D01*
X79994345Y-100496130D02*
X79899107Y-100448511D01*
X79851488Y-100400892D01*
X79803869Y-100305654D01*
X79803869Y-100019940D01*
X79851488Y-99924702D01*
X79899107Y-99877083D01*
X79994345Y-99829464D01*
X80137202Y-99829464D01*
X80232440Y-99877083D01*
X80280059Y-99924702D01*
X80327678Y-100019940D01*
X80327678Y-100305654D01*
X80280059Y-100400892D01*
X80232440Y-100448511D01*
X80137202Y-100496130D01*
X79994345Y-100496130D01*
X81518154Y-100496130D02*
X81518154Y-99829464D01*
X81518154Y-99496130D02*
X81470535Y-99543750D01*
X81518154Y-99591369D01*
X81565773Y-99543750D01*
X81518154Y-99496130D01*
X81518154Y-99591369D01*
X81946726Y-100448511D02*
X82041964Y-100496130D01*
X82232440Y-100496130D01*
X82327678Y-100448511D01*
X82375297Y-100353273D01*
X82375297Y-100305654D01*
X82327678Y-100210416D01*
X82232440Y-100162797D01*
X82089583Y-100162797D01*
X81994345Y-100115178D01*
X81946726Y-100019940D01*
X81946726Y-99972321D01*
X81994345Y-99877083D01*
X82089583Y-99829464D01*
X82232440Y-99829464D01*
X82327678Y-99877083D01*
X83565773Y-100496130D02*
X83565773Y-99496130D01*
X83994345Y-100496130D02*
X83994345Y-99972321D01*
X83946726Y-99877083D01*
X83851488Y-99829464D01*
X83708630Y-99829464D01*
X83613392Y-99877083D01*
X83565773Y-99924702D01*
X84851488Y-100448511D02*
X84756250Y-100496130D01*
X84565773Y-100496130D01*
X84470535Y-100448511D01*
X84422916Y-100353273D01*
X84422916Y-99972321D01*
X84470535Y-99877083D01*
X84565773Y-99829464D01*
X84756250Y-99829464D01*
X84851488Y-99877083D01*
X84899107Y-99972321D01*
X84899107Y-100067559D01*
X84422916Y-100162797D01*
X85470535Y-100400892D02*
X85518154Y-100448511D01*
X85470535Y-100496130D01*
X85422916Y-100448511D01*
X85470535Y-100400892D01*
X85470535Y-100496130D01*
X85280059Y-99543750D02*
X85375297Y-99496130D01*
X85613392Y-99496130D01*
X85708630Y-99543750D01*
X85756250Y-99638988D01*
X85756250Y-99734226D01*
X85708630Y-99829464D01*
X85661011Y-99877083D01*
X85565773Y-99924702D01*
X85518154Y-99972321D01*
X85470535Y-100067559D01*
X85470535Y-100115178D01*
X75399107Y-102146130D02*
X75399107Y-101146130D01*
X75970535Y-102146130D01*
X75970535Y-101146130D01*
X76875297Y-101479464D02*
X76875297Y-102146130D01*
X76446726Y-101479464D02*
X76446726Y-102003273D01*
X76494345Y-102098511D01*
X76589583Y-102146130D01*
X76732440Y-102146130D01*
X76827678Y-102098511D01*
X76875297Y-102050892D01*
X77351488Y-102146130D02*
X77351488Y-101479464D01*
X77351488Y-101574702D02*
X77399107Y-101527083D01*
X77494345Y-101479464D01*
X77637202Y-101479464D01*
X77732440Y-101527083D01*
X77780059Y-101622321D01*
X77780059Y-102146130D01*
X77780059Y-101622321D02*
X77827678Y-101527083D01*
X77922916Y-101479464D01*
X78065773Y-101479464D01*
X78161011Y-101527083D01*
X78208630Y-101622321D01*
X78208630Y-102146130D01*
X78684821Y-101479464D02*
X78684821Y-102479464D01*
X78684821Y-101527083D02*
X78780059Y-101479464D01*
X78970535Y-101479464D01*
X79065773Y-101527083D01*
X79113392Y-101574702D01*
X79161011Y-101669940D01*
X79161011Y-101955654D01*
X79113392Y-102050892D01*
X79065773Y-102098511D01*
X78970535Y-102146130D01*
X78780059Y-102146130D01*
X78684821Y-102098511D01*
X80018154Y-102146130D02*
X80018154Y-101622321D01*
X79970535Y-101527083D01*
X79875297Y-101479464D01*
X79684821Y-101479464D01*
X79589583Y-101527083D01*
X80018154Y-102098511D02*
X79922916Y-102146130D01*
X79684821Y-102146130D01*
X79589583Y-102098511D01*
X79541964Y-102003273D01*
X79541964Y-101908035D01*
X79589583Y-101812797D01*
X79684821Y-101765178D01*
X79922916Y-101765178D01*
X80018154Y-101717559D01*
X80922916Y-102146130D02*
X80922916Y-101146130D01*
X80922916Y-102098511D02*
X80827678Y-102146130D01*
X80637202Y-102146130D01*
X80541964Y-102098511D01*
X80494345Y-102050892D01*
X80446726Y-101955654D01*
X80446726Y-101669940D01*
X80494345Y-101574702D01*
X80541964Y-101527083D01*
X80637202Y-101479464D01*
X80827678Y-101479464D01*
X80922916Y-101527083D01*
X82018154Y-101146130D02*
X82589583Y-101146130D01*
X82303869Y-102146130D02*
X82303869Y-101146130D01*
X83303869Y-102098511D02*
X83208630Y-102146130D01*
X83018154Y-102146130D01*
X82922916Y-102098511D01*
X82875297Y-102003273D01*
X82875297Y-101622321D01*
X82922916Y-101527083D01*
X83018154Y-101479464D01*
X83208630Y-101479464D01*
X83303869Y-101527083D01*
X83351488Y-101622321D01*
X83351488Y-101717559D01*
X82875297Y-101812797D01*
X83732440Y-102098511D02*
X83827678Y-102146130D01*
X84018154Y-102146130D01*
X84113392Y-102098511D01*
X84161011Y-102003273D01*
X84161011Y-101955654D01*
X84113392Y-101860416D01*
X84018154Y-101812797D01*
X83875297Y-101812797D01*
X83780059Y-101765178D01*
X83732440Y-101669940D01*
X83732440Y-101622321D01*
X83780059Y-101527083D01*
X83875297Y-101479464D01*
X84018154Y-101479464D01*
X84113392Y-101527083D01*
X84446726Y-101479464D02*
X84827678Y-101479464D01*
X84589583Y-101146130D02*
X84589583Y-102003273D01*
X84637202Y-102098511D01*
X84732440Y-102146130D01*
X84827678Y-102146130D01*
X85827678Y-101479464D02*
X86065773Y-102146130D01*
X86303869Y-101479464D01*
X86875297Y-101146130D02*
X86970535Y-101146130D01*
X87065773Y-101193750D01*
X87113392Y-101241369D01*
X87161011Y-101336607D01*
X87208630Y-101527083D01*
X87208630Y-101765178D01*
X87161011Y-101955654D01*
X87113392Y-102050892D01*
X87065773Y-102098511D01*
X86970535Y-102146130D01*
X86875297Y-102146130D01*
X86780059Y-102098511D01*
X86732440Y-102050892D01*
X86684821Y-101955654D01*
X86637202Y-101765178D01*
X86637202Y-101527083D01*
X86684821Y-101336607D01*
X86732440Y-101241369D01*
X86780059Y-101193750D01*
X86875297Y-101146130D01*
X87589583Y-101241369D02*
X87637202Y-101193750D01*
X87732440Y-101146130D01*
X87970535Y-101146130D01*
X88065773Y-101193750D01*
X88113392Y-101241369D01*
X88161011Y-101336607D01*
X88161011Y-101431845D01*
X88113392Y-101574702D01*
X87541964Y-102146130D01*
X88161011Y-102146130D01*
D11*
X97163750Y-117383750D02*
X94923750Y-117383750D01*
X97163750Y-117623750D02*
X94923750Y-117623750D01*
X97163750Y-117503750D02*
X94923750Y-117503750D01*
X96043750Y-121673750D02*
X96043750Y-121023750D01*
X96043750Y-116133750D02*
X96043750Y-116783750D01*
X97163750Y-121023750D02*
X97163750Y-116783750D01*
X94923750Y-121023750D02*
X97163750Y-121023750D01*
X94923750Y-116783750D02*
X94923750Y-121023750D01*
X97163750Y-116783750D02*
X94923750Y-116783750D01*
X93195000Y-117383750D02*
X90955000Y-117383750D01*
X93195000Y-117623750D02*
X90955000Y-117623750D01*
X93195000Y-117503750D02*
X90955000Y-117503750D01*
X92075000Y-121673750D02*
X92075000Y-121023750D01*
X92075000Y-116133750D02*
X92075000Y-116783750D01*
X93195000Y-121023750D02*
X93195000Y-116783750D01*
X90955000Y-121023750D02*
X93195000Y-121023750D01*
X90955000Y-116783750D02*
X90955000Y-121023750D01*
X93195000Y-116783750D02*
X90955000Y-116783750D01*
X94130000Y-79466250D02*
X96370000Y-79466250D01*
X94130000Y-79226250D02*
X96370000Y-79226250D01*
X94130000Y-79346250D02*
X96370000Y-79346250D01*
X95250000Y-75176250D02*
X95250000Y-75826250D01*
X95250000Y-80716250D02*
X95250000Y-80066250D01*
X94130000Y-75826250D02*
X94130000Y-80066250D01*
X96370000Y-75826250D02*
X94130000Y-75826250D01*
X96370000Y-80066250D02*
X96370000Y-75826250D01*
X94130000Y-80066250D02*
X96370000Y-80066250D01*
X90161250Y-79466250D02*
X92401250Y-79466250D01*
X90161250Y-79226250D02*
X92401250Y-79226250D01*
X90161250Y-79346250D02*
X92401250Y-79346250D01*
X91281250Y-75176250D02*
X91281250Y-75826250D01*
X91281250Y-80716250D02*
X91281250Y-80066250D01*
X90161250Y-75826250D02*
X90161250Y-80066250D01*
X92401250Y-75826250D02*
X90161250Y-75826250D01*
X92401250Y-80066250D02*
X92401250Y-75826250D01*
X90161250Y-80066250D02*
X92401250Y-80066250D01*
X83525000Y-118387500D02*
G75*
G03X83525000Y-118387500I-3000000J0D01*
G01*
X82525000Y-112487500D02*
X86625000Y-112487500D01*
X86625000Y-124287500D02*
X82525000Y-124287500D01*
X78525000Y-124287500D02*
X74425000Y-124287500D01*
X78525000Y-112487500D02*
X74425000Y-112487500D01*
X74425000Y-112487500D02*
X74425000Y-124287500D01*
X73025000Y-114587500D02*
X72725000Y-114287500D01*
X72725000Y-114287500D02*
X73325000Y-114287500D01*
X73325000Y-114287500D02*
X73025000Y-114587500D01*
X86625000Y-112487500D02*
X86625000Y-114887500D01*
X86625000Y-117087500D02*
X86625000Y-119687500D01*
X86625000Y-121887500D02*
X86625000Y-124287500D01*
X80525000Y-117887500D02*
X80525000Y-118887500D01*
X80025000Y-118387500D02*
X81025000Y-118387500D01*
X59789828Y-84221250D02*
X59272672Y-84221250D01*
X59789828Y-85641250D02*
X59272672Y-85641250D01*
X63181250Y-113081250D02*
X63181250Y-111931250D01*
X55881250Y-113081250D02*
X63181250Y-113081250D01*
X55881250Y-107581250D02*
X63181250Y-107581250D01*
X63181250Y-102762500D02*
X63181250Y-101612500D01*
X55881250Y-102762500D02*
X63181250Y-102762500D01*
X55881250Y-97262500D02*
X63181250Y-97262500D01*
X63181250Y-94031250D02*
X63181250Y-92881250D01*
X55881250Y-94031250D02*
X63181250Y-94031250D01*
X55881250Y-88531250D02*
X63181250Y-88531250D01*
D10*
X96496130Y-126150595D02*
X95496130Y-126150595D01*
X95496130Y-125912500D01*
X95543750Y-125769642D01*
X95638988Y-125674404D01*
X95734226Y-125626785D01*
X95924702Y-125579166D01*
X96067559Y-125579166D01*
X96258035Y-125626785D01*
X96353273Y-125674404D01*
X96448511Y-125769642D01*
X96496130Y-125912500D01*
X96496130Y-126150595D01*
X95829464Y-124722023D02*
X96496130Y-124722023D01*
X95448511Y-124960119D02*
X96162797Y-125198214D01*
X96162797Y-124579166D01*
X96496130Y-112974404D02*
X95496130Y-112974404D01*
X96496130Y-112402976D02*
X95924702Y-112831547D01*
X95496130Y-112402976D02*
X96067559Y-112974404D01*
X92527380Y-126150595D02*
X91527380Y-126150595D01*
X91527380Y-125912500D01*
X91575000Y-125769642D01*
X91670238Y-125674404D01*
X91765476Y-125626785D01*
X91955952Y-125579166D01*
X92098809Y-125579166D01*
X92289285Y-125626785D01*
X92384523Y-125674404D01*
X92479761Y-125769642D01*
X92527380Y-125912500D01*
X92527380Y-126150595D01*
X91527380Y-125245833D02*
X91527380Y-124626785D01*
X91908333Y-124960119D01*
X91908333Y-124817261D01*
X91955952Y-124722023D01*
X92003571Y-124674404D01*
X92098809Y-124626785D01*
X92336904Y-124626785D01*
X92432142Y-124674404D01*
X92479761Y-124722023D01*
X92527380Y-124817261D01*
X92527380Y-125102976D01*
X92479761Y-125198214D01*
X92432142Y-125245833D01*
X92527380Y-112974404D02*
X91527380Y-112974404D01*
X92527380Y-112402976D02*
X91955952Y-112831547D01*
X91527380Y-112402976D02*
X92098809Y-112974404D01*
X93582380Y-78684345D02*
X92582380Y-78684345D01*
X92582380Y-78446250D01*
X92630000Y-78303392D01*
X92725238Y-78208154D01*
X92820476Y-78160535D01*
X93010952Y-78112916D01*
X93153809Y-78112916D01*
X93344285Y-78160535D01*
X93439523Y-78208154D01*
X93534761Y-78303392D01*
X93582380Y-78446250D01*
X93582380Y-78684345D01*
X92677619Y-77731964D02*
X92630000Y-77684345D01*
X92582380Y-77589107D01*
X92582380Y-77351011D01*
X92630000Y-77255773D01*
X92677619Y-77208154D01*
X92772857Y-77160535D01*
X92868095Y-77160535D01*
X93010952Y-77208154D01*
X93582380Y-77779583D01*
X93582380Y-77160535D01*
X93902380Y-82018154D02*
X92902380Y-82018154D01*
X93902380Y-81446726D02*
X93330952Y-81875297D01*
X92902380Y-81446726D02*
X93473809Y-82018154D01*
X89613630Y-78684345D02*
X88613630Y-78684345D01*
X88613630Y-78446250D01*
X88661250Y-78303392D01*
X88756488Y-78208154D01*
X88851726Y-78160535D01*
X89042202Y-78112916D01*
X89185059Y-78112916D01*
X89375535Y-78160535D01*
X89470773Y-78208154D01*
X89566011Y-78303392D01*
X89613630Y-78446250D01*
X89613630Y-78684345D01*
X89613630Y-77160535D02*
X89613630Y-77731964D01*
X89613630Y-77446250D02*
X88613630Y-77446250D01*
X88756488Y-77541488D01*
X88851726Y-77636726D01*
X88899345Y-77731964D01*
X89933630Y-82018154D02*
X88933630Y-82018154D01*
X89933630Y-81446726D02*
X89362202Y-81875297D01*
X88933630Y-81446726D02*
X89505059Y-82018154D01*
X74491666Y-111592261D02*
X74634523Y-111639880D01*
X74872619Y-111639880D01*
X74967857Y-111592261D01*
X75015476Y-111544642D01*
X75063095Y-111449404D01*
X75063095Y-111354166D01*
X75015476Y-111258928D01*
X74967857Y-111211309D01*
X74872619Y-111163690D01*
X74682142Y-111116071D01*
X74586904Y-111068452D01*
X74539285Y-111020833D01*
X74491666Y-110925595D01*
X74491666Y-110830357D01*
X74539285Y-110735119D01*
X74586904Y-110687500D01*
X74682142Y-110639880D01*
X74920238Y-110639880D01*
X75063095Y-110687500D01*
X75396428Y-110639880D02*
X75634523Y-111639880D01*
X75825000Y-110925595D01*
X76015476Y-111639880D01*
X76253571Y-110639880D01*
X76586904Y-110735119D02*
X76634523Y-110687500D01*
X76729761Y-110639880D01*
X76967857Y-110639880D01*
X77063095Y-110687500D01*
X77110714Y-110735119D01*
X77158333Y-110830357D01*
X77158333Y-110925595D01*
X77110714Y-111068452D01*
X76539285Y-111639880D01*
X77158333Y-111639880D01*
X59364583Y-87033630D02*
X59031250Y-86557440D01*
X58793154Y-87033630D02*
X58793154Y-86033630D01*
X59174107Y-86033630D01*
X59269345Y-86081250D01*
X59316964Y-86128869D01*
X59364583Y-86224107D01*
X59364583Y-86366964D01*
X59316964Y-86462202D01*
X59269345Y-86509821D01*
X59174107Y-86557440D01*
X58793154Y-86557440D01*
X59697916Y-86033630D02*
X60364583Y-86033630D01*
X59936011Y-87033630D01*
X58793154Y-107283630D02*
X58793154Y-106283630D01*
X59031250Y-106283630D01*
X59174107Y-106331250D01*
X59269345Y-106426488D01*
X59316964Y-106521726D01*
X59364583Y-106712202D01*
X59364583Y-106855059D01*
X59316964Y-107045535D01*
X59269345Y-107140773D01*
X59174107Y-107236011D01*
X59031250Y-107283630D01*
X58793154Y-107283630D01*
X59697916Y-106283630D02*
X60364583Y-106283630D01*
X59936011Y-107283630D01*
X55666964Y-109183630D02*
X55095535Y-109183630D01*
X55381250Y-109183630D02*
X55381250Y-108183630D01*
X55286011Y-108326488D01*
X55190773Y-108421726D01*
X55095535Y-108469345D01*
X58793154Y-96964880D02*
X58793154Y-95964880D01*
X59031250Y-95964880D01*
X59174107Y-96012500D01*
X59269345Y-96107738D01*
X59316964Y-96202976D01*
X59364583Y-96393452D01*
X59364583Y-96536309D01*
X59316964Y-96726785D01*
X59269345Y-96822023D01*
X59174107Y-96917261D01*
X59031250Y-96964880D01*
X58793154Y-96964880D01*
X60221726Y-95964880D02*
X60031250Y-95964880D01*
X59936011Y-96012500D01*
X59888392Y-96060119D01*
X59793154Y-96202976D01*
X59745535Y-96393452D01*
X59745535Y-96774404D01*
X59793154Y-96869642D01*
X59840773Y-96917261D01*
X59936011Y-96964880D01*
X60126488Y-96964880D01*
X60221726Y-96917261D01*
X60269345Y-96869642D01*
X60316964Y-96774404D01*
X60316964Y-96536309D01*
X60269345Y-96441071D01*
X60221726Y-96393452D01*
X60126488Y-96345833D01*
X59936011Y-96345833D01*
X59840773Y-96393452D01*
X59793154Y-96441071D01*
X59745535Y-96536309D01*
X55666964Y-98864880D02*
X55095535Y-98864880D01*
X55381250Y-98864880D02*
X55381250Y-97864880D01*
X55286011Y-98007738D01*
X55190773Y-98102976D01*
X55095535Y-98150595D01*
X58793154Y-88233630D02*
X58793154Y-87233630D01*
X59031250Y-87233630D01*
X59174107Y-87281250D01*
X59269345Y-87376488D01*
X59316964Y-87471726D01*
X59364583Y-87662202D01*
X59364583Y-87805059D01*
X59316964Y-87995535D01*
X59269345Y-88090773D01*
X59174107Y-88186011D01*
X59031250Y-88233630D01*
X58793154Y-88233630D01*
X60269345Y-87233630D02*
X59793154Y-87233630D01*
X59745535Y-87709821D01*
X59793154Y-87662202D01*
X59888392Y-87614583D01*
X60126488Y-87614583D01*
X60221726Y-87662202D01*
X60269345Y-87709821D01*
X60316964Y-87805059D01*
X60316964Y-88043154D01*
X60269345Y-88138392D01*
X60221726Y-88186011D01*
X60126488Y-88233630D01*
X59888392Y-88233630D01*
X59793154Y-88186011D01*
X59745535Y-88138392D01*
X55666964Y-90133630D02*
X55095535Y-90133630D01*
X55381250Y-90133630D02*
X55381250Y-89133630D01*
X55286011Y-89276488D01*
X55190773Y-89371726D01*
X55095535Y-89419345D01*
%LPC*%
D12*
X83852500Y-77687500D03*
X78072500Y-77687500D03*
D13*
X76642500Y-78217500D03*
X85282500Y-78217500D03*
D14*
X76642500Y-74037500D03*
X85282500Y-74037500D03*
D15*
X96043750Y-122713750D03*
D16*
X96043750Y-115093750D03*
D15*
X92075000Y-122713750D03*
D16*
X92075000Y-115093750D03*
D15*
X95250000Y-74136250D03*
D16*
X95250000Y-81756250D03*
D15*
X91281250Y-74136250D03*
D16*
X91281250Y-81756250D03*
D17*
X73025000Y-115887500D03*
D18*
X73025000Y-118387500D03*
X73025000Y-120887500D03*
D19*
X80525000Y-112787500D03*
X80525000Y-123987500D03*
D18*
X87525000Y-115887500D03*
X87525000Y-120887500D03*
D20*
G36*
X58889391Y-84181547D02*
G01*
X58915528Y-84185424D01*
X58941159Y-84191844D01*
X58966038Y-84200745D01*
X58989924Y-84212043D01*
X59012587Y-84225627D01*
X59033810Y-84241367D01*
X59053389Y-84259111D01*
X59071133Y-84278690D01*
X59086873Y-84299913D01*
X59100457Y-84322576D01*
X59111755Y-84346462D01*
X59120656Y-84371341D01*
X59127076Y-84396972D01*
X59130953Y-84423109D01*
X59132250Y-84449500D01*
X59132250Y-85413000D01*
X59130953Y-85439391D01*
X59127076Y-85465528D01*
X59120656Y-85491159D01*
X59111755Y-85516038D01*
X59100457Y-85539924D01*
X59086873Y-85562587D01*
X59071133Y-85583810D01*
X59053389Y-85603389D01*
X59033810Y-85621133D01*
X59012587Y-85636873D01*
X58989924Y-85650457D01*
X58966038Y-85661755D01*
X58941159Y-85670656D01*
X58915528Y-85677076D01*
X58889391Y-85680953D01*
X58863000Y-85682250D01*
X58324500Y-85682250D01*
X58298109Y-85680953D01*
X58271972Y-85677076D01*
X58246341Y-85670656D01*
X58221462Y-85661755D01*
X58197576Y-85650457D01*
X58174913Y-85636873D01*
X58153690Y-85621133D01*
X58134111Y-85603389D01*
X58116367Y-85583810D01*
X58100627Y-85562587D01*
X58087043Y-85539924D01*
X58075745Y-85516038D01*
X58066844Y-85491159D01*
X58060424Y-85465528D01*
X58056547Y-85439391D01*
X58055250Y-85413000D01*
X58055250Y-84449500D01*
X58056547Y-84423109D01*
X58060424Y-84396972D01*
X58066844Y-84371341D01*
X58075745Y-84346462D01*
X58087043Y-84322576D01*
X58100627Y-84299913D01*
X58116367Y-84278690D01*
X58134111Y-84259111D01*
X58153690Y-84241367D01*
X58174913Y-84225627D01*
X58197576Y-84212043D01*
X58221462Y-84200745D01*
X58246341Y-84191844D01*
X58271972Y-84185424D01*
X58298109Y-84181547D01*
X58324500Y-84180250D01*
X58863000Y-84180250D01*
X58889391Y-84181547D01*
G37*
G36*
X60764391Y-84181547D02*
G01*
X60790528Y-84185424D01*
X60816159Y-84191844D01*
X60841038Y-84200745D01*
X60864924Y-84212043D01*
X60887587Y-84225627D01*
X60908810Y-84241367D01*
X60928389Y-84259111D01*
X60946133Y-84278690D01*
X60961873Y-84299913D01*
X60975457Y-84322576D01*
X60986755Y-84346462D01*
X60995656Y-84371341D01*
X61002076Y-84396972D01*
X61005953Y-84423109D01*
X61007250Y-84449500D01*
X61007250Y-85413000D01*
X61005953Y-85439391D01*
X61002076Y-85465528D01*
X60995656Y-85491159D01*
X60986755Y-85516038D01*
X60975457Y-85539924D01*
X60961873Y-85562587D01*
X60946133Y-85583810D01*
X60928389Y-85603389D01*
X60908810Y-85621133D01*
X60887587Y-85636873D01*
X60864924Y-85650457D01*
X60841038Y-85661755D01*
X60816159Y-85670656D01*
X60790528Y-85677076D01*
X60764391Y-85680953D01*
X60738000Y-85682250D01*
X60199500Y-85682250D01*
X60173109Y-85680953D01*
X60146972Y-85677076D01*
X60121341Y-85670656D01*
X60096462Y-85661755D01*
X60072576Y-85650457D01*
X60049913Y-85636873D01*
X60028690Y-85621133D01*
X60009111Y-85603389D01*
X59991367Y-85583810D01*
X59975627Y-85562587D01*
X59962043Y-85539924D01*
X59950745Y-85516038D01*
X59941844Y-85491159D01*
X59935424Y-85465528D01*
X59931547Y-85439391D01*
X59930250Y-85413000D01*
X59930250Y-84449500D01*
X59931547Y-84423109D01*
X59935424Y-84396972D01*
X59941844Y-84371341D01*
X59950745Y-84346462D01*
X59962043Y-84322576D01*
X59975627Y-84299913D01*
X59991367Y-84278690D01*
X60009111Y-84259111D01*
X60028690Y-84241367D01*
X60049913Y-84225627D01*
X60072576Y-84212043D01*
X60096462Y-84200745D01*
X60121341Y-84191844D01*
X60146972Y-84185424D01*
X60173109Y-84181547D01*
X60199500Y-84180250D01*
X60738000Y-84180250D01*
X60764391Y-84181547D01*
G37*
D21*
X57081250Y-108731250D03*
X57081250Y-111931250D03*
X61981250Y-108731250D03*
X61981250Y-111931250D03*
X57081250Y-98412500D03*
X57081250Y-101612500D03*
X61981250Y-98412500D03*
X61981250Y-101612500D03*
X57081250Y-89681250D03*
X57081250Y-92881250D03*
X61981250Y-89681250D03*
X61981250Y-92881250D03*
D22*
X134461250Y-109537500D03*
X124301250Y-109537500D03*
D23*
X129381250Y-109537500D03*
D22*
X113823750Y-109537500D03*
X103663750Y-109537500D03*
D23*
X108743750Y-109537500D03*
D22*
X134461250Y-88900000D03*
X124301250Y-88900000D03*
D23*
X129381250Y-88900000D03*
D22*
X113823750Y-88900000D03*
X103663750Y-88900000D03*
D23*
X108743750Y-88900000D03*
M02*
