G04 #@! TF.GenerationSoftware,KiCad,Pcbnew,(5.1.5)-3*
G04 #@! TF.CreationDate,2020-05-08T22:50:54-04:00*
G04 #@! TF.ProjectId,metropolislefty,6d657472-6f70-46f6-9c69-736c65667479,rev?*
G04 #@! TF.SameCoordinates,Original*
G04 #@! TF.FileFunction,Legend,Bot*
G04 #@! TF.FilePolarity,Positive*
%FSLAX46Y46*%
G04 Gerber Fmt 4.6, Leading zero omitted, Abs format (unit mm)*
G04 Created by KiCad (PCBNEW (5.1.5)-3) date 2020-05-08 22:50:54*
%MOMM*%
%LPD*%
G04 APERTURE LIST*
%ADD10C,0.120000*%
%ADD11C,0.150000*%
%ADD12C,0.100000*%
%ADD13R,0.702000X1.552000*%
%ADD14R,0.402000X1.552000*%
%ADD15C,0.752000*%
%ADD16O,1.702000X1.702000*%
%ADD17R,1.702000X1.702000*%
%ADD18R,2.102000X2.102000*%
%ADD19C,2.102000*%
%ADD20R,3.302000X2.102000*%
%ADD21R,1.602000X0.652000*%
%ADD22R,0.652000X1.602000*%
%ADD23C,1.852000*%
%ADD24R,2.007000X2.007000*%
%ADD25C,2.007000*%
%ADD26C,2.352000*%
%ADD27C,4.089800*%
%ADD28C,2.352000*%
%ADD29R,1.502000X1.302000*%
%ADD30R,1.202000X1.902000*%
G04 APERTURE END LIST*
D10*
X92510000Y-94941422D02*
X92510000Y-95458578D01*
X91090000Y-94941422D02*
X91090000Y-95458578D01*
X83260000Y-86777328D02*
X83260000Y-86260172D01*
X81840000Y-86777328D02*
X81840000Y-86260172D01*
X86435000Y-86260172D02*
X86435000Y-86777328D01*
X85015000Y-86260172D02*
X85015000Y-86777328D01*
X75490000Y-86921078D02*
X75490000Y-86403922D01*
X76910000Y-86921078D02*
X76910000Y-86403922D01*
X67210172Y-118352500D02*
X67727328Y-118352500D01*
X67210172Y-119772500D02*
X67727328Y-119772500D01*
X73735000Y-106897672D02*
X73735000Y-107414828D01*
X72315000Y-106897672D02*
X72315000Y-107414828D01*
X85015000Y-110589828D02*
X85015000Y-110072672D01*
X86435000Y-110589828D02*
X86435000Y-110072672D01*
X88190000Y-110589828D02*
X88190000Y-110072672D01*
X89610000Y-110589828D02*
X89610000Y-110072672D01*
X82633750Y-109796078D02*
X82633750Y-109278922D01*
X84053750Y-109796078D02*
X84053750Y-109278922D01*
X74528750Y-94197672D02*
X74528750Y-94714828D01*
X73108750Y-94197672D02*
X73108750Y-94714828D01*
D11*
X78400000Y-94837500D02*
X78400000Y-93562500D01*
X77825000Y-105187500D02*
X77825000Y-104512500D01*
X88175000Y-105187500D02*
X88175000Y-104512500D01*
X88175000Y-94837500D02*
X88175000Y-95512500D01*
X77825000Y-94837500D02*
X77825000Y-95512500D01*
X88175000Y-94837500D02*
X87500000Y-94837500D01*
X88175000Y-105187500D02*
X87500000Y-105187500D01*
X77825000Y-105187500D02*
X78500000Y-105187500D01*
X77825000Y-94837500D02*
X78400000Y-94837500D01*
D10*
X96456250Y-100868750D02*
X92456250Y-100868750D01*
X96456250Y-97568750D02*
X96456250Y-100868750D01*
D11*
X92650000Y-85506250D02*
X92650000Y-90706250D01*
X92650000Y-90706250D02*
X97850000Y-90706250D01*
X97850000Y-90706250D02*
X97850000Y-85506250D01*
X97850000Y-85506250D02*
X92650000Y-85506250D01*
X96250000Y-88106250D02*
G75*
G03X96250000Y-88106250I-1000000J0D01*
G01*
D10*
X65622672Y-109621250D02*
X66139828Y-109621250D01*
X65622672Y-111041250D02*
X66139828Y-111041250D01*
X89610000Y-86260172D02*
X89610000Y-86777328D01*
X88190000Y-86260172D02*
X88190000Y-86777328D01*
X80085000Y-86777328D02*
X80085000Y-86260172D01*
X78665000Y-86777328D02*
X78665000Y-86260172D01*
X69845814Y-86635000D02*
X68641686Y-86635000D01*
X69845814Y-84815000D02*
X68641686Y-84815000D01*
X85983578Y-91197500D02*
X85466422Y-91197500D01*
X85983578Y-89777500D02*
X85466422Y-89777500D01*
X94714828Y-96753750D02*
X94197672Y-96753750D01*
X94714828Y-95333750D02*
X94197672Y-95333750D01*
X94197672Y-101683750D02*
X94714828Y-101683750D01*
X94197672Y-103103750D02*
X94714828Y-103103750D01*
X69933750Y-103446078D02*
X69933750Y-102928922D01*
X71353750Y-103446078D02*
X71353750Y-102928922D01*
D11*
X91966666Y-93175892D02*
X92014285Y-93223511D01*
X92157142Y-93271130D01*
X92252380Y-93271130D01*
X92395238Y-93223511D01*
X92490476Y-93128273D01*
X92538095Y-93033035D01*
X92585714Y-92842559D01*
X92585714Y-92699702D01*
X92538095Y-92509226D01*
X92490476Y-92413988D01*
X92395238Y-92318750D01*
X92252380Y-92271130D01*
X92157142Y-92271130D01*
X92014285Y-92318750D01*
X91966666Y-92366369D01*
X91585714Y-92366369D02*
X91538095Y-92318750D01*
X91442857Y-92271130D01*
X91204761Y-92271130D01*
X91109523Y-92318750D01*
X91061904Y-92366369D01*
X91014285Y-92461607D01*
X91014285Y-92556845D01*
X91061904Y-92699702D01*
X91633333Y-93271130D01*
X91014285Y-93271130D01*
X82716666Y-84589880D02*
X83050000Y-84113690D01*
X83288095Y-84589880D02*
X83288095Y-83589880D01*
X82907142Y-83589880D01*
X82811904Y-83637500D01*
X82764285Y-83685119D01*
X82716666Y-83780357D01*
X82716666Y-83923214D01*
X82764285Y-84018452D01*
X82811904Y-84066071D01*
X82907142Y-84113690D01*
X83288095Y-84113690D01*
X82335714Y-83685119D02*
X82288095Y-83637500D01*
X82192857Y-83589880D01*
X81954761Y-83589880D01*
X81859523Y-83637500D01*
X81811904Y-83685119D01*
X81764285Y-83780357D01*
X81764285Y-83875595D01*
X81811904Y-84018452D01*
X82383333Y-84589880D01*
X81764285Y-84589880D01*
X82700595Y-80139880D02*
X82700595Y-80949404D01*
X82652976Y-81044642D01*
X82605357Y-81092261D01*
X82510119Y-81139880D01*
X82319642Y-81139880D01*
X82224404Y-81092261D01*
X82176785Y-81044642D01*
X82129166Y-80949404D01*
X82129166Y-80139880D01*
X81700595Y-81092261D02*
X81557738Y-81139880D01*
X81319642Y-81139880D01*
X81224404Y-81092261D01*
X81176785Y-81044642D01*
X81129166Y-80949404D01*
X81129166Y-80854166D01*
X81176785Y-80758928D01*
X81224404Y-80711309D01*
X81319642Y-80663690D01*
X81510119Y-80616071D01*
X81605357Y-80568452D01*
X81652976Y-80520833D01*
X81700595Y-80425595D01*
X81700595Y-80330357D01*
X81652976Y-80235119D01*
X81605357Y-80187500D01*
X81510119Y-80139880D01*
X81272023Y-80139880D01*
X81129166Y-80187500D01*
X80367261Y-80616071D02*
X80224404Y-80663690D01*
X80176785Y-80711309D01*
X80129166Y-80806547D01*
X80129166Y-80949404D01*
X80176785Y-81044642D01*
X80224404Y-81092261D01*
X80319642Y-81139880D01*
X80700595Y-81139880D01*
X80700595Y-80139880D01*
X80367261Y-80139880D01*
X80272023Y-80187500D01*
X80224404Y-80235119D01*
X80176785Y-80330357D01*
X80176785Y-80425595D01*
X80224404Y-80520833D01*
X80272023Y-80568452D01*
X80367261Y-80616071D01*
X80700595Y-80616071D01*
X79176785Y-81139880D02*
X79748214Y-81139880D01*
X79462500Y-81139880D02*
X79462500Y-80139880D01*
X79557738Y-80282738D01*
X79652976Y-80377976D01*
X79748214Y-80425595D01*
X85891666Y-84589880D02*
X86225000Y-84113690D01*
X86463095Y-84589880D02*
X86463095Y-83589880D01*
X86082142Y-83589880D01*
X85986904Y-83637500D01*
X85939285Y-83685119D01*
X85891666Y-83780357D01*
X85891666Y-83923214D01*
X85939285Y-84018452D01*
X85986904Y-84066071D01*
X86082142Y-84113690D01*
X86463095Y-84113690D01*
X85034523Y-83589880D02*
X85225000Y-83589880D01*
X85320238Y-83637500D01*
X85367857Y-83685119D01*
X85463095Y-83827976D01*
X85510714Y-84018452D01*
X85510714Y-84399404D01*
X85463095Y-84494642D01*
X85415476Y-84542261D01*
X85320238Y-84589880D01*
X85129761Y-84589880D01*
X85034523Y-84542261D01*
X84986904Y-84494642D01*
X84939285Y-84399404D01*
X84939285Y-84161309D01*
X84986904Y-84066071D01*
X85034523Y-84018452D01*
X85129761Y-83970833D01*
X85320238Y-83970833D01*
X85415476Y-84018452D01*
X85463095Y-84066071D01*
X85510714Y-84161309D01*
X76366666Y-84589880D02*
X76700000Y-84113690D01*
X76938095Y-84589880D02*
X76938095Y-83589880D01*
X76557142Y-83589880D01*
X76461904Y-83637500D01*
X76414285Y-83685119D01*
X76366666Y-83780357D01*
X76366666Y-83923214D01*
X76414285Y-84018452D01*
X76461904Y-84066071D01*
X76557142Y-84113690D01*
X76938095Y-84113690D01*
X75414285Y-84589880D02*
X75985714Y-84589880D01*
X75700000Y-84589880D02*
X75700000Y-83589880D01*
X75795238Y-83732738D01*
X75890476Y-83827976D01*
X75985714Y-83875595D01*
X68111607Y-121164880D02*
X68444940Y-120688690D01*
X68683035Y-121164880D02*
X68683035Y-120164880D01*
X68302083Y-120164880D01*
X68206845Y-120212500D01*
X68159226Y-120260119D01*
X68111607Y-120355357D01*
X68111607Y-120498214D01*
X68159226Y-120593452D01*
X68206845Y-120641071D01*
X68302083Y-120688690D01*
X68683035Y-120688690D01*
X67159226Y-121164880D02*
X67730654Y-121164880D01*
X67444940Y-121164880D02*
X67444940Y-120164880D01*
X67540178Y-120307738D01*
X67635416Y-120402976D01*
X67730654Y-120450595D01*
X66540178Y-120164880D02*
X66444940Y-120164880D01*
X66349702Y-120212500D01*
X66302083Y-120260119D01*
X66254464Y-120355357D01*
X66206845Y-120545833D01*
X66206845Y-120783928D01*
X66254464Y-120974404D01*
X66302083Y-121069642D01*
X66349702Y-121117261D01*
X66444940Y-121164880D01*
X66540178Y-121164880D01*
X66635416Y-121117261D01*
X66683035Y-121069642D01*
X66730654Y-120974404D01*
X66778273Y-120783928D01*
X66778273Y-120545833D01*
X66730654Y-120355357D01*
X66683035Y-120260119D01*
X66635416Y-120212500D01*
X66540178Y-120164880D01*
X73191666Y-109989880D02*
X73525000Y-109513690D01*
X73763095Y-109989880D02*
X73763095Y-108989880D01*
X73382142Y-108989880D01*
X73286904Y-109037500D01*
X73239285Y-109085119D01*
X73191666Y-109180357D01*
X73191666Y-109323214D01*
X73239285Y-109418452D01*
X73286904Y-109466071D01*
X73382142Y-109513690D01*
X73763095Y-109513690D01*
X72715476Y-109989880D02*
X72525000Y-109989880D01*
X72429761Y-109942261D01*
X72382142Y-109894642D01*
X72286904Y-109751785D01*
X72239285Y-109561309D01*
X72239285Y-109180357D01*
X72286904Y-109085119D01*
X72334523Y-109037500D01*
X72429761Y-108989880D01*
X72620238Y-108989880D01*
X72715476Y-109037500D01*
X72763095Y-109085119D01*
X72810714Y-109180357D01*
X72810714Y-109418452D01*
X72763095Y-109513690D01*
X72715476Y-109561309D01*
X72620238Y-109608928D01*
X72429761Y-109608928D01*
X72334523Y-109561309D01*
X72286904Y-109513690D01*
X72239285Y-109418452D01*
X85891666Y-108402380D02*
X86225000Y-107926190D01*
X86463095Y-108402380D02*
X86463095Y-107402380D01*
X86082142Y-107402380D01*
X85986904Y-107450000D01*
X85939285Y-107497619D01*
X85891666Y-107592857D01*
X85891666Y-107735714D01*
X85939285Y-107830952D01*
X85986904Y-107878571D01*
X86082142Y-107926190D01*
X86463095Y-107926190D01*
X85320238Y-107830952D02*
X85415476Y-107783333D01*
X85463095Y-107735714D01*
X85510714Y-107640476D01*
X85510714Y-107592857D01*
X85463095Y-107497619D01*
X85415476Y-107450000D01*
X85320238Y-107402380D01*
X85129761Y-107402380D01*
X85034523Y-107450000D01*
X84986904Y-107497619D01*
X84939285Y-107592857D01*
X84939285Y-107640476D01*
X84986904Y-107735714D01*
X85034523Y-107783333D01*
X85129761Y-107830952D01*
X85320238Y-107830952D01*
X85415476Y-107878571D01*
X85463095Y-107926190D01*
X85510714Y-108021428D01*
X85510714Y-108211904D01*
X85463095Y-108307142D01*
X85415476Y-108354761D01*
X85320238Y-108402380D01*
X85129761Y-108402380D01*
X85034523Y-108354761D01*
X84986904Y-108307142D01*
X84939285Y-108211904D01*
X84939285Y-108021428D01*
X84986904Y-107926190D01*
X85034523Y-107878571D01*
X85129761Y-107830952D01*
X89066666Y-108307142D02*
X89114285Y-108354761D01*
X89257142Y-108402380D01*
X89352380Y-108402380D01*
X89495238Y-108354761D01*
X89590476Y-108259523D01*
X89638095Y-108164285D01*
X89685714Y-107973809D01*
X89685714Y-107830952D01*
X89638095Y-107640476D01*
X89590476Y-107545238D01*
X89495238Y-107450000D01*
X89352380Y-107402380D01*
X89257142Y-107402380D01*
X89114285Y-107450000D01*
X89066666Y-107497619D01*
X88114285Y-108402380D02*
X88685714Y-108402380D01*
X88400000Y-108402380D02*
X88400000Y-107402380D01*
X88495238Y-107545238D01*
X88590476Y-107640476D01*
X88685714Y-107688095D01*
X83510416Y-113069642D02*
X83558035Y-113117261D01*
X83700892Y-113164880D01*
X83796130Y-113164880D01*
X83938988Y-113117261D01*
X84034226Y-113022023D01*
X84081845Y-112926785D01*
X84129464Y-112736309D01*
X84129464Y-112593452D01*
X84081845Y-112402976D01*
X84034226Y-112307738D01*
X83938988Y-112212500D01*
X83796130Y-112164880D01*
X83700892Y-112164880D01*
X83558035Y-112212500D01*
X83510416Y-112260119D01*
X82653273Y-112498214D02*
X82653273Y-113164880D01*
X82891369Y-112117261D02*
X83129464Y-112831547D01*
X82510416Y-112831547D01*
X73985416Y-97988392D02*
X74033035Y-98036011D01*
X74175892Y-98083630D01*
X74271130Y-98083630D01*
X74413988Y-98036011D01*
X74509226Y-97940773D01*
X74556845Y-97845535D01*
X74604464Y-97655059D01*
X74604464Y-97512202D01*
X74556845Y-97321726D01*
X74509226Y-97226488D01*
X74413988Y-97131250D01*
X74271130Y-97083630D01*
X74175892Y-97083630D01*
X74033035Y-97131250D01*
X73985416Y-97178869D01*
X73080654Y-97083630D02*
X73556845Y-97083630D01*
X73604464Y-97559821D01*
X73556845Y-97512202D01*
X73461607Y-97464583D01*
X73223511Y-97464583D01*
X73128273Y-97512202D01*
X73080654Y-97559821D01*
X73033035Y-97655059D01*
X73033035Y-97893154D01*
X73080654Y-97988392D01*
X73128273Y-98036011D01*
X73223511Y-98083630D01*
X73461607Y-98083630D01*
X73556845Y-98036011D01*
X73604464Y-97988392D01*
X82174404Y-92321130D02*
X82174404Y-93130654D01*
X82126785Y-93225892D01*
X82079166Y-93273511D01*
X81983928Y-93321130D01*
X81793452Y-93321130D01*
X81698214Y-93273511D01*
X81650595Y-93225892D01*
X81602976Y-93130654D01*
X81602976Y-92321130D01*
X80602976Y-93321130D02*
X81174404Y-93321130D01*
X80888690Y-93321130D02*
X80888690Y-92321130D01*
X80983928Y-92463988D01*
X81079166Y-92559226D01*
X81174404Y-92606845D01*
X91563690Y-98798809D02*
X92039880Y-98798809D01*
X91039880Y-98465476D02*
X91563690Y-98798809D01*
X91039880Y-99132142D01*
X92039880Y-99989285D02*
X92039880Y-99417857D01*
X92039880Y-99703571D02*
X91039880Y-99703571D01*
X91182738Y-99608333D01*
X91277976Y-99513095D01*
X91325595Y-99417857D01*
X99623511Y-86772916D02*
X99671130Y-86915773D01*
X99671130Y-87153869D01*
X99623511Y-87249107D01*
X99575892Y-87296726D01*
X99480654Y-87344345D01*
X99385416Y-87344345D01*
X99290178Y-87296726D01*
X99242559Y-87249107D01*
X99194940Y-87153869D01*
X99147321Y-86963392D01*
X99099702Y-86868154D01*
X99052083Y-86820535D01*
X98956845Y-86772916D01*
X98861607Y-86772916D01*
X98766369Y-86820535D01*
X98718750Y-86868154D01*
X98671130Y-86963392D01*
X98671130Y-87201488D01*
X98718750Y-87344345D01*
X98671130Y-87677678D02*
X99671130Y-87915773D01*
X98956845Y-88106250D01*
X99671130Y-88296726D01*
X98671130Y-88534821D01*
X99671130Y-89439583D02*
X99671130Y-88868154D01*
X99671130Y-89153869D02*
X98671130Y-89153869D01*
X98813988Y-89058630D01*
X98909226Y-88963392D01*
X98956845Y-88868154D01*
X66047916Y-109196130D02*
X66381250Y-108719940D01*
X66619345Y-109196130D02*
X66619345Y-108196130D01*
X66238392Y-108196130D01*
X66143154Y-108243750D01*
X66095535Y-108291369D01*
X66047916Y-108386607D01*
X66047916Y-108529464D01*
X66095535Y-108624702D01*
X66143154Y-108672321D01*
X66238392Y-108719940D01*
X66619345Y-108719940D01*
X65143154Y-108196130D02*
X65619345Y-108196130D01*
X65666964Y-108672321D01*
X65619345Y-108624702D01*
X65524107Y-108577083D01*
X65286011Y-108577083D01*
X65190773Y-108624702D01*
X65143154Y-108672321D01*
X65095535Y-108767559D01*
X65095535Y-109005654D01*
X65143154Y-109100892D01*
X65190773Y-109148511D01*
X65286011Y-109196130D01*
X65524107Y-109196130D01*
X65619345Y-109148511D01*
X65666964Y-109100892D01*
X89066666Y-84589880D02*
X89400000Y-84113690D01*
X89638095Y-84589880D02*
X89638095Y-83589880D01*
X89257142Y-83589880D01*
X89161904Y-83637500D01*
X89114285Y-83685119D01*
X89066666Y-83780357D01*
X89066666Y-83923214D01*
X89114285Y-84018452D01*
X89161904Y-84066071D01*
X89257142Y-84113690D01*
X89638095Y-84113690D01*
X88209523Y-83923214D02*
X88209523Y-84589880D01*
X88447619Y-83542261D02*
X88685714Y-84256547D01*
X88066666Y-84256547D01*
X79541666Y-84589880D02*
X79875000Y-84113690D01*
X80113095Y-84589880D02*
X80113095Y-83589880D01*
X79732142Y-83589880D01*
X79636904Y-83637500D01*
X79589285Y-83685119D01*
X79541666Y-83780357D01*
X79541666Y-83923214D01*
X79589285Y-84018452D01*
X79636904Y-84066071D01*
X79732142Y-84113690D01*
X80113095Y-84113690D01*
X79208333Y-83589880D02*
X78589285Y-83589880D01*
X78922619Y-83970833D01*
X78779761Y-83970833D01*
X78684523Y-84018452D01*
X78636904Y-84066071D01*
X78589285Y-84161309D01*
X78589285Y-84399404D01*
X78636904Y-84494642D01*
X78684523Y-84542261D01*
X78779761Y-84589880D01*
X79065476Y-84589880D01*
X79160714Y-84542261D01*
X79208333Y-84494642D01*
X69389583Y-83272321D02*
X69722916Y-83272321D01*
X69722916Y-83796130D02*
X69722916Y-82796130D01*
X69246726Y-82796130D01*
X68341964Y-83796130D02*
X68913392Y-83796130D01*
X68627678Y-83796130D02*
X68627678Y-82796130D01*
X68722916Y-82938988D01*
X68818154Y-83034226D01*
X68913392Y-83081845D01*
X85891666Y-92432142D02*
X85939285Y-92479761D01*
X86082142Y-92527380D01*
X86177380Y-92527380D01*
X86320238Y-92479761D01*
X86415476Y-92384523D01*
X86463095Y-92289285D01*
X86510714Y-92098809D01*
X86510714Y-91955952D01*
X86463095Y-91765476D01*
X86415476Y-91670238D01*
X86320238Y-91575000D01*
X86177380Y-91527380D01*
X86082142Y-91527380D01*
X85939285Y-91575000D01*
X85891666Y-91622619D01*
X85320238Y-91955952D02*
X85415476Y-91908333D01*
X85463095Y-91860714D01*
X85510714Y-91765476D01*
X85510714Y-91717857D01*
X85463095Y-91622619D01*
X85415476Y-91575000D01*
X85320238Y-91527380D01*
X85129761Y-91527380D01*
X85034523Y-91575000D01*
X84986904Y-91622619D01*
X84939285Y-91717857D01*
X84939285Y-91765476D01*
X84986904Y-91860714D01*
X85034523Y-91908333D01*
X85129761Y-91955952D01*
X85320238Y-91955952D01*
X85415476Y-92003571D01*
X85463095Y-92051190D01*
X85510714Y-92146428D01*
X85510714Y-92336904D01*
X85463095Y-92432142D01*
X85415476Y-92479761D01*
X85320238Y-92527380D01*
X85129761Y-92527380D01*
X85034523Y-92479761D01*
X84986904Y-92432142D01*
X84939285Y-92336904D01*
X84939285Y-92146428D01*
X84986904Y-92051190D01*
X85034523Y-92003571D01*
X85129761Y-91955952D01*
X97797916Y-96400892D02*
X97845535Y-96448511D01*
X97988392Y-96496130D01*
X98083630Y-96496130D01*
X98226488Y-96448511D01*
X98321726Y-96353273D01*
X98369345Y-96258035D01*
X98416964Y-96067559D01*
X98416964Y-95924702D01*
X98369345Y-95734226D01*
X98321726Y-95638988D01*
X98226488Y-95543750D01*
X98083630Y-95496130D01*
X97988392Y-95496130D01*
X97845535Y-95543750D01*
X97797916Y-95591369D01*
X97464583Y-95496130D02*
X96797916Y-95496130D01*
X97226488Y-96496130D01*
X97797916Y-102750892D02*
X97845535Y-102798511D01*
X97988392Y-102846130D01*
X98083630Y-102846130D01*
X98226488Y-102798511D01*
X98321726Y-102703273D01*
X98369345Y-102608035D01*
X98416964Y-102417559D01*
X98416964Y-102274702D01*
X98369345Y-102084226D01*
X98321726Y-101988988D01*
X98226488Y-101893750D01*
X98083630Y-101846130D01*
X97988392Y-101846130D01*
X97845535Y-101893750D01*
X97797916Y-101941369D01*
X96940773Y-101846130D02*
X97131250Y-101846130D01*
X97226488Y-101893750D01*
X97274107Y-101941369D01*
X97369345Y-102084226D01*
X97416964Y-102274702D01*
X97416964Y-102655654D01*
X97369345Y-102750892D01*
X97321726Y-102798511D01*
X97226488Y-102846130D01*
X97036011Y-102846130D01*
X96940773Y-102798511D01*
X96893154Y-102750892D01*
X96845535Y-102655654D01*
X96845535Y-102417559D01*
X96893154Y-102322321D01*
X96940773Y-102274702D01*
X97036011Y-102227083D01*
X97226488Y-102227083D01*
X97321726Y-102274702D01*
X97369345Y-102322321D01*
X97416964Y-102417559D01*
X70810416Y-105925892D02*
X70858035Y-105973511D01*
X71000892Y-106021130D01*
X71096130Y-106021130D01*
X71238988Y-105973511D01*
X71334226Y-105878273D01*
X71381845Y-105783035D01*
X71429464Y-105592559D01*
X71429464Y-105449702D01*
X71381845Y-105259226D01*
X71334226Y-105163988D01*
X71238988Y-105068750D01*
X71096130Y-105021130D01*
X71000892Y-105021130D01*
X70858035Y-105068750D01*
X70810416Y-105116369D01*
X70477083Y-105021130D02*
X69858035Y-105021130D01*
X70191369Y-105402083D01*
X70048511Y-105402083D01*
X69953273Y-105449702D01*
X69905654Y-105497321D01*
X69858035Y-105592559D01*
X69858035Y-105830654D01*
X69905654Y-105925892D01*
X69953273Y-105973511D01*
X70048511Y-106021130D01*
X70334226Y-106021130D01*
X70429464Y-105973511D01*
X70477083Y-105925892D01*
%LPC*%
D12*
G36*
X92308141Y-95600297D02*
G01*
X92334278Y-95604174D01*
X92359909Y-95610594D01*
X92384788Y-95619495D01*
X92408674Y-95630793D01*
X92431337Y-95644377D01*
X92452560Y-95660117D01*
X92472139Y-95677861D01*
X92489883Y-95697440D01*
X92505623Y-95718663D01*
X92519207Y-95741326D01*
X92530505Y-95765212D01*
X92539406Y-95790091D01*
X92545826Y-95815722D01*
X92549703Y-95841859D01*
X92551000Y-95868250D01*
X92551000Y-96406750D01*
X92549703Y-96433141D01*
X92545826Y-96459278D01*
X92539406Y-96484909D01*
X92530505Y-96509788D01*
X92519207Y-96533674D01*
X92505623Y-96556337D01*
X92489883Y-96577560D01*
X92472139Y-96597139D01*
X92452560Y-96614883D01*
X92431337Y-96630623D01*
X92408674Y-96644207D01*
X92384788Y-96655505D01*
X92359909Y-96664406D01*
X92334278Y-96670826D01*
X92308141Y-96674703D01*
X92281750Y-96676000D01*
X91318250Y-96676000D01*
X91291859Y-96674703D01*
X91265722Y-96670826D01*
X91240091Y-96664406D01*
X91215212Y-96655505D01*
X91191326Y-96644207D01*
X91168663Y-96630623D01*
X91147440Y-96614883D01*
X91127861Y-96597139D01*
X91110117Y-96577560D01*
X91094377Y-96556337D01*
X91080793Y-96533674D01*
X91069495Y-96509788D01*
X91060594Y-96484909D01*
X91054174Y-96459278D01*
X91050297Y-96433141D01*
X91049000Y-96406750D01*
X91049000Y-95868250D01*
X91050297Y-95841859D01*
X91054174Y-95815722D01*
X91060594Y-95790091D01*
X91069495Y-95765212D01*
X91080793Y-95741326D01*
X91094377Y-95718663D01*
X91110117Y-95697440D01*
X91127861Y-95677861D01*
X91147440Y-95660117D01*
X91168663Y-95644377D01*
X91191326Y-95630793D01*
X91215212Y-95619495D01*
X91240091Y-95610594D01*
X91265722Y-95604174D01*
X91291859Y-95600297D01*
X91318250Y-95599000D01*
X92281750Y-95599000D01*
X92308141Y-95600297D01*
G37*
G36*
X92308141Y-93725297D02*
G01*
X92334278Y-93729174D01*
X92359909Y-93735594D01*
X92384788Y-93744495D01*
X92408674Y-93755793D01*
X92431337Y-93769377D01*
X92452560Y-93785117D01*
X92472139Y-93802861D01*
X92489883Y-93822440D01*
X92505623Y-93843663D01*
X92519207Y-93866326D01*
X92530505Y-93890212D01*
X92539406Y-93915091D01*
X92545826Y-93940722D01*
X92549703Y-93966859D01*
X92551000Y-93993250D01*
X92551000Y-94531750D01*
X92549703Y-94558141D01*
X92545826Y-94584278D01*
X92539406Y-94609909D01*
X92530505Y-94634788D01*
X92519207Y-94658674D01*
X92505623Y-94681337D01*
X92489883Y-94702560D01*
X92472139Y-94722139D01*
X92452560Y-94739883D01*
X92431337Y-94755623D01*
X92408674Y-94769207D01*
X92384788Y-94780505D01*
X92359909Y-94789406D01*
X92334278Y-94795826D01*
X92308141Y-94799703D01*
X92281750Y-94801000D01*
X91318250Y-94801000D01*
X91291859Y-94799703D01*
X91265722Y-94795826D01*
X91240091Y-94789406D01*
X91215212Y-94780505D01*
X91191326Y-94769207D01*
X91168663Y-94755623D01*
X91147440Y-94739883D01*
X91127861Y-94722139D01*
X91110117Y-94702560D01*
X91094377Y-94681337D01*
X91080793Y-94658674D01*
X91069495Y-94634788D01*
X91060594Y-94609909D01*
X91054174Y-94584278D01*
X91050297Y-94558141D01*
X91049000Y-94531750D01*
X91049000Y-93993250D01*
X91050297Y-93966859D01*
X91054174Y-93940722D01*
X91060594Y-93915091D01*
X91069495Y-93890212D01*
X91080793Y-93866326D01*
X91094377Y-93843663D01*
X91110117Y-93822440D01*
X91127861Y-93802861D01*
X91147440Y-93785117D01*
X91168663Y-93769377D01*
X91191326Y-93755793D01*
X91215212Y-93744495D01*
X91240091Y-93735594D01*
X91265722Y-93729174D01*
X91291859Y-93725297D01*
X91318250Y-93724000D01*
X92281750Y-93724000D01*
X92308141Y-93725297D01*
G37*
G36*
X83058141Y-86919047D02*
G01*
X83084278Y-86922924D01*
X83109909Y-86929344D01*
X83134788Y-86938245D01*
X83158674Y-86949543D01*
X83181337Y-86963127D01*
X83202560Y-86978867D01*
X83222139Y-86996611D01*
X83239883Y-87016190D01*
X83255623Y-87037413D01*
X83269207Y-87060076D01*
X83280505Y-87083962D01*
X83289406Y-87108841D01*
X83295826Y-87134472D01*
X83299703Y-87160609D01*
X83301000Y-87187000D01*
X83301000Y-87725500D01*
X83299703Y-87751891D01*
X83295826Y-87778028D01*
X83289406Y-87803659D01*
X83280505Y-87828538D01*
X83269207Y-87852424D01*
X83255623Y-87875087D01*
X83239883Y-87896310D01*
X83222139Y-87915889D01*
X83202560Y-87933633D01*
X83181337Y-87949373D01*
X83158674Y-87962957D01*
X83134788Y-87974255D01*
X83109909Y-87983156D01*
X83084278Y-87989576D01*
X83058141Y-87993453D01*
X83031750Y-87994750D01*
X82068250Y-87994750D01*
X82041859Y-87993453D01*
X82015722Y-87989576D01*
X81990091Y-87983156D01*
X81965212Y-87974255D01*
X81941326Y-87962957D01*
X81918663Y-87949373D01*
X81897440Y-87933633D01*
X81877861Y-87915889D01*
X81860117Y-87896310D01*
X81844377Y-87875087D01*
X81830793Y-87852424D01*
X81819495Y-87828538D01*
X81810594Y-87803659D01*
X81804174Y-87778028D01*
X81800297Y-87751891D01*
X81799000Y-87725500D01*
X81799000Y-87187000D01*
X81800297Y-87160609D01*
X81804174Y-87134472D01*
X81810594Y-87108841D01*
X81819495Y-87083962D01*
X81830793Y-87060076D01*
X81844377Y-87037413D01*
X81860117Y-87016190D01*
X81877861Y-86996611D01*
X81897440Y-86978867D01*
X81918663Y-86963127D01*
X81941326Y-86949543D01*
X81965212Y-86938245D01*
X81990091Y-86929344D01*
X82015722Y-86922924D01*
X82041859Y-86919047D01*
X82068250Y-86917750D01*
X83031750Y-86917750D01*
X83058141Y-86919047D01*
G37*
G36*
X83058141Y-85044047D02*
G01*
X83084278Y-85047924D01*
X83109909Y-85054344D01*
X83134788Y-85063245D01*
X83158674Y-85074543D01*
X83181337Y-85088127D01*
X83202560Y-85103867D01*
X83222139Y-85121611D01*
X83239883Y-85141190D01*
X83255623Y-85162413D01*
X83269207Y-85185076D01*
X83280505Y-85208962D01*
X83289406Y-85233841D01*
X83295826Y-85259472D01*
X83299703Y-85285609D01*
X83301000Y-85312000D01*
X83301000Y-85850500D01*
X83299703Y-85876891D01*
X83295826Y-85903028D01*
X83289406Y-85928659D01*
X83280505Y-85953538D01*
X83269207Y-85977424D01*
X83255623Y-86000087D01*
X83239883Y-86021310D01*
X83222139Y-86040889D01*
X83202560Y-86058633D01*
X83181337Y-86074373D01*
X83158674Y-86087957D01*
X83134788Y-86099255D01*
X83109909Y-86108156D01*
X83084278Y-86114576D01*
X83058141Y-86118453D01*
X83031750Y-86119750D01*
X82068250Y-86119750D01*
X82041859Y-86118453D01*
X82015722Y-86114576D01*
X81990091Y-86108156D01*
X81965212Y-86099255D01*
X81941326Y-86087957D01*
X81918663Y-86074373D01*
X81897440Y-86058633D01*
X81877861Y-86040889D01*
X81860117Y-86021310D01*
X81844377Y-86000087D01*
X81830793Y-85977424D01*
X81819495Y-85953538D01*
X81810594Y-85928659D01*
X81804174Y-85903028D01*
X81800297Y-85876891D01*
X81799000Y-85850500D01*
X81799000Y-85312000D01*
X81800297Y-85285609D01*
X81804174Y-85259472D01*
X81810594Y-85233841D01*
X81819495Y-85208962D01*
X81830793Y-85185076D01*
X81844377Y-85162413D01*
X81860117Y-85141190D01*
X81877861Y-85121611D01*
X81897440Y-85103867D01*
X81918663Y-85088127D01*
X81941326Y-85074543D01*
X81965212Y-85063245D01*
X81990091Y-85054344D01*
X82015722Y-85047924D01*
X82041859Y-85044047D01*
X82068250Y-85042750D01*
X83031750Y-85042750D01*
X83058141Y-85044047D01*
G37*
D13*
X84187500Y-79132500D03*
X77737500Y-79132500D03*
X83412500Y-79132500D03*
X78512500Y-79132500D03*
D14*
X79212500Y-79132500D03*
X82712500Y-79132500D03*
X79712500Y-79132500D03*
X82212500Y-79132500D03*
X80212500Y-79132500D03*
X81712500Y-79132500D03*
X81212500Y-79132500D03*
X80712500Y-79132500D03*
D15*
X83852500Y-77687500D03*
X78072500Y-77687500D03*
D12*
G36*
X86233141Y-86919047D02*
G01*
X86259278Y-86922924D01*
X86284909Y-86929344D01*
X86309788Y-86938245D01*
X86333674Y-86949543D01*
X86356337Y-86963127D01*
X86377560Y-86978867D01*
X86397139Y-86996611D01*
X86414883Y-87016190D01*
X86430623Y-87037413D01*
X86444207Y-87060076D01*
X86455505Y-87083962D01*
X86464406Y-87108841D01*
X86470826Y-87134472D01*
X86474703Y-87160609D01*
X86476000Y-87187000D01*
X86476000Y-87725500D01*
X86474703Y-87751891D01*
X86470826Y-87778028D01*
X86464406Y-87803659D01*
X86455505Y-87828538D01*
X86444207Y-87852424D01*
X86430623Y-87875087D01*
X86414883Y-87896310D01*
X86397139Y-87915889D01*
X86377560Y-87933633D01*
X86356337Y-87949373D01*
X86333674Y-87962957D01*
X86309788Y-87974255D01*
X86284909Y-87983156D01*
X86259278Y-87989576D01*
X86233141Y-87993453D01*
X86206750Y-87994750D01*
X85243250Y-87994750D01*
X85216859Y-87993453D01*
X85190722Y-87989576D01*
X85165091Y-87983156D01*
X85140212Y-87974255D01*
X85116326Y-87962957D01*
X85093663Y-87949373D01*
X85072440Y-87933633D01*
X85052861Y-87915889D01*
X85035117Y-87896310D01*
X85019377Y-87875087D01*
X85005793Y-87852424D01*
X84994495Y-87828538D01*
X84985594Y-87803659D01*
X84979174Y-87778028D01*
X84975297Y-87751891D01*
X84974000Y-87725500D01*
X84974000Y-87187000D01*
X84975297Y-87160609D01*
X84979174Y-87134472D01*
X84985594Y-87108841D01*
X84994495Y-87083962D01*
X85005793Y-87060076D01*
X85019377Y-87037413D01*
X85035117Y-87016190D01*
X85052861Y-86996611D01*
X85072440Y-86978867D01*
X85093663Y-86963127D01*
X85116326Y-86949543D01*
X85140212Y-86938245D01*
X85165091Y-86929344D01*
X85190722Y-86922924D01*
X85216859Y-86919047D01*
X85243250Y-86917750D01*
X86206750Y-86917750D01*
X86233141Y-86919047D01*
G37*
G36*
X86233141Y-85044047D02*
G01*
X86259278Y-85047924D01*
X86284909Y-85054344D01*
X86309788Y-85063245D01*
X86333674Y-85074543D01*
X86356337Y-85088127D01*
X86377560Y-85103867D01*
X86397139Y-85121611D01*
X86414883Y-85141190D01*
X86430623Y-85162413D01*
X86444207Y-85185076D01*
X86455505Y-85208962D01*
X86464406Y-85233841D01*
X86470826Y-85259472D01*
X86474703Y-85285609D01*
X86476000Y-85312000D01*
X86476000Y-85850500D01*
X86474703Y-85876891D01*
X86470826Y-85903028D01*
X86464406Y-85928659D01*
X86455505Y-85953538D01*
X86444207Y-85977424D01*
X86430623Y-86000087D01*
X86414883Y-86021310D01*
X86397139Y-86040889D01*
X86377560Y-86058633D01*
X86356337Y-86074373D01*
X86333674Y-86087957D01*
X86309788Y-86099255D01*
X86284909Y-86108156D01*
X86259278Y-86114576D01*
X86233141Y-86118453D01*
X86206750Y-86119750D01*
X85243250Y-86119750D01*
X85216859Y-86118453D01*
X85190722Y-86114576D01*
X85165091Y-86108156D01*
X85140212Y-86099255D01*
X85116326Y-86087957D01*
X85093663Y-86074373D01*
X85072440Y-86058633D01*
X85052861Y-86040889D01*
X85035117Y-86021310D01*
X85019377Y-86000087D01*
X85005793Y-85977424D01*
X84994495Y-85953538D01*
X84985594Y-85928659D01*
X84979174Y-85903028D01*
X84975297Y-85876891D01*
X84974000Y-85850500D01*
X84974000Y-85312000D01*
X84975297Y-85285609D01*
X84979174Y-85259472D01*
X84985594Y-85233841D01*
X84994495Y-85208962D01*
X85005793Y-85185076D01*
X85019377Y-85162413D01*
X85035117Y-85141190D01*
X85052861Y-85121611D01*
X85072440Y-85103867D01*
X85093663Y-85088127D01*
X85116326Y-85074543D01*
X85140212Y-85063245D01*
X85165091Y-85054344D01*
X85190722Y-85047924D01*
X85216859Y-85044047D01*
X85243250Y-85042750D01*
X86206750Y-85042750D01*
X86233141Y-85044047D01*
G37*
G36*
X76708141Y-85187797D02*
G01*
X76734278Y-85191674D01*
X76759909Y-85198094D01*
X76784788Y-85206995D01*
X76808674Y-85218293D01*
X76831337Y-85231877D01*
X76852560Y-85247617D01*
X76872139Y-85265361D01*
X76889883Y-85284940D01*
X76905623Y-85306163D01*
X76919207Y-85328826D01*
X76930505Y-85352712D01*
X76939406Y-85377591D01*
X76945826Y-85403222D01*
X76949703Y-85429359D01*
X76951000Y-85455750D01*
X76951000Y-85994250D01*
X76949703Y-86020641D01*
X76945826Y-86046778D01*
X76939406Y-86072409D01*
X76930505Y-86097288D01*
X76919207Y-86121174D01*
X76905623Y-86143837D01*
X76889883Y-86165060D01*
X76872139Y-86184639D01*
X76852560Y-86202383D01*
X76831337Y-86218123D01*
X76808674Y-86231707D01*
X76784788Y-86243005D01*
X76759909Y-86251906D01*
X76734278Y-86258326D01*
X76708141Y-86262203D01*
X76681750Y-86263500D01*
X75718250Y-86263500D01*
X75691859Y-86262203D01*
X75665722Y-86258326D01*
X75640091Y-86251906D01*
X75615212Y-86243005D01*
X75591326Y-86231707D01*
X75568663Y-86218123D01*
X75547440Y-86202383D01*
X75527861Y-86184639D01*
X75510117Y-86165060D01*
X75494377Y-86143837D01*
X75480793Y-86121174D01*
X75469495Y-86097288D01*
X75460594Y-86072409D01*
X75454174Y-86046778D01*
X75450297Y-86020641D01*
X75449000Y-85994250D01*
X75449000Y-85455750D01*
X75450297Y-85429359D01*
X75454174Y-85403222D01*
X75460594Y-85377591D01*
X75469495Y-85352712D01*
X75480793Y-85328826D01*
X75494377Y-85306163D01*
X75510117Y-85284940D01*
X75527861Y-85265361D01*
X75547440Y-85247617D01*
X75568663Y-85231877D01*
X75591326Y-85218293D01*
X75615212Y-85206995D01*
X75640091Y-85198094D01*
X75665722Y-85191674D01*
X75691859Y-85187797D01*
X75718250Y-85186500D01*
X76681750Y-85186500D01*
X76708141Y-85187797D01*
G37*
G36*
X76708141Y-87062797D02*
G01*
X76734278Y-87066674D01*
X76759909Y-87073094D01*
X76784788Y-87081995D01*
X76808674Y-87093293D01*
X76831337Y-87106877D01*
X76852560Y-87122617D01*
X76872139Y-87140361D01*
X76889883Y-87159940D01*
X76905623Y-87181163D01*
X76919207Y-87203826D01*
X76930505Y-87227712D01*
X76939406Y-87252591D01*
X76945826Y-87278222D01*
X76949703Y-87304359D01*
X76951000Y-87330750D01*
X76951000Y-87869250D01*
X76949703Y-87895641D01*
X76945826Y-87921778D01*
X76939406Y-87947409D01*
X76930505Y-87972288D01*
X76919207Y-87996174D01*
X76905623Y-88018837D01*
X76889883Y-88040060D01*
X76872139Y-88059639D01*
X76852560Y-88077383D01*
X76831337Y-88093123D01*
X76808674Y-88106707D01*
X76784788Y-88118005D01*
X76759909Y-88126906D01*
X76734278Y-88133326D01*
X76708141Y-88137203D01*
X76681750Y-88138500D01*
X75718250Y-88138500D01*
X75691859Y-88137203D01*
X75665722Y-88133326D01*
X75640091Y-88126906D01*
X75615212Y-88118005D01*
X75591326Y-88106707D01*
X75568663Y-88093123D01*
X75547440Y-88077383D01*
X75527861Y-88059639D01*
X75510117Y-88040060D01*
X75494377Y-88018837D01*
X75480793Y-87996174D01*
X75469495Y-87972288D01*
X75460594Y-87947409D01*
X75454174Y-87921778D01*
X75450297Y-87895641D01*
X75449000Y-87869250D01*
X75449000Y-87330750D01*
X75450297Y-87304359D01*
X75454174Y-87278222D01*
X75460594Y-87252591D01*
X75469495Y-87227712D01*
X75480793Y-87203826D01*
X75494377Y-87181163D01*
X75510117Y-87159940D01*
X75527861Y-87140361D01*
X75547440Y-87122617D01*
X75568663Y-87106877D01*
X75591326Y-87093293D01*
X75615212Y-87081995D01*
X75640091Y-87073094D01*
X75665722Y-87066674D01*
X75691859Y-87062797D01*
X75718250Y-87061500D01*
X76681750Y-87061500D01*
X76708141Y-87062797D01*
G37*
D16*
X96043750Y-122713750D03*
D17*
X96043750Y-115093750D03*
D16*
X92075000Y-122713750D03*
D17*
X92075000Y-115093750D03*
D16*
X95250000Y-74136250D03*
D17*
X95250000Y-81756250D03*
D16*
X91281250Y-74136250D03*
D17*
X91281250Y-81756250D03*
D18*
X73025000Y-115887500D03*
D19*
X73025000Y-118387500D03*
X73025000Y-120887500D03*
D20*
X80525000Y-112787500D03*
X80525000Y-123987500D03*
D19*
X87525000Y-115887500D03*
X87525000Y-120887500D03*
D12*
G36*
X68701891Y-118312797D02*
G01*
X68728028Y-118316674D01*
X68753659Y-118323094D01*
X68778538Y-118331995D01*
X68802424Y-118343293D01*
X68825087Y-118356877D01*
X68846310Y-118372617D01*
X68865889Y-118390361D01*
X68883633Y-118409940D01*
X68899373Y-118431163D01*
X68912957Y-118453826D01*
X68924255Y-118477712D01*
X68933156Y-118502591D01*
X68939576Y-118528222D01*
X68943453Y-118554359D01*
X68944750Y-118580750D01*
X68944750Y-119544250D01*
X68943453Y-119570641D01*
X68939576Y-119596778D01*
X68933156Y-119622409D01*
X68924255Y-119647288D01*
X68912957Y-119671174D01*
X68899373Y-119693837D01*
X68883633Y-119715060D01*
X68865889Y-119734639D01*
X68846310Y-119752383D01*
X68825087Y-119768123D01*
X68802424Y-119781707D01*
X68778538Y-119793005D01*
X68753659Y-119801906D01*
X68728028Y-119808326D01*
X68701891Y-119812203D01*
X68675500Y-119813500D01*
X68137000Y-119813500D01*
X68110609Y-119812203D01*
X68084472Y-119808326D01*
X68058841Y-119801906D01*
X68033962Y-119793005D01*
X68010076Y-119781707D01*
X67987413Y-119768123D01*
X67966190Y-119752383D01*
X67946611Y-119734639D01*
X67928867Y-119715060D01*
X67913127Y-119693837D01*
X67899543Y-119671174D01*
X67888245Y-119647288D01*
X67879344Y-119622409D01*
X67872924Y-119596778D01*
X67869047Y-119570641D01*
X67867750Y-119544250D01*
X67867750Y-118580750D01*
X67869047Y-118554359D01*
X67872924Y-118528222D01*
X67879344Y-118502591D01*
X67888245Y-118477712D01*
X67899543Y-118453826D01*
X67913127Y-118431163D01*
X67928867Y-118409940D01*
X67946611Y-118390361D01*
X67966190Y-118372617D01*
X67987413Y-118356877D01*
X68010076Y-118343293D01*
X68033962Y-118331995D01*
X68058841Y-118323094D01*
X68084472Y-118316674D01*
X68110609Y-118312797D01*
X68137000Y-118311500D01*
X68675500Y-118311500D01*
X68701891Y-118312797D01*
G37*
G36*
X66826891Y-118312797D02*
G01*
X66853028Y-118316674D01*
X66878659Y-118323094D01*
X66903538Y-118331995D01*
X66927424Y-118343293D01*
X66950087Y-118356877D01*
X66971310Y-118372617D01*
X66990889Y-118390361D01*
X67008633Y-118409940D01*
X67024373Y-118431163D01*
X67037957Y-118453826D01*
X67049255Y-118477712D01*
X67058156Y-118502591D01*
X67064576Y-118528222D01*
X67068453Y-118554359D01*
X67069750Y-118580750D01*
X67069750Y-119544250D01*
X67068453Y-119570641D01*
X67064576Y-119596778D01*
X67058156Y-119622409D01*
X67049255Y-119647288D01*
X67037957Y-119671174D01*
X67024373Y-119693837D01*
X67008633Y-119715060D01*
X66990889Y-119734639D01*
X66971310Y-119752383D01*
X66950087Y-119768123D01*
X66927424Y-119781707D01*
X66903538Y-119793005D01*
X66878659Y-119801906D01*
X66853028Y-119808326D01*
X66826891Y-119812203D01*
X66800500Y-119813500D01*
X66262000Y-119813500D01*
X66235609Y-119812203D01*
X66209472Y-119808326D01*
X66183841Y-119801906D01*
X66158962Y-119793005D01*
X66135076Y-119781707D01*
X66112413Y-119768123D01*
X66091190Y-119752383D01*
X66071611Y-119734639D01*
X66053867Y-119715060D01*
X66038127Y-119693837D01*
X66024543Y-119671174D01*
X66013245Y-119647288D01*
X66004344Y-119622409D01*
X65997924Y-119596778D01*
X65994047Y-119570641D01*
X65992750Y-119544250D01*
X65992750Y-118580750D01*
X65994047Y-118554359D01*
X65997924Y-118528222D01*
X66004344Y-118502591D01*
X66013245Y-118477712D01*
X66024543Y-118453826D01*
X66038127Y-118431163D01*
X66053867Y-118409940D01*
X66071611Y-118390361D01*
X66091190Y-118372617D01*
X66112413Y-118356877D01*
X66135076Y-118343293D01*
X66158962Y-118331995D01*
X66183841Y-118323094D01*
X66209472Y-118316674D01*
X66235609Y-118312797D01*
X66262000Y-118311500D01*
X66800500Y-118311500D01*
X66826891Y-118312797D01*
G37*
G36*
X73533141Y-107556547D02*
G01*
X73559278Y-107560424D01*
X73584909Y-107566844D01*
X73609788Y-107575745D01*
X73633674Y-107587043D01*
X73656337Y-107600627D01*
X73677560Y-107616367D01*
X73697139Y-107634111D01*
X73714883Y-107653690D01*
X73730623Y-107674913D01*
X73744207Y-107697576D01*
X73755505Y-107721462D01*
X73764406Y-107746341D01*
X73770826Y-107771972D01*
X73774703Y-107798109D01*
X73776000Y-107824500D01*
X73776000Y-108363000D01*
X73774703Y-108389391D01*
X73770826Y-108415528D01*
X73764406Y-108441159D01*
X73755505Y-108466038D01*
X73744207Y-108489924D01*
X73730623Y-108512587D01*
X73714883Y-108533810D01*
X73697139Y-108553389D01*
X73677560Y-108571133D01*
X73656337Y-108586873D01*
X73633674Y-108600457D01*
X73609788Y-108611755D01*
X73584909Y-108620656D01*
X73559278Y-108627076D01*
X73533141Y-108630953D01*
X73506750Y-108632250D01*
X72543250Y-108632250D01*
X72516859Y-108630953D01*
X72490722Y-108627076D01*
X72465091Y-108620656D01*
X72440212Y-108611755D01*
X72416326Y-108600457D01*
X72393663Y-108586873D01*
X72372440Y-108571133D01*
X72352861Y-108553389D01*
X72335117Y-108533810D01*
X72319377Y-108512587D01*
X72305793Y-108489924D01*
X72294495Y-108466038D01*
X72285594Y-108441159D01*
X72279174Y-108415528D01*
X72275297Y-108389391D01*
X72274000Y-108363000D01*
X72274000Y-107824500D01*
X72275297Y-107798109D01*
X72279174Y-107771972D01*
X72285594Y-107746341D01*
X72294495Y-107721462D01*
X72305793Y-107697576D01*
X72319377Y-107674913D01*
X72335117Y-107653690D01*
X72352861Y-107634111D01*
X72372440Y-107616367D01*
X72393663Y-107600627D01*
X72416326Y-107587043D01*
X72440212Y-107575745D01*
X72465091Y-107566844D01*
X72490722Y-107560424D01*
X72516859Y-107556547D01*
X72543250Y-107555250D01*
X73506750Y-107555250D01*
X73533141Y-107556547D01*
G37*
G36*
X73533141Y-105681547D02*
G01*
X73559278Y-105685424D01*
X73584909Y-105691844D01*
X73609788Y-105700745D01*
X73633674Y-105712043D01*
X73656337Y-105725627D01*
X73677560Y-105741367D01*
X73697139Y-105759111D01*
X73714883Y-105778690D01*
X73730623Y-105799913D01*
X73744207Y-105822576D01*
X73755505Y-105846462D01*
X73764406Y-105871341D01*
X73770826Y-105896972D01*
X73774703Y-105923109D01*
X73776000Y-105949500D01*
X73776000Y-106488000D01*
X73774703Y-106514391D01*
X73770826Y-106540528D01*
X73764406Y-106566159D01*
X73755505Y-106591038D01*
X73744207Y-106614924D01*
X73730623Y-106637587D01*
X73714883Y-106658810D01*
X73697139Y-106678389D01*
X73677560Y-106696133D01*
X73656337Y-106711873D01*
X73633674Y-106725457D01*
X73609788Y-106736755D01*
X73584909Y-106745656D01*
X73559278Y-106752076D01*
X73533141Y-106755953D01*
X73506750Y-106757250D01*
X72543250Y-106757250D01*
X72516859Y-106755953D01*
X72490722Y-106752076D01*
X72465091Y-106745656D01*
X72440212Y-106736755D01*
X72416326Y-106725457D01*
X72393663Y-106711873D01*
X72372440Y-106696133D01*
X72352861Y-106678389D01*
X72335117Y-106658810D01*
X72319377Y-106637587D01*
X72305793Y-106614924D01*
X72294495Y-106591038D01*
X72285594Y-106566159D01*
X72279174Y-106540528D01*
X72275297Y-106514391D01*
X72274000Y-106488000D01*
X72274000Y-105949500D01*
X72275297Y-105923109D01*
X72279174Y-105896972D01*
X72285594Y-105871341D01*
X72294495Y-105846462D01*
X72305793Y-105822576D01*
X72319377Y-105799913D01*
X72335117Y-105778690D01*
X72352861Y-105759111D01*
X72372440Y-105741367D01*
X72393663Y-105725627D01*
X72416326Y-105712043D01*
X72440212Y-105700745D01*
X72465091Y-105691844D01*
X72490722Y-105685424D01*
X72516859Y-105681547D01*
X72543250Y-105680250D01*
X73506750Y-105680250D01*
X73533141Y-105681547D01*
G37*
G36*
X86233141Y-108856547D02*
G01*
X86259278Y-108860424D01*
X86284909Y-108866844D01*
X86309788Y-108875745D01*
X86333674Y-108887043D01*
X86356337Y-108900627D01*
X86377560Y-108916367D01*
X86397139Y-108934111D01*
X86414883Y-108953690D01*
X86430623Y-108974913D01*
X86444207Y-108997576D01*
X86455505Y-109021462D01*
X86464406Y-109046341D01*
X86470826Y-109071972D01*
X86474703Y-109098109D01*
X86476000Y-109124500D01*
X86476000Y-109663000D01*
X86474703Y-109689391D01*
X86470826Y-109715528D01*
X86464406Y-109741159D01*
X86455505Y-109766038D01*
X86444207Y-109789924D01*
X86430623Y-109812587D01*
X86414883Y-109833810D01*
X86397139Y-109853389D01*
X86377560Y-109871133D01*
X86356337Y-109886873D01*
X86333674Y-109900457D01*
X86309788Y-109911755D01*
X86284909Y-109920656D01*
X86259278Y-109927076D01*
X86233141Y-109930953D01*
X86206750Y-109932250D01*
X85243250Y-109932250D01*
X85216859Y-109930953D01*
X85190722Y-109927076D01*
X85165091Y-109920656D01*
X85140212Y-109911755D01*
X85116326Y-109900457D01*
X85093663Y-109886873D01*
X85072440Y-109871133D01*
X85052861Y-109853389D01*
X85035117Y-109833810D01*
X85019377Y-109812587D01*
X85005793Y-109789924D01*
X84994495Y-109766038D01*
X84985594Y-109741159D01*
X84979174Y-109715528D01*
X84975297Y-109689391D01*
X84974000Y-109663000D01*
X84974000Y-109124500D01*
X84975297Y-109098109D01*
X84979174Y-109071972D01*
X84985594Y-109046341D01*
X84994495Y-109021462D01*
X85005793Y-108997576D01*
X85019377Y-108974913D01*
X85035117Y-108953690D01*
X85052861Y-108934111D01*
X85072440Y-108916367D01*
X85093663Y-108900627D01*
X85116326Y-108887043D01*
X85140212Y-108875745D01*
X85165091Y-108866844D01*
X85190722Y-108860424D01*
X85216859Y-108856547D01*
X85243250Y-108855250D01*
X86206750Y-108855250D01*
X86233141Y-108856547D01*
G37*
G36*
X86233141Y-110731547D02*
G01*
X86259278Y-110735424D01*
X86284909Y-110741844D01*
X86309788Y-110750745D01*
X86333674Y-110762043D01*
X86356337Y-110775627D01*
X86377560Y-110791367D01*
X86397139Y-110809111D01*
X86414883Y-110828690D01*
X86430623Y-110849913D01*
X86444207Y-110872576D01*
X86455505Y-110896462D01*
X86464406Y-110921341D01*
X86470826Y-110946972D01*
X86474703Y-110973109D01*
X86476000Y-110999500D01*
X86476000Y-111538000D01*
X86474703Y-111564391D01*
X86470826Y-111590528D01*
X86464406Y-111616159D01*
X86455505Y-111641038D01*
X86444207Y-111664924D01*
X86430623Y-111687587D01*
X86414883Y-111708810D01*
X86397139Y-111728389D01*
X86377560Y-111746133D01*
X86356337Y-111761873D01*
X86333674Y-111775457D01*
X86309788Y-111786755D01*
X86284909Y-111795656D01*
X86259278Y-111802076D01*
X86233141Y-111805953D01*
X86206750Y-111807250D01*
X85243250Y-111807250D01*
X85216859Y-111805953D01*
X85190722Y-111802076D01*
X85165091Y-111795656D01*
X85140212Y-111786755D01*
X85116326Y-111775457D01*
X85093663Y-111761873D01*
X85072440Y-111746133D01*
X85052861Y-111728389D01*
X85035117Y-111708810D01*
X85019377Y-111687587D01*
X85005793Y-111664924D01*
X84994495Y-111641038D01*
X84985594Y-111616159D01*
X84979174Y-111590528D01*
X84975297Y-111564391D01*
X84974000Y-111538000D01*
X84974000Y-110999500D01*
X84975297Y-110973109D01*
X84979174Y-110946972D01*
X84985594Y-110921341D01*
X84994495Y-110896462D01*
X85005793Y-110872576D01*
X85019377Y-110849913D01*
X85035117Y-110828690D01*
X85052861Y-110809111D01*
X85072440Y-110791367D01*
X85093663Y-110775627D01*
X85116326Y-110762043D01*
X85140212Y-110750745D01*
X85165091Y-110741844D01*
X85190722Y-110735424D01*
X85216859Y-110731547D01*
X85243250Y-110730250D01*
X86206750Y-110730250D01*
X86233141Y-110731547D01*
G37*
G36*
X89408141Y-108856547D02*
G01*
X89434278Y-108860424D01*
X89459909Y-108866844D01*
X89484788Y-108875745D01*
X89508674Y-108887043D01*
X89531337Y-108900627D01*
X89552560Y-108916367D01*
X89572139Y-108934111D01*
X89589883Y-108953690D01*
X89605623Y-108974913D01*
X89619207Y-108997576D01*
X89630505Y-109021462D01*
X89639406Y-109046341D01*
X89645826Y-109071972D01*
X89649703Y-109098109D01*
X89651000Y-109124500D01*
X89651000Y-109663000D01*
X89649703Y-109689391D01*
X89645826Y-109715528D01*
X89639406Y-109741159D01*
X89630505Y-109766038D01*
X89619207Y-109789924D01*
X89605623Y-109812587D01*
X89589883Y-109833810D01*
X89572139Y-109853389D01*
X89552560Y-109871133D01*
X89531337Y-109886873D01*
X89508674Y-109900457D01*
X89484788Y-109911755D01*
X89459909Y-109920656D01*
X89434278Y-109927076D01*
X89408141Y-109930953D01*
X89381750Y-109932250D01*
X88418250Y-109932250D01*
X88391859Y-109930953D01*
X88365722Y-109927076D01*
X88340091Y-109920656D01*
X88315212Y-109911755D01*
X88291326Y-109900457D01*
X88268663Y-109886873D01*
X88247440Y-109871133D01*
X88227861Y-109853389D01*
X88210117Y-109833810D01*
X88194377Y-109812587D01*
X88180793Y-109789924D01*
X88169495Y-109766038D01*
X88160594Y-109741159D01*
X88154174Y-109715528D01*
X88150297Y-109689391D01*
X88149000Y-109663000D01*
X88149000Y-109124500D01*
X88150297Y-109098109D01*
X88154174Y-109071972D01*
X88160594Y-109046341D01*
X88169495Y-109021462D01*
X88180793Y-108997576D01*
X88194377Y-108974913D01*
X88210117Y-108953690D01*
X88227861Y-108934111D01*
X88247440Y-108916367D01*
X88268663Y-108900627D01*
X88291326Y-108887043D01*
X88315212Y-108875745D01*
X88340091Y-108866844D01*
X88365722Y-108860424D01*
X88391859Y-108856547D01*
X88418250Y-108855250D01*
X89381750Y-108855250D01*
X89408141Y-108856547D01*
G37*
G36*
X89408141Y-110731547D02*
G01*
X89434278Y-110735424D01*
X89459909Y-110741844D01*
X89484788Y-110750745D01*
X89508674Y-110762043D01*
X89531337Y-110775627D01*
X89552560Y-110791367D01*
X89572139Y-110809111D01*
X89589883Y-110828690D01*
X89605623Y-110849913D01*
X89619207Y-110872576D01*
X89630505Y-110896462D01*
X89639406Y-110921341D01*
X89645826Y-110946972D01*
X89649703Y-110973109D01*
X89651000Y-110999500D01*
X89651000Y-111538000D01*
X89649703Y-111564391D01*
X89645826Y-111590528D01*
X89639406Y-111616159D01*
X89630505Y-111641038D01*
X89619207Y-111664924D01*
X89605623Y-111687587D01*
X89589883Y-111708810D01*
X89572139Y-111728389D01*
X89552560Y-111746133D01*
X89531337Y-111761873D01*
X89508674Y-111775457D01*
X89484788Y-111786755D01*
X89459909Y-111795656D01*
X89434278Y-111802076D01*
X89408141Y-111805953D01*
X89381750Y-111807250D01*
X88418250Y-111807250D01*
X88391859Y-111805953D01*
X88365722Y-111802076D01*
X88340091Y-111795656D01*
X88315212Y-111786755D01*
X88291326Y-111775457D01*
X88268663Y-111761873D01*
X88247440Y-111746133D01*
X88227861Y-111728389D01*
X88210117Y-111708810D01*
X88194377Y-111687587D01*
X88180793Y-111664924D01*
X88169495Y-111641038D01*
X88160594Y-111616159D01*
X88154174Y-111590528D01*
X88150297Y-111564391D01*
X88149000Y-111538000D01*
X88149000Y-110999500D01*
X88150297Y-110973109D01*
X88154174Y-110946972D01*
X88160594Y-110921341D01*
X88169495Y-110896462D01*
X88180793Y-110872576D01*
X88194377Y-110849913D01*
X88210117Y-110828690D01*
X88227861Y-110809111D01*
X88247440Y-110791367D01*
X88268663Y-110775627D01*
X88291326Y-110762043D01*
X88315212Y-110750745D01*
X88340091Y-110741844D01*
X88365722Y-110735424D01*
X88391859Y-110731547D01*
X88418250Y-110730250D01*
X89381750Y-110730250D01*
X89408141Y-110731547D01*
G37*
G36*
X83851891Y-108062797D02*
G01*
X83878028Y-108066674D01*
X83903659Y-108073094D01*
X83928538Y-108081995D01*
X83952424Y-108093293D01*
X83975087Y-108106877D01*
X83996310Y-108122617D01*
X84015889Y-108140361D01*
X84033633Y-108159940D01*
X84049373Y-108181163D01*
X84062957Y-108203826D01*
X84074255Y-108227712D01*
X84083156Y-108252591D01*
X84089576Y-108278222D01*
X84093453Y-108304359D01*
X84094750Y-108330750D01*
X84094750Y-108869250D01*
X84093453Y-108895641D01*
X84089576Y-108921778D01*
X84083156Y-108947409D01*
X84074255Y-108972288D01*
X84062957Y-108996174D01*
X84049373Y-109018837D01*
X84033633Y-109040060D01*
X84015889Y-109059639D01*
X83996310Y-109077383D01*
X83975087Y-109093123D01*
X83952424Y-109106707D01*
X83928538Y-109118005D01*
X83903659Y-109126906D01*
X83878028Y-109133326D01*
X83851891Y-109137203D01*
X83825500Y-109138500D01*
X82862000Y-109138500D01*
X82835609Y-109137203D01*
X82809472Y-109133326D01*
X82783841Y-109126906D01*
X82758962Y-109118005D01*
X82735076Y-109106707D01*
X82712413Y-109093123D01*
X82691190Y-109077383D01*
X82671611Y-109059639D01*
X82653867Y-109040060D01*
X82638127Y-109018837D01*
X82624543Y-108996174D01*
X82613245Y-108972288D01*
X82604344Y-108947409D01*
X82597924Y-108921778D01*
X82594047Y-108895641D01*
X82592750Y-108869250D01*
X82592750Y-108330750D01*
X82594047Y-108304359D01*
X82597924Y-108278222D01*
X82604344Y-108252591D01*
X82613245Y-108227712D01*
X82624543Y-108203826D01*
X82638127Y-108181163D01*
X82653867Y-108159940D01*
X82671611Y-108140361D01*
X82691190Y-108122617D01*
X82712413Y-108106877D01*
X82735076Y-108093293D01*
X82758962Y-108081995D01*
X82783841Y-108073094D01*
X82809472Y-108066674D01*
X82835609Y-108062797D01*
X82862000Y-108061500D01*
X83825500Y-108061500D01*
X83851891Y-108062797D01*
G37*
G36*
X83851891Y-109937797D02*
G01*
X83878028Y-109941674D01*
X83903659Y-109948094D01*
X83928538Y-109956995D01*
X83952424Y-109968293D01*
X83975087Y-109981877D01*
X83996310Y-109997617D01*
X84015889Y-110015361D01*
X84033633Y-110034940D01*
X84049373Y-110056163D01*
X84062957Y-110078826D01*
X84074255Y-110102712D01*
X84083156Y-110127591D01*
X84089576Y-110153222D01*
X84093453Y-110179359D01*
X84094750Y-110205750D01*
X84094750Y-110744250D01*
X84093453Y-110770641D01*
X84089576Y-110796778D01*
X84083156Y-110822409D01*
X84074255Y-110847288D01*
X84062957Y-110871174D01*
X84049373Y-110893837D01*
X84033633Y-110915060D01*
X84015889Y-110934639D01*
X83996310Y-110952383D01*
X83975087Y-110968123D01*
X83952424Y-110981707D01*
X83928538Y-110993005D01*
X83903659Y-111001906D01*
X83878028Y-111008326D01*
X83851891Y-111012203D01*
X83825500Y-111013500D01*
X82862000Y-111013500D01*
X82835609Y-111012203D01*
X82809472Y-111008326D01*
X82783841Y-111001906D01*
X82758962Y-110993005D01*
X82735076Y-110981707D01*
X82712413Y-110968123D01*
X82691190Y-110952383D01*
X82671611Y-110934639D01*
X82653867Y-110915060D01*
X82638127Y-110893837D01*
X82624543Y-110871174D01*
X82613245Y-110847288D01*
X82604344Y-110822409D01*
X82597924Y-110796778D01*
X82594047Y-110770641D01*
X82592750Y-110744250D01*
X82592750Y-110205750D01*
X82594047Y-110179359D01*
X82597924Y-110153222D01*
X82604344Y-110127591D01*
X82613245Y-110102712D01*
X82624543Y-110078826D01*
X82638127Y-110056163D01*
X82653867Y-110034940D01*
X82671611Y-110015361D01*
X82691190Y-109997617D01*
X82712413Y-109981877D01*
X82735076Y-109968293D01*
X82758962Y-109956995D01*
X82783841Y-109948094D01*
X82809472Y-109941674D01*
X82835609Y-109937797D01*
X82862000Y-109936500D01*
X83825500Y-109936500D01*
X83851891Y-109937797D01*
G37*
G36*
X74326891Y-94856547D02*
G01*
X74353028Y-94860424D01*
X74378659Y-94866844D01*
X74403538Y-94875745D01*
X74427424Y-94887043D01*
X74450087Y-94900627D01*
X74471310Y-94916367D01*
X74490889Y-94934111D01*
X74508633Y-94953690D01*
X74524373Y-94974913D01*
X74537957Y-94997576D01*
X74549255Y-95021462D01*
X74558156Y-95046341D01*
X74564576Y-95071972D01*
X74568453Y-95098109D01*
X74569750Y-95124500D01*
X74569750Y-95663000D01*
X74568453Y-95689391D01*
X74564576Y-95715528D01*
X74558156Y-95741159D01*
X74549255Y-95766038D01*
X74537957Y-95789924D01*
X74524373Y-95812587D01*
X74508633Y-95833810D01*
X74490889Y-95853389D01*
X74471310Y-95871133D01*
X74450087Y-95886873D01*
X74427424Y-95900457D01*
X74403538Y-95911755D01*
X74378659Y-95920656D01*
X74353028Y-95927076D01*
X74326891Y-95930953D01*
X74300500Y-95932250D01*
X73337000Y-95932250D01*
X73310609Y-95930953D01*
X73284472Y-95927076D01*
X73258841Y-95920656D01*
X73233962Y-95911755D01*
X73210076Y-95900457D01*
X73187413Y-95886873D01*
X73166190Y-95871133D01*
X73146611Y-95853389D01*
X73128867Y-95833810D01*
X73113127Y-95812587D01*
X73099543Y-95789924D01*
X73088245Y-95766038D01*
X73079344Y-95741159D01*
X73072924Y-95715528D01*
X73069047Y-95689391D01*
X73067750Y-95663000D01*
X73067750Y-95124500D01*
X73069047Y-95098109D01*
X73072924Y-95071972D01*
X73079344Y-95046341D01*
X73088245Y-95021462D01*
X73099543Y-94997576D01*
X73113127Y-94974913D01*
X73128867Y-94953690D01*
X73146611Y-94934111D01*
X73166190Y-94916367D01*
X73187413Y-94900627D01*
X73210076Y-94887043D01*
X73233962Y-94875745D01*
X73258841Y-94866844D01*
X73284472Y-94860424D01*
X73310609Y-94856547D01*
X73337000Y-94855250D01*
X74300500Y-94855250D01*
X74326891Y-94856547D01*
G37*
G36*
X74326891Y-92981547D02*
G01*
X74353028Y-92985424D01*
X74378659Y-92991844D01*
X74403538Y-93000745D01*
X74427424Y-93012043D01*
X74450087Y-93025627D01*
X74471310Y-93041367D01*
X74490889Y-93059111D01*
X74508633Y-93078690D01*
X74524373Y-93099913D01*
X74537957Y-93122576D01*
X74549255Y-93146462D01*
X74558156Y-93171341D01*
X74564576Y-93196972D01*
X74568453Y-93223109D01*
X74569750Y-93249500D01*
X74569750Y-93788000D01*
X74568453Y-93814391D01*
X74564576Y-93840528D01*
X74558156Y-93866159D01*
X74549255Y-93891038D01*
X74537957Y-93914924D01*
X74524373Y-93937587D01*
X74508633Y-93958810D01*
X74490889Y-93978389D01*
X74471310Y-93996133D01*
X74450087Y-94011873D01*
X74427424Y-94025457D01*
X74403538Y-94036755D01*
X74378659Y-94045656D01*
X74353028Y-94052076D01*
X74326891Y-94055953D01*
X74300500Y-94057250D01*
X73337000Y-94057250D01*
X73310609Y-94055953D01*
X73284472Y-94052076D01*
X73258841Y-94045656D01*
X73233962Y-94036755D01*
X73210076Y-94025457D01*
X73187413Y-94011873D01*
X73166190Y-93996133D01*
X73146611Y-93978389D01*
X73128867Y-93958810D01*
X73113127Y-93937587D01*
X73099543Y-93914924D01*
X73088245Y-93891038D01*
X73079344Y-93866159D01*
X73072924Y-93840528D01*
X73069047Y-93814391D01*
X73067750Y-93788000D01*
X73067750Y-93249500D01*
X73069047Y-93223109D01*
X73072924Y-93196972D01*
X73079344Y-93171341D01*
X73088245Y-93146462D01*
X73099543Y-93122576D01*
X73113127Y-93099913D01*
X73128867Y-93078690D01*
X73146611Y-93059111D01*
X73166190Y-93041367D01*
X73187413Y-93025627D01*
X73210076Y-93012043D01*
X73233962Y-93000745D01*
X73258841Y-92991844D01*
X73284472Y-92985424D01*
X73310609Y-92981547D01*
X73337000Y-92980250D01*
X74300500Y-92980250D01*
X74326891Y-92981547D01*
G37*
D21*
X77300000Y-96012500D03*
X77300000Y-96812500D03*
X77300000Y-97612500D03*
X77300000Y-98412500D03*
X77300000Y-99212500D03*
X77300000Y-100012500D03*
X77300000Y-100812500D03*
X77300000Y-101612500D03*
X77300000Y-102412500D03*
X77300000Y-103212500D03*
X77300000Y-104012500D03*
D22*
X79000000Y-105712500D03*
X79800000Y-105712500D03*
X80600000Y-105712500D03*
X81400000Y-105712500D03*
X82200000Y-105712500D03*
X83000000Y-105712500D03*
X83800000Y-105712500D03*
X84600000Y-105712500D03*
X85400000Y-105712500D03*
X86200000Y-105712500D03*
X87000000Y-105712500D03*
D21*
X88700000Y-104012500D03*
X88700000Y-103212500D03*
X88700000Y-102412500D03*
X88700000Y-101612500D03*
X88700000Y-100812500D03*
X88700000Y-100012500D03*
X88700000Y-99212500D03*
X88700000Y-98412500D03*
X88700000Y-97612500D03*
X88700000Y-96812500D03*
X88700000Y-96012500D03*
D22*
X87000000Y-94312500D03*
X86200000Y-94312500D03*
X85400000Y-94312500D03*
X84600000Y-94312500D03*
X83800000Y-94312500D03*
X83000000Y-94312500D03*
X82200000Y-94312500D03*
X81400000Y-94312500D03*
X80600000Y-94312500D03*
X79800000Y-94312500D03*
X79000000Y-94312500D03*
D23*
X134461250Y-109537500D03*
X124301250Y-109537500D03*
D24*
X130651250Y-114617500D03*
D25*
X128111250Y-114617500D03*
D26*
X126881250Y-105537500D03*
D27*
X129381250Y-109537500D03*
D28*
X125571250Y-106997500D02*
X126881252Y-105537500D01*
D26*
X131921250Y-104457500D03*
D28*
X131881250Y-105037500D02*
X131921250Y-104457500D01*
D23*
X113823750Y-109537500D03*
X103663750Y-109537500D03*
D24*
X110013750Y-114617500D03*
D25*
X107473750Y-114617500D03*
D26*
X106243750Y-105537500D03*
D27*
X108743750Y-109537500D03*
D28*
X104933750Y-106997500D02*
X106243752Y-105537500D01*
D26*
X111283750Y-104457500D03*
D28*
X111243750Y-105037500D02*
X111283750Y-104457500D01*
D23*
X134461250Y-88900000D03*
X124301250Y-88900000D03*
D24*
X130651250Y-93980000D03*
D25*
X128111250Y-93980000D03*
D26*
X126881250Y-84900000D03*
D27*
X129381250Y-88900000D03*
D28*
X125571250Y-86360000D02*
X126881252Y-84900000D01*
D26*
X131921250Y-83820000D03*
D28*
X131881250Y-84400000D02*
X131921250Y-83820000D01*
D23*
X113823750Y-88900000D03*
X103663750Y-88900000D03*
D24*
X110013750Y-93980000D03*
D25*
X107473750Y-93980000D03*
D26*
X106243750Y-84900000D03*
D27*
X108743750Y-88900000D03*
D28*
X104933750Y-86360000D02*
X106243752Y-84900000D01*
D26*
X111283750Y-83820000D03*
D28*
X111243750Y-84400000D02*
X111283750Y-83820000D01*
D29*
X95556250Y-98368750D03*
X93356250Y-98368750D03*
X93356250Y-100068750D03*
X95556250Y-100068750D03*
D30*
X97100000Y-85006250D03*
X93400000Y-91206250D03*
X93400000Y-85006250D03*
X97100000Y-91206250D03*
D12*
G36*
X67114391Y-109581547D02*
G01*
X67140528Y-109585424D01*
X67166159Y-109591844D01*
X67191038Y-109600745D01*
X67214924Y-109612043D01*
X67237587Y-109625627D01*
X67258810Y-109641367D01*
X67278389Y-109659111D01*
X67296133Y-109678690D01*
X67311873Y-109699913D01*
X67325457Y-109722576D01*
X67336755Y-109746462D01*
X67345656Y-109771341D01*
X67352076Y-109796972D01*
X67355953Y-109823109D01*
X67357250Y-109849500D01*
X67357250Y-110813000D01*
X67355953Y-110839391D01*
X67352076Y-110865528D01*
X67345656Y-110891159D01*
X67336755Y-110916038D01*
X67325457Y-110939924D01*
X67311873Y-110962587D01*
X67296133Y-110983810D01*
X67278389Y-111003389D01*
X67258810Y-111021133D01*
X67237587Y-111036873D01*
X67214924Y-111050457D01*
X67191038Y-111061755D01*
X67166159Y-111070656D01*
X67140528Y-111077076D01*
X67114391Y-111080953D01*
X67088000Y-111082250D01*
X66549500Y-111082250D01*
X66523109Y-111080953D01*
X66496972Y-111077076D01*
X66471341Y-111070656D01*
X66446462Y-111061755D01*
X66422576Y-111050457D01*
X66399913Y-111036873D01*
X66378690Y-111021133D01*
X66359111Y-111003389D01*
X66341367Y-110983810D01*
X66325627Y-110962587D01*
X66312043Y-110939924D01*
X66300745Y-110916038D01*
X66291844Y-110891159D01*
X66285424Y-110865528D01*
X66281547Y-110839391D01*
X66280250Y-110813000D01*
X66280250Y-109849500D01*
X66281547Y-109823109D01*
X66285424Y-109796972D01*
X66291844Y-109771341D01*
X66300745Y-109746462D01*
X66312043Y-109722576D01*
X66325627Y-109699913D01*
X66341367Y-109678690D01*
X66359111Y-109659111D01*
X66378690Y-109641367D01*
X66399913Y-109625627D01*
X66422576Y-109612043D01*
X66446462Y-109600745D01*
X66471341Y-109591844D01*
X66496972Y-109585424D01*
X66523109Y-109581547D01*
X66549500Y-109580250D01*
X67088000Y-109580250D01*
X67114391Y-109581547D01*
G37*
G36*
X65239391Y-109581547D02*
G01*
X65265528Y-109585424D01*
X65291159Y-109591844D01*
X65316038Y-109600745D01*
X65339924Y-109612043D01*
X65362587Y-109625627D01*
X65383810Y-109641367D01*
X65403389Y-109659111D01*
X65421133Y-109678690D01*
X65436873Y-109699913D01*
X65450457Y-109722576D01*
X65461755Y-109746462D01*
X65470656Y-109771341D01*
X65477076Y-109796972D01*
X65480953Y-109823109D01*
X65482250Y-109849500D01*
X65482250Y-110813000D01*
X65480953Y-110839391D01*
X65477076Y-110865528D01*
X65470656Y-110891159D01*
X65461755Y-110916038D01*
X65450457Y-110939924D01*
X65436873Y-110962587D01*
X65421133Y-110983810D01*
X65403389Y-111003389D01*
X65383810Y-111021133D01*
X65362587Y-111036873D01*
X65339924Y-111050457D01*
X65316038Y-111061755D01*
X65291159Y-111070656D01*
X65265528Y-111077076D01*
X65239391Y-111080953D01*
X65213000Y-111082250D01*
X64674500Y-111082250D01*
X64648109Y-111080953D01*
X64621972Y-111077076D01*
X64596341Y-111070656D01*
X64571462Y-111061755D01*
X64547576Y-111050457D01*
X64524913Y-111036873D01*
X64503690Y-111021133D01*
X64484111Y-111003389D01*
X64466367Y-110983810D01*
X64450627Y-110962587D01*
X64437043Y-110939924D01*
X64425745Y-110916038D01*
X64416844Y-110891159D01*
X64410424Y-110865528D01*
X64406547Y-110839391D01*
X64405250Y-110813000D01*
X64405250Y-109849500D01*
X64406547Y-109823109D01*
X64410424Y-109796972D01*
X64416844Y-109771341D01*
X64425745Y-109746462D01*
X64437043Y-109722576D01*
X64450627Y-109699913D01*
X64466367Y-109678690D01*
X64484111Y-109659111D01*
X64503690Y-109641367D01*
X64524913Y-109625627D01*
X64547576Y-109612043D01*
X64571462Y-109600745D01*
X64596341Y-109591844D01*
X64621972Y-109585424D01*
X64648109Y-109581547D01*
X64674500Y-109580250D01*
X65213000Y-109580250D01*
X65239391Y-109581547D01*
G37*
G36*
X89408141Y-86919047D02*
G01*
X89434278Y-86922924D01*
X89459909Y-86929344D01*
X89484788Y-86938245D01*
X89508674Y-86949543D01*
X89531337Y-86963127D01*
X89552560Y-86978867D01*
X89572139Y-86996611D01*
X89589883Y-87016190D01*
X89605623Y-87037413D01*
X89619207Y-87060076D01*
X89630505Y-87083962D01*
X89639406Y-87108841D01*
X89645826Y-87134472D01*
X89649703Y-87160609D01*
X89651000Y-87187000D01*
X89651000Y-87725500D01*
X89649703Y-87751891D01*
X89645826Y-87778028D01*
X89639406Y-87803659D01*
X89630505Y-87828538D01*
X89619207Y-87852424D01*
X89605623Y-87875087D01*
X89589883Y-87896310D01*
X89572139Y-87915889D01*
X89552560Y-87933633D01*
X89531337Y-87949373D01*
X89508674Y-87962957D01*
X89484788Y-87974255D01*
X89459909Y-87983156D01*
X89434278Y-87989576D01*
X89408141Y-87993453D01*
X89381750Y-87994750D01*
X88418250Y-87994750D01*
X88391859Y-87993453D01*
X88365722Y-87989576D01*
X88340091Y-87983156D01*
X88315212Y-87974255D01*
X88291326Y-87962957D01*
X88268663Y-87949373D01*
X88247440Y-87933633D01*
X88227861Y-87915889D01*
X88210117Y-87896310D01*
X88194377Y-87875087D01*
X88180793Y-87852424D01*
X88169495Y-87828538D01*
X88160594Y-87803659D01*
X88154174Y-87778028D01*
X88150297Y-87751891D01*
X88149000Y-87725500D01*
X88149000Y-87187000D01*
X88150297Y-87160609D01*
X88154174Y-87134472D01*
X88160594Y-87108841D01*
X88169495Y-87083962D01*
X88180793Y-87060076D01*
X88194377Y-87037413D01*
X88210117Y-87016190D01*
X88227861Y-86996611D01*
X88247440Y-86978867D01*
X88268663Y-86963127D01*
X88291326Y-86949543D01*
X88315212Y-86938245D01*
X88340091Y-86929344D01*
X88365722Y-86922924D01*
X88391859Y-86919047D01*
X88418250Y-86917750D01*
X89381750Y-86917750D01*
X89408141Y-86919047D01*
G37*
G36*
X89408141Y-85044047D02*
G01*
X89434278Y-85047924D01*
X89459909Y-85054344D01*
X89484788Y-85063245D01*
X89508674Y-85074543D01*
X89531337Y-85088127D01*
X89552560Y-85103867D01*
X89572139Y-85121611D01*
X89589883Y-85141190D01*
X89605623Y-85162413D01*
X89619207Y-85185076D01*
X89630505Y-85208962D01*
X89639406Y-85233841D01*
X89645826Y-85259472D01*
X89649703Y-85285609D01*
X89651000Y-85312000D01*
X89651000Y-85850500D01*
X89649703Y-85876891D01*
X89645826Y-85903028D01*
X89639406Y-85928659D01*
X89630505Y-85953538D01*
X89619207Y-85977424D01*
X89605623Y-86000087D01*
X89589883Y-86021310D01*
X89572139Y-86040889D01*
X89552560Y-86058633D01*
X89531337Y-86074373D01*
X89508674Y-86087957D01*
X89484788Y-86099255D01*
X89459909Y-86108156D01*
X89434278Y-86114576D01*
X89408141Y-86118453D01*
X89381750Y-86119750D01*
X88418250Y-86119750D01*
X88391859Y-86118453D01*
X88365722Y-86114576D01*
X88340091Y-86108156D01*
X88315212Y-86099255D01*
X88291326Y-86087957D01*
X88268663Y-86074373D01*
X88247440Y-86058633D01*
X88227861Y-86040889D01*
X88210117Y-86021310D01*
X88194377Y-86000087D01*
X88180793Y-85977424D01*
X88169495Y-85953538D01*
X88160594Y-85928659D01*
X88154174Y-85903028D01*
X88150297Y-85876891D01*
X88149000Y-85850500D01*
X88149000Y-85312000D01*
X88150297Y-85285609D01*
X88154174Y-85259472D01*
X88160594Y-85233841D01*
X88169495Y-85208962D01*
X88180793Y-85185076D01*
X88194377Y-85162413D01*
X88210117Y-85141190D01*
X88227861Y-85121611D01*
X88247440Y-85103867D01*
X88268663Y-85088127D01*
X88291326Y-85074543D01*
X88315212Y-85063245D01*
X88340091Y-85054344D01*
X88365722Y-85047924D01*
X88391859Y-85044047D01*
X88418250Y-85042750D01*
X89381750Y-85042750D01*
X89408141Y-85044047D01*
G37*
G36*
X79883141Y-86919047D02*
G01*
X79909278Y-86922924D01*
X79934909Y-86929344D01*
X79959788Y-86938245D01*
X79983674Y-86949543D01*
X80006337Y-86963127D01*
X80027560Y-86978867D01*
X80047139Y-86996611D01*
X80064883Y-87016190D01*
X80080623Y-87037413D01*
X80094207Y-87060076D01*
X80105505Y-87083962D01*
X80114406Y-87108841D01*
X80120826Y-87134472D01*
X80124703Y-87160609D01*
X80126000Y-87187000D01*
X80126000Y-87725500D01*
X80124703Y-87751891D01*
X80120826Y-87778028D01*
X80114406Y-87803659D01*
X80105505Y-87828538D01*
X80094207Y-87852424D01*
X80080623Y-87875087D01*
X80064883Y-87896310D01*
X80047139Y-87915889D01*
X80027560Y-87933633D01*
X80006337Y-87949373D01*
X79983674Y-87962957D01*
X79959788Y-87974255D01*
X79934909Y-87983156D01*
X79909278Y-87989576D01*
X79883141Y-87993453D01*
X79856750Y-87994750D01*
X78893250Y-87994750D01*
X78866859Y-87993453D01*
X78840722Y-87989576D01*
X78815091Y-87983156D01*
X78790212Y-87974255D01*
X78766326Y-87962957D01*
X78743663Y-87949373D01*
X78722440Y-87933633D01*
X78702861Y-87915889D01*
X78685117Y-87896310D01*
X78669377Y-87875087D01*
X78655793Y-87852424D01*
X78644495Y-87828538D01*
X78635594Y-87803659D01*
X78629174Y-87778028D01*
X78625297Y-87751891D01*
X78624000Y-87725500D01*
X78624000Y-87187000D01*
X78625297Y-87160609D01*
X78629174Y-87134472D01*
X78635594Y-87108841D01*
X78644495Y-87083962D01*
X78655793Y-87060076D01*
X78669377Y-87037413D01*
X78685117Y-87016190D01*
X78702861Y-86996611D01*
X78722440Y-86978867D01*
X78743663Y-86963127D01*
X78766326Y-86949543D01*
X78790212Y-86938245D01*
X78815091Y-86929344D01*
X78840722Y-86922924D01*
X78866859Y-86919047D01*
X78893250Y-86917750D01*
X79856750Y-86917750D01*
X79883141Y-86919047D01*
G37*
G36*
X79883141Y-85044047D02*
G01*
X79909278Y-85047924D01*
X79934909Y-85054344D01*
X79959788Y-85063245D01*
X79983674Y-85074543D01*
X80006337Y-85088127D01*
X80027560Y-85103867D01*
X80047139Y-85121611D01*
X80064883Y-85141190D01*
X80080623Y-85162413D01*
X80094207Y-85185076D01*
X80105505Y-85208962D01*
X80114406Y-85233841D01*
X80120826Y-85259472D01*
X80124703Y-85285609D01*
X80126000Y-85312000D01*
X80126000Y-85850500D01*
X80124703Y-85876891D01*
X80120826Y-85903028D01*
X80114406Y-85928659D01*
X80105505Y-85953538D01*
X80094207Y-85977424D01*
X80080623Y-86000087D01*
X80064883Y-86021310D01*
X80047139Y-86040889D01*
X80027560Y-86058633D01*
X80006337Y-86074373D01*
X79983674Y-86087957D01*
X79959788Y-86099255D01*
X79934909Y-86108156D01*
X79909278Y-86114576D01*
X79883141Y-86118453D01*
X79856750Y-86119750D01*
X78893250Y-86119750D01*
X78866859Y-86118453D01*
X78840722Y-86114576D01*
X78815091Y-86108156D01*
X78790212Y-86099255D01*
X78766326Y-86087957D01*
X78743663Y-86074373D01*
X78722440Y-86058633D01*
X78702861Y-86040889D01*
X78685117Y-86021310D01*
X78669377Y-86000087D01*
X78655793Y-85977424D01*
X78644495Y-85953538D01*
X78635594Y-85928659D01*
X78629174Y-85903028D01*
X78625297Y-85876891D01*
X78624000Y-85850500D01*
X78624000Y-85312000D01*
X78625297Y-85285609D01*
X78629174Y-85259472D01*
X78635594Y-85233841D01*
X78644495Y-85208962D01*
X78655793Y-85185076D01*
X78669377Y-85162413D01*
X78685117Y-85141190D01*
X78702861Y-85121611D01*
X78722440Y-85103867D01*
X78743663Y-85088127D01*
X78766326Y-85074543D01*
X78790212Y-85063245D01*
X78815091Y-85054344D01*
X78840722Y-85047924D01*
X78866859Y-85044047D01*
X78893250Y-85042750D01*
X79856750Y-85042750D01*
X79883141Y-85044047D01*
G37*
G36*
X68275854Y-84800302D02*
G01*
X68302102Y-84804196D01*
X68327843Y-84810643D01*
X68352828Y-84819583D01*
X68376816Y-84830928D01*
X68399576Y-84844571D01*
X68420890Y-84860378D01*
X68440552Y-84878198D01*
X68458372Y-84897860D01*
X68474179Y-84919174D01*
X68487822Y-84941934D01*
X68499167Y-84965922D01*
X68508107Y-84990907D01*
X68514554Y-85016648D01*
X68518448Y-85042896D01*
X68519750Y-85069400D01*
X68519750Y-86380600D01*
X68518448Y-86407104D01*
X68514554Y-86433352D01*
X68508107Y-86459093D01*
X68499167Y-86484078D01*
X68487822Y-86508066D01*
X68474179Y-86530826D01*
X68458372Y-86552140D01*
X68440552Y-86571802D01*
X68420890Y-86589622D01*
X68399576Y-86605429D01*
X68376816Y-86619072D01*
X68352828Y-86630417D01*
X68327843Y-86639357D01*
X68302102Y-86645804D01*
X68275854Y-86649698D01*
X68249350Y-86651000D01*
X67438150Y-86651000D01*
X67411646Y-86649698D01*
X67385398Y-86645804D01*
X67359657Y-86639357D01*
X67334672Y-86630417D01*
X67310684Y-86619072D01*
X67287924Y-86605429D01*
X67266610Y-86589622D01*
X67246948Y-86571802D01*
X67229128Y-86552140D01*
X67213321Y-86530826D01*
X67199678Y-86508066D01*
X67188333Y-86484078D01*
X67179393Y-86459093D01*
X67172946Y-86433352D01*
X67169052Y-86407104D01*
X67167750Y-86380600D01*
X67167750Y-85069400D01*
X67169052Y-85042896D01*
X67172946Y-85016648D01*
X67179393Y-84990907D01*
X67188333Y-84965922D01*
X67199678Y-84941934D01*
X67213321Y-84919174D01*
X67229128Y-84897860D01*
X67246948Y-84878198D01*
X67266610Y-84860378D01*
X67287924Y-84844571D01*
X67310684Y-84830928D01*
X67334672Y-84819583D01*
X67359657Y-84810643D01*
X67385398Y-84804196D01*
X67411646Y-84800302D01*
X67438150Y-84799000D01*
X68249350Y-84799000D01*
X68275854Y-84800302D01*
G37*
G36*
X71075854Y-84800302D02*
G01*
X71102102Y-84804196D01*
X71127843Y-84810643D01*
X71152828Y-84819583D01*
X71176816Y-84830928D01*
X71199576Y-84844571D01*
X71220890Y-84860378D01*
X71240552Y-84878198D01*
X71258372Y-84897860D01*
X71274179Y-84919174D01*
X71287822Y-84941934D01*
X71299167Y-84965922D01*
X71308107Y-84990907D01*
X71314554Y-85016648D01*
X71318448Y-85042896D01*
X71319750Y-85069400D01*
X71319750Y-86380600D01*
X71318448Y-86407104D01*
X71314554Y-86433352D01*
X71308107Y-86459093D01*
X71299167Y-86484078D01*
X71287822Y-86508066D01*
X71274179Y-86530826D01*
X71258372Y-86552140D01*
X71240552Y-86571802D01*
X71220890Y-86589622D01*
X71199576Y-86605429D01*
X71176816Y-86619072D01*
X71152828Y-86630417D01*
X71127843Y-86639357D01*
X71102102Y-86645804D01*
X71075854Y-86649698D01*
X71049350Y-86651000D01*
X70238150Y-86651000D01*
X70211646Y-86649698D01*
X70185398Y-86645804D01*
X70159657Y-86639357D01*
X70134672Y-86630417D01*
X70110684Y-86619072D01*
X70087924Y-86605429D01*
X70066610Y-86589622D01*
X70046948Y-86571802D01*
X70029128Y-86552140D01*
X70013321Y-86530826D01*
X69999678Y-86508066D01*
X69988333Y-86484078D01*
X69979393Y-86459093D01*
X69972946Y-86433352D01*
X69969052Y-86407104D01*
X69967750Y-86380600D01*
X69967750Y-85069400D01*
X69969052Y-85042896D01*
X69972946Y-85016648D01*
X69979393Y-84990907D01*
X69988333Y-84965922D01*
X69999678Y-84941934D01*
X70013321Y-84919174D01*
X70029128Y-84897860D01*
X70046948Y-84878198D01*
X70066610Y-84860378D01*
X70087924Y-84844571D01*
X70110684Y-84830928D01*
X70134672Y-84819583D01*
X70159657Y-84810643D01*
X70185398Y-84804196D01*
X70211646Y-84800302D01*
X70238150Y-84799000D01*
X71049350Y-84799000D01*
X71075854Y-84800302D01*
G37*
G36*
X85083141Y-89737797D02*
G01*
X85109278Y-89741674D01*
X85134909Y-89748094D01*
X85159788Y-89756995D01*
X85183674Y-89768293D01*
X85206337Y-89781877D01*
X85227560Y-89797617D01*
X85247139Y-89815361D01*
X85264883Y-89834940D01*
X85280623Y-89856163D01*
X85294207Y-89878826D01*
X85305505Y-89902712D01*
X85314406Y-89927591D01*
X85320826Y-89953222D01*
X85324703Y-89979359D01*
X85326000Y-90005750D01*
X85326000Y-90969250D01*
X85324703Y-90995641D01*
X85320826Y-91021778D01*
X85314406Y-91047409D01*
X85305505Y-91072288D01*
X85294207Y-91096174D01*
X85280623Y-91118837D01*
X85264883Y-91140060D01*
X85247139Y-91159639D01*
X85227560Y-91177383D01*
X85206337Y-91193123D01*
X85183674Y-91206707D01*
X85159788Y-91218005D01*
X85134909Y-91226906D01*
X85109278Y-91233326D01*
X85083141Y-91237203D01*
X85056750Y-91238500D01*
X84518250Y-91238500D01*
X84491859Y-91237203D01*
X84465722Y-91233326D01*
X84440091Y-91226906D01*
X84415212Y-91218005D01*
X84391326Y-91206707D01*
X84368663Y-91193123D01*
X84347440Y-91177383D01*
X84327861Y-91159639D01*
X84310117Y-91140060D01*
X84294377Y-91118837D01*
X84280793Y-91096174D01*
X84269495Y-91072288D01*
X84260594Y-91047409D01*
X84254174Y-91021778D01*
X84250297Y-90995641D01*
X84249000Y-90969250D01*
X84249000Y-90005750D01*
X84250297Y-89979359D01*
X84254174Y-89953222D01*
X84260594Y-89927591D01*
X84269495Y-89902712D01*
X84280793Y-89878826D01*
X84294377Y-89856163D01*
X84310117Y-89834940D01*
X84327861Y-89815361D01*
X84347440Y-89797617D01*
X84368663Y-89781877D01*
X84391326Y-89768293D01*
X84415212Y-89756995D01*
X84440091Y-89748094D01*
X84465722Y-89741674D01*
X84491859Y-89737797D01*
X84518250Y-89736500D01*
X85056750Y-89736500D01*
X85083141Y-89737797D01*
G37*
G36*
X86958141Y-89737797D02*
G01*
X86984278Y-89741674D01*
X87009909Y-89748094D01*
X87034788Y-89756995D01*
X87058674Y-89768293D01*
X87081337Y-89781877D01*
X87102560Y-89797617D01*
X87122139Y-89815361D01*
X87139883Y-89834940D01*
X87155623Y-89856163D01*
X87169207Y-89878826D01*
X87180505Y-89902712D01*
X87189406Y-89927591D01*
X87195826Y-89953222D01*
X87199703Y-89979359D01*
X87201000Y-90005750D01*
X87201000Y-90969250D01*
X87199703Y-90995641D01*
X87195826Y-91021778D01*
X87189406Y-91047409D01*
X87180505Y-91072288D01*
X87169207Y-91096174D01*
X87155623Y-91118837D01*
X87139883Y-91140060D01*
X87122139Y-91159639D01*
X87102560Y-91177383D01*
X87081337Y-91193123D01*
X87058674Y-91206707D01*
X87034788Y-91218005D01*
X87009909Y-91226906D01*
X86984278Y-91233326D01*
X86958141Y-91237203D01*
X86931750Y-91238500D01*
X86393250Y-91238500D01*
X86366859Y-91237203D01*
X86340722Y-91233326D01*
X86315091Y-91226906D01*
X86290212Y-91218005D01*
X86266326Y-91206707D01*
X86243663Y-91193123D01*
X86222440Y-91177383D01*
X86202861Y-91159639D01*
X86185117Y-91140060D01*
X86169377Y-91118837D01*
X86155793Y-91096174D01*
X86144495Y-91072288D01*
X86135594Y-91047409D01*
X86129174Y-91021778D01*
X86125297Y-90995641D01*
X86124000Y-90969250D01*
X86124000Y-90005750D01*
X86125297Y-89979359D01*
X86129174Y-89953222D01*
X86135594Y-89927591D01*
X86144495Y-89902712D01*
X86155793Y-89878826D01*
X86169377Y-89856163D01*
X86185117Y-89834940D01*
X86202861Y-89815361D01*
X86222440Y-89797617D01*
X86243663Y-89781877D01*
X86266326Y-89768293D01*
X86290212Y-89756995D01*
X86315091Y-89748094D01*
X86340722Y-89741674D01*
X86366859Y-89737797D01*
X86393250Y-89736500D01*
X86931750Y-89736500D01*
X86958141Y-89737797D01*
G37*
G36*
X93814391Y-95294047D02*
G01*
X93840528Y-95297924D01*
X93866159Y-95304344D01*
X93891038Y-95313245D01*
X93914924Y-95324543D01*
X93937587Y-95338127D01*
X93958810Y-95353867D01*
X93978389Y-95371611D01*
X93996133Y-95391190D01*
X94011873Y-95412413D01*
X94025457Y-95435076D01*
X94036755Y-95458962D01*
X94045656Y-95483841D01*
X94052076Y-95509472D01*
X94055953Y-95535609D01*
X94057250Y-95562000D01*
X94057250Y-96525500D01*
X94055953Y-96551891D01*
X94052076Y-96578028D01*
X94045656Y-96603659D01*
X94036755Y-96628538D01*
X94025457Y-96652424D01*
X94011873Y-96675087D01*
X93996133Y-96696310D01*
X93978389Y-96715889D01*
X93958810Y-96733633D01*
X93937587Y-96749373D01*
X93914924Y-96762957D01*
X93891038Y-96774255D01*
X93866159Y-96783156D01*
X93840528Y-96789576D01*
X93814391Y-96793453D01*
X93788000Y-96794750D01*
X93249500Y-96794750D01*
X93223109Y-96793453D01*
X93196972Y-96789576D01*
X93171341Y-96783156D01*
X93146462Y-96774255D01*
X93122576Y-96762957D01*
X93099913Y-96749373D01*
X93078690Y-96733633D01*
X93059111Y-96715889D01*
X93041367Y-96696310D01*
X93025627Y-96675087D01*
X93012043Y-96652424D01*
X93000745Y-96628538D01*
X92991844Y-96603659D01*
X92985424Y-96578028D01*
X92981547Y-96551891D01*
X92980250Y-96525500D01*
X92980250Y-95562000D01*
X92981547Y-95535609D01*
X92985424Y-95509472D01*
X92991844Y-95483841D01*
X93000745Y-95458962D01*
X93012043Y-95435076D01*
X93025627Y-95412413D01*
X93041367Y-95391190D01*
X93059111Y-95371611D01*
X93078690Y-95353867D01*
X93099913Y-95338127D01*
X93122576Y-95324543D01*
X93146462Y-95313245D01*
X93171341Y-95304344D01*
X93196972Y-95297924D01*
X93223109Y-95294047D01*
X93249500Y-95292750D01*
X93788000Y-95292750D01*
X93814391Y-95294047D01*
G37*
G36*
X95689391Y-95294047D02*
G01*
X95715528Y-95297924D01*
X95741159Y-95304344D01*
X95766038Y-95313245D01*
X95789924Y-95324543D01*
X95812587Y-95338127D01*
X95833810Y-95353867D01*
X95853389Y-95371611D01*
X95871133Y-95391190D01*
X95886873Y-95412413D01*
X95900457Y-95435076D01*
X95911755Y-95458962D01*
X95920656Y-95483841D01*
X95927076Y-95509472D01*
X95930953Y-95535609D01*
X95932250Y-95562000D01*
X95932250Y-96525500D01*
X95930953Y-96551891D01*
X95927076Y-96578028D01*
X95920656Y-96603659D01*
X95911755Y-96628538D01*
X95900457Y-96652424D01*
X95886873Y-96675087D01*
X95871133Y-96696310D01*
X95853389Y-96715889D01*
X95833810Y-96733633D01*
X95812587Y-96749373D01*
X95789924Y-96762957D01*
X95766038Y-96774255D01*
X95741159Y-96783156D01*
X95715528Y-96789576D01*
X95689391Y-96793453D01*
X95663000Y-96794750D01*
X95124500Y-96794750D01*
X95098109Y-96793453D01*
X95071972Y-96789576D01*
X95046341Y-96783156D01*
X95021462Y-96774255D01*
X94997576Y-96762957D01*
X94974913Y-96749373D01*
X94953690Y-96733633D01*
X94934111Y-96715889D01*
X94916367Y-96696310D01*
X94900627Y-96675087D01*
X94887043Y-96652424D01*
X94875745Y-96628538D01*
X94866844Y-96603659D01*
X94860424Y-96578028D01*
X94856547Y-96551891D01*
X94855250Y-96525500D01*
X94855250Y-95562000D01*
X94856547Y-95535609D01*
X94860424Y-95509472D01*
X94866844Y-95483841D01*
X94875745Y-95458962D01*
X94887043Y-95435076D01*
X94900627Y-95412413D01*
X94916367Y-95391190D01*
X94934111Y-95371611D01*
X94953690Y-95353867D01*
X94974913Y-95338127D01*
X94997576Y-95324543D01*
X95021462Y-95313245D01*
X95046341Y-95304344D01*
X95071972Y-95297924D01*
X95098109Y-95294047D01*
X95124500Y-95292750D01*
X95663000Y-95292750D01*
X95689391Y-95294047D01*
G37*
G36*
X95689391Y-101644047D02*
G01*
X95715528Y-101647924D01*
X95741159Y-101654344D01*
X95766038Y-101663245D01*
X95789924Y-101674543D01*
X95812587Y-101688127D01*
X95833810Y-101703867D01*
X95853389Y-101721611D01*
X95871133Y-101741190D01*
X95886873Y-101762413D01*
X95900457Y-101785076D01*
X95911755Y-101808962D01*
X95920656Y-101833841D01*
X95927076Y-101859472D01*
X95930953Y-101885609D01*
X95932250Y-101912000D01*
X95932250Y-102875500D01*
X95930953Y-102901891D01*
X95927076Y-102928028D01*
X95920656Y-102953659D01*
X95911755Y-102978538D01*
X95900457Y-103002424D01*
X95886873Y-103025087D01*
X95871133Y-103046310D01*
X95853389Y-103065889D01*
X95833810Y-103083633D01*
X95812587Y-103099373D01*
X95789924Y-103112957D01*
X95766038Y-103124255D01*
X95741159Y-103133156D01*
X95715528Y-103139576D01*
X95689391Y-103143453D01*
X95663000Y-103144750D01*
X95124500Y-103144750D01*
X95098109Y-103143453D01*
X95071972Y-103139576D01*
X95046341Y-103133156D01*
X95021462Y-103124255D01*
X94997576Y-103112957D01*
X94974913Y-103099373D01*
X94953690Y-103083633D01*
X94934111Y-103065889D01*
X94916367Y-103046310D01*
X94900627Y-103025087D01*
X94887043Y-103002424D01*
X94875745Y-102978538D01*
X94866844Y-102953659D01*
X94860424Y-102928028D01*
X94856547Y-102901891D01*
X94855250Y-102875500D01*
X94855250Y-101912000D01*
X94856547Y-101885609D01*
X94860424Y-101859472D01*
X94866844Y-101833841D01*
X94875745Y-101808962D01*
X94887043Y-101785076D01*
X94900627Y-101762413D01*
X94916367Y-101741190D01*
X94934111Y-101721611D01*
X94953690Y-101703867D01*
X94974913Y-101688127D01*
X94997576Y-101674543D01*
X95021462Y-101663245D01*
X95046341Y-101654344D01*
X95071972Y-101647924D01*
X95098109Y-101644047D01*
X95124500Y-101642750D01*
X95663000Y-101642750D01*
X95689391Y-101644047D01*
G37*
G36*
X93814391Y-101644047D02*
G01*
X93840528Y-101647924D01*
X93866159Y-101654344D01*
X93891038Y-101663245D01*
X93914924Y-101674543D01*
X93937587Y-101688127D01*
X93958810Y-101703867D01*
X93978389Y-101721611D01*
X93996133Y-101741190D01*
X94011873Y-101762413D01*
X94025457Y-101785076D01*
X94036755Y-101808962D01*
X94045656Y-101833841D01*
X94052076Y-101859472D01*
X94055953Y-101885609D01*
X94057250Y-101912000D01*
X94057250Y-102875500D01*
X94055953Y-102901891D01*
X94052076Y-102928028D01*
X94045656Y-102953659D01*
X94036755Y-102978538D01*
X94025457Y-103002424D01*
X94011873Y-103025087D01*
X93996133Y-103046310D01*
X93978389Y-103065889D01*
X93958810Y-103083633D01*
X93937587Y-103099373D01*
X93914924Y-103112957D01*
X93891038Y-103124255D01*
X93866159Y-103133156D01*
X93840528Y-103139576D01*
X93814391Y-103143453D01*
X93788000Y-103144750D01*
X93249500Y-103144750D01*
X93223109Y-103143453D01*
X93196972Y-103139576D01*
X93171341Y-103133156D01*
X93146462Y-103124255D01*
X93122576Y-103112957D01*
X93099913Y-103099373D01*
X93078690Y-103083633D01*
X93059111Y-103065889D01*
X93041367Y-103046310D01*
X93025627Y-103025087D01*
X93012043Y-103002424D01*
X93000745Y-102978538D01*
X92991844Y-102953659D01*
X92985424Y-102928028D01*
X92981547Y-102901891D01*
X92980250Y-102875500D01*
X92980250Y-101912000D01*
X92981547Y-101885609D01*
X92985424Y-101859472D01*
X92991844Y-101833841D01*
X93000745Y-101808962D01*
X93012043Y-101785076D01*
X93025627Y-101762413D01*
X93041367Y-101741190D01*
X93059111Y-101721611D01*
X93078690Y-101703867D01*
X93099913Y-101688127D01*
X93122576Y-101674543D01*
X93146462Y-101663245D01*
X93171341Y-101654344D01*
X93196972Y-101647924D01*
X93223109Y-101644047D01*
X93249500Y-101642750D01*
X93788000Y-101642750D01*
X93814391Y-101644047D01*
G37*
G36*
X71151891Y-101712797D02*
G01*
X71178028Y-101716674D01*
X71203659Y-101723094D01*
X71228538Y-101731995D01*
X71252424Y-101743293D01*
X71275087Y-101756877D01*
X71296310Y-101772617D01*
X71315889Y-101790361D01*
X71333633Y-101809940D01*
X71349373Y-101831163D01*
X71362957Y-101853826D01*
X71374255Y-101877712D01*
X71383156Y-101902591D01*
X71389576Y-101928222D01*
X71393453Y-101954359D01*
X71394750Y-101980750D01*
X71394750Y-102519250D01*
X71393453Y-102545641D01*
X71389576Y-102571778D01*
X71383156Y-102597409D01*
X71374255Y-102622288D01*
X71362957Y-102646174D01*
X71349373Y-102668837D01*
X71333633Y-102690060D01*
X71315889Y-102709639D01*
X71296310Y-102727383D01*
X71275087Y-102743123D01*
X71252424Y-102756707D01*
X71228538Y-102768005D01*
X71203659Y-102776906D01*
X71178028Y-102783326D01*
X71151891Y-102787203D01*
X71125500Y-102788500D01*
X70162000Y-102788500D01*
X70135609Y-102787203D01*
X70109472Y-102783326D01*
X70083841Y-102776906D01*
X70058962Y-102768005D01*
X70035076Y-102756707D01*
X70012413Y-102743123D01*
X69991190Y-102727383D01*
X69971611Y-102709639D01*
X69953867Y-102690060D01*
X69938127Y-102668837D01*
X69924543Y-102646174D01*
X69913245Y-102622288D01*
X69904344Y-102597409D01*
X69897924Y-102571778D01*
X69894047Y-102545641D01*
X69892750Y-102519250D01*
X69892750Y-101980750D01*
X69894047Y-101954359D01*
X69897924Y-101928222D01*
X69904344Y-101902591D01*
X69913245Y-101877712D01*
X69924543Y-101853826D01*
X69938127Y-101831163D01*
X69953867Y-101809940D01*
X69971611Y-101790361D01*
X69991190Y-101772617D01*
X70012413Y-101756877D01*
X70035076Y-101743293D01*
X70058962Y-101731995D01*
X70083841Y-101723094D01*
X70109472Y-101716674D01*
X70135609Y-101712797D01*
X70162000Y-101711500D01*
X71125500Y-101711500D01*
X71151891Y-101712797D01*
G37*
G36*
X71151891Y-103587797D02*
G01*
X71178028Y-103591674D01*
X71203659Y-103598094D01*
X71228538Y-103606995D01*
X71252424Y-103618293D01*
X71275087Y-103631877D01*
X71296310Y-103647617D01*
X71315889Y-103665361D01*
X71333633Y-103684940D01*
X71349373Y-103706163D01*
X71362957Y-103728826D01*
X71374255Y-103752712D01*
X71383156Y-103777591D01*
X71389576Y-103803222D01*
X71393453Y-103829359D01*
X71394750Y-103855750D01*
X71394750Y-104394250D01*
X71393453Y-104420641D01*
X71389576Y-104446778D01*
X71383156Y-104472409D01*
X71374255Y-104497288D01*
X71362957Y-104521174D01*
X71349373Y-104543837D01*
X71333633Y-104565060D01*
X71315889Y-104584639D01*
X71296310Y-104602383D01*
X71275087Y-104618123D01*
X71252424Y-104631707D01*
X71228538Y-104643005D01*
X71203659Y-104651906D01*
X71178028Y-104658326D01*
X71151891Y-104662203D01*
X71125500Y-104663500D01*
X70162000Y-104663500D01*
X70135609Y-104662203D01*
X70109472Y-104658326D01*
X70083841Y-104651906D01*
X70058962Y-104643005D01*
X70035076Y-104631707D01*
X70012413Y-104618123D01*
X69991190Y-104602383D01*
X69971611Y-104584639D01*
X69953867Y-104565060D01*
X69938127Y-104543837D01*
X69924543Y-104521174D01*
X69913245Y-104497288D01*
X69904344Y-104472409D01*
X69897924Y-104446778D01*
X69894047Y-104420641D01*
X69892750Y-104394250D01*
X69892750Y-103855750D01*
X69894047Y-103829359D01*
X69897924Y-103803222D01*
X69904344Y-103777591D01*
X69913245Y-103752712D01*
X69924543Y-103728826D01*
X69938127Y-103706163D01*
X69953867Y-103684940D01*
X69971611Y-103665361D01*
X69991190Y-103647617D01*
X70012413Y-103631877D01*
X70035076Y-103618293D01*
X70058962Y-103606995D01*
X70083841Y-103598094D01*
X70109472Y-103591674D01*
X70135609Y-103587797D01*
X70162000Y-103586500D01*
X71125500Y-103586500D01*
X71151891Y-103587797D01*
G37*
M02*
