M48
; DRILL file {KiCad 5.1.5-52549c5~84~ubuntu18.04.1} date Thu 13 Feb 2020 04:35:10 PM EST
; FORMAT={3:3/ absolute / metric / suppress leading zeros}
; #@! TF.CreationDate,2020-02-13T16:35:10-05:00
; #@! TF.GenerationSoftware,Kicad,Pcbnew,5.1.5-52549c5~84~ubuntu18.04.1
; #@! TF.FileFunction,Plated,1,2,PTH
FMAT,2
METRIC,TZ
T1C0.400
T2C0.700
T3C0.800
T4C1.000
T5C1.040
T6C1.470
T7C1.500
%
G90
G05
T1
X89059Y-52705
X93027Y-65405
X96996Y-67786
X101759Y-64611
X103346Y-59849
X110490Y-56674
X112871Y-53499
X114459Y-67786
X117634Y-59055
X118427Y-66199
X118710Y-50383
X119221Y-47149
X119688Y-49768
X120015Y-48768
X120015Y-57380
X120809Y-55086
X121602Y-43974
X122396Y-46355
X123984Y-49530
X127159Y-63818
X131128Y-51911
X132715Y-57468
T3
X93027Y-75248
X93027Y-82868
X99378Y-163036
X106998Y-163036
X93027Y-111760
X93027Y-119380
X93027Y-168910
X93027Y-176530
X118427Y-106680
X126048Y-106680
X99378Y-124936
X106998Y-124936
X112078Y-92710
X112078Y-100330
X73977Y-130810
X73977Y-138430
X116840Y-86836
X124460Y-86836
X93027Y-149860
X93027Y-157480
X73977Y-149860
X73977Y-157480
X118427Y-180499
X126048Y-180499
X73977Y-75248
X73977Y-82868
X93027Y-92710
X93027Y-100330
X56515Y-168910
X56515Y-176530
X112078Y-75248
X112078Y-82868
X73977Y-92710
X73977Y-100330
X73977Y-111760
X73977Y-119380
X118427Y-143986
X126048Y-143986
X99378Y-143986
X106998Y-143986
X93027Y-130810
X93027Y-138430
T4
X60960Y-50006
X60960Y-52506
X60960Y-55006
X75460Y-50006
X75460Y-55006
T5
X101283Y-120491
X103823Y-120491
X101283Y-139541
X103823Y-139541
X101283Y-177641
X103823Y-177641
X120333Y-101441
X122873Y-101441
X82233Y-101441
X84773Y-101441
X120333Y-82391
X122873Y-82391
X101283Y-82391
X103823Y-82391
X63182Y-120491
X65722Y-120491
X63182Y-158591
X65722Y-158591
X82233Y-158591
X84773Y-158591
X101283Y-158591
X103823Y-158591
X63182Y-101441
X65722Y-101441
X63182Y-82391
X65722Y-82391
X82233Y-82391
X84773Y-82391
X101283Y-101441
X103823Y-101441
X82233Y-139541
X84773Y-139541
X63182Y-139541
X65722Y-139541
X82233Y-120491
X84773Y-120491
T6
X98743Y-112871
X100053Y-111411
X105052Y-110911
X105093Y-110331
X98743Y-131921
X100053Y-130461
X105052Y-129961
X105093Y-129381
X98743Y-170021
X100053Y-168561
X105052Y-168061
X105093Y-167481
X117793Y-93821
X119102Y-92361
X124102Y-91861
X124143Y-91281
X116523Y-122396
X117102Y-122436
X117602Y-127436
X119063Y-128746
X79693Y-93821
X81003Y-92361
X86003Y-91861
X86043Y-91281
X117793Y-74771
X119102Y-73311
X124102Y-72811
X124143Y-72231
X98743Y-74771
X100053Y-73311
X105052Y-72811
X105093Y-72231
X60643Y-112871
X61953Y-111411
X66953Y-110911
X66993Y-110331
X60643Y-150971
X61953Y-149511
X66953Y-149011
X66993Y-148431
X79693Y-150971
X81003Y-149511
X86003Y-149011
X86043Y-148431
X98743Y-150971
X100053Y-149511
X105052Y-149011
X105093Y-148431
X60643Y-93821
X61953Y-92361
X66953Y-91861
X66993Y-91281
X60643Y-74771
X61953Y-73311
X66953Y-72811
X66993Y-72231
X79693Y-74771
X81003Y-73311
X86003Y-72811
X86043Y-72231
X98743Y-93821
X100053Y-92361
X105052Y-91861
X105093Y-91281
X70168Y-170021
X71477Y-168561
X76477Y-168061
X76518Y-167481
X79693Y-131921
X81003Y-130461
X86003Y-129961
X86043Y-129381
X116523Y-160496
X117102Y-160536
X117602Y-165536
X119063Y-166846
X60643Y-131921
X61953Y-130461
X66953Y-129961
X66993Y-129381
X79693Y-112871
X81003Y-111411
X86003Y-110911
X86043Y-110331
T2
G00X92553Y-37817
M15
G01X92553Y-39017
M16
G05
G00X92553Y-42318
M15
G01X92553Y-43518
M16
G05
G00X99852Y-37817
M15
G01X99852Y-39017
M16
G05
G00X99852Y-42318
M15
G01X99852Y-43518
M16
G05
T7
G00X67810Y-46906
M15
G01X69110Y-46906
M16
G05
G00X67810Y-58106
M15
G01X69110Y-58106
M16
G05
T0
M30
