M48
; DRILL file {KiCad 5.1.5-52549c5~84~ubuntu18.04.1} date Thu 13 Feb 2020 04:35:10 PM EST
; FORMAT={3:3/ absolute / metric / suppress leading zeros}
; #@! TF.CreationDate,2020-02-13T16:35:10-05:00
; #@! TF.GenerationSoftware,Kicad,Pcbnew,5.1.5-52549c5~84~ubuntu18.04.1
; #@! TF.FileFunction,NonPlated,1,2,NPTH
FMAT,2
METRIC,TZ
T1C1.750
T2C3.048
T3C3.988
%
G90
G05
T1
X78423Y-153511
X88583Y-153511
X97473Y-153511
X107632Y-153511
X59372Y-96361
X69533Y-96361
X59372Y-77311
X69533Y-77311
X78423Y-77311
X88583Y-77311
X97473Y-96361
X107632Y-96361
X68897Y-172561
X79057Y-172561
X78423Y-134461
X88583Y-134461
X121602Y-157956
X121602Y-168116
X59372Y-134461
X69533Y-134461
X78423Y-115411
X88583Y-115411
X97473Y-115411
X107632Y-115411
X97473Y-134461
X107632Y-134461
X97473Y-172561
X107632Y-172561
X116523Y-96361
X126682Y-96361
X121602Y-119856
X121602Y-130016
X78423Y-96361
X88583Y-96361
X116523Y-77311
X126682Y-77311
X97473Y-77311
X107632Y-77311
X59372Y-115411
X69533Y-115411
X59372Y-153511
X69533Y-153511
T2
X62040Y-165576
X85916Y-165576
X114618Y-151098
X114618Y-174974
X114618Y-112998
X114618Y-136874
T3
X102552Y-77311
X64453Y-115411
X64453Y-153511
X83503Y-153511
X102552Y-153511
X64453Y-96361
X64453Y-77311
X83503Y-77311
X102552Y-96361
X62040Y-180816
X73977Y-172561
X85916Y-180816
X83503Y-134461
X121602Y-163036
X129857Y-151098
X129857Y-174974
X64453Y-134461
X83503Y-115411
X102552Y-115411
X102552Y-134461
X102552Y-172561
X121602Y-96361
X121602Y-124936
X129857Y-112998
X129857Y-136874
X83503Y-96361
X121602Y-77311
T0
M30
