G04 #@! TF.GenerationSoftware,KiCad,Pcbnew,5.1.5-52549c5~84~ubuntu18.04.1*
G04 #@! TF.CreationDate,2020-02-13T16:35:18-05:00*
G04 #@! TF.ProjectId,metropolislefty,6d657472-6f70-46f6-9c69-736c65667479,0*
G04 #@! TF.SameCoordinates,Original*
G04 #@! TF.FileFunction,Soldermask,Top*
G04 #@! TF.FilePolarity,Negative*
%FSLAX46Y46*%
G04 Gerber Fmt 4.6, Leading zero omitted, Abs format (unit mm)*
G04 Created by KiCad (PCBNEW 5.1.5-52549c5~84~ubuntu18.04.1) date 2020-02-13 16:35:18*
%MOMM*%
%LPD*%
G04 APERTURE LIST*
%ADD10C,0.100000*%
G04 APERTURE END LIST*
D10*
G36*
X86511974Y-178849934D02*
G01*
X86729974Y-178940233D01*
X86884123Y-179004083D01*
X87219048Y-179227873D01*
X87503877Y-179512702D01*
X87727667Y-179847627D01*
X87727667Y-179847628D01*
X87881816Y-180219776D01*
X87960400Y-180614844D01*
X87960400Y-181017656D01*
X87881816Y-181412724D01*
X87791517Y-181630724D01*
X87727667Y-181784873D01*
X87503877Y-182119798D01*
X87219048Y-182404627D01*
X86884123Y-182628417D01*
X86729974Y-182692267D01*
X86511974Y-182782566D01*
X86116906Y-182861150D01*
X85714094Y-182861150D01*
X85319026Y-182782566D01*
X85101026Y-182692267D01*
X84946877Y-182628417D01*
X84611952Y-182404627D01*
X84327123Y-182119798D01*
X84103333Y-181784873D01*
X84039483Y-181630724D01*
X83949184Y-181412724D01*
X83870600Y-181017656D01*
X83870600Y-180614844D01*
X83949184Y-180219776D01*
X84103333Y-179847628D01*
X84103333Y-179847627D01*
X84327123Y-179512702D01*
X84611952Y-179227873D01*
X84946877Y-179004083D01*
X85101026Y-178940233D01*
X85319026Y-178849934D01*
X85714094Y-178771350D01*
X86116906Y-178771350D01*
X86511974Y-178849934D01*
G37*
G36*
X62635974Y-178849934D02*
G01*
X62853974Y-178940233D01*
X63008123Y-179004083D01*
X63343048Y-179227873D01*
X63627877Y-179512702D01*
X63851667Y-179847627D01*
X63851667Y-179847628D01*
X64005816Y-180219776D01*
X64084400Y-180614844D01*
X64084400Y-181017656D01*
X64005816Y-181412724D01*
X63915517Y-181630724D01*
X63851667Y-181784873D01*
X63627877Y-182119798D01*
X63343048Y-182404627D01*
X63008123Y-182628417D01*
X62853974Y-182692267D01*
X62635974Y-182782566D01*
X62240906Y-182861150D01*
X61838094Y-182861150D01*
X61443026Y-182782566D01*
X61225026Y-182692267D01*
X61070877Y-182628417D01*
X60735952Y-182404627D01*
X60451123Y-182119798D01*
X60227333Y-181784873D01*
X60163483Y-181630724D01*
X60073184Y-181412724D01*
X59994600Y-181017656D01*
X59994600Y-180614844D01*
X60073184Y-180219776D01*
X60227333Y-179847628D01*
X60227333Y-179847627D01*
X60451123Y-179512702D01*
X60735952Y-179227873D01*
X61070877Y-179004083D01*
X61225026Y-178940233D01*
X61443026Y-178849934D01*
X61838094Y-178771350D01*
X62240906Y-178771350D01*
X62635974Y-178849934D01*
G37*
G36*
X126295728Y-179680453D02*
G01*
X126450600Y-179744603D01*
X126589981Y-179837735D01*
X126708515Y-179956269D01*
X126801647Y-180095650D01*
X126865797Y-180250522D01*
X126898500Y-180414934D01*
X126898500Y-180582566D01*
X126865797Y-180746978D01*
X126801647Y-180901850D01*
X126708515Y-181041231D01*
X126589981Y-181159765D01*
X126450600Y-181252897D01*
X126295728Y-181317047D01*
X126131316Y-181349750D01*
X125963684Y-181349750D01*
X125799272Y-181317047D01*
X125644400Y-181252897D01*
X125505019Y-181159765D01*
X125386485Y-181041231D01*
X125293353Y-180901850D01*
X125229203Y-180746978D01*
X125196500Y-180582566D01*
X125196500Y-180414934D01*
X125229203Y-180250522D01*
X125293353Y-180095650D01*
X125386485Y-179956269D01*
X125505019Y-179837735D01*
X125644400Y-179744603D01*
X125799272Y-179680453D01*
X125963684Y-179647750D01*
X126131316Y-179647750D01*
X126295728Y-179680453D01*
G37*
G36*
X119278500Y-181349750D02*
G01*
X117576500Y-181349750D01*
X117576500Y-179647750D01*
X119278500Y-179647750D01*
X119278500Y-181349750D01*
G37*
G36*
X93878500Y-177381000D02*
G01*
X92176500Y-177381000D01*
X92176500Y-175679000D01*
X93878500Y-175679000D01*
X93878500Y-177381000D01*
G37*
G36*
X57366000Y-177381000D02*
G01*
X55664000Y-177381000D01*
X55664000Y-175679000D01*
X57366000Y-175679000D01*
X57366000Y-177381000D01*
G37*
G36*
X130453974Y-173007934D02*
G01*
X130671974Y-173098233D01*
X130826123Y-173162083D01*
X131161048Y-173385873D01*
X131445877Y-173670702D01*
X131669667Y-174005627D01*
X131669667Y-174005628D01*
X131823816Y-174377776D01*
X131902400Y-174772844D01*
X131902400Y-175175656D01*
X131823816Y-175570724D01*
X131761863Y-175720291D01*
X131669667Y-175942873D01*
X131445877Y-176277798D01*
X131161048Y-176562627D01*
X130826123Y-176786417D01*
X130671974Y-176850267D01*
X130453974Y-176940566D01*
X130058906Y-177019150D01*
X129656094Y-177019150D01*
X129261026Y-176940566D01*
X129043026Y-176850267D01*
X128888877Y-176786417D01*
X128553952Y-176562627D01*
X128269123Y-176277798D01*
X128045333Y-175942873D01*
X127953137Y-175720291D01*
X127891184Y-175570724D01*
X127812600Y-175175656D01*
X127812600Y-174772844D01*
X127891184Y-174377776D01*
X128045333Y-174005628D01*
X128045333Y-174005627D01*
X128269123Y-173670702D01*
X128553952Y-173385873D01*
X128888877Y-173162083D01*
X129043026Y-173098233D01*
X129261026Y-173007934D01*
X129656094Y-172929350D01*
X130058906Y-172929350D01*
X130453974Y-173007934D01*
G37*
G36*
X114924767Y-173429513D02*
G01*
X115076911Y-173459776D01*
X115195637Y-173508954D01*
X115363541Y-173578502D01*
X115363542Y-173578503D01*
X115621504Y-173750867D01*
X115840883Y-173970246D01*
X115864524Y-174005628D01*
X116013248Y-174228209D01*
X116073395Y-174373417D01*
X116131974Y-174514839D01*
X116150137Y-174606150D01*
X116192500Y-174819125D01*
X116192500Y-175129375D01*
X116131974Y-175433660D01*
X116013248Y-175720291D01*
X116013247Y-175720292D01*
X115840883Y-175978254D01*
X115621504Y-176197633D01*
X115501528Y-176277798D01*
X115363541Y-176369998D01*
X115195637Y-176439546D01*
X115076911Y-176488724D01*
X114924767Y-176518987D01*
X114772625Y-176549250D01*
X114462375Y-176549250D01*
X114310233Y-176518987D01*
X114158089Y-176488724D01*
X114039363Y-176439546D01*
X113871459Y-176369998D01*
X113733472Y-176277798D01*
X113613496Y-176197633D01*
X113394117Y-175978254D01*
X113221753Y-175720292D01*
X113221752Y-175720291D01*
X113103026Y-175433660D01*
X113042500Y-175129375D01*
X113042500Y-174819125D01*
X113084863Y-174606150D01*
X113103026Y-174514839D01*
X113161605Y-174373417D01*
X113221752Y-174228209D01*
X113370476Y-174005628D01*
X113394117Y-173970246D01*
X113613496Y-173750867D01*
X113871458Y-173578503D01*
X113871459Y-173578502D01*
X114039363Y-173508954D01*
X114158089Y-173459776D01*
X114310233Y-173429513D01*
X114462375Y-173399250D01*
X114772625Y-173399250D01*
X114924767Y-173429513D01*
G37*
G36*
X103148974Y-170594934D02*
G01*
X103366974Y-170685233D01*
X103521123Y-170749083D01*
X103856048Y-170972873D01*
X104140877Y-171257702D01*
X104364667Y-171592627D01*
X104397062Y-171670836D01*
X104518816Y-171964776D01*
X104597400Y-172359844D01*
X104597400Y-172762656D01*
X104518816Y-173157724D01*
X104467951Y-173280522D01*
X104364667Y-173529873D01*
X104140877Y-173864798D01*
X103856048Y-174149627D01*
X103521123Y-174373417D01*
X103366974Y-174437267D01*
X103148974Y-174527566D01*
X102753906Y-174606150D01*
X102351094Y-174606150D01*
X101956026Y-174527566D01*
X101738026Y-174437267D01*
X101583877Y-174373417D01*
X101248952Y-174149627D01*
X100964123Y-173864798D01*
X100740333Y-173529873D01*
X100637049Y-173280522D01*
X100586184Y-173157724D01*
X100507600Y-172762656D01*
X100507600Y-172359844D01*
X100586184Y-171964776D01*
X100707938Y-171670836D01*
X100740333Y-171592627D01*
X100964123Y-171257702D01*
X101248952Y-170972873D01*
X101583877Y-170749083D01*
X101738026Y-170685233D01*
X101956026Y-170594934D01*
X102351094Y-170516350D01*
X102753906Y-170516350D01*
X103148974Y-170594934D01*
G37*
G36*
X74573974Y-170594934D02*
G01*
X74791974Y-170685233D01*
X74946123Y-170749083D01*
X75281048Y-170972873D01*
X75565877Y-171257702D01*
X75789667Y-171592627D01*
X75822062Y-171670836D01*
X75943816Y-171964776D01*
X76022400Y-172359844D01*
X76022400Y-172762656D01*
X75943816Y-173157724D01*
X75892951Y-173280522D01*
X75789667Y-173529873D01*
X75565877Y-173864798D01*
X75281048Y-174149627D01*
X74946123Y-174373417D01*
X74791974Y-174437267D01*
X74573974Y-174527566D01*
X74178906Y-174606150D01*
X73776094Y-174606150D01*
X73381026Y-174527566D01*
X73163026Y-174437267D01*
X73008877Y-174373417D01*
X72673952Y-174149627D01*
X72389123Y-173864798D01*
X72165333Y-173529873D01*
X72062049Y-173280522D01*
X72011184Y-173157724D01*
X71932600Y-172762656D01*
X71932600Y-172359844D01*
X72011184Y-171964776D01*
X72132938Y-171670836D01*
X72165333Y-171592627D01*
X72389123Y-171257702D01*
X72673952Y-170972873D01*
X73008877Y-170749083D01*
X73163026Y-170685233D01*
X73381026Y-170594934D01*
X73776094Y-170516350D01*
X74178906Y-170516350D01*
X74573974Y-170594934D01*
G37*
G36*
X79327604Y-171670835D02*
G01*
X79496126Y-171740639D01*
X79647791Y-171841978D01*
X79776772Y-171970959D01*
X79878111Y-172122624D01*
X79947915Y-172291146D01*
X79983500Y-172470047D01*
X79983500Y-172652453D01*
X79947915Y-172831354D01*
X79878111Y-172999876D01*
X79776772Y-173151541D01*
X79647791Y-173280522D01*
X79496126Y-173381861D01*
X79327604Y-173451665D01*
X79148703Y-173487250D01*
X78966297Y-173487250D01*
X78787396Y-173451665D01*
X78618874Y-173381861D01*
X78467209Y-173280522D01*
X78338228Y-173151541D01*
X78236889Y-172999876D01*
X78167085Y-172831354D01*
X78131500Y-172652453D01*
X78131500Y-172470047D01*
X78167085Y-172291146D01*
X78236889Y-172122624D01*
X78338228Y-171970959D01*
X78467209Y-171841978D01*
X78618874Y-171740639D01*
X78787396Y-171670835D01*
X78966297Y-171635250D01*
X79148703Y-171635250D01*
X79327604Y-171670835D01*
G37*
G36*
X107902604Y-171670835D02*
G01*
X108071126Y-171740639D01*
X108222791Y-171841978D01*
X108351772Y-171970959D01*
X108453111Y-172122624D01*
X108522915Y-172291146D01*
X108558500Y-172470047D01*
X108558500Y-172652453D01*
X108522915Y-172831354D01*
X108453111Y-172999876D01*
X108351772Y-173151541D01*
X108222791Y-173280522D01*
X108071126Y-173381861D01*
X107902604Y-173451665D01*
X107723703Y-173487250D01*
X107541297Y-173487250D01*
X107362396Y-173451665D01*
X107193874Y-173381861D01*
X107042209Y-173280522D01*
X106913228Y-173151541D01*
X106811889Y-172999876D01*
X106742085Y-172831354D01*
X106706500Y-172652453D01*
X106706500Y-172470047D01*
X106742085Y-172291146D01*
X106811889Y-172122624D01*
X106913228Y-171970959D01*
X107042209Y-171841978D01*
X107193874Y-171740639D01*
X107362396Y-171670835D01*
X107541297Y-171635250D01*
X107723703Y-171635250D01*
X107902604Y-171670835D01*
G37*
G36*
X97742604Y-171670835D02*
G01*
X97911126Y-171740639D01*
X98062791Y-171841978D01*
X98191772Y-171970959D01*
X98293111Y-172122624D01*
X98362915Y-172291146D01*
X98398500Y-172470047D01*
X98398500Y-172652453D01*
X98362915Y-172831354D01*
X98293111Y-172999876D01*
X98191772Y-173151541D01*
X98062791Y-173280522D01*
X97911126Y-173381861D01*
X97742604Y-173451665D01*
X97563703Y-173487250D01*
X97381297Y-173487250D01*
X97202396Y-173451665D01*
X97033874Y-173381861D01*
X96882209Y-173280522D01*
X96753228Y-173151541D01*
X96651889Y-172999876D01*
X96582085Y-172831354D01*
X96546500Y-172652453D01*
X96546500Y-172470047D01*
X96582085Y-172291146D01*
X96651889Y-172122624D01*
X96753228Y-171970959D01*
X96882209Y-171841978D01*
X97033874Y-171740639D01*
X97202396Y-171670835D01*
X97381297Y-171635250D01*
X97563703Y-171635250D01*
X97742604Y-171670835D01*
G37*
G36*
X69167604Y-171670835D02*
G01*
X69336126Y-171740639D01*
X69487791Y-171841978D01*
X69616772Y-171970959D01*
X69718111Y-172122624D01*
X69787915Y-172291146D01*
X69823500Y-172470047D01*
X69823500Y-172652453D01*
X69787915Y-172831354D01*
X69718111Y-172999876D01*
X69616772Y-173151541D01*
X69487791Y-173280522D01*
X69336126Y-173381861D01*
X69167604Y-173451665D01*
X68988703Y-173487250D01*
X68806297Y-173487250D01*
X68627396Y-173451665D01*
X68458874Y-173381861D01*
X68307209Y-173280522D01*
X68178228Y-173151541D01*
X68076889Y-172999876D01*
X68007085Y-172831354D01*
X67971500Y-172652453D01*
X67971500Y-172470047D01*
X68007085Y-172291146D01*
X68076889Y-172122624D01*
X68178228Y-171970959D01*
X68307209Y-171841978D01*
X68458874Y-171740639D01*
X68627396Y-171670835D01*
X68806297Y-171635250D01*
X68988703Y-171635250D01*
X69167604Y-171670835D01*
G37*
G36*
X56763228Y-168091703D02*
G01*
X56918100Y-168155853D01*
X57057481Y-168248985D01*
X57176015Y-168367519D01*
X57269147Y-168506900D01*
X57333297Y-168661772D01*
X57366000Y-168826184D01*
X57366000Y-168993816D01*
X57333297Y-169158228D01*
X57269147Y-169313100D01*
X57176015Y-169452481D01*
X57057481Y-169571015D01*
X56918100Y-169664147D01*
X56763228Y-169728297D01*
X56598816Y-169761000D01*
X56431184Y-169761000D01*
X56266772Y-169728297D01*
X56111900Y-169664147D01*
X55972519Y-169571015D01*
X55853985Y-169452481D01*
X55760853Y-169313100D01*
X55696703Y-169158228D01*
X55664000Y-168993816D01*
X55664000Y-168826184D01*
X55696703Y-168661772D01*
X55760853Y-168506900D01*
X55853985Y-168367519D01*
X55972519Y-168248985D01*
X56111900Y-168155853D01*
X56266772Y-168091703D01*
X56431184Y-168059000D01*
X56598816Y-168059000D01*
X56763228Y-168091703D01*
G37*
G36*
X93275728Y-168091703D02*
G01*
X93430600Y-168155853D01*
X93569981Y-168248985D01*
X93688515Y-168367519D01*
X93781647Y-168506900D01*
X93845797Y-168661772D01*
X93878500Y-168826184D01*
X93878500Y-168993816D01*
X93845797Y-169158228D01*
X93781647Y-169313100D01*
X93688515Y-169452481D01*
X93569981Y-169571015D01*
X93430600Y-169664147D01*
X93275728Y-169728297D01*
X93111316Y-169761000D01*
X92943684Y-169761000D01*
X92779272Y-169728297D01*
X92624400Y-169664147D01*
X92485019Y-169571015D01*
X92366485Y-169452481D01*
X92273353Y-169313100D01*
X92209203Y-169158228D01*
X92176500Y-168993816D01*
X92176500Y-168826184D01*
X92209203Y-168661772D01*
X92273353Y-168506900D01*
X92366485Y-168367519D01*
X92485019Y-168248985D01*
X92624400Y-168155853D01*
X92779272Y-168091703D01*
X92943684Y-168059000D01*
X93111316Y-168059000D01*
X93275728Y-168091703D01*
G37*
G36*
X121872604Y-167225835D02*
G01*
X122041126Y-167295639D01*
X122192791Y-167396978D01*
X122321772Y-167525959D01*
X122423111Y-167677624D01*
X122492915Y-167846146D01*
X122528500Y-168025047D01*
X122528500Y-168207453D01*
X122492915Y-168386354D01*
X122423111Y-168554876D01*
X122321772Y-168706541D01*
X122192791Y-168835522D01*
X122041126Y-168936861D01*
X121872604Y-169006665D01*
X121693703Y-169042250D01*
X121511297Y-169042250D01*
X121332396Y-169006665D01*
X121163874Y-168936861D01*
X121012209Y-168835522D01*
X120883228Y-168706541D01*
X120781889Y-168554876D01*
X120712085Y-168386354D01*
X120676500Y-168207453D01*
X120676500Y-168025047D01*
X120712085Y-167846146D01*
X120781889Y-167677624D01*
X120883228Y-167525959D01*
X121012209Y-167396978D01*
X121163874Y-167295639D01*
X121332396Y-167225835D01*
X121511297Y-167190250D01*
X121693703Y-167190250D01*
X121872604Y-167225835D01*
G37*
G36*
X86374911Y-164061776D02*
G01*
X86493637Y-164110954D01*
X86661541Y-164180502D01*
X86661542Y-164180503D01*
X86919504Y-164352867D01*
X87138883Y-164572246D01*
X87254053Y-164744611D01*
X87311248Y-164830209D01*
X87429974Y-165116840D01*
X87490500Y-165421125D01*
X87490500Y-165731375D01*
X87429974Y-166035660D01*
X87311248Y-166322291D01*
X87311247Y-166322292D01*
X87138883Y-166580254D01*
X86919504Y-166799633D01*
X86747139Y-166914803D01*
X86661541Y-166971998D01*
X86493637Y-167041546D01*
X86374911Y-167090724D01*
X86222767Y-167120987D01*
X86070625Y-167151250D01*
X85760375Y-167151250D01*
X85608233Y-167120987D01*
X85456089Y-167090724D01*
X85337363Y-167041546D01*
X85169459Y-166971998D01*
X85083861Y-166914803D01*
X84911496Y-166799633D01*
X84692117Y-166580254D01*
X84519753Y-166322292D01*
X84519752Y-166322291D01*
X84401026Y-166035660D01*
X84340500Y-165731375D01*
X84340500Y-165421125D01*
X84401026Y-165116840D01*
X84519752Y-164830209D01*
X84576947Y-164744611D01*
X84692117Y-164572246D01*
X84911496Y-164352867D01*
X85169458Y-164180503D01*
X85169459Y-164180502D01*
X85337363Y-164110954D01*
X85456089Y-164061776D01*
X85760375Y-164001250D01*
X86070625Y-164001250D01*
X86374911Y-164061776D01*
G37*
G36*
X62498911Y-164061776D02*
G01*
X62617637Y-164110954D01*
X62785541Y-164180502D01*
X62785542Y-164180503D01*
X63043504Y-164352867D01*
X63262883Y-164572246D01*
X63378053Y-164744611D01*
X63435248Y-164830209D01*
X63553974Y-165116840D01*
X63614500Y-165421125D01*
X63614500Y-165731375D01*
X63553974Y-166035660D01*
X63435248Y-166322291D01*
X63435247Y-166322292D01*
X63262883Y-166580254D01*
X63043504Y-166799633D01*
X62871139Y-166914803D01*
X62785541Y-166971998D01*
X62617637Y-167041546D01*
X62498911Y-167090724D01*
X62346767Y-167120987D01*
X62194625Y-167151250D01*
X61884375Y-167151250D01*
X61732233Y-167120987D01*
X61580089Y-167090724D01*
X61461363Y-167041546D01*
X61293459Y-166971998D01*
X61207861Y-166914803D01*
X61035496Y-166799633D01*
X60816117Y-166580254D01*
X60643753Y-166322292D01*
X60643752Y-166322291D01*
X60525026Y-166035660D01*
X60464500Y-165731375D01*
X60464500Y-165421125D01*
X60525026Y-165116840D01*
X60643752Y-164830209D01*
X60700947Y-164744611D01*
X60816117Y-164572246D01*
X61035496Y-164352867D01*
X61293458Y-164180503D01*
X61293459Y-164180502D01*
X61461363Y-164110954D01*
X61580089Y-164061776D01*
X61884375Y-164001250D01*
X62194625Y-164001250D01*
X62498911Y-164061776D01*
G37*
G36*
X122198974Y-161069934D02*
G01*
X122416974Y-161160233D01*
X122571123Y-161224083D01*
X122906048Y-161447873D01*
X123190877Y-161732702D01*
X123414667Y-162067627D01*
X123414667Y-162067628D01*
X123568816Y-162439776D01*
X123647400Y-162834844D01*
X123647400Y-163237656D01*
X123568816Y-163632724D01*
X123503505Y-163790398D01*
X123414667Y-164004873D01*
X123190877Y-164339798D01*
X122906048Y-164624627D01*
X122571123Y-164848417D01*
X122416974Y-164912267D01*
X122198974Y-165002566D01*
X121803906Y-165081150D01*
X121401094Y-165081150D01*
X121006026Y-165002566D01*
X120788026Y-164912267D01*
X120633877Y-164848417D01*
X120298952Y-164624627D01*
X120014123Y-164339798D01*
X119790333Y-164004873D01*
X119701495Y-163790398D01*
X119636184Y-163632724D01*
X119557600Y-163237656D01*
X119557600Y-162834844D01*
X119636184Y-162439776D01*
X119790333Y-162067628D01*
X119790333Y-162067627D01*
X120014123Y-161732702D01*
X120298952Y-161447873D01*
X120633877Y-161224083D01*
X120788026Y-161160233D01*
X121006026Y-161069934D01*
X121401094Y-160991350D01*
X121803906Y-160991350D01*
X122198974Y-161069934D01*
G37*
G36*
X100228500Y-163887250D02*
G01*
X98526500Y-163887250D01*
X98526500Y-162185250D01*
X100228500Y-162185250D01*
X100228500Y-163887250D01*
G37*
G36*
X107245728Y-162217953D02*
G01*
X107400600Y-162282103D01*
X107539981Y-162375235D01*
X107658515Y-162493769D01*
X107751647Y-162633150D01*
X107815797Y-162788022D01*
X107848500Y-162952434D01*
X107848500Y-163120066D01*
X107815797Y-163284478D01*
X107751647Y-163439350D01*
X107658515Y-163578731D01*
X107539981Y-163697265D01*
X107400600Y-163790397D01*
X107245728Y-163854547D01*
X107081316Y-163887250D01*
X106913684Y-163887250D01*
X106749272Y-163854547D01*
X106594400Y-163790397D01*
X106455019Y-163697265D01*
X106336485Y-163578731D01*
X106243353Y-163439350D01*
X106179203Y-163284478D01*
X106146500Y-163120066D01*
X106146500Y-162952434D01*
X106179203Y-162788022D01*
X106243353Y-162633150D01*
X106336485Y-162493769D01*
X106455019Y-162375235D01*
X106594400Y-162282103D01*
X106749272Y-162217953D01*
X106913684Y-162185250D01*
X107081316Y-162185250D01*
X107245728Y-162217953D01*
G37*
G36*
X121872604Y-157065835D02*
G01*
X122041126Y-157135639D01*
X122192791Y-157236978D01*
X122321772Y-157365959D01*
X122423111Y-157517624D01*
X122492915Y-157686146D01*
X122528500Y-157865047D01*
X122528500Y-158047453D01*
X122492915Y-158226354D01*
X122423111Y-158394876D01*
X122321772Y-158546541D01*
X122192791Y-158675522D01*
X122041126Y-158776861D01*
X121872604Y-158846665D01*
X121693703Y-158882250D01*
X121511297Y-158882250D01*
X121332396Y-158846665D01*
X121163874Y-158776861D01*
X121012209Y-158675522D01*
X120883228Y-158546541D01*
X120781889Y-158394876D01*
X120712085Y-158226354D01*
X120676500Y-158047453D01*
X120676500Y-157865047D01*
X120712085Y-157686146D01*
X120781889Y-157517624D01*
X120883228Y-157365959D01*
X121012209Y-157236978D01*
X121163874Y-157135639D01*
X121332396Y-157065835D01*
X121511297Y-157030250D01*
X121693703Y-157030250D01*
X121872604Y-157065835D01*
G37*
G36*
X93878500Y-158331000D02*
G01*
X92176500Y-158331000D01*
X92176500Y-156629000D01*
X93878500Y-156629000D01*
X93878500Y-158331000D01*
G37*
G36*
X74828500Y-158331000D02*
G01*
X73126500Y-158331000D01*
X73126500Y-156629000D01*
X74828500Y-156629000D01*
X74828500Y-158331000D01*
G37*
G36*
X103148974Y-151544934D02*
G01*
X103366974Y-151635233D01*
X103521123Y-151699083D01*
X103856048Y-151922873D01*
X104140877Y-152207702D01*
X104364667Y-152542627D01*
X104424313Y-152686627D01*
X104518816Y-152914776D01*
X104597400Y-153309844D01*
X104597400Y-153712656D01*
X104518816Y-154107724D01*
X104467951Y-154230522D01*
X104364667Y-154479873D01*
X104140877Y-154814798D01*
X103856048Y-155099627D01*
X103521123Y-155323417D01*
X103366974Y-155387267D01*
X103148974Y-155477566D01*
X102753906Y-155556150D01*
X102351094Y-155556150D01*
X101956026Y-155477566D01*
X101738026Y-155387267D01*
X101583877Y-155323417D01*
X101248952Y-155099627D01*
X100964123Y-154814798D01*
X100740333Y-154479873D01*
X100637049Y-154230522D01*
X100586184Y-154107724D01*
X100507600Y-153712656D01*
X100507600Y-153309844D01*
X100586184Y-152914776D01*
X100680687Y-152686627D01*
X100740333Y-152542627D01*
X100964123Y-152207702D01*
X101248952Y-151922873D01*
X101583877Y-151699083D01*
X101738026Y-151635233D01*
X101956026Y-151544934D01*
X102351094Y-151466350D01*
X102753906Y-151466350D01*
X103148974Y-151544934D01*
G37*
G36*
X84098974Y-151544934D02*
G01*
X84316974Y-151635233D01*
X84471123Y-151699083D01*
X84806048Y-151922873D01*
X85090877Y-152207702D01*
X85314667Y-152542627D01*
X85374313Y-152686627D01*
X85468816Y-152914776D01*
X85547400Y-153309844D01*
X85547400Y-153712656D01*
X85468816Y-154107724D01*
X85417951Y-154230522D01*
X85314667Y-154479873D01*
X85090877Y-154814798D01*
X84806048Y-155099627D01*
X84471123Y-155323417D01*
X84316974Y-155387267D01*
X84098974Y-155477566D01*
X83703906Y-155556150D01*
X83301094Y-155556150D01*
X82906026Y-155477566D01*
X82688026Y-155387267D01*
X82533877Y-155323417D01*
X82198952Y-155099627D01*
X81914123Y-154814798D01*
X81690333Y-154479873D01*
X81587049Y-154230522D01*
X81536184Y-154107724D01*
X81457600Y-153712656D01*
X81457600Y-153309844D01*
X81536184Y-152914776D01*
X81630687Y-152686627D01*
X81690333Y-152542627D01*
X81914123Y-152207702D01*
X82198952Y-151922873D01*
X82533877Y-151699083D01*
X82688026Y-151635233D01*
X82906026Y-151544934D01*
X83301094Y-151466350D01*
X83703906Y-151466350D01*
X84098974Y-151544934D01*
G37*
G36*
X65048974Y-151544934D02*
G01*
X65266974Y-151635233D01*
X65421123Y-151699083D01*
X65756048Y-151922873D01*
X66040877Y-152207702D01*
X66264667Y-152542627D01*
X66324313Y-152686627D01*
X66418816Y-152914776D01*
X66497400Y-153309844D01*
X66497400Y-153712656D01*
X66418816Y-154107724D01*
X66367951Y-154230522D01*
X66264667Y-154479873D01*
X66040877Y-154814798D01*
X65756048Y-155099627D01*
X65421123Y-155323417D01*
X65266974Y-155387267D01*
X65048974Y-155477566D01*
X64653906Y-155556150D01*
X64251094Y-155556150D01*
X63856026Y-155477566D01*
X63638026Y-155387267D01*
X63483877Y-155323417D01*
X63148952Y-155099627D01*
X62864123Y-154814798D01*
X62640333Y-154479873D01*
X62537049Y-154230522D01*
X62486184Y-154107724D01*
X62407600Y-153712656D01*
X62407600Y-153309844D01*
X62486184Y-152914776D01*
X62580687Y-152686627D01*
X62640333Y-152542627D01*
X62864123Y-152207702D01*
X63148952Y-151922873D01*
X63483877Y-151699083D01*
X63638026Y-151635233D01*
X63856026Y-151544934D01*
X64251094Y-151466350D01*
X64653906Y-151466350D01*
X65048974Y-151544934D01*
G37*
G36*
X69802604Y-152620835D02*
G01*
X69971126Y-152690639D01*
X70122791Y-152791978D01*
X70251772Y-152920959D01*
X70353111Y-153072624D01*
X70422915Y-153241146D01*
X70458500Y-153420047D01*
X70458500Y-153602453D01*
X70422915Y-153781354D01*
X70353111Y-153949876D01*
X70251772Y-154101541D01*
X70122791Y-154230522D01*
X69971126Y-154331861D01*
X69802604Y-154401665D01*
X69623703Y-154437250D01*
X69441297Y-154437250D01*
X69262396Y-154401665D01*
X69093874Y-154331861D01*
X68942209Y-154230522D01*
X68813228Y-154101541D01*
X68711889Y-153949876D01*
X68642085Y-153781354D01*
X68606500Y-153602453D01*
X68606500Y-153420047D01*
X68642085Y-153241146D01*
X68711889Y-153072624D01*
X68813228Y-152920959D01*
X68942209Y-152791978D01*
X69093874Y-152690639D01*
X69262396Y-152620835D01*
X69441297Y-152585250D01*
X69623703Y-152585250D01*
X69802604Y-152620835D01*
G37*
G36*
X107902604Y-152620835D02*
G01*
X108071126Y-152690639D01*
X108222791Y-152791978D01*
X108351772Y-152920959D01*
X108453111Y-153072624D01*
X108522915Y-153241146D01*
X108558500Y-153420047D01*
X108558500Y-153602453D01*
X108522915Y-153781354D01*
X108453111Y-153949876D01*
X108351772Y-154101541D01*
X108222791Y-154230522D01*
X108071126Y-154331861D01*
X107902604Y-154401665D01*
X107723703Y-154437250D01*
X107541297Y-154437250D01*
X107362396Y-154401665D01*
X107193874Y-154331861D01*
X107042209Y-154230522D01*
X106913228Y-154101541D01*
X106811889Y-153949876D01*
X106742085Y-153781354D01*
X106706500Y-153602453D01*
X106706500Y-153420047D01*
X106742085Y-153241146D01*
X106811889Y-153072624D01*
X106913228Y-152920959D01*
X107042209Y-152791978D01*
X107193874Y-152690639D01*
X107362396Y-152620835D01*
X107541297Y-152585250D01*
X107723703Y-152585250D01*
X107902604Y-152620835D01*
G37*
G36*
X97742604Y-152620835D02*
G01*
X97911126Y-152690639D01*
X98062791Y-152791978D01*
X98191772Y-152920959D01*
X98293111Y-153072624D01*
X98362915Y-153241146D01*
X98398500Y-153420047D01*
X98398500Y-153602453D01*
X98362915Y-153781354D01*
X98293111Y-153949876D01*
X98191772Y-154101541D01*
X98062791Y-154230522D01*
X97911126Y-154331861D01*
X97742604Y-154401665D01*
X97563703Y-154437250D01*
X97381297Y-154437250D01*
X97202396Y-154401665D01*
X97033874Y-154331861D01*
X96882209Y-154230522D01*
X96753228Y-154101541D01*
X96651889Y-153949876D01*
X96582085Y-153781354D01*
X96546500Y-153602453D01*
X96546500Y-153420047D01*
X96582085Y-153241146D01*
X96651889Y-153072624D01*
X96753228Y-152920959D01*
X96882209Y-152791978D01*
X97033874Y-152690639D01*
X97202396Y-152620835D01*
X97381297Y-152585250D01*
X97563703Y-152585250D01*
X97742604Y-152620835D01*
G37*
G36*
X88852604Y-152620835D02*
G01*
X89021126Y-152690639D01*
X89172791Y-152791978D01*
X89301772Y-152920959D01*
X89403111Y-153072624D01*
X89472915Y-153241146D01*
X89508500Y-153420047D01*
X89508500Y-153602453D01*
X89472915Y-153781354D01*
X89403111Y-153949876D01*
X89301772Y-154101541D01*
X89172791Y-154230522D01*
X89021126Y-154331861D01*
X88852604Y-154401665D01*
X88673703Y-154437250D01*
X88491297Y-154437250D01*
X88312396Y-154401665D01*
X88143874Y-154331861D01*
X87992209Y-154230522D01*
X87863228Y-154101541D01*
X87761889Y-153949876D01*
X87692085Y-153781354D01*
X87656500Y-153602453D01*
X87656500Y-153420047D01*
X87692085Y-153241146D01*
X87761889Y-153072624D01*
X87863228Y-152920959D01*
X87992209Y-152791978D01*
X88143874Y-152690639D01*
X88312396Y-152620835D01*
X88491297Y-152585250D01*
X88673703Y-152585250D01*
X88852604Y-152620835D01*
G37*
G36*
X78692604Y-152620835D02*
G01*
X78861126Y-152690639D01*
X79012791Y-152791978D01*
X79141772Y-152920959D01*
X79243111Y-153072624D01*
X79312915Y-153241146D01*
X79348500Y-153420047D01*
X79348500Y-153602453D01*
X79312915Y-153781354D01*
X79243111Y-153949876D01*
X79141772Y-154101541D01*
X79012791Y-154230522D01*
X78861126Y-154331861D01*
X78692604Y-154401665D01*
X78513703Y-154437250D01*
X78331297Y-154437250D01*
X78152396Y-154401665D01*
X77983874Y-154331861D01*
X77832209Y-154230522D01*
X77703228Y-154101541D01*
X77601889Y-153949876D01*
X77532085Y-153781354D01*
X77496500Y-153602453D01*
X77496500Y-153420047D01*
X77532085Y-153241146D01*
X77601889Y-153072624D01*
X77703228Y-152920959D01*
X77832209Y-152791978D01*
X77983874Y-152690639D01*
X78152396Y-152620835D01*
X78331297Y-152585250D01*
X78513703Y-152585250D01*
X78692604Y-152620835D01*
G37*
G36*
X59642604Y-152620835D02*
G01*
X59811126Y-152690639D01*
X59962791Y-152791978D01*
X60091772Y-152920959D01*
X60193111Y-153072624D01*
X60262915Y-153241146D01*
X60298500Y-153420047D01*
X60298500Y-153602453D01*
X60262915Y-153781354D01*
X60193111Y-153949876D01*
X60091772Y-154101541D01*
X59962791Y-154230522D01*
X59811126Y-154331861D01*
X59642604Y-154401665D01*
X59463703Y-154437250D01*
X59281297Y-154437250D01*
X59102396Y-154401665D01*
X58933874Y-154331861D01*
X58782209Y-154230522D01*
X58653228Y-154101541D01*
X58551889Y-153949876D01*
X58482085Y-153781354D01*
X58446500Y-153602453D01*
X58446500Y-153420047D01*
X58482085Y-153241146D01*
X58551889Y-153072624D01*
X58653228Y-152920959D01*
X58782209Y-152791978D01*
X58933874Y-152690639D01*
X59102396Y-152620835D01*
X59281297Y-152585250D01*
X59463703Y-152585250D01*
X59642604Y-152620835D01*
G37*
G36*
X130453974Y-149131934D02*
G01*
X130615849Y-149198985D01*
X130826123Y-149286083D01*
X131161048Y-149509873D01*
X131445877Y-149794702D01*
X131669667Y-150129627D01*
X131669667Y-150129628D01*
X131823816Y-150501776D01*
X131902400Y-150896844D01*
X131902400Y-151299656D01*
X131823816Y-151694724D01*
X131822010Y-151699083D01*
X131669667Y-152066873D01*
X131445877Y-152401798D01*
X131161048Y-152686627D01*
X130826123Y-152910417D01*
X130671974Y-152974267D01*
X130453974Y-153064566D01*
X130058906Y-153143150D01*
X129656094Y-153143150D01*
X129261026Y-153064566D01*
X129043026Y-152974267D01*
X128888877Y-152910417D01*
X128553952Y-152686627D01*
X128269123Y-152401798D01*
X128045333Y-152066873D01*
X127892990Y-151699083D01*
X127891184Y-151694724D01*
X127812600Y-151299656D01*
X127812600Y-150896844D01*
X127891184Y-150501776D01*
X128045333Y-150129628D01*
X128045333Y-150129627D01*
X128269123Y-149794702D01*
X128553952Y-149509873D01*
X128888877Y-149286083D01*
X129099151Y-149198985D01*
X129261026Y-149131934D01*
X129656094Y-149053350D01*
X130058906Y-149053350D01*
X130453974Y-149131934D01*
G37*
G36*
X115076911Y-149583776D02*
G01*
X115144499Y-149611772D01*
X115363541Y-149702502D01*
X115363542Y-149702503D01*
X115621504Y-149874867D01*
X115840883Y-150094246D01*
X115864524Y-150129628D01*
X116013248Y-150352209D01*
X116034071Y-150402481D01*
X116131974Y-150638839D01*
X116192500Y-150943126D01*
X116192500Y-151253374D01*
X116134506Y-151544934D01*
X116131974Y-151557660D01*
X116013248Y-151844291D01*
X116013247Y-151844292D01*
X115840883Y-152102254D01*
X115621504Y-152321633D01*
X115501528Y-152401798D01*
X115363541Y-152493998D01*
X115246137Y-152542628D01*
X115076911Y-152612724D01*
X114924767Y-152642987D01*
X114772625Y-152673250D01*
X114462375Y-152673250D01*
X114310233Y-152642987D01*
X114158089Y-152612724D01*
X113988863Y-152542628D01*
X113871459Y-152493998D01*
X113733472Y-152401798D01*
X113613496Y-152321633D01*
X113394117Y-152102254D01*
X113221753Y-151844292D01*
X113221752Y-151844291D01*
X113103026Y-151557660D01*
X113100495Y-151544934D01*
X113042500Y-151253374D01*
X113042500Y-150943126D01*
X113103026Y-150638839D01*
X113200929Y-150402481D01*
X113221752Y-150352209D01*
X113370476Y-150129628D01*
X113394117Y-150094246D01*
X113613496Y-149874867D01*
X113871458Y-149702503D01*
X113871459Y-149702502D01*
X114090501Y-149611772D01*
X114158089Y-149583776D01*
X114462375Y-149523250D01*
X114772625Y-149523250D01*
X115076911Y-149583776D01*
G37*
G36*
X74225728Y-149041703D02*
G01*
X74380600Y-149105853D01*
X74519981Y-149198985D01*
X74638515Y-149317519D01*
X74731647Y-149456900D01*
X74795797Y-149611772D01*
X74828500Y-149776184D01*
X74828500Y-149943816D01*
X74795797Y-150108228D01*
X74731647Y-150263100D01*
X74638515Y-150402481D01*
X74519981Y-150521015D01*
X74380600Y-150614147D01*
X74225728Y-150678297D01*
X74061316Y-150711000D01*
X73893684Y-150711000D01*
X73729272Y-150678297D01*
X73574400Y-150614147D01*
X73435019Y-150521015D01*
X73316485Y-150402481D01*
X73223353Y-150263100D01*
X73159203Y-150108228D01*
X73126500Y-149943816D01*
X73126500Y-149776184D01*
X73159203Y-149611772D01*
X73223353Y-149456900D01*
X73316485Y-149317519D01*
X73435019Y-149198985D01*
X73574400Y-149105853D01*
X73729272Y-149041703D01*
X73893684Y-149009000D01*
X74061316Y-149009000D01*
X74225728Y-149041703D01*
G37*
G36*
X93275728Y-149041703D02*
G01*
X93430600Y-149105853D01*
X93569981Y-149198985D01*
X93688515Y-149317519D01*
X93781647Y-149456900D01*
X93845797Y-149611772D01*
X93878500Y-149776184D01*
X93878500Y-149943816D01*
X93845797Y-150108228D01*
X93781647Y-150263100D01*
X93688515Y-150402481D01*
X93569981Y-150521015D01*
X93430600Y-150614147D01*
X93275728Y-150678297D01*
X93111316Y-150711000D01*
X92943684Y-150711000D01*
X92779272Y-150678297D01*
X92624400Y-150614147D01*
X92485019Y-150521015D01*
X92366485Y-150402481D01*
X92273353Y-150263100D01*
X92209203Y-150108228D01*
X92176500Y-149943816D01*
X92176500Y-149776184D01*
X92209203Y-149611772D01*
X92273353Y-149456900D01*
X92366485Y-149317519D01*
X92485019Y-149198985D01*
X92624400Y-149105853D01*
X92779272Y-149041703D01*
X92943684Y-149009000D01*
X93111316Y-149009000D01*
X93275728Y-149041703D01*
G37*
G36*
X100228500Y-144837250D02*
G01*
X98526500Y-144837250D01*
X98526500Y-143135250D01*
X100228500Y-143135250D01*
X100228500Y-144837250D01*
G37*
G36*
X126295728Y-143167953D02*
G01*
X126450600Y-143232103D01*
X126589981Y-143325235D01*
X126708515Y-143443769D01*
X126801647Y-143583150D01*
X126865797Y-143738022D01*
X126898500Y-143902434D01*
X126898500Y-144070066D01*
X126865797Y-144234478D01*
X126801647Y-144389350D01*
X126708515Y-144528731D01*
X126589981Y-144647265D01*
X126450600Y-144740397D01*
X126295728Y-144804547D01*
X126131316Y-144837250D01*
X125963684Y-144837250D01*
X125799272Y-144804547D01*
X125644400Y-144740397D01*
X125505019Y-144647265D01*
X125386485Y-144528731D01*
X125293353Y-144389350D01*
X125229203Y-144234478D01*
X125196500Y-144070066D01*
X125196500Y-143902434D01*
X125229203Y-143738022D01*
X125293353Y-143583150D01*
X125386485Y-143443769D01*
X125505019Y-143325235D01*
X125644400Y-143232103D01*
X125799272Y-143167953D01*
X125963684Y-143135250D01*
X126131316Y-143135250D01*
X126295728Y-143167953D01*
G37*
G36*
X119278500Y-144837250D02*
G01*
X117576500Y-144837250D01*
X117576500Y-143135250D01*
X119278500Y-143135250D01*
X119278500Y-144837250D01*
G37*
G36*
X107245728Y-143167953D02*
G01*
X107400600Y-143232103D01*
X107539981Y-143325235D01*
X107658515Y-143443769D01*
X107751647Y-143583150D01*
X107815797Y-143738022D01*
X107848500Y-143902434D01*
X107848500Y-144070066D01*
X107815797Y-144234478D01*
X107751647Y-144389350D01*
X107658515Y-144528731D01*
X107539981Y-144647265D01*
X107400600Y-144740397D01*
X107245728Y-144804547D01*
X107081316Y-144837250D01*
X106913684Y-144837250D01*
X106749272Y-144804547D01*
X106594400Y-144740397D01*
X106455019Y-144647265D01*
X106336485Y-144528731D01*
X106243353Y-144389350D01*
X106179203Y-144234478D01*
X106146500Y-144070066D01*
X106146500Y-143902434D01*
X106179203Y-143738022D01*
X106243353Y-143583150D01*
X106336485Y-143443769D01*
X106455019Y-143325235D01*
X106594400Y-143232103D01*
X106749272Y-143167953D01*
X106913684Y-143135250D01*
X107081316Y-143135250D01*
X107245728Y-143167953D01*
G37*
G36*
X74828500Y-139281000D02*
G01*
X73126500Y-139281000D01*
X73126500Y-137579000D01*
X74828500Y-137579000D01*
X74828500Y-139281000D01*
G37*
G36*
X93878500Y-139281000D02*
G01*
X92176500Y-139281000D01*
X92176500Y-137579000D01*
X93878500Y-137579000D01*
X93878500Y-139281000D01*
G37*
G36*
X130453974Y-134907934D02*
G01*
X130671974Y-134998233D01*
X130826123Y-135062083D01*
X131161048Y-135285873D01*
X131445877Y-135570702D01*
X131669667Y-135905627D01*
X131669667Y-135905628D01*
X131823816Y-136277776D01*
X131902400Y-136672844D01*
X131902400Y-137075656D01*
X131823816Y-137470724D01*
X131761863Y-137620291D01*
X131669667Y-137842873D01*
X131445877Y-138177798D01*
X131161048Y-138462627D01*
X130826123Y-138686417D01*
X130671974Y-138750267D01*
X130453974Y-138840566D01*
X130058906Y-138919150D01*
X129656094Y-138919150D01*
X129261026Y-138840566D01*
X129043026Y-138750267D01*
X128888877Y-138686417D01*
X128553952Y-138462627D01*
X128269123Y-138177798D01*
X128045333Y-137842873D01*
X127953137Y-137620291D01*
X127891184Y-137470724D01*
X127812600Y-137075656D01*
X127812600Y-136672844D01*
X127891184Y-136277776D01*
X128045333Y-135905628D01*
X128045333Y-135905627D01*
X128269123Y-135570702D01*
X128553952Y-135285873D01*
X128888877Y-135062083D01*
X129043026Y-134998233D01*
X129261026Y-134907934D01*
X129656094Y-134829350D01*
X130058906Y-134829350D01*
X130453974Y-134907934D01*
G37*
G36*
X114924767Y-135329513D02*
G01*
X115076911Y-135359776D01*
X115195637Y-135408954D01*
X115363541Y-135478502D01*
X115363542Y-135478503D01*
X115621504Y-135650867D01*
X115840883Y-135870246D01*
X115864524Y-135905628D01*
X116013248Y-136128209D01*
X116073395Y-136273417D01*
X116131974Y-136414839D01*
X116150137Y-136506150D01*
X116192500Y-136719125D01*
X116192500Y-137029375D01*
X116131974Y-137333660D01*
X116013248Y-137620291D01*
X116013247Y-137620292D01*
X115840883Y-137878254D01*
X115621504Y-138097633D01*
X115501528Y-138177798D01*
X115363541Y-138269998D01*
X115195637Y-138339546D01*
X115076911Y-138388724D01*
X114772625Y-138449250D01*
X114462375Y-138449250D01*
X114158089Y-138388724D01*
X114039363Y-138339546D01*
X113871459Y-138269998D01*
X113733472Y-138177798D01*
X113613496Y-138097633D01*
X113394117Y-137878254D01*
X113221753Y-137620292D01*
X113221752Y-137620291D01*
X113103026Y-137333660D01*
X113042500Y-137029375D01*
X113042500Y-136719125D01*
X113084863Y-136506150D01*
X113103026Y-136414839D01*
X113161605Y-136273417D01*
X113221752Y-136128209D01*
X113370476Y-135905628D01*
X113394117Y-135870246D01*
X113613496Y-135650867D01*
X113871458Y-135478503D01*
X113871459Y-135478502D01*
X114039363Y-135408954D01*
X114158089Y-135359776D01*
X114310233Y-135329513D01*
X114462375Y-135299250D01*
X114772625Y-135299250D01*
X114924767Y-135329513D01*
G37*
G36*
X103148974Y-132494934D02*
G01*
X103366974Y-132585233D01*
X103521123Y-132649083D01*
X103856048Y-132872873D01*
X104140877Y-133157702D01*
X104364667Y-133492627D01*
X104397062Y-133570836D01*
X104518816Y-133864776D01*
X104597400Y-134259844D01*
X104597400Y-134662656D01*
X104518816Y-135057724D01*
X104467951Y-135180522D01*
X104364667Y-135429873D01*
X104140877Y-135764798D01*
X103856048Y-136049627D01*
X103521123Y-136273417D01*
X103366974Y-136337267D01*
X103148974Y-136427566D01*
X102753906Y-136506150D01*
X102351094Y-136506150D01*
X101956026Y-136427566D01*
X101738026Y-136337267D01*
X101583877Y-136273417D01*
X101248952Y-136049627D01*
X100964123Y-135764798D01*
X100740333Y-135429873D01*
X100637049Y-135180522D01*
X100586184Y-135057724D01*
X100507600Y-134662656D01*
X100507600Y-134259844D01*
X100586184Y-133864776D01*
X100707938Y-133570836D01*
X100740333Y-133492627D01*
X100964123Y-133157702D01*
X101248952Y-132872873D01*
X101583877Y-132649083D01*
X101738026Y-132585233D01*
X101956026Y-132494934D01*
X102351094Y-132416350D01*
X102753906Y-132416350D01*
X103148974Y-132494934D01*
G37*
G36*
X84098974Y-132494934D02*
G01*
X84316974Y-132585233D01*
X84471123Y-132649083D01*
X84806048Y-132872873D01*
X85090877Y-133157702D01*
X85314667Y-133492627D01*
X85347062Y-133570836D01*
X85468816Y-133864776D01*
X85547400Y-134259844D01*
X85547400Y-134662656D01*
X85468816Y-135057724D01*
X85417951Y-135180522D01*
X85314667Y-135429873D01*
X85090877Y-135764798D01*
X84806048Y-136049627D01*
X84471123Y-136273417D01*
X84316974Y-136337267D01*
X84098974Y-136427566D01*
X83703906Y-136506150D01*
X83301094Y-136506150D01*
X82906026Y-136427566D01*
X82688026Y-136337267D01*
X82533877Y-136273417D01*
X82198952Y-136049627D01*
X81914123Y-135764798D01*
X81690333Y-135429873D01*
X81587049Y-135180522D01*
X81536184Y-135057724D01*
X81457600Y-134662656D01*
X81457600Y-134259844D01*
X81536184Y-133864776D01*
X81657938Y-133570836D01*
X81690333Y-133492627D01*
X81914123Y-133157702D01*
X82198952Y-132872873D01*
X82533877Y-132649083D01*
X82688026Y-132585233D01*
X82906026Y-132494934D01*
X83301094Y-132416350D01*
X83703906Y-132416350D01*
X84098974Y-132494934D01*
G37*
G36*
X65048974Y-132494934D02*
G01*
X65266974Y-132585233D01*
X65421123Y-132649083D01*
X65756048Y-132872873D01*
X66040877Y-133157702D01*
X66264667Y-133492627D01*
X66297062Y-133570836D01*
X66418816Y-133864776D01*
X66497400Y-134259844D01*
X66497400Y-134662656D01*
X66418816Y-135057724D01*
X66367951Y-135180522D01*
X66264667Y-135429873D01*
X66040877Y-135764798D01*
X65756048Y-136049627D01*
X65421123Y-136273417D01*
X65266974Y-136337267D01*
X65048974Y-136427566D01*
X64653906Y-136506150D01*
X64251094Y-136506150D01*
X63856026Y-136427566D01*
X63638026Y-136337267D01*
X63483877Y-136273417D01*
X63148952Y-136049627D01*
X62864123Y-135764798D01*
X62640333Y-135429873D01*
X62537049Y-135180522D01*
X62486184Y-135057724D01*
X62407600Y-134662656D01*
X62407600Y-134259844D01*
X62486184Y-133864776D01*
X62607938Y-133570836D01*
X62640333Y-133492627D01*
X62864123Y-133157702D01*
X63148952Y-132872873D01*
X63483877Y-132649083D01*
X63638026Y-132585233D01*
X63856026Y-132494934D01*
X64251094Y-132416350D01*
X64653906Y-132416350D01*
X65048974Y-132494934D01*
G37*
G36*
X59642604Y-133570835D02*
G01*
X59811126Y-133640639D01*
X59962791Y-133741978D01*
X60091772Y-133870959D01*
X60193111Y-134022624D01*
X60262915Y-134191146D01*
X60298500Y-134370047D01*
X60298500Y-134552453D01*
X60262915Y-134731354D01*
X60193111Y-134899876D01*
X60091772Y-135051541D01*
X59962791Y-135180522D01*
X59811126Y-135281861D01*
X59642604Y-135351665D01*
X59463703Y-135387250D01*
X59281297Y-135387250D01*
X59102396Y-135351665D01*
X58933874Y-135281861D01*
X58782209Y-135180522D01*
X58653228Y-135051541D01*
X58551889Y-134899876D01*
X58482085Y-134731354D01*
X58446500Y-134552453D01*
X58446500Y-134370047D01*
X58482085Y-134191146D01*
X58551889Y-134022624D01*
X58653228Y-133870959D01*
X58782209Y-133741978D01*
X58933874Y-133640639D01*
X59102396Y-133570835D01*
X59281297Y-133535250D01*
X59463703Y-133535250D01*
X59642604Y-133570835D01*
G37*
G36*
X69802604Y-133570835D02*
G01*
X69971126Y-133640639D01*
X70122791Y-133741978D01*
X70251772Y-133870959D01*
X70353111Y-134022624D01*
X70422915Y-134191146D01*
X70458500Y-134370047D01*
X70458500Y-134552453D01*
X70422915Y-134731354D01*
X70353111Y-134899876D01*
X70251772Y-135051541D01*
X70122791Y-135180522D01*
X69971126Y-135281861D01*
X69802604Y-135351665D01*
X69623703Y-135387250D01*
X69441297Y-135387250D01*
X69262396Y-135351665D01*
X69093874Y-135281861D01*
X68942209Y-135180522D01*
X68813228Y-135051541D01*
X68711889Y-134899876D01*
X68642085Y-134731354D01*
X68606500Y-134552453D01*
X68606500Y-134370047D01*
X68642085Y-134191146D01*
X68711889Y-134022624D01*
X68813228Y-133870959D01*
X68942209Y-133741978D01*
X69093874Y-133640639D01*
X69262396Y-133570835D01*
X69441297Y-133535250D01*
X69623703Y-133535250D01*
X69802604Y-133570835D01*
G37*
G36*
X88852604Y-133570835D02*
G01*
X89021126Y-133640639D01*
X89172791Y-133741978D01*
X89301772Y-133870959D01*
X89403111Y-134022624D01*
X89472915Y-134191146D01*
X89508500Y-134370047D01*
X89508500Y-134552453D01*
X89472915Y-134731354D01*
X89403111Y-134899876D01*
X89301772Y-135051541D01*
X89172791Y-135180522D01*
X89021126Y-135281861D01*
X88852604Y-135351665D01*
X88673703Y-135387250D01*
X88491297Y-135387250D01*
X88312396Y-135351665D01*
X88143874Y-135281861D01*
X87992209Y-135180522D01*
X87863228Y-135051541D01*
X87761889Y-134899876D01*
X87692085Y-134731354D01*
X87656500Y-134552453D01*
X87656500Y-134370047D01*
X87692085Y-134191146D01*
X87761889Y-134022624D01*
X87863228Y-133870959D01*
X87992209Y-133741978D01*
X88143874Y-133640639D01*
X88312396Y-133570835D01*
X88491297Y-133535250D01*
X88673703Y-133535250D01*
X88852604Y-133570835D01*
G37*
G36*
X97742604Y-133570835D02*
G01*
X97911126Y-133640639D01*
X98062791Y-133741978D01*
X98191772Y-133870959D01*
X98293111Y-134022624D01*
X98362915Y-134191146D01*
X98398500Y-134370047D01*
X98398500Y-134552453D01*
X98362915Y-134731354D01*
X98293111Y-134899876D01*
X98191772Y-135051541D01*
X98062791Y-135180522D01*
X97911126Y-135281861D01*
X97742604Y-135351665D01*
X97563703Y-135387250D01*
X97381297Y-135387250D01*
X97202396Y-135351665D01*
X97033874Y-135281861D01*
X96882209Y-135180522D01*
X96753228Y-135051541D01*
X96651889Y-134899876D01*
X96582085Y-134731354D01*
X96546500Y-134552453D01*
X96546500Y-134370047D01*
X96582085Y-134191146D01*
X96651889Y-134022624D01*
X96753228Y-133870959D01*
X96882209Y-133741978D01*
X97033874Y-133640639D01*
X97202396Y-133570835D01*
X97381297Y-133535250D01*
X97563703Y-133535250D01*
X97742604Y-133570835D01*
G37*
G36*
X107902604Y-133570835D02*
G01*
X108071126Y-133640639D01*
X108222791Y-133741978D01*
X108351772Y-133870959D01*
X108453111Y-134022624D01*
X108522915Y-134191146D01*
X108558500Y-134370047D01*
X108558500Y-134552453D01*
X108522915Y-134731354D01*
X108453111Y-134899876D01*
X108351772Y-135051541D01*
X108222791Y-135180522D01*
X108071126Y-135281861D01*
X107902604Y-135351665D01*
X107723703Y-135387250D01*
X107541297Y-135387250D01*
X107362396Y-135351665D01*
X107193874Y-135281861D01*
X107042209Y-135180522D01*
X106913228Y-135051541D01*
X106811889Y-134899876D01*
X106742085Y-134731354D01*
X106706500Y-134552453D01*
X106706500Y-134370047D01*
X106742085Y-134191146D01*
X106811889Y-134022624D01*
X106913228Y-133870959D01*
X107042209Y-133741978D01*
X107193874Y-133640639D01*
X107362396Y-133570835D01*
X107541297Y-133535250D01*
X107723703Y-133535250D01*
X107902604Y-133570835D01*
G37*
G36*
X78692604Y-133570835D02*
G01*
X78861126Y-133640639D01*
X79012791Y-133741978D01*
X79141772Y-133870959D01*
X79243111Y-134022624D01*
X79312915Y-134191146D01*
X79348500Y-134370047D01*
X79348500Y-134552453D01*
X79312915Y-134731354D01*
X79243111Y-134899876D01*
X79141772Y-135051541D01*
X79012791Y-135180522D01*
X78861126Y-135281861D01*
X78692604Y-135351665D01*
X78513703Y-135387250D01*
X78331297Y-135387250D01*
X78152396Y-135351665D01*
X77983874Y-135281861D01*
X77832209Y-135180522D01*
X77703228Y-135051541D01*
X77601889Y-134899876D01*
X77532085Y-134731354D01*
X77496500Y-134552453D01*
X77496500Y-134370047D01*
X77532085Y-134191146D01*
X77601889Y-134022624D01*
X77703228Y-133870959D01*
X77832209Y-133741978D01*
X77983874Y-133640639D01*
X78152396Y-133570835D01*
X78331297Y-133535250D01*
X78513703Y-133535250D01*
X78692604Y-133570835D01*
G37*
G36*
X74225728Y-129991703D02*
G01*
X74380600Y-130055853D01*
X74519981Y-130148985D01*
X74638515Y-130267519D01*
X74731647Y-130406900D01*
X74795797Y-130561772D01*
X74828500Y-130726184D01*
X74828500Y-130893816D01*
X74795797Y-131058228D01*
X74731647Y-131213100D01*
X74638515Y-131352481D01*
X74519981Y-131471015D01*
X74380600Y-131564147D01*
X74225728Y-131628297D01*
X74061316Y-131661000D01*
X73893684Y-131661000D01*
X73729272Y-131628297D01*
X73574400Y-131564147D01*
X73435019Y-131471015D01*
X73316485Y-131352481D01*
X73223353Y-131213100D01*
X73159203Y-131058228D01*
X73126500Y-130893816D01*
X73126500Y-130726184D01*
X73159203Y-130561772D01*
X73223353Y-130406900D01*
X73316485Y-130267519D01*
X73435019Y-130148985D01*
X73574400Y-130055853D01*
X73729272Y-129991703D01*
X73893684Y-129959000D01*
X74061316Y-129959000D01*
X74225728Y-129991703D01*
G37*
G36*
X93275728Y-129991703D02*
G01*
X93430600Y-130055853D01*
X93569981Y-130148985D01*
X93688515Y-130267519D01*
X93781647Y-130406900D01*
X93845797Y-130561772D01*
X93878500Y-130726184D01*
X93878500Y-130893816D01*
X93845797Y-131058228D01*
X93781647Y-131213100D01*
X93688515Y-131352481D01*
X93569981Y-131471015D01*
X93430600Y-131564147D01*
X93275728Y-131628297D01*
X93111316Y-131661000D01*
X92943684Y-131661000D01*
X92779272Y-131628297D01*
X92624400Y-131564147D01*
X92485019Y-131471015D01*
X92366485Y-131352481D01*
X92273353Y-131213100D01*
X92209203Y-131058228D01*
X92176500Y-130893816D01*
X92176500Y-130726184D01*
X92209203Y-130561772D01*
X92273353Y-130406900D01*
X92366485Y-130267519D01*
X92485019Y-130148985D01*
X92624400Y-130055853D01*
X92779272Y-129991703D01*
X92943684Y-129959000D01*
X93111316Y-129959000D01*
X93275728Y-129991703D01*
G37*
G36*
X121872604Y-129125835D02*
G01*
X122041126Y-129195639D01*
X122192791Y-129296978D01*
X122321772Y-129425959D01*
X122423111Y-129577624D01*
X122492915Y-129746146D01*
X122528500Y-129925047D01*
X122528500Y-130107453D01*
X122492915Y-130286354D01*
X122423111Y-130454876D01*
X122321772Y-130606541D01*
X122192791Y-130735522D01*
X122041126Y-130836861D01*
X121872604Y-130906665D01*
X121693703Y-130942250D01*
X121511297Y-130942250D01*
X121332396Y-130906665D01*
X121163874Y-130836861D01*
X121012209Y-130735522D01*
X120883228Y-130606541D01*
X120781889Y-130454876D01*
X120712085Y-130286354D01*
X120676500Y-130107453D01*
X120676500Y-129925047D01*
X120712085Y-129746146D01*
X120781889Y-129577624D01*
X120883228Y-129425959D01*
X121012209Y-129296978D01*
X121163874Y-129195639D01*
X121332396Y-129125835D01*
X121511297Y-129090250D01*
X121693703Y-129090250D01*
X121872604Y-129125835D01*
G37*
G36*
X122198974Y-122969934D02*
G01*
X122416974Y-123060233D01*
X122571123Y-123124083D01*
X122906048Y-123347873D01*
X123190877Y-123632702D01*
X123414667Y-123967627D01*
X123414667Y-123967628D01*
X123568816Y-124339776D01*
X123647400Y-124734844D01*
X123647400Y-125137656D01*
X123568816Y-125532724D01*
X123503505Y-125690398D01*
X123414667Y-125904873D01*
X123190877Y-126239798D01*
X122906048Y-126524627D01*
X122571123Y-126748417D01*
X122416974Y-126812267D01*
X122198974Y-126902566D01*
X121803906Y-126981150D01*
X121401094Y-126981150D01*
X121006026Y-126902566D01*
X120788026Y-126812267D01*
X120633877Y-126748417D01*
X120298952Y-126524627D01*
X120014123Y-126239798D01*
X119790333Y-125904873D01*
X119701495Y-125690398D01*
X119636184Y-125532724D01*
X119557600Y-125137656D01*
X119557600Y-124734844D01*
X119636184Y-124339776D01*
X119790333Y-123967628D01*
X119790333Y-123967627D01*
X120014123Y-123632702D01*
X120298952Y-123347873D01*
X120633877Y-123124083D01*
X120788026Y-123060233D01*
X121006026Y-122969934D01*
X121401094Y-122891350D01*
X121803906Y-122891350D01*
X122198974Y-122969934D01*
G37*
G36*
X107245728Y-124117953D02*
G01*
X107400600Y-124182103D01*
X107539981Y-124275235D01*
X107658515Y-124393769D01*
X107751647Y-124533150D01*
X107815797Y-124688022D01*
X107848500Y-124852434D01*
X107848500Y-125020066D01*
X107815797Y-125184478D01*
X107751647Y-125339350D01*
X107658515Y-125478731D01*
X107539981Y-125597265D01*
X107400600Y-125690397D01*
X107245728Y-125754547D01*
X107081316Y-125787250D01*
X106913684Y-125787250D01*
X106749272Y-125754547D01*
X106594400Y-125690397D01*
X106455019Y-125597265D01*
X106336485Y-125478731D01*
X106243353Y-125339350D01*
X106179203Y-125184478D01*
X106146500Y-125020066D01*
X106146500Y-124852434D01*
X106179203Y-124688022D01*
X106243353Y-124533150D01*
X106336485Y-124393769D01*
X106455019Y-124275235D01*
X106594400Y-124182103D01*
X106749272Y-124117953D01*
X106913684Y-124085250D01*
X107081316Y-124085250D01*
X107245728Y-124117953D01*
G37*
G36*
X100228500Y-125787250D02*
G01*
X98526500Y-125787250D01*
X98526500Y-124085250D01*
X100228500Y-124085250D01*
X100228500Y-125787250D01*
G37*
G36*
X121872604Y-118965835D02*
G01*
X122041126Y-119035639D01*
X122192791Y-119136978D01*
X122321772Y-119265959D01*
X122423111Y-119417624D01*
X122492915Y-119586146D01*
X122528500Y-119765047D01*
X122528500Y-119947453D01*
X122492915Y-120126354D01*
X122423111Y-120294876D01*
X122321772Y-120446541D01*
X122192791Y-120575522D01*
X122041126Y-120676861D01*
X121872604Y-120746665D01*
X121693703Y-120782250D01*
X121511297Y-120782250D01*
X121332396Y-120746665D01*
X121163874Y-120676861D01*
X121012209Y-120575522D01*
X120883228Y-120446541D01*
X120781889Y-120294876D01*
X120712085Y-120126354D01*
X120676500Y-119947453D01*
X120676500Y-119765047D01*
X120712085Y-119586146D01*
X120781889Y-119417624D01*
X120883228Y-119265959D01*
X121012209Y-119136978D01*
X121163874Y-119035639D01*
X121332396Y-118965835D01*
X121511297Y-118930250D01*
X121693703Y-118930250D01*
X121872604Y-118965835D01*
G37*
G36*
X74828500Y-120231000D02*
G01*
X73126500Y-120231000D01*
X73126500Y-118529000D01*
X74828500Y-118529000D01*
X74828500Y-120231000D01*
G37*
G36*
X93878500Y-120231000D02*
G01*
X92176500Y-120231000D01*
X92176500Y-118529000D01*
X93878500Y-118529000D01*
X93878500Y-120231000D01*
G37*
G36*
X65048974Y-113444934D02*
G01*
X65266974Y-113535233D01*
X65421123Y-113599083D01*
X65756048Y-113822873D01*
X66040877Y-114107702D01*
X66264667Y-114442627D01*
X66324313Y-114586627D01*
X66418816Y-114814776D01*
X66497400Y-115209844D01*
X66497400Y-115612656D01*
X66418816Y-116007724D01*
X66367951Y-116130522D01*
X66264667Y-116379873D01*
X66040877Y-116714798D01*
X65756048Y-116999627D01*
X65421123Y-117223417D01*
X65266974Y-117287267D01*
X65048974Y-117377566D01*
X64653906Y-117456150D01*
X64251094Y-117456150D01*
X63856026Y-117377566D01*
X63638026Y-117287267D01*
X63483877Y-117223417D01*
X63148952Y-116999627D01*
X62864123Y-116714798D01*
X62640333Y-116379873D01*
X62537049Y-116130522D01*
X62486184Y-116007724D01*
X62407600Y-115612656D01*
X62407600Y-115209844D01*
X62486184Y-114814776D01*
X62580687Y-114586627D01*
X62640333Y-114442627D01*
X62864123Y-114107702D01*
X63148952Y-113822873D01*
X63483877Y-113599083D01*
X63638026Y-113535233D01*
X63856026Y-113444934D01*
X64251094Y-113366350D01*
X64653906Y-113366350D01*
X65048974Y-113444934D01*
G37*
G36*
X84098974Y-113444934D02*
G01*
X84316974Y-113535233D01*
X84471123Y-113599083D01*
X84806048Y-113822873D01*
X85090877Y-114107702D01*
X85314667Y-114442627D01*
X85374313Y-114586627D01*
X85468816Y-114814776D01*
X85547400Y-115209844D01*
X85547400Y-115612656D01*
X85468816Y-116007724D01*
X85417951Y-116130522D01*
X85314667Y-116379873D01*
X85090877Y-116714798D01*
X84806048Y-116999627D01*
X84471123Y-117223417D01*
X84316974Y-117287267D01*
X84098974Y-117377566D01*
X83703906Y-117456150D01*
X83301094Y-117456150D01*
X82906026Y-117377566D01*
X82688026Y-117287267D01*
X82533877Y-117223417D01*
X82198952Y-116999627D01*
X81914123Y-116714798D01*
X81690333Y-116379873D01*
X81587049Y-116130522D01*
X81536184Y-116007724D01*
X81457600Y-115612656D01*
X81457600Y-115209844D01*
X81536184Y-114814776D01*
X81630687Y-114586627D01*
X81690333Y-114442627D01*
X81914123Y-114107702D01*
X82198952Y-113822873D01*
X82533877Y-113599083D01*
X82688026Y-113535233D01*
X82906026Y-113444934D01*
X83301094Y-113366350D01*
X83703906Y-113366350D01*
X84098974Y-113444934D01*
G37*
G36*
X103148974Y-113444934D02*
G01*
X103366974Y-113535233D01*
X103521123Y-113599083D01*
X103856048Y-113822873D01*
X104140877Y-114107702D01*
X104364667Y-114442627D01*
X104424313Y-114586627D01*
X104518816Y-114814776D01*
X104597400Y-115209844D01*
X104597400Y-115612656D01*
X104518816Y-116007724D01*
X104467951Y-116130522D01*
X104364667Y-116379873D01*
X104140877Y-116714798D01*
X103856048Y-116999627D01*
X103521123Y-117223417D01*
X103366974Y-117287267D01*
X103148974Y-117377566D01*
X102753906Y-117456150D01*
X102351094Y-117456150D01*
X101956026Y-117377566D01*
X101738026Y-117287267D01*
X101583877Y-117223417D01*
X101248952Y-116999627D01*
X100964123Y-116714798D01*
X100740333Y-116379873D01*
X100637049Y-116130522D01*
X100586184Y-116007724D01*
X100507600Y-115612656D01*
X100507600Y-115209844D01*
X100586184Y-114814776D01*
X100680687Y-114586627D01*
X100740333Y-114442627D01*
X100964123Y-114107702D01*
X101248952Y-113822873D01*
X101583877Y-113599083D01*
X101738026Y-113535233D01*
X101956026Y-113444934D01*
X102351094Y-113366350D01*
X102753906Y-113366350D01*
X103148974Y-113444934D01*
G37*
G36*
X69802604Y-114520835D02*
G01*
X69971126Y-114590639D01*
X70122791Y-114691978D01*
X70251772Y-114820959D01*
X70353111Y-114972624D01*
X70422915Y-115141146D01*
X70458500Y-115320047D01*
X70458500Y-115502453D01*
X70422915Y-115681354D01*
X70353111Y-115849876D01*
X70251772Y-116001541D01*
X70122791Y-116130522D01*
X69971126Y-116231861D01*
X69802604Y-116301665D01*
X69623703Y-116337250D01*
X69441297Y-116337250D01*
X69262396Y-116301665D01*
X69093874Y-116231861D01*
X68942209Y-116130522D01*
X68813228Y-116001541D01*
X68711889Y-115849876D01*
X68642085Y-115681354D01*
X68606500Y-115502453D01*
X68606500Y-115320047D01*
X68642085Y-115141146D01*
X68711889Y-114972624D01*
X68813228Y-114820959D01*
X68942209Y-114691978D01*
X69093874Y-114590639D01*
X69262396Y-114520835D01*
X69441297Y-114485250D01*
X69623703Y-114485250D01*
X69802604Y-114520835D01*
G37*
G36*
X78692604Y-114520835D02*
G01*
X78861126Y-114590639D01*
X79012791Y-114691978D01*
X79141772Y-114820959D01*
X79243111Y-114972624D01*
X79312915Y-115141146D01*
X79348500Y-115320047D01*
X79348500Y-115502453D01*
X79312915Y-115681354D01*
X79243111Y-115849876D01*
X79141772Y-116001541D01*
X79012791Y-116130522D01*
X78861126Y-116231861D01*
X78692604Y-116301665D01*
X78513703Y-116337250D01*
X78331297Y-116337250D01*
X78152396Y-116301665D01*
X77983874Y-116231861D01*
X77832209Y-116130522D01*
X77703228Y-116001541D01*
X77601889Y-115849876D01*
X77532085Y-115681354D01*
X77496500Y-115502453D01*
X77496500Y-115320047D01*
X77532085Y-115141146D01*
X77601889Y-114972624D01*
X77703228Y-114820959D01*
X77832209Y-114691978D01*
X77983874Y-114590639D01*
X78152396Y-114520835D01*
X78331297Y-114485250D01*
X78513703Y-114485250D01*
X78692604Y-114520835D01*
G37*
G36*
X88852604Y-114520835D02*
G01*
X89021126Y-114590639D01*
X89172791Y-114691978D01*
X89301772Y-114820959D01*
X89403111Y-114972624D01*
X89472915Y-115141146D01*
X89508500Y-115320047D01*
X89508500Y-115502453D01*
X89472915Y-115681354D01*
X89403111Y-115849876D01*
X89301772Y-116001541D01*
X89172791Y-116130522D01*
X89021126Y-116231861D01*
X88852604Y-116301665D01*
X88673703Y-116337250D01*
X88491297Y-116337250D01*
X88312396Y-116301665D01*
X88143874Y-116231861D01*
X87992209Y-116130522D01*
X87863228Y-116001541D01*
X87761889Y-115849876D01*
X87692085Y-115681354D01*
X87656500Y-115502453D01*
X87656500Y-115320047D01*
X87692085Y-115141146D01*
X87761889Y-114972624D01*
X87863228Y-114820959D01*
X87992209Y-114691978D01*
X88143874Y-114590639D01*
X88312396Y-114520835D01*
X88491297Y-114485250D01*
X88673703Y-114485250D01*
X88852604Y-114520835D01*
G37*
G36*
X107902604Y-114520835D02*
G01*
X108071126Y-114590639D01*
X108222791Y-114691978D01*
X108351772Y-114820959D01*
X108453111Y-114972624D01*
X108522915Y-115141146D01*
X108558500Y-115320047D01*
X108558500Y-115502453D01*
X108522915Y-115681354D01*
X108453111Y-115849876D01*
X108351772Y-116001541D01*
X108222791Y-116130522D01*
X108071126Y-116231861D01*
X107902604Y-116301665D01*
X107723703Y-116337250D01*
X107541297Y-116337250D01*
X107362396Y-116301665D01*
X107193874Y-116231861D01*
X107042209Y-116130522D01*
X106913228Y-116001541D01*
X106811889Y-115849876D01*
X106742085Y-115681354D01*
X106706500Y-115502453D01*
X106706500Y-115320047D01*
X106742085Y-115141146D01*
X106811889Y-114972624D01*
X106913228Y-114820959D01*
X107042209Y-114691978D01*
X107193874Y-114590639D01*
X107362396Y-114520835D01*
X107541297Y-114485250D01*
X107723703Y-114485250D01*
X107902604Y-114520835D01*
G37*
G36*
X97742604Y-114520835D02*
G01*
X97911126Y-114590639D01*
X98062791Y-114691978D01*
X98191772Y-114820959D01*
X98293111Y-114972624D01*
X98362915Y-115141146D01*
X98398500Y-115320047D01*
X98398500Y-115502453D01*
X98362915Y-115681354D01*
X98293111Y-115849876D01*
X98191772Y-116001541D01*
X98062791Y-116130522D01*
X97911126Y-116231861D01*
X97742604Y-116301665D01*
X97563703Y-116337250D01*
X97381297Y-116337250D01*
X97202396Y-116301665D01*
X97033874Y-116231861D01*
X96882209Y-116130522D01*
X96753228Y-116001541D01*
X96651889Y-115849876D01*
X96582085Y-115681354D01*
X96546500Y-115502453D01*
X96546500Y-115320047D01*
X96582085Y-115141146D01*
X96651889Y-114972624D01*
X96753228Y-114820959D01*
X96882209Y-114691978D01*
X97033874Y-114590639D01*
X97202396Y-114520835D01*
X97381297Y-114485250D01*
X97563703Y-114485250D01*
X97742604Y-114520835D01*
G37*
G36*
X59642604Y-114520835D02*
G01*
X59811126Y-114590639D01*
X59962791Y-114691978D01*
X60091772Y-114820959D01*
X60193111Y-114972624D01*
X60262915Y-115141146D01*
X60298500Y-115320047D01*
X60298500Y-115502453D01*
X60262915Y-115681354D01*
X60193111Y-115849876D01*
X60091772Y-116001541D01*
X59962791Y-116130522D01*
X59811126Y-116231861D01*
X59642604Y-116301665D01*
X59463703Y-116337250D01*
X59281297Y-116337250D01*
X59102396Y-116301665D01*
X58933874Y-116231861D01*
X58782209Y-116130522D01*
X58653228Y-116001541D01*
X58551889Y-115849876D01*
X58482085Y-115681354D01*
X58446500Y-115502453D01*
X58446500Y-115320047D01*
X58482085Y-115141146D01*
X58551889Y-114972624D01*
X58653228Y-114820959D01*
X58782209Y-114691978D01*
X58933874Y-114590639D01*
X59102396Y-114520835D01*
X59281297Y-114485250D01*
X59463703Y-114485250D01*
X59642604Y-114520835D01*
G37*
G36*
X130453974Y-111031934D02*
G01*
X130615849Y-111098985D01*
X130826123Y-111186083D01*
X131161048Y-111409873D01*
X131445877Y-111694702D01*
X131669667Y-112029627D01*
X131669667Y-112029628D01*
X131823816Y-112401776D01*
X131902400Y-112796844D01*
X131902400Y-113199656D01*
X131823816Y-113594724D01*
X131822010Y-113599083D01*
X131669667Y-113966873D01*
X131445877Y-114301798D01*
X131161048Y-114586627D01*
X130826123Y-114810417D01*
X130671974Y-114874267D01*
X130453974Y-114964566D01*
X130058906Y-115043150D01*
X129656094Y-115043150D01*
X129261026Y-114964566D01*
X129043026Y-114874267D01*
X128888877Y-114810417D01*
X128553952Y-114586627D01*
X128269123Y-114301798D01*
X128045333Y-113966873D01*
X127892990Y-113599083D01*
X127891184Y-113594724D01*
X127812600Y-113199656D01*
X127812600Y-112796844D01*
X127891184Y-112401776D01*
X128045333Y-112029628D01*
X128045333Y-112029627D01*
X128269123Y-111694702D01*
X128553952Y-111409873D01*
X128888877Y-111186083D01*
X129099151Y-111098985D01*
X129261026Y-111031934D01*
X129656094Y-110953350D01*
X130058906Y-110953350D01*
X130453974Y-111031934D01*
G37*
G36*
X114924767Y-111453513D02*
G01*
X115076911Y-111483776D01*
X115144499Y-111511772D01*
X115363541Y-111602502D01*
X115363542Y-111602503D01*
X115621504Y-111774867D01*
X115840883Y-111994246D01*
X115864524Y-112029628D01*
X116013248Y-112252209D01*
X116034071Y-112302481D01*
X116131974Y-112538839D01*
X116192500Y-112843126D01*
X116192500Y-113153374D01*
X116134506Y-113444934D01*
X116131974Y-113457660D01*
X116013248Y-113744291D01*
X116013247Y-113744292D01*
X115840883Y-114002254D01*
X115621504Y-114221633D01*
X115501528Y-114301798D01*
X115363541Y-114393998D01*
X115246137Y-114442628D01*
X115076911Y-114512724D01*
X114924767Y-114542987D01*
X114772625Y-114573250D01*
X114462375Y-114573250D01*
X114310233Y-114542987D01*
X114158089Y-114512724D01*
X113988863Y-114442628D01*
X113871459Y-114393998D01*
X113733472Y-114301798D01*
X113613496Y-114221633D01*
X113394117Y-114002254D01*
X113221753Y-113744292D01*
X113221752Y-113744291D01*
X113103026Y-113457660D01*
X113100495Y-113444934D01*
X113042500Y-113153374D01*
X113042500Y-112843126D01*
X113103026Y-112538839D01*
X113200929Y-112302481D01*
X113221752Y-112252209D01*
X113370476Y-112029628D01*
X113394117Y-111994246D01*
X113613496Y-111774867D01*
X113871458Y-111602503D01*
X113871459Y-111602502D01*
X114090501Y-111511772D01*
X114158089Y-111483776D01*
X114310233Y-111453513D01*
X114462375Y-111423250D01*
X114772625Y-111423250D01*
X114924767Y-111453513D01*
G37*
G36*
X74225728Y-110941703D02*
G01*
X74380600Y-111005853D01*
X74519981Y-111098985D01*
X74638515Y-111217519D01*
X74731647Y-111356900D01*
X74795797Y-111511772D01*
X74828500Y-111676184D01*
X74828500Y-111843816D01*
X74795797Y-112008228D01*
X74731647Y-112163100D01*
X74638515Y-112302481D01*
X74519981Y-112421015D01*
X74380600Y-112514147D01*
X74225728Y-112578297D01*
X74061316Y-112611000D01*
X73893684Y-112611000D01*
X73729272Y-112578297D01*
X73574400Y-112514147D01*
X73435019Y-112421015D01*
X73316485Y-112302481D01*
X73223353Y-112163100D01*
X73159203Y-112008228D01*
X73126500Y-111843816D01*
X73126500Y-111676184D01*
X73159203Y-111511772D01*
X73223353Y-111356900D01*
X73316485Y-111217519D01*
X73435019Y-111098985D01*
X73574400Y-111005853D01*
X73729272Y-110941703D01*
X73893684Y-110909000D01*
X74061316Y-110909000D01*
X74225728Y-110941703D01*
G37*
G36*
X93275728Y-110941703D02*
G01*
X93430600Y-111005853D01*
X93569981Y-111098985D01*
X93688515Y-111217519D01*
X93781647Y-111356900D01*
X93845797Y-111511772D01*
X93878500Y-111676184D01*
X93878500Y-111843816D01*
X93845797Y-112008228D01*
X93781647Y-112163100D01*
X93688515Y-112302481D01*
X93569981Y-112421015D01*
X93430600Y-112514147D01*
X93275728Y-112578297D01*
X93111316Y-112611000D01*
X92943684Y-112611000D01*
X92779272Y-112578297D01*
X92624400Y-112514147D01*
X92485019Y-112421015D01*
X92366485Y-112302481D01*
X92273353Y-112163100D01*
X92209203Y-112008228D01*
X92176500Y-111843816D01*
X92176500Y-111676184D01*
X92209203Y-111511772D01*
X92273353Y-111356900D01*
X92366485Y-111217519D01*
X92485019Y-111098985D01*
X92624400Y-111005853D01*
X92779272Y-110941703D01*
X92943684Y-110909000D01*
X93111316Y-110909000D01*
X93275728Y-110941703D01*
G37*
G36*
X119278500Y-107531000D02*
G01*
X117576500Y-107531000D01*
X117576500Y-105829000D01*
X119278500Y-105829000D01*
X119278500Y-107531000D01*
G37*
G36*
X126295728Y-105861703D02*
G01*
X126450600Y-105925853D01*
X126589981Y-106018985D01*
X126708515Y-106137519D01*
X126801647Y-106276900D01*
X126865797Y-106431772D01*
X126898500Y-106596184D01*
X126898500Y-106763816D01*
X126865797Y-106928228D01*
X126801647Y-107083100D01*
X126708515Y-107222481D01*
X126589981Y-107341015D01*
X126450600Y-107434147D01*
X126295728Y-107498297D01*
X126131316Y-107531000D01*
X125963684Y-107531000D01*
X125799272Y-107498297D01*
X125644400Y-107434147D01*
X125505019Y-107341015D01*
X125386485Y-107222481D01*
X125293353Y-107083100D01*
X125229203Y-106928228D01*
X125196500Y-106763816D01*
X125196500Y-106596184D01*
X125229203Y-106431772D01*
X125293353Y-106276900D01*
X125386485Y-106137519D01*
X125505019Y-106018985D01*
X125644400Y-105925853D01*
X125799272Y-105861703D01*
X125963684Y-105829000D01*
X126131316Y-105829000D01*
X126295728Y-105861703D01*
G37*
G36*
X74828500Y-101181000D02*
G01*
X73126500Y-101181000D01*
X73126500Y-99479000D01*
X74828500Y-99479000D01*
X74828500Y-101181000D01*
G37*
G36*
X93878500Y-101181000D02*
G01*
X92176500Y-101181000D01*
X92176500Y-99479000D01*
X93878500Y-99479000D01*
X93878500Y-101181000D01*
G37*
G36*
X112928500Y-101181000D02*
G01*
X111226500Y-101181000D01*
X111226500Y-99479000D01*
X112928500Y-99479000D01*
X112928500Y-101181000D01*
G37*
G36*
X84098974Y-94394934D02*
G01*
X84316974Y-94485233D01*
X84471123Y-94549083D01*
X84806048Y-94772873D01*
X85090877Y-95057702D01*
X85314667Y-95392627D01*
X85347062Y-95470836D01*
X85468816Y-95764776D01*
X85547400Y-96159844D01*
X85547400Y-96562656D01*
X85468816Y-96957724D01*
X85417951Y-97080522D01*
X85314667Y-97329873D01*
X85090877Y-97664798D01*
X84806048Y-97949627D01*
X84471123Y-98173417D01*
X84316974Y-98237267D01*
X84098974Y-98327566D01*
X83703906Y-98406150D01*
X83301094Y-98406150D01*
X82906026Y-98327566D01*
X82688026Y-98237267D01*
X82533877Y-98173417D01*
X82198952Y-97949627D01*
X81914123Y-97664798D01*
X81690333Y-97329873D01*
X81587049Y-97080522D01*
X81536184Y-96957724D01*
X81457600Y-96562656D01*
X81457600Y-96159844D01*
X81536184Y-95764776D01*
X81657938Y-95470836D01*
X81690333Y-95392627D01*
X81914123Y-95057702D01*
X82198952Y-94772873D01*
X82533877Y-94549083D01*
X82688026Y-94485233D01*
X82906026Y-94394934D01*
X83301094Y-94316350D01*
X83703906Y-94316350D01*
X84098974Y-94394934D01*
G37*
G36*
X103148974Y-94394934D02*
G01*
X103366974Y-94485233D01*
X103521123Y-94549083D01*
X103856048Y-94772873D01*
X104140877Y-95057702D01*
X104364667Y-95392627D01*
X104397062Y-95470836D01*
X104518816Y-95764776D01*
X104597400Y-96159844D01*
X104597400Y-96562656D01*
X104518816Y-96957724D01*
X104467951Y-97080522D01*
X104364667Y-97329873D01*
X104140877Y-97664798D01*
X103856048Y-97949627D01*
X103521123Y-98173417D01*
X103366974Y-98237267D01*
X103148974Y-98327566D01*
X102753906Y-98406150D01*
X102351094Y-98406150D01*
X101956026Y-98327566D01*
X101738026Y-98237267D01*
X101583877Y-98173417D01*
X101248952Y-97949627D01*
X100964123Y-97664798D01*
X100740333Y-97329873D01*
X100637049Y-97080522D01*
X100586184Y-96957724D01*
X100507600Y-96562656D01*
X100507600Y-96159844D01*
X100586184Y-95764776D01*
X100707938Y-95470836D01*
X100740333Y-95392627D01*
X100964123Y-95057702D01*
X101248952Y-94772873D01*
X101583877Y-94549083D01*
X101738026Y-94485233D01*
X101956026Y-94394934D01*
X102351094Y-94316350D01*
X102753906Y-94316350D01*
X103148974Y-94394934D01*
G37*
G36*
X122198974Y-94394934D02*
G01*
X122416974Y-94485233D01*
X122571123Y-94549083D01*
X122906048Y-94772873D01*
X123190877Y-95057702D01*
X123414667Y-95392627D01*
X123447062Y-95470836D01*
X123568816Y-95764776D01*
X123647400Y-96159844D01*
X123647400Y-96562656D01*
X123568816Y-96957724D01*
X123517951Y-97080522D01*
X123414667Y-97329873D01*
X123190877Y-97664798D01*
X122906048Y-97949627D01*
X122571123Y-98173417D01*
X122416974Y-98237267D01*
X122198974Y-98327566D01*
X121803906Y-98406150D01*
X121401094Y-98406150D01*
X121006026Y-98327566D01*
X120788026Y-98237267D01*
X120633877Y-98173417D01*
X120298952Y-97949627D01*
X120014123Y-97664798D01*
X119790333Y-97329873D01*
X119687049Y-97080522D01*
X119636184Y-96957724D01*
X119557600Y-96562656D01*
X119557600Y-96159844D01*
X119636184Y-95764776D01*
X119757938Y-95470836D01*
X119790333Y-95392627D01*
X120014123Y-95057702D01*
X120298952Y-94772873D01*
X120633877Y-94549083D01*
X120788026Y-94485233D01*
X121006026Y-94394934D01*
X121401094Y-94316350D01*
X121803906Y-94316350D01*
X122198974Y-94394934D01*
G37*
G36*
X65048974Y-94394934D02*
G01*
X65266974Y-94485233D01*
X65421123Y-94549083D01*
X65756048Y-94772873D01*
X66040877Y-95057702D01*
X66264667Y-95392627D01*
X66297062Y-95470836D01*
X66418816Y-95764776D01*
X66497400Y-96159844D01*
X66497400Y-96562656D01*
X66418816Y-96957724D01*
X66367951Y-97080522D01*
X66264667Y-97329873D01*
X66040877Y-97664798D01*
X65756048Y-97949627D01*
X65421123Y-98173417D01*
X65266974Y-98237267D01*
X65048974Y-98327566D01*
X64653906Y-98406150D01*
X64251094Y-98406150D01*
X63856026Y-98327566D01*
X63638026Y-98237267D01*
X63483877Y-98173417D01*
X63148952Y-97949627D01*
X62864123Y-97664798D01*
X62640333Y-97329873D01*
X62537049Y-97080522D01*
X62486184Y-96957724D01*
X62407600Y-96562656D01*
X62407600Y-96159844D01*
X62486184Y-95764776D01*
X62607938Y-95470836D01*
X62640333Y-95392627D01*
X62864123Y-95057702D01*
X63148952Y-94772873D01*
X63483877Y-94549083D01*
X63638026Y-94485233D01*
X63856026Y-94394934D01*
X64251094Y-94316350D01*
X64653906Y-94316350D01*
X65048974Y-94394934D01*
G37*
G36*
X116792604Y-95470835D02*
G01*
X116961126Y-95540639D01*
X117112791Y-95641978D01*
X117241772Y-95770959D01*
X117343111Y-95922624D01*
X117412915Y-96091146D01*
X117448500Y-96270047D01*
X117448500Y-96452453D01*
X117412915Y-96631354D01*
X117343111Y-96799876D01*
X117241772Y-96951541D01*
X117112791Y-97080522D01*
X116961126Y-97181861D01*
X116792604Y-97251665D01*
X116613703Y-97287250D01*
X116431297Y-97287250D01*
X116252396Y-97251665D01*
X116083874Y-97181861D01*
X115932209Y-97080522D01*
X115803228Y-96951541D01*
X115701889Y-96799876D01*
X115632085Y-96631354D01*
X115596500Y-96452453D01*
X115596500Y-96270047D01*
X115632085Y-96091146D01*
X115701889Y-95922624D01*
X115803228Y-95770959D01*
X115932209Y-95641978D01*
X116083874Y-95540639D01*
X116252396Y-95470835D01*
X116431297Y-95435250D01*
X116613703Y-95435250D01*
X116792604Y-95470835D01*
G37*
G36*
X126952604Y-95470835D02*
G01*
X127121126Y-95540639D01*
X127272791Y-95641978D01*
X127401772Y-95770959D01*
X127503111Y-95922624D01*
X127572915Y-96091146D01*
X127608500Y-96270047D01*
X127608500Y-96452453D01*
X127572915Y-96631354D01*
X127503111Y-96799876D01*
X127401772Y-96951541D01*
X127272791Y-97080522D01*
X127121126Y-97181861D01*
X126952604Y-97251665D01*
X126773703Y-97287250D01*
X126591297Y-97287250D01*
X126412396Y-97251665D01*
X126243874Y-97181861D01*
X126092209Y-97080522D01*
X125963228Y-96951541D01*
X125861889Y-96799876D01*
X125792085Y-96631354D01*
X125756500Y-96452453D01*
X125756500Y-96270047D01*
X125792085Y-96091146D01*
X125861889Y-95922624D01*
X125963228Y-95770959D01*
X126092209Y-95641978D01*
X126243874Y-95540639D01*
X126412396Y-95470835D01*
X126591297Y-95435250D01*
X126773703Y-95435250D01*
X126952604Y-95470835D01*
G37*
G36*
X59642604Y-95470835D02*
G01*
X59811126Y-95540639D01*
X59962791Y-95641978D01*
X60091772Y-95770959D01*
X60193111Y-95922624D01*
X60262915Y-96091146D01*
X60298500Y-96270047D01*
X60298500Y-96452453D01*
X60262915Y-96631354D01*
X60193111Y-96799876D01*
X60091772Y-96951541D01*
X59962791Y-97080522D01*
X59811126Y-97181861D01*
X59642604Y-97251665D01*
X59463703Y-97287250D01*
X59281297Y-97287250D01*
X59102396Y-97251665D01*
X58933874Y-97181861D01*
X58782209Y-97080522D01*
X58653228Y-96951541D01*
X58551889Y-96799876D01*
X58482085Y-96631354D01*
X58446500Y-96452453D01*
X58446500Y-96270047D01*
X58482085Y-96091146D01*
X58551889Y-95922624D01*
X58653228Y-95770959D01*
X58782209Y-95641978D01*
X58933874Y-95540639D01*
X59102396Y-95470835D01*
X59281297Y-95435250D01*
X59463703Y-95435250D01*
X59642604Y-95470835D01*
G37*
G36*
X69802604Y-95470835D02*
G01*
X69971126Y-95540639D01*
X70122791Y-95641978D01*
X70251772Y-95770959D01*
X70353111Y-95922624D01*
X70422915Y-96091146D01*
X70458500Y-96270047D01*
X70458500Y-96452453D01*
X70422915Y-96631354D01*
X70353111Y-96799876D01*
X70251772Y-96951541D01*
X70122791Y-97080522D01*
X69971126Y-97181861D01*
X69802604Y-97251665D01*
X69623703Y-97287250D01*
X69441297Y-97287250D01*
X69262396Y-97251665D01*
X69093874Y-97181861D01*
X68942209Y-97080522D01*
X68813228Y-96951541D01*
X68711889Y-96799876D01*
X68642085Y-96631354D01*
X68606500Y-96452453D01*
X68606500Y-96270047D01*
X68642085Y-96091146D01*
X68711889Y-95922624D01*
X68813228Y-95770959D01*
X68942209Y-95641978D01*
X69093874Y-95540639D01*
X69262396Y-95470835D01*
X69441297Y-95435250D01*
X69623703Y-95435250D01*
X69802604Y-95470835D01*
G37*
G36*
X88852604Y-95470835D02*
G01*
X89021126Y-95540639D01*
X89172791Y-95641978D01*
X89301772Y-95770959D01*
X89403111Y-95922624D01*
X89472915Y-96091146D01*
X89508500Y-96270047D01*
X89508500Y-96452453D01*
X89472915Y-96631354D01*
X89403111Y-96799876D01*
X89301772Y-96951541D01*
X89172791Y-97080522D01*
X89021126Y-97181861D01*
X88852604Y-97251665D01*
X88673703Y-97287250D01*
X88491297Y-97287250D01*
X88312396Y-97251665D01*
X88143874Y-97181861D01*
X87992209Y-97080522D01*
X87863228Y-96951541D01*
X87761889Y-96799876D01*
X87692085Y-96631354D01*
X87656500Y-96452453D01*
X87656500Y-96270047D01*
X87692085Y-96091146D01*
X87761889Y-95922624D01*
X87863228Y-95770959D01*
X87992209Y-95641978D01*
X88143874Y-95540639D01*
X88312396Y-95470835D01*
X88491297Y-95435250D01*
X88673703Y-95435250D01*
X88852604Y-95470835D01*
G37*
G36*
X78692604Y-95470835D02*
G01*
X78861126Y-95540639D01*
X79012791Y-95641978D01*
X79141772Y-95770959D01*
X79243111Y-95922624D01*
X79312915Y-96091146D01*
X79348500Y-96270047D01*
X79348500Y-96452453D01*
X79312915Y-96631354D01*
X79243111Y-96799876D01*
X79141772Y-96951541D01*
X79012791Y-97080522D01*
X78861126Y-97181861D01*
X78692604Y-97251665D01*
X78513703Y-97287250D01*
X78331297Y-97287250D01*
X78152396Y-97251665D01*
X77983874Y-97181861D01*
X77832209Y-97080522D01*
X77703228Y-96951541D01*
X77601889Y-96799876D01*
X77532085Y-96631354D01*
X77496500Y-96452453D01*
X77496500Y-96270047D01*
X77532085Y-96091146D01*
X77601889Y-95922624D01*
X77703228Y-95770959D01*
X77832209Y-95641978D01*
X77983874Y-95540639D01*
X78152396Y-95470835D01*
X78331297Y-95435250D01*
X78513703Y-95435250D01*
X78692604Y-95470835D01*
G37*
G36*
X107902604Y-95470835D02*
G01*
X108071126Y-95540639D01*
X108222791Y-95641978D01*
X108351772Y-95770959D01*
X108453111Y-95922624D01*
X108522915Y-96091146D01*
X108558500Y-96270047D01*
X108558500Y-96452453D01*
X108522915Y-96631354D01*
X108453111Y-96799876D01*
X108351772Y-96951541D01*
X108222791Y-97080522D01*
X108071126Y-97181861D01*
X107902604Y-97251665D01*
X107723703Y-97287250D01*
X107541297Y-97287250D01*
X107362396Y-97251665D01*
X107193874Y-97181861D01*
X107042209Y-97080522D01*
X106913228Y-96951541D01*
X106811889Y-96799876D01*
X106742085Y-96631354D01*
X106706500Y-96452453D01*
X106706500Y-96270047D01*
X106742085Y-96091146D01*
X106811889Y-95922624D01*
X106913228Y-95770959D01*
X107042209Y-95641978D01*
X107193874Y-95540639D01*
X107362396Y-95470835D01*
X107541297Y-95435250D01*
X107723703Y-95435250D01*
X107902604Y-95470835D01*
G37*
G36*
X97742604Y-95470835D02*
G01*
X97911126Y-95540639D01*
X98062791Y-95641978D01*
X98191772Y-95770959D01*
X98293111Y-95922624D01*
X98362915Y-96091146D01*
X98398500Y-96270047D01*
X98398500Y-96452453D01*
X98362915Y-96631354D01*
X98293111Y-96799876D01*
X98191772Y-96951541D01*
X98062791Y-97080522D01*
X97911126Y-97181861D01*
X97742604Y-97251665D01*
X97563703Y-97287250D01*
X97381297Y-97287250D01*
X97202396Y-97251665D01*
X97033874Y-97181861D01*
X96882209Y-97080522D01*
X96753228Y-96951541D01*
X96651889Y-96799876D01*
X96582085Y-96631354D01*
X96546500Y-96452453D01*
X96546500Y-96270047D01*
X96582085Y-96091146D01*
X96651889Y-95922624D01*
X96753228Y-95770959D01*
X96882209Y-95641978D01*
X97033874Y-95540639D01*
X97202396Y-95470835D01*
X97381297Y-95435250D01*
X97563703Y-95435250D01*
X97742604Y-95470835D01*
G37*
G36*
X74225728Y-91891703D02*
G01*
X74380600Y-91955853D01*
X74519981Y-92048985D01*
X74638515Y-92167519D01*
X74731647Y-92306900D01*
X74795797Y-92461772D01*
X74828500Y-92626184D01*
X74828500Y-92793816D01*
X74795797Y-92958228D01*
X74731647Y-93113100D01*
X74638515Y-93252481D01*
X74519981Y-93371015D01*
X74380600Y-93464147D01*
X74225728Y-93528297D01*
X74061316Y-93561000D01*
X73893684Y-93561000D01*
X73729272Y-93528297D01*
X73574400Y-93464147D01*
X73435019Y-93371015D01*
X73316485Y-93252481D01*
X73223353Y-93113100D01*
X73159203Y-92958228D01*
X73126500Y-92793816D01*
X73126500Y-92626184D01*
X73159203Y-92461772D01*
X73223353Y-92306900D01*
X73316485Y-92167519D01*
X73435019Y-92048985D01*
X73574400Y-91955853D01*
X73729272Y-91891703D01*
X73893684Y-91859000D01*
X74061316Y-91859000D01*
X74225728Y-91891703D01*
G37*
G36*
X93275728Y-91891703D02*
G01*
X93430600Y-91955853D01*
X93569981Y-92048985D01*
X93688515Y-92167519D01*
X93781647Y-92306900D01*
X93845797Y-92461772D01*
X93878500Y-92626184D01*
X93878500Y-92793816D01*
X93845797Y-92958228D01*
X93781647Y-93113100D01*
X93688515Y-93252481D01*
X93569981Y-93371015D01*
X93430600Y-93464147D01*
X93275728Y-93528297D01*
X93111316Y-93561000D01*
X92943684Y-93561000D01*
X92779272Y-93528297D01*
X92624400Y-93464147D01*
X92485019Y-93371015D01*
X92366485Y-93252481D01*
X92273353Y-93113100D01*
X92209203Y-92958228D01*
X92176500Y-92793816D01*
X92176500Y-92626184D01*
X92209203Y-92461772D01*
X92273353Y-92306900D01*
X92366485Y-92167519D01*
X92485019Y-92048985D01*
X92624400Y-91955853D01*
X92779272Y-91891703D01*
X92943684Y-91859000D01*
X93111316Y-91859000D01*
X93275728Y-91891703D01*
G37*
G36*
X112325728Y-91891703D02*
G01*
X112480600Y-91955853D01*
X112619981Y-92048985D01*
X112738515Y-92167519D01*
X112831647Y-92306900D01*
X112895797Y-92461772D01*
X112928500Y-92626184D01*
X112928500Y-92793816D01*
X112895797Y-92958228D01*
X112831647Y-93113100D01*
X112738515Y-93252481D01*
X112619981Y-93371015D01*
X112480600Y-93464147D01*
X112325728Y-93528297D01*
X112161316Y-93561000D01*
X111993684Y-93561000D01*
X111829272Y-93528297D01*
X111674400Y-93464147D01*
X111535019Y-93371015D01*
X111416485Y-93252481D01*
X111323353Y-93113100D01*
X111259203Y-92958228D01*
X111226500Y-92793816D01*
X111226500Y-92626184D01*
X111259203Y-92461772D01*
X111323353Y-92306900D01*
X111416485Y-92167519D01*
X111535019Y-92048985D01*
X111674400Y-91955853D01*
X111829272Y-91891703D01*
X111993684Y-91859000D01*
X112161316Y-91859000D01*
X112325728Y-91891703D01*
G37*
G36*
X117691000Y-87687250D02*
G01*
X115989000Y-87687250D01*
X115989000Y-85985250D01*
X117691000Y-85985250D01*
X117691000Y-87687250D01*
G37*
G36*
X124708228Y-86017953D02*
G01*
X124863100Y-86082103D01*
X125002481Y-86175235D01*
X125121015Y-86293769D01*
X125214147Y-86433150D01*
X125278297Y-86588022D01*
X125311000Y-86752434D01*
X125311000Y-86920066D01*
X125278297Y-87084478D01*
X125214147Y-87239350D01*
X125121015Y-87378731D01*
X125002481Y-87497265D01*
X124863100Y-87590397D01*
X124708228Y-87654547D01*
X124543816Y-87687250D01*
X124376184Y-87687250D01*
X124211772Y-87654547D01*
X124056900Y-87590397D01*
X123917519Y-87497265D01*
X123798985Y-87378731D01*
X123705853Y-87239350D01*
X123641703Y-87084478D01*
X123609000Y-86920066D01*
X123609000Y-86752434D01*
X123641703Y-86588022D01*
X123705853Y-86433150D01*
X123798985Y-86293769D01*
X123917519Y-86175235D01*
X124056900Y-86082103D01*
X124211772Y-86017953D01*
X124376184Y-85985250D01*
X124543816Y-85985250D01*
X124708228Y-86017953D01*
G37*
G36*
X112928500Y-83718500D02*
G01*
X111226500Y-83718500D01*
X111226500Y-82016500D01*
X112928500Y-82016500D01*
X112928500Y-83718500D01*
G37*
G36*
X93878500Y-83718500D02*
G01*
X92176500Y-83718500D01*
X92176500Y-82016500D01*
X93878500Y-82016500D01*
X93878500Y-83718500D01*
G37*
G36*
X74828500Y-83718500D02*
G01*
X73126500Y-83718500D01*
X73126500Y-82016500D01*
X74828500Y-82016500D01*
X74828500Y-83718500D01*
G37*
G36*
X65048974Y-75344934D02*
G01*
X65266974Y-75435233D01*
X65421123Y-75499083D01*
X65756048Y-75722873D01*
X66040877Y-76007702D01*
X66264667Y-76342627D01*
X66297062Y-76420836D01*
X66418816Y-76714776D01*
X66497400Y-77109844D01*
X66497400Y-77512656D01*
X66418816Y-77907724D01*
X66367951Y-78030522D01*
X66264667Y-78279873D01*
X66040877Y-78614798D01*
X65756048Y-78899627D01*
X65421123Y-79123417D01*
X65266974Y-79187267D01*
X65048974Y-79277566D01*
X64653906Y-79356150D01*
X64251094Y-79356150D01*
X63856026Y-79277566D01*
X63638026Y-79187267D01*
X63483877Y-79123417D01*
X63148952Y-78899627D01*
X62864123Y-78614798D01*
X62640333Y-78279873D01*
X62537049Y-78030522D01*
X62486184Y-77907724D01*
X62407600Y-77512656D01*
X62407600Y-77109844D01*
X62486184Y-76714776D01*
X62607938Y-76420836D01*
X62640333Y-76342627D01*
X62864123Y-76007702D01*
X63148952Y-75722873D01*
X63483877Y-75499083D01*
X63638026Y-75435233D01*
X63856026Y-75344934D01*
X64251094Y-75266350D01*
X64653906Y-75266350D01*
X65048974Y-75344934D01*
G37*
G36*
X122198974Y-75344934D02*
G01*
X122416974Y-75435233D01*
X122571123Y-75499083D01*
X122906048Y-75722873D01*
X123190877Y-76007702D01*
X123414667Y-76342627D01*
X123447062Y-76420836D01*
X123568816Y-76714776D01*
X123647400Y-77109844D01*
X123647400Y-77512656D01*
X123568816Y-77907724D01*
X123517951Y-78030522D01*
X123414667Y-78279873D01*
X123190877Y-78614798D01*
X122906048Y-78899627D01*
X122571123Y-79123417D01*
X122416974Y-79187267D01*
X122198974Y-79277566D01*
X121803906Y-79356150D01*
X121401094Y-79356150D01*
X121006026Y-79277566D01*
X120788026Y-79187267D01*
X120633877Y-79123417D01*
X120298952Y-78899627D01*
X120014123Y-78614798D01*
X119790333Y-78279873D01*
X119687049Y-78030522D01*
X119636184Y-77907724D01*
X119557600Y-77512656D01*
X119557600Y-77109844D01*
X119636184Y-76714776D01*
X119757938Y-76420836D01*
X119790333Y-76342627D01*
X120014123Y-76007702D01*
X120298952Y-75722873D01*
X120633877Y-75499083D01*
X120788026Y-75435233D01*
X121006026Y-75344934D01*
X121401094Y-75266350D01*
X121803906Y-75266350D01*
X122198974Y-75344934D01*
G37*
G36*
X103148974Y-75344934D02*
G01*
X103366974Y-75435233D01*
X103521123Y-75499083D01*
X103856048Y-75722873D01*
X104140877Y-76007702D01*
X104364667Y-76342627D01*
X104397062Y-76420836D01*
X104518816Y-76714776D01*
X104597400Y-77109844D01*
X104597400Y-77512656D01*
X104518816Y-77907724D01*
X104467951Y-78030522D01*
X104364667Y-78279873D01*
X104140877Y-78614798D01*
X103856048Y-78899627D01*
X103521123Y-79123417D01*
X103366974Y-79187267D01*
X103148974Y-79277566D01*
X102753906Y-79356150D01*
X102351094Y-79356150D01*
X101956026Y-79277566D01*
X101738026Y-79187267D01*
X101583877Y-79123417D01*
X101248952Y-78899627D01*
X100964123Y-78614798D01*
X100740333Y-78279873D01*
X100637049Y-78030522D01*
X100586184Y-77907724D01*
X100507600Y-77512656D01*
X100507600Y-77109844D01*
X100586184Y-76714776D01*
X100707938Y-76420836D01*
X100740333Y-76342627D01*
X100964123Y-76007702D01*
X101248952Y-75722873D01*
X101583877Y-75499083D01*
X101738026Y-75435233D01*
X101956026Y-75344934D01*
X102351094Y-75266350D01*
X102753906Y-75266350D01*
X103148974Y-75344934D01*
G37*
G36*
X84098974Y-75344934D02*
G01*
X84316974Y-75435233D01*
X84471123Y-75499083D01*
X84806048Y-75722873D01*
X85090877Y-76007702D01*
X85314667Y-76342627D01*
X85347062Y-76420836D01*
X85468816Y-76714776D01*
X85547400Y-77109844D01*
X85547400Y-77512656D01*
X85468816Y-77907724D01*
X85417951Y-78030522D01*
X85314667Y-78279873D01*
X85090877Y-78614798D01*
X84806048Y-78899627D01*
X84471123Y-79123417D01*
X84316974Y-79187267D01*
X84098974Y-79277566D01*
X83703906Y-79356150D01*
X83301094Y-79356150D01*
X82906026Y-79277566D01*
X82688026Y-79187267D01*
X82533877Y-79123417D01*
X82198952Y-78899627D01*
X81914123Y-78614798D01*
X81690333Y-78279873D01*
X81587049Y-78030522D01*
X81536184Y-77907724D01*
X81457600Y-77512656D01*
X81457600Y-77109844D01*
X81536184Y-76714776D01*
X81657938Y-76420836D01*
X81690333Y-76342627D01*
X81914123Y-76007702D01*
X82198952Y-75722873D01*
X82533877Y-75499083D01*
X82688026Y-75435233D01*
X82906026Y-75344934D01*
X83301094Y-75266350D01*
X83703906Y-75266350D01*
X84098974Y-75344934D01*
G37*
G36*
X59642604Y-76420835D02*
G01*
X59811126Y-76490639D01*
X59962791Y-76591978D01*
X60091772Y-76720959D01*
X60193111Y-76872624D01*
X60262915Y-77041146D01*
X60298500Y-77220047D01*
X60298500Y-77402453D01*
X60262915Y-77581354D01*
X60193111Y-77749876D01*
X60091772Y-77901541D01*
X59962791Y-78030522D01*
X59811126Y-78131861D01*
X59642604Y-78201665D01*
X59463703Y-78237250D01*
X59281297Y-78237250D01*
X59102396Y-78201665D01*
X58933874Y-78131861D01*
X58782209Y-78030522D01*
X58653228Y-77901541D01*
X58551889Y-77749876D01*
X58482085Y-77581354D01*
X58446500Y-77402453D01*
X58446500Y-77220047D01*
X58482085Y-77041146D01*
X58551889Y-76872624D01*
X58653228Y-76720959D01*
X58782209Y-76591978D01*
X58933874Y-76490639D01*
X59102396Y-76420835D01*
X59281297Y-76385250D01*
X59463703Y-76385250D01*
X59642604Y-76420835D01*
G37*
G36*
X88852604Y-76420835D02*
G01*
X89021126Y-76490639D01*
X89172791Y-76591978D01*
X89301772Y-76720959D01*
X89403111Y-76872624D01*
X89472915Y-77041146D01*
X89508500Y-77220047D01*
X89508500Y-77402453D01*
X89472915Y-77581354D01*
X89403111Y-77749876D01*
X89301772Y-77901541D01*
X89172791Y-78030522D01*
X89021126Y-78131861D01*
X88852604Y-78201665D01*
X88673703Y-78237250D01*
X88491297Y-78237250D01*
X88312396Y-78201665D01*
X88143874Y-78131861D01*
X87992209Y-78030522D01*
X87863228Y-77901541D01*
X87761889Y-77749876D01*
X87692085Y-77581354D01*
X87656500Y-77402453D01*
X87656500Y-77220047D01*
X87692085Y-77041146D01*
X87761889Y-76872624D01*
X87863228Y-76720959D01*
X87992209Y-76591978D01*
X88143874Y-76490639D01*
X88312396Y-76420835D01*
X88491297Y-76385250D01*
X88673703Y-76385250D01*
X88852604Y-76420835D01*
G37*
G36*
X78692604Y-76420835D02*
G01*
X78861126Y-76490639D01*
X79012791Y-76591978D01*
X79141772Y-76720959D01*
X79243111Y-76872624D01*
X79312915Y-77041146D01*
X79348500Y-77220047D01*
X79348500Y-77402453D01*
X79312915Y-77581354D01*
X79243111Y-77749876D01*
X79141772Y-77901541D01*
X79012791Y-78030522D01*
X78861126Y-78131861D01*
X78692604Y-78201665D01*
X78513703Y-78237250D01*
X78331297Y-78237250D01*
X78152396Y-78201665D01*
X77983874Y-78131861D01*
X77832209Y-78030522D01*
X77703228Y-77901541D01*
X77601889Y-77749876D01*
X77532085Y-77581354D01*
X77496500Y-77402453D01*
X77496500Y-77220047D01*
X77532085Y-77041146D01*
X77601889Y-76872624D01*
X77703228Y-76720959D01*
X77832209Y-76591978D01*
X77983874Y-76490639D01*
X78152396Y-76420835D01*
X78331297Y-76385250D01*
X78513703Y-76385250D01*
X78692604Y-76420835D01*
G37*
G36*
X69802604Y-76420835D02*
G01*
X69971126Y-76490639D01*
X70122791Y-76591978D01*
X70251772Y-76720959D01*
X70353111Y-76872624D01*
X70422915Y-77041146D01*
X70458500Y-77220047D01*
X70458500Y-77402453D01*
X70422915Y-77581354D01*
X70353111Y-77749876D01*
X70251772Y-77901541D01*
X70122791Y-78030522D01*
X69971126Y-78131861D01*
X69802604Y-78201665D01*
X69623703Y-78237250D01*
X69441297Y-78237250D01*
X69262396Y-78201665D01*
X69093874Y-78131861D01*
X68942209Y-78030522D01*
X68813228Y-77901541D01*
X68711889Y-77749876D01*
X68642085Y-77581354D01*
X68606500Y-77402453D01*
X68606500Y-77220047D01*
X68642085Y-77041146D01*
X68711889Y-76872624D01*
X68813228Y-76720959D01*
X68942209Y-76591978D01*
X69093874Y-76490639D01*
X69262396Y-76420835D01*
X69441297Y-76385250D01*
X69623703Y-76385250D01*
X69802604Y-76420835D01*
G37*
G36*
X97742604Y-76420835D02*
G01*
X97911126Y-76490639D01*
X98062791Y-76591978D01*
X98191772Y-76720959D01*
X98293111Y-76872624D01*
X98362915Y-77041146D01*
X98398500Y-77220047D01*
X98398500Y-77402453D01*
X98362915Y-77581354D01*
X98293111Y-77749876D01*
X98191772Y-77901541D01*
X98062791Y-78030522D01*
X97911126Y-78131861D01*
X97742604Y-78201665D01*
X97563703Y-78237250D01*
X97381297Y-78237250D01*
X97202396Y-78201665D01*
X97033874Y-78131861D01*
X96882209Y-78030522D01*
X96753228Y-77901541D01*
X96651889Y-77749876D01*
X96582085Y-77581354D01*
X96546500Y-77402453D01*
X96546500Y-77220047D01*
X96582085Y-77041146D01*
X96651889Y-76872624D01*
X96753228Y-76720959D01*
X96882209Y-76591978D01*
X97033874Y-76490639D01*
X97202396Y-76420835D01*
X97381297Y-76385250D01*
X97563703Y-76385250D01*
X97742604Y-76420835D01*
G37*
G36*
X107902604Y-76420835D02*
G01*
X108071126Y-76490639D01*
X108222791Y-76591978D01*
X108351772Y-76720959D01*
X108453111Y-76872624D01*
X108522915Y-77041146D01*
X108558500Y-77220047D01*
X108558500Y-77402453D01*
X108522915Y-77581354D01*
X108453111Y-77749876D01*
X108351772Y-77901541D01*
X108222791Y-78030522D01*
X108071126Y-78131861D01*
X107902604Y-78201665D01*
X107723703Y-78237250D01*
X107541297Y-78237250D01*
X107362396Y-78201665D01*
X107193874Y-78131861D01*
X107042209Y-78030522D01*
X106913228Y-77901541D01*
X106811889Y-77749876D01*
X106742085Y-77581354D01*
X106706500Y-77402453D01*
X106706500Y-77220047D01*
X106742085Y-77041146D01*
X106811889Y-76872624D01*
X106913228Y-76720959D01*
X107042209Y-76591978D01*
X107193874Y-76490639D01*
X107362396Y-76420835D01*
X107541297Y-76385250D01*
X107723703Y-76385250D01*
X107902604Y-76420835D01*
G37*
G36*
X116792604Y-76420835D02*
G01*
X116961126Y-76490639D01*
X117112791Y-76591978D01*
X117241772Y-76720959D01*
X117343111Y-76872624D01*
X117412915Y-77041146D01*
X117448500Y-77220047D01*
X117448500Y-77402453D01*
X117412915Y-77581354D01*
X117343111Y-77749876D01*
X117241772Y-77901541D01*
X117112791Y-78030522D01*
X116961126Y-78131861D01*
X116792604Y-78201665D01*
X116613703Y-78237250D01*
X116431297Y-78237250D01*
X116252396Y-78201665D01*
X116083874Y-78131861D01*
X115932209Y-78030522D01*
X115803228Y-77901541D01*
X115701889Y-77749876D01*
X115632085Y-77581354D01*
X115596500Y-77402453D01*
X115596500Y-77220047D01*
X115632085Y-77041146D01*
X115701889Y-76872624D01*
X115803228Y-76720959D01*
X115932209Y-76591978D01*
X116083874Y-76490639D01*
X116252396Y-76420835D01*
X116431297Y-76385250D01*
X116613703Y-76385250D01*
X116792604Y-76420835D01*
G37*
G36*
X126952604Y-76420835D02*
G01*
X127121126Y-76490639D01*
X127272791Y-76591978D01*
X127401772Y-76720959D01*
X127503111Y-76872624D01*
X127572915Y-77041146D01*
X127608500Y-77220047D01*
X127608500Y-77402453D01*
X127572915Y-77581354D01*
X127503111Y-77749876D01*
X127401772Y-77901541D01*
X127272791Y-78030522D01*
X127121126Y-78131861D01*
X126952604Y-78201665D01*
X126773703Y-78237250D01*
X126591297Y-78237250D01*
X126412396Y-78201665D01*
X126243874Y-78131861D01*
X126092209Y-78030522D01*
X125963228Y-77901541D01*
X125861889Y-77749876D01*
X125792085Y-77581354D01*
X125756500Y-77402453D01*
X125756500Y-77220047D01*
X125792085Y-77041146D01*
X125861889Y-76872624D01*
X125963228Y-76720959D01*
X126092209Y-76591978D01*
X126243874Y-76490639D01*
X126412396Y-76420835D01*
X126591297Y-76385250D01*
X126773703Y-76385250D01*
X126952604Y-76420835D01*
G37*
G36*
X93275728Y-74429203D02*
G01*
X93430600Y-74493353D01*
X93569981Y-74586485D01*
X93688515Y-74705019D01*
X93781647Y-74844400D01*
X93845797Y-74999272D01*
X93878500Y-75163684D01*
X93878500Y-75331316D01*
X93845797Y-75495728D01*
X93781647Y-75650600D01*
X93688515Y-75789981D01*
X93569981Y-75908515D01*
X93430600Y-76001647D01*
X93275728Y-76065797D01*
X93111316Y-76098500D01*
X92943684Y-76098500D01*
X92779272Y-76065797D01*
X92624400Y-76001647D01*
X92485019Y-75908515D01*
X92366485Y-75789981D01*
X92273353Y-75650600D01*
X92209203Y-75495728D01*
X92176500Y-75331316D01*
X92176500Y-75163684D01*
X92209203Y-74999272D01*
X92273353Y-74844400D01*
X92366485Y-74705019D01*
X92485019Y-74586485D01*
X92624400Y-74493353D01*
X92779272Y-74429203D01*
X92943684Y-74396500D01*
X93111316Y-74396500D01*
X93275728Y-74429203D01*
G37*
G36*
X112325728Y-74429203D02*
G01*
X112480600Y-74493353D01*
X112619981Y-74586485D01*
X112738515Y-74705019D01*
X112831647Y-74844400D01*
X112895797Y-74999272D01*
X112928500Y-75163684D01*
X112928500Y-75331316D01*
X112895797Y-75495728D01*
X112831647Y-75650600D01*
X112738515Y-75789981D01*
X112619981Y-75908515D01*
X112480600Y-76001647D01*
X112325728Y-76065797D01*
X112161316Y-76098500D01*
X111993684Y-76098500D01*
X111829272Y-76065797D01*
X111674400Y-76001647D01*
X111535019Y-75908515D01*
X111416485Y-75789981D01*
X111323353Y-75650600D01*
X111259203Y-75495728D01*
X111226500Y-75331316D01*
X111226500Y-75163684D01*
X111259203Y-74999272D01*
X111323353Y-74844400D01*
X111416485Y-74705019D01*
X111535019Y-74586485D01*
X111674400Y-74493353D01*
X111829272Y-74429203D01*
X111993684Y-74396500D01*
X112161316Y-74396500D01*
X112325728Y-74429203D01*
G37*
G36*
X74225728Y-74429203D02*
G01*
X74380600Y-74493353D01*
X74519981Y-74586485D01*
X74638515Y-74705019D01*
X74731647Y-74844400D01*
X74795797Y-74999272D01*
X74828500Y-75163684D01*
X74828500Y-75331316D01*
X74795797Y-75495728D01*
X74731647Y-75650600D01*
X74638515Y-75789981D01*
X74519981Y-75908515D01*
X74380600Y-76001647D01*
X74225728Y-76065797D01*
X74061316Y-76098500D01*
X73893684Y-76098500D01*
X73729272Y-76065797D01*
X73574400Y-76001647D01*
X73435019Y-75908515D01*
X73316485Y-75789981D01*
X73223353Y-75650600D01*
X73159203Y-75495728D01*
X73126500Y-75331316D01*
X73126500Y-75163684D01*
X73159203Y-74999272D01*
X73223353Y-74844400D01*
X73316485Y-74705019D01*
X73435019Y-74586485D01*
X73574400Y-74493353D01*
X73729272Y-74429203D01*
X73893684Y-74396500D01*
X74061316Y-74396500D01*
X74225728Y-74429203D01*
G37*
G36*
X70111000Y-59157250D02*
G01*
X66809000Y-59157250D01*
X66809000Y-57055250D01*
X70111000Y-57055250D01*
X70111000Y-59157250D01*
G37*
G36*
X131203500Y-58031000D02*
G01*
X129601500Y-58031000D01*
X129601500Y-56929000D01*
X131203500Y-56929000D01*
X131203500Y-58031000D01*
G37*
G36*
X113603500Y-58031000D02*
G01*
X112001500Y-58031000D01*
X112001500Y-56929000D01*
X113603500Y-56929000D01*
X113603500Y-58031000D01*
G37*
G36*
X126303500Y-58031000D02*
G01*
X124701500Y-58031000D01*
X124701500Y-56929000D01*
X126303500Y-56929000D01*
X126303500Y-58031000D01*
G37*
G36*
X118503500Y-58031000D02*
G01*
X116901500Y-58031000D01*
X116901500Y-56929000D01*
X118503500Y-56929000D01*
X118503500Y-58031000D01*
G37*
G36*
X61266564Y-53995639D02*
G01*
X61457833Y-54074865D01*
X61457835Y-54074866D01*
X61629973Y-54189885D01*
X61776365Y-54336277D01*
X61891385Y-54508417D01*
X61970611Y-54699686D01*
X62011000Y-54902734D01*
X62011000Y-55109766D01*
X61970611Y-55312814D01*
X61891385Y-55504083D01*
X61891384Y-55504085D01*
X61776365Y-55676223D01*
X61629973Y-55822615D01*
X61457835Y-55937634D01*
X61457834Y-55937635D01*
X61457833Y-55937635D01*
X61266564Y-56016861D01*
X61063516Y-56057250D01*
X60856484Y-56057250D01*
X60653436Y-56016861D01*
X60462167Y-55937635D01*
X60462166Y-55937635D01*
X60462165Y-55937634D01*
X60290027Y-55822615D01*
X60143635Y-55676223D01*
X60028616Y-55504085D01*
X60028615Y-55504083D01*
X59949389Y-55312814D01*
X59909000Y-55109766D01*
X59909000Y-54902734D01*
X59949389Y-54699686D01*
X60028615Y-54508417D01*
X60143635Y-54336277D01*
X60290027Y-54189885D01*
X60462165Y-54074866D01*
X60462167Y-54074865D01*
X60653436Y-53995639D01*
X60856484Y-53955250D01*
X61063516Y-53955250D01*
X61266564Y-53995639D01*
G37*
G36*
X75766564Y-53995639D02*
G01*
X75957833Y-54074865D01*
X75957835Y-54074866D01*
X76129973Y-54189885D01*
X76276365Y-54336277D01*
X76391385Y-54508417D01*
X76470611Y-54699686D01*
X76511000Y-54902734D01*
X76511000Y-55109766D01*
X76470611Y-55312814D01*
X76391385Y-55504083D01*
X76391384Y-55504085D01*
X76276365Y-55676223D01*
X76129973Y-55822615D01*
X75957835Y-55937634D01*
X75957834Y-55937635D01*
X75957833Y-55937635D01*
X75766564Y-56016861D01*
X75563516Y-56057250D01*
X75356484Y-56057250D01*
X75153436Y-56016861D01*
X74962167Y-55937635D01*
X74962166Y-55937635D01*
X74962165Y-55937634D01*
X74790027Y-55822615D01*
X74643635Y-55676223D01*
X74528616Y-55504085D01*
X74528615Y-55504083D01*
X74449389Y-55312814D01*
X74409000Y-55109766D01*
X74409000Y-54902734D01*
X74449389Y-54699686D01*
X74528615Y-54508417D01*
X74643635Y-54336277D01*
X74790027Y-54189885D01*
X74962165Y-54074866D01*
X74962167Y-54074865D01*
X75153436Y-53995639D01*
X75356484Y-53955250D01*
X75563516Y-53955250D01*
X75766564Y-53995639D01*
G37*
G36*
X118503500Y-54831000D02*
G01*
X116901500Y-54831000D01*
X116901500Y-53729000D01*
X118503500Y-53729000D01*
X118503500Y-54831000D01*
G37*
G36*
X131203500Y-54831000D02*
G01*
X129601500Y-54831000D01*
X129601500Y-53729000D01*
X131203500Y-53729000D01*
X131203500Y-54831000D01*
G37*
G36*
X126303500Y-54831000D02*
G01*
X124701500Y-54831000D01*
X124701500Y-53729000D01*
X126303500Y-53729000D01*
X126303500Y-54831000D01*
G37*
G36*
X113603500Y-54831000D02*
G01*
X112001500Y-54831000D01*
X112001500Y-53729000D01*
X113603500Y-53729000D01*
X113603500Y-54831000D01*
G37*
G36*
X61266564Y-51495639D02*
G01*
X61457833Y-51574865D01*
X61457835Y-51574866D01*
X61629973Y-51689885D01*
X61776365Y-51836277D01*
X61891385Y-52008417D01*
X61970611Y-52199686D01*
X62011000Y-52402734D01*
X62011000Y-52609766D01*
X61970611Y-52812814D01*
X61891385Y-53004083D01*
X61891384Y-53004085D01*
X61776365Y-53176223D01*
X61629973Y-53322615D01*
X61457835Y-53437634D01*
X61457834Y-53437635D01*
X61457833Y-53437635D01*
X61266564Y-53516861D01*
X61063516Y-53557250D01*
X60856484Y-53557250D01*
X60653436Y-53516861D01*
X60462167Y-53437635D01*
X60462166Y-53437635D01*
X60462165Y-53437634D01*
X60290027Y-53322615D01*
X60143635Y-53176223D01*
X60028616Y-53004085D01*
X60028615Y-53004083D01*
X59949389Y-52812814D01*
X59909000Y-52609766D01*
X59909000Y-52402734D01*
X59949389Y-52199686D01*
X60028615Y-52008417D01*
X60143635Y-51836277D01*
X60290027Y-51689885D01*
X60462165Y-51574866D01*
X60462167Y-51574865D01*
X60653436Y-51495639D01*
X60856484Y-51455250D01*
X61063516Y-51455250D01*
X61266564Y-51495639D01*
G37*
G36*
X75766564Y-48995639D02*
G01*
X75957833Y-49074865D01*
X75957835Y-49074866D01*
X76129973Y-49189885D01*
X76276365Y-49336277D01*
X76391385Y-49508417D01*
X76470611Y-49699686D01*
X76511000Y-49902734D01*
X76511000Y-50109766D01*
X76470611Y-50312814D01*
X76391385Y-50504083D01*
X76391384Y-50504085D01*
X76276365Y-50676223D01*
X76129973Y-50822615D01*
X75957835Y-50937634D01*
X75957834Y-50937635D01*
X75957833Y-50937635D01*
X75766564Y-51016861D01*
X75563516Y-51057250D01*
X75356484Y-51057250D01*
X75153436Y-51016861D01*
X74962167Y-50937635D01*
X74962166Y-50937635D01*
X74962165Y-50937634D01*
X74790027Y-50822615D01*
X74643635Y-50676223D01*
X74528616Y-50504085D01*
X74528615Y-50504083D01*
X74449389Y-50312814D01*
X74409000Y-50109766D01*
X74409000Y-49902734D01*
X74449389Y-49699686D01*
X74528615Y-49508417D01*
X74643635Y-49336277D01*
X74790027Y-49189885D01*
X74962165Y-49074866D01*
X74962167Y-49074865D01*
X75153436Y-48995639D01*
X75356484Y-48955250D01*
X75563516Y-48955250D01*
X75766564Y-48995639D01*
G37*
G36*
X62011000Y-51057250D02*
G01*
X59909000Y-51057250D01*
X59909000Y-48955250D01*
X62011000Y-48955250D01*
X62011000Y-51057250D01*
G37*
G36*
X70111000Y-47957250D02*
G01*
X66809000Y-47957250D01*
X66809000Y-45855250D01*
X70111000Y-45855250D01*
X70111000Y-47957250D01*
G37*
G36*
X100029127Y-41529537D02*
G01*
X100198966Y-41581057D01*
X100355491Y-41664722D01*
X100391229Y-41694052D01*
X100492686Y-41777314D01*
X100575948Y-41878771D01*
X100605278Y-41914509D01*
X100688943Y-42071034D01*
X100740463Y-42240873D01*
X100753500Y-42373242D01*
X100753500Y-43461758D01*
X100740463Y-43594127D01*
X100688943Y-43763966D01*
X100605278Y-43920491D01*
X100575948Y-43956229D01*
X100492686Y-44057686D01*
X100355489Y-44170279D01*
X100198967Y-44253942D01*
X100198965Y-44253943D01*
X100029126Y-44305463D01*
X99852500Y-44322859D01*
X99675873Y-44305463D01*
X99506034Y-44253943D01*
X99349509Y-44170278D01*
X99313771Y-44140948D01*
X99212314Y-44057686D01*
X99099721Y-43920489D01*
X99016058Y-43763967D01*
X99016057Y-43763965D01*
X98964537Y-43594126D01*
X98951500Y-43461757D01*
X98951501Y-42373242D01*
X98964538Y-42240873D01*
X99016058Y-42071034D01*
X99099723Y-41914509D01*
X99129053Y-41878771D01*
X99212315Y-41777314D01*
X99313772Y-41694052D01*
X99349510Y-41664722D01*
X99506035Y-41581057D01*
X99675874Y-41529537D01*
X99852500Y-41512141D01*
X100029127Y-41529537D01*
G37*
G36*
X92729127Y-41529537D02*
G01*
X92898966Y-41581057D01*
X93055491Y-41664722D01*
X93091229Y-41694052D01*
X93192686Y-41777314D01*
X93275948Y-41878771D01*
X93305278Y-41914509D01*
X93388943Y-42071034D01*
X93440463Y-42240873D01*
X93453500Y-42373242D01*
X93453500Y-43461758D01*
X93440463Y-43594127D01*
X93388943Y-43763966D01*
X93305278Y-43920491D01*
X93275948Y-43956229D01*
X93192686Y-44057686D01*
X93055489Y-44170279D01*
X92898967Y-44253942D01*
X92898965Y-44253943D01*
X92729126Y-44305463D01*
X92552500Y-44322859D01*
X92375873Y-44305463D01*
X92206034Y-44253943D01*
X92049509Y-44170278D01*
X92013771Y-44140948D01*
X91912314Y-44057686D01*
X91799721Y-43920489D01*
X91716058Y-43763967D01*
X91716057Y-43763965D01*
X91664537Y-43594126D01*
X91651500Y-43461757D01*
X91651501Y-42373242D01*
X91664538Y-42240873D01*
X91716058Y-42071034D01*
X91799723Y-41914509D01*
X91829053Y-41878771D01*
X91912315Y-41777314D01*
X92013772Y-41694052D01*
X92049510Y-41664722D01*
X92206035Y-41581057D01*
X92375874Y-41529537D01*
X92552500Y-41512141D01*
X92729127Y-41529537D01*
G37*
G36*
X92729127Y-37029537D02*
G01*
X92898966Y-37081057D01*
X93055491Y-37164722D01*
X93091229Y-37194052D01*
X93192686Y-37277314D01*
X93275948Y-37378771D01*
X93305278Y-37414509D01*
X93388943Y-37571034D01*
X93440463Y-37740873D01*
X93453500Y-37873242D01*
X93453500Y-38961758D01*
X93440463Y-39094127D01*
X93388943Y-39263966D01*
X93305278Y-39420491D01*
X93275948Y-39456229D01*
X93192686Y-39557686D01*
X93055489Y-39670279D01*
X92898967Y-39753942D01*
X92898965Y-39753943D01*
X92729126Y-39805463D01*
X92552500Y-39822859D01*
X92375873Y-39805463D01*
X92206034Y-39753943D01*
X92049509Y-39670278D01*
X92013771Y-39640948D01*
X91912314Y-39557686D01*
X91799721Y-39420489D01*
X91716058Y-39263967D01*
X91716057Y-39263965D01*
X91664537Y-39094126D01*
X91651500Y-38961757D01*
X91651501Y-37873242D01*
X91664538Y-37740873D01*
X91716058Y-37571034D01*
X91799723Y-37414509D01*
X91829053Y-37378771D01*
X91912315Y-37277314D01*
X92013772Y-37194052D01*
X92049510Y-37164722D01*
X92206035Y-37081057D01*
X92375874Y-37029537D01*
X92552500Y-37012141D01*
X92729127Y-37029537D01*
G37*
G36*
X100029127Y-37029537D02*
G01*
X100198966Y-37081057D01*
X100355491Y-37164722D01*
X100391229Y-37194052D01*
X100492686Y-37277314D01*
X100575948Y-37378771D01*
X100605278Y-37414509D01*
X100688943Y-37571034D01*
X100740463Y-37740873D01*
X100753500Y-37873242D01*
X100753500Y-38961758D01*
X100740463Y-39094127D01*
X100688943Y-39263966D01*
X100605278Y-39420491D01*
X100575948Y-39456229D01*
X100492686Y-39557686D01*
X100355489Y-39670279D01*
X100198967Y-39753942D01*
X100198965Y-39753943D01*
X100029126Y-39805463D01*
X99852500Y-39822859D01*
X99675873Y-39805463D01*
X99506034Y-39753943D01*
X99349509Y-39670278D01*
X99313771Y-39640948D01*
X99212314Y-39557686D01*
X99099721Y-39420489D01*
X99016058Y-39263967D01*
X99016057Y-39263965D01*
X98964537Y-39094126D01*
X98951500Y-38961757D01*
X98951501Y-37873242D01*
X98964538Y-37740873D01*
X99016058Y-37571034D01*
X99099723Y-37414509D01*
X99129053Y-37378771D01*
X99212315Y-37277314D01*
X99313772Y-37194052D01*
X99349510Y-37164722D01*
X99506035Y-37081057D01*
X99675874Y-37029537D01*
X99852500Y-37012141D01*
X100029127Y-37029537D01*
G37*
M02*
