G04 #@! TF.GenerationSoftware,KiCad,Pcbnew,5.1.5-52549c5~84~ubuntu18.04.1*
G04 #@! TF.CreationDate,2020-02-13T16:35:18-05:00*
G04 #@! TF.ProjectId,metropolislefty,6d657472-6f70-46f6-9c69-736c65667479,0*
G04 #@! TF.SameCoordinates,Original*
G04 #@! TF.FileFunction,Paste,Bot*
G04 #@! TF.FilePolarity,Positive*
%FSLAX46Y46*%
G04 Gerber Fmt 4.6, Leading zero omitted, Abs format (unit mm)*
G04 Created by KiCad (PCBNEW 5.1.5-52549c5~84~ubuntu18.04.1) date 2020-02-13 16:35:18*
%MOMM*%
%LPD*%
G04 APERTURE LIST*
%ADD10R,1.200000X1.400000*%
%ADD11R,0.500000X2.250000*%
%ADD12R,0.550000X1.500000*%
%ADD13R,1.500000X0.550000*%
%ADD14R,1.800000X1.100000*%
%ADD15C,0.100000*%
G04 APERTURE END LIST*
D10*
X120071250Y-45264250D03*
X120071250Y-43064250D03*
X118371250Y-43064250D03*
X118371250Y-45264250D03*
D11*
X94602500Y-42917500D03*
X95402500Y-42917500D03*
X96202500Y-42917500D03*
X97002500Y-42917500D03*
X97802500Y-42917500D03*
D12*
X116237250Y-63072250D03*
X117037250Y-63072250D03*
X117837250Y-63072250D03*
X118637250Y-63072250D03*
X119437250Y-63072250D03*
X120237250Y-63072250D03*
X121037250Y-63072250D03*
X121837250Y-63072250D03*
X122637250Y-63072250D03*
X123437250Y-63072250D03*
X124237250Y-63072250D03*
D13*
X125937250Y-61372250D03*
X125937250Y-60572250D03*
X125937250Y-59772250D03*
X125937250Y-58972250D03*
X125937250Y-58172250D03*
X125937250Y-57372250D03*
X125937250Y-56572250D03*
X125937250Y-55772250D03*
X125937250Y-54972250D03*
X125937250Y-54172250D03*
X125937250Y-53372250D03*
D12*
X124237250Y-51672250D03*
X123437250Y-51672250D03*
X122637250Y-51672250D03*
X121837250Y-51672250D03*
X121037250Y-51672250D03*
X120237250Y-51672250D03*
X119437250Y-51672250D03*
X118637250Y-51672250D03*
X117837250Y-51672250D03*
X117037250Y-51672250D03*
X116237250Y-51672250D03*
D13*
X114537250Y-53372250D03*
X114537250Y-54172250D03*
X114537250Y-54972250D03*
X114537250Y-55772250D03*
X114537250Y-56572250D03*
X114537250Y-57372250D03*
X114537250Y-58172250D03*
X114537250Y-58972250D03*
X114537250Y-59772250D03*
X114537250Y-60572250D03*
X114537250Y-61372250D03*
D14*
X133878250Y-51030750D03*
X127678250Y-47330750D03*
X133878250Y-47330750D03*
X127678250Y-51030750D03*
D15*
G36*
X128363892Y-67341424D02*
G01*
X128387553Y-67344934D01*
X128410757Y-67350746D01*
X128433279Y-67358804D01*
X128454903Y-67369032D01*
X128475420Y-67381329D01*
X128494633Y-67395579D01*
X128512357Y-67411643D01*
X128528421Y-67429367D01*
X128542671Y-67448580D01*
X128554968Y-67469097D01*
X128565196Y-67490721D01*
X128573254Y-67513243D01*
X128579066Y-67536447D01*
X128582576Y-67560108D01*
X128583750Y-67584000D01*
X128583750Y-68496500D01*
X128582576Y-68520392D01*
X128579066Y-68544053D01*
X128573254Y-68567257D01*
X128565196Y-68589779D01*
X128554968Y-68611403D01*
X128542671Y-68631920D01*
X128528421Y-68651133D01*
X128512357Y-68668857D01*
X128494633Y-68684921D01*
X128475420Y-68699171D01*
X128454903Y-68711468D01*
X128433279Y-68721696D01*
X128410757Y-68729754D01*
X128387553Y-68735566D01*
X128363892Y-68739076D01*
X128340000Y-68740250D01*
X127852500Y-68740250D01*
X127828608Y-68739076D01*
X127804947Y-68735566D01*
X127781743Y-68729754D01*
X127759221Y-68721696D01*
X127737597Y-68711468D01*
X127717080Y-68699171D01*
X127697867Y-68684921D01*
X127680143Y-68668857D01*
X127664079Y-68651133D01*
X127649829Y-68631920D01*
X127637532Y-68611403D01*
X127627304Y-68589779D01*
X127619246Y-68567257D01*
X127613434Y-68544053D01*
X127609924Y-68520392D01*
X127608750Y-68496500D01*
X127608750Y-67584000D01*
X127609924Y-67560108D01*
X127613434Y-67536447D01*
X127619246Y-67513243D01*
X127627304Y-67490721D01*
X127637532Y-67469097D01*
X127649829Y-67448580D01*
X127664079Y-67429367D01*
X127680143Y-67411643D01*
X127697867Y-67395579D01*
X127717080Y-67381329D01*
X127737597Y-67369032D01*
X127759221Y-67358804D01*
X127781743Y-67350746D01*
X127804947Y-67344934D01*
X127828608Y-67341424D01*
X127852500Y-67340250D01*
X128340000Y-67340250D01*
X128363892Y-67341424D01*
G37*
G36*
X126488892Y-67341424D02*
G01*
X126512553Y-67344934D01*
X126535757Y-67350746D01*
X126558279Y-67358804D01*
X126579903Y-67369032D01*
X126600420Y-67381329D01*
X126619633Y-67395579D01*
X126637357Y-67411643D01*
X126653421Y-67429367D01*
X126667671Y-67448580D01*
X126679968Y-67469097D01*
X126690196Y-67490721D01*
X126698254Y-67513243D01*
X126704066Y-67536447D01*
X126707576Y-67560108D01*
X126708750Y-67584000D01*
X126708750Y-68496500D01*
X126707576Y-68520392D01*
X126704066Y-68544053D01*
X126698254Y-68567257D01*
X126690196Y-68589779D01*
X126679968Y-68611403D01*
X126667671Y-68631920D01*
X126653421Y-68651133D01*
X126637357Y-68668857D01*
X126619633Y-68684921D01*
X126600420Y-68699171D01*
X126579903Y-68711468D01*
X126558279Y-68721696D01*
X126535757Y-68729754D01*
X126512553Y-68735566D01*
X126488892Y-68739076D01*
X126465000Y-68740250D01*
X125977500Y-68740250D01*
X125953608Y-68739076D01*
X125929947Y-68735566D01*
X125906743Y-68729754D01*
X125884221Y-68721696D01*
X125862597Y-68711468D01*
X125842080Y-68699171D01*
X125822867Y-68684921D01*
X125805143Y-68668857D01*
X125789079Y-68651133D01*
X125774829Y-68631920D01*
X125762532Y-68611403D01*
X125752304Y-68589779D01*
X125744246Y-68567257D01*
X125738434Y-68544053D01*
X125734924Y-68520392D01*
X125733750Y-68496500D01*
X125733750Y-67584000D01*
X125734924Y-67560108D01*
X125738434Y-67536447D01*
X125744246Y-67513243D01*
X125752304Y-67490721D01*
X125762532Y-67469097D01*
X125774829Y-67448580D01*
X125789079Y-67429367D01*
X125805143Y-67411643D01*
X125822867Y-67395579D01*
X125842080Y-67381329D01*
X125862597Y-67369032D01*
X125884221Y-67358804D01*
X125906743Y-67350746D01*
X125929947Y-67344934D01*
X125953608Y-67341424D01*
X125977500Y-67340250D01*
X126465000Y-67340250D01*
X126488892Y-67341424D01*
G37*
G36*
X72007642Y-65499924D02*
G01*
X72031303Y-65503434D01*
X72054507Y-65509246D01*
X72077029Y-65517304D01*
X72098653Y-65527532D01*
X72119170Y-65539829D01*
X72138383Y-65554079D01*
X72156107Y-65570143D01*
X72172171Y-65587867D01*
X72186421Y-65607080D01*
X72198718Y-65627597D01*
X72208946Y-65649221D01*
X72217004Y-65671743D01*
X72222816Y-65694947D01*
X72226326Y-65718608D01*
X72227500Y-65742500D01*
X72227500Y-66655000D01*
X72226326Y-66678892D01*
X72222816Y-66702553D01*
X72217004Y-66725757D01*
X72208946Y-66748279D01*
X72198718Y-66769903D01*
X72186421Y-66790420D01*
X72172171Y-66809633D01*
X72156107Y-66827357D01*
X72138383Y-66843421D01*
X72119170Y-66857671D01*
X72098653Y-66869968D01*
X72077029Y-66880196D01*
X72054507Y-66888254D01*
X72031303Y-66894066D01*
X72007642Y-66897576D01*
X71983750Y-66898750D01*
X71496250Y-66898750D01*
X71472358Y-66897576D01*
X71448697Y-66894066D01*
X71425493Y-66888254D01*
X71402971Y-66880196D01*
X71381347Y-66869968D01*
X71360830Y-66857671D01*
X71341617Y-66843421D01*
X71323893Y-66827357D01*
X71307829Y-66809633D01*
X71293579Y-66790420D01*
X71281282Y-66769903D01*
X71271054Y-66748279D01*
X71262996Y-66725757D01*
X71257184Y-66702553D01*
X71253674Y-66678892D01*
X71252500Y-66655000D01*
X71252500Y-65742500D01*
X71253674Y-65718608D01*
X71257184Y-65694947D01*
X71262996Y-65671743D01*
X71271054Y-65649221D01*
X71281282Y-65627597D01*
X71293579Y-65607080D01*
X71307829Y-65587867D01*
X71323893Y-65570143D01*
X71341617Y-65554079D01*
X71360830Y-65539829D01*
X71381347Y-65527532D01*
X71402971Y-65517304D01*
X71425493Y-65509246D01*
X71448697Y-65503434D01*
X71472358Y-65499924D01*
X71496250Y-65498750D01*
X71983750Y-65498750D01*
X72007642Y-65499924D01*
G37*
G36*
X70132642Y-65499924D02*
G01*
X70156303Y-65503434D01*
X70179507Y-65509246D01*
X70202029Y-65517304D01*
X70223653Y-65527532D01*
X70244170Y-65539829D01*
X70263383Y-65554079D01*
X70281107Y-65570143D01*
X70297171Y-65587867D01*
X70311421Y-65607080D01*
X70323718Y-65627597D01*
X70333946Y-65649221D01*
X70342004Y-65671743D01*
X70347816Y-65694947D01*
X70351326Y-65718608D01*
X70352500Y-65742500D01*
X70352500Y-66655000D01*
X70351326Y-66678892D01*
X70347816Y-66702553D01*
X70342004Y-66725757D01*
X70333946Y-66748279D01*
X70323718Y-66769903D01*
X70311421Y-66790420D01*
X70297171Y-66809633D01*
X70281107Y-66827357D01*
X70263383Y-66843421D01*
X70244170Y-66857671D01*
X70223653Y-66869968D01*
X70202029Y-66880196D01*
X70179507Y-66888254D01*
X70156303Y-66894066D01*
X70132642Y-66897576D01*
X70108750Y-66898750D01*
X69621250Y-66898750D01*
X69597358Y-66897576D01*
X69573697Y-66894066D01*
X69550493Y-66888254D01*
X69527971Y-66880196D01*
X69506347Y-66869968D01*
X69485830Y-66857671D01*
X69466617Y-66843421D01*
X69448893Y-66827357D01*
X69432829Y-66809633D01*
X69418579Y-66790420D01*
X69406282Y-66769903D01*
X69396054Y-66748279D01*
X69387996Y-66725757D01*
X69382184Y-66702553D01*
X69378674Y-66678892D01*
X69377500Y-66655000D01*
X69377500Y-65742500D01*
X69378674Y-65718608D01*
X69382184Y-65694947D01*
X69387996Y-65671743D01*
X69396054Y-65649221D01*
X69406282Y-65627597D01*
X69418579Y-65607080D01*
X69432829Y-65587867D01*
X69448893Y-65570143D01*
X69466617Y-65554079D01*
X69485830Y-65539829D01*
X69506347Y-65527532D01*
X69527971Y-65517304D01*
X69550493Y-65509246D01*
X69573697Y-65503434D01*
X69597358Y-65499924D01*
X69621250Y-65498750D01*
X70108750Y-65498750D01*
X70132642Y-65499924D01*
G37*
G36*
X58513892Y-65499924D02*
G01*
X58537553Y-65503434D01*
X58560757Y-65509246D01*
X58583279Y-65517304D01*
X58604903Y-65527532D01*
X58625420Y-65539829D01*
X58644633Y-65554079D01*
X58662357Y-65570143D01*
X58678421Y-65587867D01*
X58692671Y-65607080D01*
X58704968Y-65627597D01*
X58715196Y-65649221D01*
X58723254Y-65671743D01*
X58729066Y-65694947D01*
X58732576Y-65718608D01*
X58733750Y-65742500D01*
X58733750Y-66655000D01*
X58732576Y-66678892D01*
X58729066Y-66702553D01*
X58723254Y-66725757D01*
X58715196Y-66748279D01*
X58704968Y-66769903D01*
X58692671Y-66790420D01*
X58678421Y-66809633D01*
X58662357Y-66827357D01*
X58644633Y-66843421D01*
X58625420Y-66857671D01*
X58604903Y-66869968D01*
X58583279Y-66880196D01*
X58560757Y-66888254D01*
X58537553Y-66894066D01*
X58513892Y-66897576D01*
X58490000Y-66898750D01*
X58002500Y-66898750D01*
X57978608Y-66897576D01*
X57954947Y-66894066D01*
X57931743Y-66888254D01*
X57909221Y-66880196D01*
X57887597Y-66869968D01*
X57867080Y-66857671D01*
X57847867Y-66843421D01*
X57830143Y-66827357D01*
X57814079Y-66809633D01*
X57799829Y-66790420D01*
X57787532Y-66769903D01*
X57777304Y-66748279D01*
X57769246Y-66725757D01*
X57763434Y-66702553D01*
X57759924Y-66678892D01*
X57758750Y-66655000D01*
X57758750Y-65742500D01*
X57759924Y-65718608D01*
X57763434Y-65694947D01*
X57769246Y-65671743D01*
X57777304Y-65649221D01*
X57787532Y-65627597D01*
X57799829Y-65607080D01*
X57814079Y-65587867D01*
X57830143Y-65570143D01*
X57847867Y-65554079D01*
X57867080Y-65539829D01*
X57887597Y-65527532D01*
X57909221Y-65517304D01*
X57931743Y-65509246D01*
X57954947Y-65503434D01*
X57978608Y-65499924D01*
X58002500Y-65498750D01*
X58490000Y-65498750D01*
X58513892Y-65499924D01*
G37*
G36*
X56638892Y-65499924D02*
G01*
X56662553Y-65503434D01*
X56685757Y-65509246D01*
X56708279Y-65517304D01*
X56729903Y-65527532D01*
X56750420Y-65539829D01*
X56769633Y-65554079D01*
X56787357Y-65570143D01*
X56803421Y-65587867D01*
X56817671Y-65607080D01*
X56829968Y-65627597D01*
X56840196Y-65649221D01*
X56848254Y-65671743D01*
X56854066Y-65694947D01*
X56857576Y-65718608D01*
X56858750Y-65742500D01*
X56858750Y-66655000D01*
X56857576Y-66678892D01*
X56854066Y-66702553D01*
X56848254Y-66725757D01*
X56840196Y-66748279D01*
X56829968Y-66769903D01*
X56817671Y-66790420D01*
X56803421Y-66809633D01*
X56787357Y-66827357D01*
X56769633Y-66843421D01*
X56750420Y-66857671D01*
X56729903Y-66869968D01*
X56708279Y-66880196D01*
X56685757Y-66888254D01*
X56662553Y-66894066D01*
X56638892Y-66897576D01*
X56615000Y-66898750D01*
X56127500Y-66898750D01*
X56103608Y-66897576D01*
X56079947Y-66894066D01*
X56056743Y-66888254D01*
X56034221Y-66880196D01*
X56012597Y-66869968D01*
X55992080Y-66857671D01*
X55972867Y-66843421D01*
X55955143Y-66827357D01*
X55939079Y-66809633D01*
X55924829Y-66790420D01*
X55912532Y-66769903D01*
X55902304Y-66748279D01*
X55894246Y-66725757D01*
X55888434Y-66702553D01*
X55884924Y-66678892D01*
X55883750Y-66655000D01*
X55883750Y-65742500D01*
X55884924Y-65718608D01*
X55888434Y-65694947D01*
X55894246Y-65671743D01*
X55902304Y-65649221D01*
X55912532Y-65627597D01*
X55924829Y-65607080D01*
X55939079Y-65587867D01*
X55955143Y-65570143D01*
X55972867Y-65554079D01*
X55992080Y-65539829D01*
X56012597Y-65527532D01*
X56034221Y-65517304D01*
X56056743Y-65509246D01*
X56079947Y-65503434D01*
X56103608Y-65499924D01*
X56127500Y-65498750D01*
X56615000Y-65498750D01*
X56638892Y-65499924D01*
G37*
G36*
X85882392Y-46513424D02*
G01*
X85906053Y-46516934D01*
X85929257Y-46522746D01*
X85951779Y-46530804D01*
X85973403Y-46541032D01*
X85993920Y-46553329D01*
X86013133Y-46567579D01*
X86030857Y-46583643D01*
X86046921Y-46601367D01*
X86061171Y-46620580D01*
X86073468Y-46641097D01*
X86083696Y-46662721D01*
X86091754Y-46685243D01*
X86097566Y-46708447D01*
X86101076Y-46732108D01*
X86102250Y-46756000D01*
X86102250Y-47668500D01*
X86101076Y-47692392D01*
X86097566Y-47716053D01*
X86091754Y-47739257D01*
X86083696Y-47761779D01*
X86073468Y-47783403D01*
X86061171Y-47803920D01*
X86046921Y-47823133D01*
X86030857Y-47840857D01*
X86013133Y-47856921D01*
X85993920Y-47871171D01*
X85973403Y-47883468D01*
X85951779Y-47893696D01*
X85929257Y-47901754D01*
X85906053Y-47907566D01*
X85882392Y-47911076D01*
X85858500Y-47912250D01*
X85371000Y-47912250D01*
X85347108Y-47911076D01*
X85323447Y-47907566D01*
X85300243Y-47901754D01*
X85277721Y-47893696D01*
X85256097Y-47883468D01*
X85235580Y-47871171D01*
X85216367Y-47856921D01*
X85198643Y-47840857D01*
X85182579Y-47823133D01*
X85168329Y-47803920D01*
X85156032Y-47783403D01*
X85145804Y-47761779D01*
X85137746Y-47739257D01*
X85131934Y-47716053D01*
X85128424Y-47692392D01*
X85127250Y-47668500D01*
X85127250Y-46756000D01*
X85128424Y-46732108D01*
X85131934Y-46708447D01*
X85137746Y-46685243D01*
X85145804Y-46662721D01*
X85156032Y-46641097D01*
X85168329Y-46620580D01*
X85182579Y-46601367D01*
X85198643Y-46583643D01*
X85216367Y-46567579D01*
X85235580Y-46553329D01*
X85256097Y-46541032D01*
X85277721Y-46530804D01*
X85300243Y-46522746D01*
X85323447Y-46516934D01*
X85347108Y-46513424D01*
X85371000Y-46512250D01*
X85858500Y-46512250D01*
X85882392Y-46513424D01*
G37*
G36*
X84007392Y-46513424D02*
G01*
X84031053Y-46516934D01*
X84054257Y-46522746D01*
X84076779Y-46530804D01*
X84098403Y-46541032D01*
X84118920Y-46553329D01*
X84138133Y-46567579D01*
X84155857Y-46583643D01*
X84171921Y-46601367D01*
X84186171Y-46620580D01*
X84198468Y-46641097D01*
X84208696Y-46662721D01*
X84216754Y-46685243D01*
X84222566Y-46708447D01*
X84226076Y-46732108D01*
X84227250Y-46756000D01*
X84227250Y-47668500D01*
X84226076Y-47692392D01*
X84222566Y-47716053D01*
X84216754Y-47739257D01*
X84208696Y-47761779D01*
X84198468Y-47783403D01*
X84186171Y-47803920D01*
X84171921Y-47823133D01*
X84155857Y-47840857D01*
X84138133Y-47856921D01*
X84118920Y-47871171D01*
X84098403Y-47883468D01*
X84076779Y-47893696D01*
X84054257Y-47901754D01*
X84031053Y-47907566D01*
X84007392Y-47911076D01*
X83983500Y-47912250D01*
X83496000Y-47912250D01*
X83472108Y-47911076D01*
X83448447Y-47907566D01*
X83425243Y-47901754D01*
X83402721Y-47893696D01*
X83381097Y-47883468D01*
X83360580Y-47871171D01*
X83341367Y-47856921D01*
X83323643Y-47840857D01*
X83307579Y-47823133D01*
X83293329Y-47803920D01*
X83281032Y-47783403D01*
X83270804Y-47761779D01*
X83262746Y-47739257D01*
X83256934Y-47716053D01*
X83253424Y-47692392D01*
X83252250Y-47668500D01*
X83252250Y-46756000D01*
X83253424Y-46732108D01*
X83256934Y-46708447D01*
X83262746Y-46685243D01*
X83270804Y-46662721D01*
X83281032Y-46641097D01*
X83293329Y-46620580D01*
X83307579Y-46601367D01*
X83323643Y-46583643D01*
X83341367Y-46567579D01*
X83360580Y-46553329D01*
X83381097Y-46541032D01*
X83402721Y-46530804D01*
X83425243Y-46522746D01*
X83448447Y-46516934D01*
X83472108Y-46513424D01*
X83496000Y-46512250D01*
X83983500Y-46512250D01*
X84007392Y-46513424D01*
G37*
G36*
X93438892Y-67087424D02*
G01*
X93462553Y-67090934D01*
X93485757Y-67096746D01*
X93508279Y-67104804D01*
X93529903Y-67115032D01*
X93550420Y-67127329D01*
X93569633Y-67141579D01*
X93587357Y-67157643D01*
X93603421Y-67175367D01*
X93617671Y-67194580D01*
X93629968Y-67215097D01*
X93640196Y-67236721D01*
X93648254Y-67259243D01*
X93654066Y-67282447D01*
X93657576Y-67306108D01*
X93658750Y-67330000D01*
X93658750Y-68242500D01*
X93657576Y-68266392D01*
X93654066Y-68290053D01*
X93648254Y-68313257D01*
X93640196Y-68335779D01*
X93629968Y-68357403D01*
X93617671Y-68377920D01*
X93603421Y-68397133D01*
X93587357Y-68414857D01*
X93569633Y-68430921D01*
X93550420Y-68445171D01*
X93529903Y-68457468D01*
X93508279Y-68467696D01*
X93485757Y-68475754D01*
X93462553Y-68481566D01*
X93438892Y-68485076D01*
X93415000Y-68486250D01*
X92927500Y-68486250D01*
X92903608Y-68485076D01*
X92879947Y-68481566D01*
X92856743Y-68475754D01*
X92834221Y-68467696D01*
X92812597Y-68457468D01*
X92792080Y-68445171D01*
X92772867Y-68430921D01*
X92755143Y-68414857D01*
X92739079Y-68397133D01*
X92724829Y-68377920D01*
X92712532Y-68357403D01*
X92702304Y-68335779D01*
X92694246Y-68313257D01*
X92688434Y-68290053D01*
X92684924Y-68266392D01*
X92683750Y-68242500D01*
X92683750Y-67330000D01*
X92684924Y-67306108D01*
X92688434Y-67282447D01*
X92694246Y-67259243D01*
X92702304Y-67236721D01*
X92712532Y-67215097D01*
X92724829Y-67194580D01*
X92739079Y-67175367D01*
X92755143Y-67157643D01*
X92772867Y-67141579D01*
X92792080Y-67127329D01*
X92812597Y-67115032D01*
X92834221Y-67104804D01*
X92856743Y-67096746D01*
X92879947Y-67090934D01*
X92903608Y-67087424D01*
X92927500Y-67086250D01*
X93415000Y-67086250D01*
X93438892Y-67087424D01*
G37*
G36*
X91563892Y-67087424D02*
G01*
X91587553Y-67090934D01*
X91610757Y-67096746D01*
X91633279Y-67104804D01*
X91654903Y-67115032D01*
X91675420Y-67127329D01*
X91694633Y-67141579D01*
X91712357Y-67157643D01*
X91728421Y-67175367D01*
X91742671Y-67194580D01*
X91754968Y-67215097D01*
X91765196Y-67236721D01*
X91773254Y-67259243D01*
X91779066Y-67282447D01*
X91782576Y-67306108D01*
X91783750Y-67330000D01*
X91783750Y-68242500D01*
X91782576Y-68266392D01*
X91779066Y-68290053D01*
X91773254Y-68313257D01*
X91765196Y-68335779D01*
X91754968Y-68357403D01*
X91742671Y-68377920D01*
X91728421Y-68397133D01*
X91712357Y-68414857D01*
X91694633Y-68430921D01*
X91675420Y-68445171D01*
X91654903Y-68457468D01*
X91633279Y-68467696D01*
X91610757Y-68475754D01*
X91587553Y-68481566D01*
X91563892Y-68485076D01*
X91540000Y-68486250D01*
X91052500Y-68486250D01*
X91028608Y-68485076D01*
X91004947Y-68481566D01*
X90981743Y-68475754D01*
X90959221Y-68467696D01*
X90937597Y-68457468D01*
X90917080Y-68445171D01*
X90897867Y-68430921D01*
X90880143Y-68414857D01*
X90864079Y-68397133D01*
X90849829Y-68377920D01*
X90837532Y-68357403D01*
X90827304Y-68335779D01*
X90819246Y-68313257D01*
X90813434Y-68290053D01*
X90809924Y-68266392D01*
X90808750Y-68242500D01*
X90808750Y-67330000D01*
X90809924Y-67306108D01*
X90813434Y-67282447D01*
X90819246Y-67259243D01*
X90827304Y-67236721D01*
X90837532Y-67215097D01*
X90849829Y-67194580D01*
X90864079Y-67175367D01*
X90880143Y-67157643D01*
X90897867Y-67141579D01*
X90917080Y-67127329D01*
X90937597Y-67115032D01*
X90959221Y-67104804D01*
X90981743Y-67096746D01*
X91004947Y-67090934D01*
X91028608Y-67087424D01*
X91052500Y-67086250D01*
X91540000Y-67086250D01*
X91563892Y-67087424D01*
G37*
G36*
X134782642Y-58712424D02*
G01*
X134806303Y-58715934D01*
X134829507Y-58721746D01*
X134852029Y-58729804D01*
X134873653Y-58740032D01*
X134894170Y-58752329D01*
X134913383Y-58766579D01*
X134931107Y-58782643D01*
X134947171Y-58800367D01*
X134961421Y-58819580D01*
X134973718Y-58840097D01*
X134983946Y-58861721D01*
X134992004Y-58884243D01*
X134997816Y-58907447D01*
X135001326Y-58931108D01*
X135002500Y-58955000D01*
X135002500Y-59442500D01*
X135001326Y-59466392D01*
X134997816Y-59490053D01*
X134992004Y-59513257D01*
X134983946Y-59535779D01*
X134973718Y-59557403D01*
X134961421Y-59577920D01*
X134947171Y-59597133D01*
X134931107Y-59614857D01*
X134913383Y-59630921D01*
X134894170Y-59645171D01*
X134873653Y-59657468D01*
X134852029Y-59667696D01*
X134829507Y-59675754D01*
X134806303Y-59681566D01*
X134782642Y-59685076D01*
X134758750Y-59686250D01*
X133846250Y-59686250D01*
X133822358Y-59685076D01*
X133798697Y-59681566D01*
X133775493Y-59675754D01*
X133752971Y-59667696D01*
X133731347Y-59657468D01*
X133710830Y-59645171D01*
X133691617Y-59630921D01*
X133673893Y-59614857D01*
X133657829Y-59597133D01*
X133643579Y-59577920D01*
X133631282Y-59557403D01*
X133621054Y-59535779D01*
X133612996Y-59513257D01*
X133607184Y-59490053D01*
X133603674Y-59466392D01*
X133602500Y-59442500D01*
X133602500Y-58955000D01*
X133603674Y-58931108D01*
X133607184Y-58907447D01*
X133612996Y-58884243D01*
X133621054Y-58861721D01*
X133631282Y-58840097D01*
X133643579Y-58819580D01*
X133657829Y-58800367D01*
X133673893Y-58782643D01*
X133691617Y-58766579D01*
X133710830Y-58752329D01*
X133731347Y-58740032D01*
X133752971Y-58729804D01*
X133775493Y-58721746D01*
X133798697Y-58715934D01*
X133822358Y-58712424D01*
X133846250Y-58711250D01*
X134758750Y-58711250D01*
X134782642Y-58712424D01*
G37*
G36*
X134782642Y-56837424D02*
G01*
X134806303Y-56840934D01*
X134829507Y-56846746D01*
X134852029Y-56854804D01*
X134873653Y-56865032D01*
X134894170Y-56877329D01*
X134913383Y-56891579D01*
X134931107Y-56907643D01*
X134947171Y-56925367D01*
X134961421Y-56944580D01*
X134973718Y-56965097D01*
X134983946Y-56986721D01*
X134992004Y-57009243D01*
X134997816Y-57032447D01*
X135001326Y-57056108D01*
X135002500Y-57080000D01*
X135002500Y-57567500D01*
X135001326Y-57591392D01*
X134997816Y-57615053D01*
X134992004Y-57638257D01*
X134983946Y-57660779D01*
X134973718Y-57682403D01*
X134961421Y-57702920D01*
X134947171Y-57722133D01*
X134931107Y-57739857D01*
X134913383Y-57755921D01*
X134894170Y-57770171D01*
X134873653Y-57782468D01*
X134852029Y-57792696D01*
X134829507Y-57800754D01*
X134806303Y-57806566D01*
X134782642Y-57810076D01*
X134758750Y-57811250D01*
X133846250Y-57811250D01*
X133822358Y-57810076D01*
X133798697Y-57806566D01*
X133775493Y-57800754D01*
X133752971Y-57792696D01*
X133731347Y-57782468D01*
X133710830Y-57770171D01*
X133691617Y-57755921D01*
X133673893Y-57739857D01*
X133657829Y-57722133D01*
X133643579Y-57702920D01*
X133631282Y-57682403D01*
X133621054Y-57660779D01*
X133612996Y-57638257D01*
X133607184Y-57615053D01*
X133603674Y-57591392D01*
X133602500Y-57567500D01*
X133602500Y-57080000D01*
X133603674Y-57056108D01*
X133607184Y-57032447D01*
X133612996Y-57009243D01*
X133621054Y-56986721D01*
X133631282Y-56965097D01*
X133643579Y-56944580D01*
X133657829Y-56925367D01*
X133673893Y-56907643D01*
X133691617Y-56891579D01*
X133710830Y-56877329D01*
X133731347Y-56865032D01*
X133752971Y-56854804D01*
X133775493Y-56846746D01*
X133798697Y-56840934D01*
X133822358Y-56837424D01*
X133846250Y-56836250D01*
X134758750Y-56836250D01*
X134782642Y-56837424D01*
G37*
G36*
X95888892Y-47312424D02*
G01*
X95912553Y-47315934D01*
X95935757Y-47321746D01*
X95958279Y-47329804D01*
X95979903Y-47340032D01*
X96000420Y-47352329D01*
X96019633Y-47366579D01*
X96037357Y-47382643D01*
X96053421Y-47400367D01*
X96067671Y-47419580D01*
X96079968Y-47440097D01*
X96090196Y-47461721D01*
X96098254Y-47484243D01*
X96104066Y-47507447D01*
X96107576Y-47531108D01*
X96108750Y-47555000D01*
X96108750Y-48042500D01*
X96107576Y-48066392D01*
X96104066Y-48090053D01*
X96098254Y-48113257D01*
X96090196Y-48135779D01*
X96079968Y-48157403D01*
X96067671Y-48177920D01*
X96053421Y-48197133D01*
X96037357Y-48214857D01*
X96019633Y-48230921D01*
X96000420Y-48245171D01*
X95979903Y-48257468D01*
X95958279Y-48267696D01*
X95935757Y-48275754D01*
X95912553Y-48281566D01*
X95888892Y-48285076D01*
X95865000Y-48286250D01*
X94952500Y-48286250D01*
X94928608Y-48285076D01*
X94904947Y-48281566D01*
X94881743Y-48275754D01*
X94859221Y-48267696D01*
X94837597Y-48257468D01*
X94817080Y-48245171D01*
X94797867Y-48230921D01*
X94780143Y-48214857D01*
X94764079Y-48197133D01*
X94749829Y-48177920D01*
X94737532Y-48157403D01*
X94727304Y-48135779D01*
X94719246Y-48113257D01*
X94713434Y-48090053D01*
X94709924Y-48066392D01*
X94708750Y-48042500D01*
X94708750Y-47555000D01*
X94709924Y-47531108D01*
X94713434Y-47507447D01*
X94719246Y-47484243D01*
X94727304Y-47461721D01*
X94737532Y-47440097D01*
X94749829Y-47419580D01*
X94764079Y-47400367D01*
X94780143Y-47382643D01*
X94797867Y-47366579D01*
X94817080Y-47352329D01*
X94837597Y-47340032D01*
X94859221Y-47329804D01*
X94881743Y-47321746D01*
X94904947Y-47315934D01*
X94928608Y-47312424D01*
X94952500Y-47311250D01*
X95865000Y-47311250D01*
X95888892Y-47312424D01*
G37*
G36*
X95888892Y-49187424D02*
G01*
X95912553Y-49190934D01*
X95935757Y-49196746D01*
X95958279Y-49204804D01*
X95979903Y-49215032D01*
X96000420Y-49227329D01*
X96019633Y-49241579D01*
X96037357Y-49257643D01*
X96053421Y-49275367D01*
X96067671Y-49294580D01*
X96079968Y-49315097D01*
X96090196Y-49336721D01*
X96098254Y-49359243D01*
X96104066Y-49382447D01*
X96107576Y-49406108D01*
X96108750Y-49430000D01*
X96108750Y-49917500D01*
X96107576Y-49941392D01*
X96104066Y-49965053D01*
X96098254Y-49988257D01*
X96090196Y-50010779D01*
X96079968Y-50032403D01*
X96067671Y-50052920D01*
X96053421Y-50072133D01*
X96037357Y-50089857D01*
X96019633Y-50105921D01*
X96000420Y-50120171D01*
X95979903Y-50132468D01*
X95958279Y-50142696D01*
X95935757Y-50150754D01*
X95912553Y-50156566D01*
X95888892Y-50160076D01*
X95865000Y-50161250D01*
X94952500Y-50161250D01*
X94928608Y-50160076D01*
X94904947Y-50156566D01*
X94881743Y-50150754D01*
X94859221Y-50142696D01*
X94837597Y-50132468D01*
X94817080Y-50120171D01*
X94797867Y-50105921D01*
X94780143Y-50089857D01*
X94764079Y-50072133D01*
X94749829Y-50052920D01*
X94737532Y-50032403D01*
X94727304Y-50010779D01*
X94719246Y-49988257D01*
X94713434Y-49965053D01*
X94709924Y-49941392D01*
X94708750Y-49917500D01*
X94708750Y-49430000D01*
X94709924Y-49406108D01*
X94713434Y-49382447D01*
X94719246Y-49359243D01*
X94727304Y-49336721D01*
X94737532Y-49315097D01*
X94749829Y-49294580D01*
X94764079Y-49275367D01*
X94780143Y-49257643D01*
X94797867Y-49241579D01*
X94817080Y-49227329D01*
X94837597Y-49215032D01*
X94859221Y-49204804D01*
X94881743Y-49196746D01*
X94904947Y-49190934D01*
X94928608Y-49187424D01*
X94952500Y-49186250D01*
X95865000Y-49186250D01*
X95888892Y-49187424D01*
G37*
G36*
X99063892Y-47312424D02*
G01*
X99087553Y-47315934D01*
X99110757Y-47321746D01*
X99133279Y-47329804D01*
X99154903Y-47340032D01*
X99175420Y-47352329D01*
X99194633Y-47366579D01*
X99212357Y-47382643D01*
X99228421Y-47400367D01*
X99242671Y-47419580D01*
X99254968Y-47440097D01*
X99265196Y-47461721D01*
X99273254Y-47484243D01*
X99279066Y-47507447D01*
X99282576Y-47531108D01*
X99283750Y-47555000D01*
X99283750Y-48042500D01*
X99282576Y-48066392D01*
X99279066Y-48090053D01*
X99273254Y-48113257D01*
X99265196Y-48135779D01*
X99254968Y-48157403D01*
X99242671Y-48177920D01*
X99228421Y-48197133D01*
X99212357Y-48214857D01*
X99194633Y-48230921D01*
X99175420Y-48245171D01*
X99154903Y-48257468D01*
X99133279Y-48267696D01*
X99110757Y-48275754D01*
X99087553Y-48281566D01*
X99063892Y-48285076D01*
X99040000Y-48286250D01*
X98127500Y-48286250D01*
X98103608Y-48285076D01*
X98079947Y-48281566D01*
X98056743Y-48275754D01*
X98034221Y-48267696D01*
X98012597Y-48257468D01*
X97992080Y-48245171D01*
X97972867Y-48230921D01*
X97955143Y-48214857D01*
X97939079Y-48197133D01*
X97924829Y-48177920D01*
X97912532Y-48157403D01*
X97902304Y-48135779D01*
X97894246Y-48113257D01*
X97888434Y-48090053D01*
X97884924Y-48066392D01*
X97883750Y-48042500D01*
X97883750Y-47555000D01*
X97884924Y-47531108D01*
X97888434Y-47507447D01*
X97894246Y-47484243D01*
X97902304Y-47461721D01*
X97912532Y-47440097D01*
X97924829Y-47419580D01*
X97939079Y-47400367D01*
X97955143Y-47382643D01*
X97972867Y-47366579D01*
X97992080Y-47352329D01*
X98012597Y-47340032D01*
X98034221Y-47329804D01*
X98056743Y-47321746D01*
X98079947Y-47315934D01*
X98103608Y-47312424D01*
X98127500Y-47311250D01*
X99040000Y-47311250D01*
X99063892Y-47312424D01*
G37*
G36*
X99063892Y-49187424D02*
G01*
X99087553Y-49190934D01*
X99110757Y-49196746D01*
X99133279Y-49204804D01*
X99154903Y-49215032D01*
X99175420Y-49227329D01*
X99194633Y-49241579D01*
X99212357Y-49257643D01*
X99228421Y-49275367D01*
X99242671Y-49294580D01*
X99254968Y-49315097D01*
X99265196Y-49336721D01*
X99273254Y-49359243D01*
X99279066Y-49382447D01*
X99282576Y-49406108D01*
X99283750Y-49430000D01*
X99283750Y-49917500D01*
X99282576Y-49941392D01*
X99279066Y-49965053D01*
X99273254Y-49988257D01*
X99265196Y-50010779D01*
X99254968Y-50032403D01*
X99242671Y-50052920D01*
X99228421Y-50072133D01*
X99212357Y-50089857D01*
X99194633Y-50105921D01*
X99175420Y-50120171D01*
X99154903Y-50132468D01*
X99133279Y-50142696D01*
X99110757Y-50150754D01*
X99087553Y-50156566D01*
X99063892Y-50160076D01*
X99040000Y-50161250D01*
X98127500Y-50161250D01*
X98103608Y-50160076D01*
X98079947Y-50156566D01*
X98056743Y-50150754D01*
X98034221Y-50142696D01*
X98012597Y-50132468D01*
X97992080Y-50120171D01*
X97972867Y-50105921D01*
X97955143Y-50089857D01*
X97939079Y-50072133D01*
X97924829Y-50052920D01*
X97912532Y-50032403D01*
X97902304Y-50010779D01*
X97894246Y-49988257D01*
X97888434Y-49965053D01*
X97884924Y-49941392D01*
X97883750Y-49917500D01*
X97883750Y-49430000D01*
X97884924Y-49406108D01*
X97888434Y-49382447D01*
X97894246Y-49359243D01*
X97902304Y-49336721D01*
X97912532Y-49315097D01*
X97924829Y-49294580D01*
X97939079Y-49275367D01*
X97955143Y-49257643D01*
X97972867Y-49241579D01*
X97992080Y-49227329D01*
X98012597Y-49215032D01*
X98034221Y-49204804D01*
X98056743Y-49196746D01*
X98079947Y-49190934D01*
X98103608Y-49187424D01*
X98127500Y-49186250D01*
X99040000Y-49186250D01*
X99063892Y-49187424D01*
G37*
G36*
X108588892Y-38581174D02*
G01*
X108612553Y-38584684D01*
X108635757Y-38590496D01*
X108658279Y-38598554D01*
X108679903Y-38608782D01*
X108700420Y-38621079D01*
X108719633Y-38635329D01*
X108737357Y-38651393D01*
X108753421Y-38669117D01*
X108767671Y-38688330D01*
X108779968Y-38708847D01*
X108790196Y-38730471D01*
X108798254Y-38752993D01*
X108804066Y-38776197D01*
X108807576Y-38799858D01*
X108808750Y-38823750D01*
X108808750Y-39311250D01*
X108807576Y-39335142D01*
X108804066Y-39358803D01*
X108798254Y-39382007D01*
X108790196Y-39404529D01*
X108779968Y-39426153D01*
X108767671Y-39446670D01*
X108753421Y-39465883D01*
X108737357Y-39483607D01*
X108719633Y-39499671D01*
X108700420Y-39513921D01*
X108679903Y-39526218D01*
X108658279Y-39536446D01*
X108635757Y-39544504D01*
X108612553Y-39550316D01*
X108588892Y-39553826D01*
X108565000Y-39555000D01*
X107652500Y-39555000D01*
X107628608Y-39553826D01*
X107604947Y-39550316D01*
X107581743Y-39544504D01*
X107559221Y-39536446D01*
X107537597Y-39526218D01*
X107517080Y-39513921D01*
X107497867Y-39499671D01*
X107480143Y-39483607D01*
X107464079Y-39465883D01*
X107449829Y-39446670D01*
X107437532Y-39426153D01*
X107427304Y-39404529D01*
X107419246Y-39382007D01*
X107413434Y-39358803D01*
X107409924Y-39335142D01*
X107408750Y-39311250D01*
X107408750Y-38823750D01*
X107409924Y-38799858D01*
X107413434Y-38776197D01*
X107419246Y-38752993D01*
X107427304Y-38730471D01*
X107437532Y-38708847D01*
X107449829Y-38688330D01*
X107464079Y-38669117D01*
X107480143Y-38651393D01*
X107497867Y-38635329D01*
X107517080Y-38621079D01*
X107537597Y-38608782D01*
X107559221Y-38598554D01*
X107581743Y-38590496D01*
X107604947Y-38584684D01*
X107628608Y-38581174D01*
X107652500Y-38580000D01*
X108565000Y-38580000D01*
X108588892Y-38581174D01*
G37*
G36*
X108588892Y-40456174D02*
G01*
X108612553Y-40459684D01*
X108635757Y-40465496D01*
X108658279Y-40473554D01*
X108679903Y-40483782D01*
X108700420Y-40496079D01*
X108719633Y-40510329D01*
X108737357Y-40526393D01*
X108753421Y-40544117D01*
X108767671Y-40563330D01*
X108779968Y-40583847D01*
X108790196Y-40605471D01*
X108798254Y-40627993D01*
X108804066Y-40651197D01*
X108807576Y-40674858D01*
X108808750Y-40698750D01*
X108808750Y-41186250D01*
X108807576Y-41210142D01*
X108804066Y-41233803D01*
X108798254Y-41257007D01*
X108790196Y-41279529D01*
X108779968Y-41301153D01*
X108767671Y-41321670D01*
X108753421Y-41340883D01*
X108737357Y-41358607D01*
X108719633Y-41374671D01*
X108700420Y-41388921D01*
X108679903Y-41401218D01*
X108658279Y-41411446D01*
X108635757Y-41419504D01*
X108612553Y-41425316D01*
X108588892Y-41428826D01*
X108565000Y-41430000D01*
X107652500Y-41430000D01*
X107628608Y-41428826D01*
X107604947Y-41425316D01*
X107581743Y-41419504D01*
X107559221Y-41411446D01*
X107537597Y-41401218D01*
X107517080Y-41388921D01*
X107497867Y-41374671D01*
X107480143Y-41358607D01*
X107464079Y-41340883D01*
X107449829Y-41321670D01*
X107437532Y-41301153D01*
X107427304Y-41279529D01*
X107419246Y-41257007D01*
X107413434Y-41233803D01*
X107409924Y-41210142D01*
X107408750Y-41186250D01*
X107408750Y-40698750D01*
X107409924Y-40674858D01*
X107413434Y-40651197D01*
X107419246Y-40627993D01*
X107427304Y-40605471D01*
X107437532Y-40583847D01*
X107449829Y-40563330D01*
X107464079Y-40544117D01*
X107480143Y-40526393D01*
X107497867Y-40510329D01*
X107517080Y-40496079D01*
X107537597Y-40483782D01*
X107559221Y-40473554D01*
X107581743Y-40465496D01*
X107604947Y-40459684D01*
X107628608Y-40456174D01*
X107652500Y-40455000D01*
X108565000Y-40455000D01*
X108588892Y-40456174D01*
G37*
G36*
X91295754Y-49512454D02*
G01*
X91320023Y-49516054D01*
X91343821Y-49522015D01*
X91366921Y-49530280D01*
X91389099Y-49540770D01*
X91410143Y-49553383D01*
X91429848Y-49567997D01*
X91448027Y-49584473D01*
X91464503Y-49602652D01*
X91479117Y-49622357D01*
X91491730Y-49643401D01*
X91502220Y-49665579D01*
X91510485Y-49688679D01*
X91516446Y-49712477D01*
X91520046Y-49736746D01*
X91521250Y-49761250D01*
X91521250Y-50511250D01*
X91520046Y-50535754D01*
X91516446Y-50560023D01*
X91510485Y-50583821D01*
X91502220Y-50606921D01*
X91491730Y-50629099D01*
X91479117Y-50650143D01*
X91464503Y-50669848D01*
X91448027Y-50688027D01*
X91429848Y-50704503D01*
X91410143Y-50719117D01*
X91389099Y-50731730D01*
X91366921Y-50742220D01*
X91343821Y-50750485D01*
X91320023Y-50756446D01*
X91295754Y-50760046D01*
X91271250Y-50761250D01*
X90021250Y-50761250D01*
X89996746Y-50760046D01*
X89972477Y-50756446D01*
X89948679Y-50750485D01*
X89925579Y-50742220D01*
X89903401Y-50731730D01*
X89882357Y-50719117D01*
X89862652Y-50704503D01*
X89844473Y-50688027D01*
X89827997Y-50669848D01*
X89813383Y-50650143D01*
X89800770Y-50629099D01*
X89790280Y-50606921D01*
X89782015Y-50583821D01*
X89776054Y-50560023D01*
X89772454Y-50535754D01*
X89771250Y-50511250D01*
X89771250Y-49761250D01*
X89772454Y-49736746D01*
X89776054Y-49712477D01*
X89782015Y-49688679D01*
X89790280Y-49665579D01*
X89800770Y-49643401D01*
X89813383Y-49622357D01*
X89827997Y-49602652D01*
X89844473Y-49584473D01*
X89862652Y-49567997D01*
X89882357Y-49553383D01*
X89903401Y-49540770D01*
X89925579Y-49530280D01*
X89948679Y-49522015D01*
X89972477Y-49516054D01*
X89996746Y-49512454D01*
X90021250Y-49511250D01*
X91271250Y-49511250D01*
X91295754Y-49512454D01*
G37*
G36*
X91295754Y-46712454D02*
G01*
X91320023Y-46716054D01*
X91343821Y-46722015D01*
X91366921Y-46730280D01*
X91389099Y-46740770D01*
X91410143Y-46753383D01*
X91429848Y-46767997D01*
X91448027Y-46784473D01*
X91464503Y-46802652D01*
X91479117Y-46822357D01*
X91491730Y-46843401D01*
X91502220Y-46865579D01*
X91510485Y-46888679D01*
X91516446Y-46912477D01*
X91520046Y-46936746D01*
X91521250Y-46961250D01*
X91521250Y-47711250D01*
X91520046Y-47735754D01*
X91516446Y-47760023D01*
X91510485Y-47783821D01*
X91502220Y-47806921D01*
X91491730Y-47829099D01*
X91479117Y-47850143D01*
X91464503Y-47869848D01*
X91448027Y-47888027D01*
X91429848Y-47904503D01*
X91410143Y-47919117D01*
X91389099Y-47931730D01*
X91366921Y-47942220D01*
X91343821Y-47950485D01*
X91320023Y-47956446D01*
X91295754Y-47960046D01*
X91271250Y-47961250D01*
X90021250Y-47961250D01*
X89996746Y-47960046D01*
X89972477Y-47956446D01*
X89948679Y-47950485D01*
X89925579Y-47942220D01*
X89903401Y-47931730D01*
X89882357Y-47919117D01*
X89862652Y-47904503D01*
X89844473Y-47888027D01*
X89827997Y-47869848D01*
X89813383Y-47850143D01*
X89800770Y-47829099D01*
X89790280Y-47806921D01*
X89782015Y-47783821D01*
X89776054Y-47760023D01*
X89772454Y-47735754D01*
X89771250Y-47711250D01*
X89771250Y-46961250D01*
X89772454Y-46936746D01*
X89776054Y-46912477D01*
X89782015Y-46888679D01*
X89790280Y-46865579D01*
X89800770Y-46843401D01*
X89813383Y-46822357D01*
X89827997Y-46802652D01*
X89844473Y-46784473D01*
X89862652Y-46767997D01*
X89882357Y-46753383D01*
X89903401Y-46740770D01*
X89925579Y-46730280D01*
X89948679Y-46722015D01*
X89972477Y-46716054D01*
X89996746Y-46712454D01*
X90021250Y-46711250D01*
X91271250Y-46711250D01*
X91295754Y-46712454D01*
G37*
G36*
X116519392Y-67341424D02*
G01*
X116543053Y-67344934D01*
X116566257Y-67350746D01*
X116588779Y-67358804D01*
X116610403Y-67369032D01*
X116630920Y-67381329D01*
X116650133Y-67395579D01*
X116667857Y-67411643D01*
X116683921Y-67429367D01*
X116698171Y-67448580D01*
X116710468Y-67469097D01*
X116720696Y-67490721D01*
X116728754Y-67513243D01*
X116734566Y-67536447D01*
X116738076Y-67560108D01*
X116739250Y-67584000D01*
X116739250Y-68496500D01*
X116738076Y-68520392D01*
X116734566Y-68544053D01*
X116728754Y-68567257D01*
X116720696Y-68589779D01*
X116710468Y-68611403D01*
X116698171Y-68631920D01*
X116683921Y-68651133D01*
X116667857Y-68668857D01*
X116650133Y-68684921D01*
X116630920Y-68699171D01*
X116610403Y-68711468D01*
X116588779Y-68721696D01*
X116566257Y-68729754D01*
X116543053Y-68735566D01*
X116519392Y-68739076D01*
X116495500Y-68740250D01*
X116008000Y-68740250D01*
X115984108Y-68739076D01*
X115960447Y-68735566D01*
X115937243Y-68729754D01*
X115914721Y-68721696D01*
X115893097Y-68711468D01*
X115872580Y-68699171D01*
X115853367Y-68684921D01*
X115835643Y-68668857D01*
X115819579Y-68651133D01*
X115805329Y-68631920D01*
X115793032Y-68611403D01*
X115782804Y-68589779D01*
X115774746Y-68567257D01*
X115768934Y-68544053D01*
X115765424Y-68520392D01*
X115764250Y-68496500D01*
X115764250Y-67584000D01*
X115765424Y-67560108D01*
X115768934Y-67536447D01*
X115774746Y-67513243D01*
X115782804Y-67490721D01*
X115793032Y-67469097D01*
X115805329Y-67448580D01*
X115819579Y-67429367D01*
X115835643Y-67411643D01*
X115853367Y-67395579D01*
X115872580Y-67381329D01*
X115893097Y-67369032D01*
X115914721Y-67358804D01*
X115937243Y-67350746D01*
X115960447Y-67344934D01*
X115984108Y-67341424D01*
X116008000Y-67340250D01*
X116495500Y-67340250D01*
X116519392Y-67341424D01*
G37*
G36*
X118394392Y-67341424D02*
G01*
X118418053Y-67344934D01*
X118441257Y-67350746D01*
X118463779Y-67358804D01*
X118485403Y-67369032D01*
X118505920Y-67381329D01*
X118525133Y-67395579D01*
X118542857Y-67411643D01*
X118558921Y-67429367D01*
X118573171Y-67448580D01*
X118585468Y-67469097D01*
X118595696Y-67490721D01*
X118603754Y-67513243D01*
X118609566Y-67536447D01*
X118613076Y-67560108D01*
X118614250Y-67584000D01*
X118614250Y-68496500D01*
X118613076Y-68520392D01*
X118609566Y-68544053D01*
X118603754Y-68567257D01*
X118595696Y-68589779D01*
X118585468Y-68611403D01*
X118573171Y-68631920D01*
X118558921Y-68651133D01*
X118542857Y-68668857D01*
X118525133Y-68684921D01*
X118505920Y-68699171D01*
X118485403Y-68711468D01*
X118463779Y-68721696D01*
X118441257Y-68729754D01*
X118418053Y-68735566D01*
X118394392Y-68739076D01*
X118370500Y-68740250D01*
X117883000Y-68740250D01*
X117859108Y-68739076D01*
X117835447Y-68735566D01*
X117812243Y-68729754D01*
X117789721Y-68721696D01*
X117768097Y-68711468D01*
X117747580Y-68699171D01*
X117728367Y-68684921D01*
X117710643Y-68668857D01*
X117694579Y-68651133D01*
X117680329Y-68631920D01*
X117668032Y-68611403D01*
X117657804Y-68589779D01*
X117649746Y-68567257D01*
X117643934Y-68544053D01*
X117640424Y-68520392D01*
X117639250Y-68496500D01*
X117639250Y-67584000D01*
X117640424Y-67560108D01*
X117643934Y-67536447D01*
X117649746Y-67513243D01*
X117657804Y-67490721D01*
X117668032Y-67469097D01*
X117680329Y-67448580D01*
X117694579Y-67429367D01*
X117710643Y-67411643D01*
X117728367Y-67395579D01*
X117747580Y-67381329D01*
X117768097Y-67369032D01*
X117789721Y-67358804D01*
X117812243Y-67350746D01*
X117835447Y-67344934D01*
X117859108Y-67341424D01*
X117883000Y-67340250D01*
X118370500Y-67340250D01*
X118394392Y-67341424D01*
G37*
G36*
X107795142Y-55537424D02*
G01*
X107818803Y-55540934D01*
X107842007Y-55546746D01*
X107864529Y-55554804D01*
X107886153Y-55565032D01*
X107906670Y-55577329D01*
X107925883Y-55591579D01*
X107943607Y-55607643D01*
X107959671Y-55625367D01*
X107973921Y-55644580D01*
X107986218Y-55665097D01*
X107996446Y-55686721D01*
X108004504Y-55709243D01*
X108010316Y-55732447D01*
X108013826Y-55756108D01*
X108015000Y-55780000D01*
X108015000Y-56267500D01*
X108013826Y-56291392D01*
X108010316Y-56315053D01*
X108004504Y-56338257D01*
X107996446Y-56360779D01*
X107986218Y-56382403D01*
X107973921Y-56402920D01*
X107959671Y-56422133D01*
X107943607Y-56439857D01*
X107925883Y-56455921D01*
X107906670Y-56470171D01*
X107886153Y-56482468D01*
X107864529Y-56492696D01*
X107842007Y-56500754D01*
X107818803Y-56506566D01*
X107795142Y-56510076D01*
X107771250Y-56511250D01*
X106858750Y-56511250D01*
X106834858Y-56510076D01*
X106811197Y-56506566D01*
X106787993Y-56500754D01*
X106765471Y-56492696D01*
X106743847Y-56482468D01*
X106723330Y-56470171D01*
X106704117Y-56455921D01*
X106686393Y-56439857D01*
X106670329Y-56422133D01*
X106656079Y-56402920D01*
X106643782Y-56382403D01*
X106633554Y-56360779D01*
X106625496Y-56338257D01*
X106619684Y-56315053D01*
X106616174Y-56291392D01*
X106615000Y-56267500D01*
X106615000Y-55780000D01*
X106616174Y-55756108D01*
X106619684Y-55732447D01*
X106625496Y-55709243D01*
X106633554Y-55686721D01*
X106643782Y-55665097D01*
X106656079Y-55644580D01*
X106670329Y-55625367D01*
X106686393Y-55607643D01*
X106704117Y-55591579D01*
X106723330Y-55577329D01*
X106743847Y-55565032D01*
X106765471Y-55554804D01*
X106787993Y-55546746D01*
X106811197Y-55540934D01*
X106834858Y-55537424D01*
X106858750Y-55536250D01*
X107771250Y-55536250D01*
X107795142Y-55537424D01*
G37*
G36*
X107795142Y-53662424D02*
G01*
X107818803Y-53665934D01*
X107842007Y-53671746D01*
X107864529Y-53679804D01*
X107886153Y-53690032D01*
X107906670Y-53702329D01*
X107925883Y-53716579D01*
X107943607Y-53732643D01*
X107959671Y-53750367D01*
X107973921Y-53769580D01*
X107986218Y-53790097D01*
X107996446Y-53811721D01*
X108004504Y-53834243D01*
X108010316Y-53857447D01*
X108013826Y-53881108D01*
X108015000Y-53905000D01*
X108015000Y-54392500D01*
X108013826Y-54416392D01*
X108010316Y-54440053D01*
X108004504Y-54463257D01*
X107996446Y-54485779D01*
X107986218Y-54507403D01*
X107973921Y-54527920D01*
X107959671Y-54547133D01*
X107943607Y-54564857D01*
X107925883Y-54580921D01*
X107906670Y-54595171D01*
X107886153Y-54607468D01*
X107864529Y-54617696D01*
X107842007Y-54625754D01*
X107818803Y-54631566D01*
X107795142Y-54635076D01*
X107771250Y-54636250D01*
X106858750Y-54636250D01*
X106834858Y-54635076D01*
X106811197Y-54631566D01*
X106787993Y-54625754D01*
X106765471Y-54617696D01*
X106743847Y-54607468D01*
X106723330Y-54595171D01*
X106704117Y-54580921D01*
X106686393Y-54564857D01*
X106670329Y-54547133D01*
X106656079Y-54527920D01*
X106643782Y-54507403D01*
X106633554Y-54485779D01*
X106625496Y-54463257D01*
X106619684Y-54440053D01*
X106616174Y-54416392D01*
X106615000Y-54392500D01*
X106615000Y-53905000D01*
X106616174Y-53881108D01*
X106619684Y-53857447D01*
X106625496Y-53834243D01*
X106633554Y-53811721D01*
X106643782Y-53790097D01*
X106656079Y-53769580D01*
X106670329Y-53750367D01*
X106686393Y-53732643D01*
X106704117Y-53716579D01*
X106723330Y-53702329D01*
X106743847Y-53690032D01*
X106765471Y-53679804D01*
X106787993Y-53671746D01*
X106811197Y-53665934D01*
X106834858Y-53662424D01*
X106858750Y-53661250D01*
X107771250Y-53661250D01*
X107795142Y-53662424D01*
G37*
G36*
X125797392Y-42740424D02*
G01*
X125821053Y-42743934D01*
X125844257Y-42749746D01*
X125866779Y-42757804D01*
X125888403Y-42768032D01*
X125908920Y-42780329D01*
X125928133Y-42794579D01*
X125945857Y-42810643D01*
X125961921Y-42828367D01*
X125976171Y-42847580D01*
X125988468Y-42868097D01*
X125998696Y-42889721D01*
X126006754Y-42912243D01*
X126012566Y-42935447D01*
X126016076Y-42959108D01*
X126017250Y-42983000D01*
X126017250Y-43470500D01*
X126016076Y-43494392D01*
X126012566Y-43518053D01*
X126006754Y-43541257D01*
X125998696Y-43563779D01*
X125988468Y-43585403D01*
X125976171Y-43605920D01*
X125961921Y-43625133D01*
X125945857Y-43642857D01*
X125928133Y-43658921D01*
X125908920Y-43673171D01*
X125888403Y-43685468D01*
X125866779Y-43695696D01*
X125844257Y-43703754D01*
X125821053Y-43709566D01*
X125797392Y-43713076D01*
X125773500Y-43714250D01*
X124861000Y-43714250D01*
X124837108Y-43713076D01*
X124813447Y-43709566D01*
X124790243Y-43703754D01*
X124767721Y-43695696D01*
X124746097Y-43685468D01*
X124725580Y-43673171D01*
X124706367Y-43658921D01*
X124688643Y-43642857D01*
X124672579Y-43625133D01*
X124658329Y-43605920D01*
X124646032Y-43585403D01*
X124635804Y-43563779D01*
X124627746Y-43541257D01*
X124621934Y-43518053D01*
X124618424Y-43494392D01*
X124617250Y-43470500D01*
X124617250Y-42983000D01*
X124618424Y-42959108D01*
X124621934Y-42935447D01*
X124627746Y-42912243D01*
X124635804Y-42889721D01*
X124646032Y-42868097D01*
X124658329Y-42847580D01*
X124672579Y-42828367D01*
X124688643Y-42810643D01*
X124706367Y-42794579D01*
X124725580Y-42780329D01*
X124746097Y-42768032D01*
X124767721Y-42757804D01*
X124790243Y-42749746D01*
X124813447Y-42743934D01*
X124837108Y-42740424D01*
X124861000Y-42739250D01*
X125773500Y-42739250D01*
X125797392Y-42740424D01*
G37*
G36*
X125797392Y-44615424D02*
G01*
X125821053Y-44618934D01*
X125844257Y-44624746D01*
X125866779Y-44632804D01*
X125888403Y-44643032D01*
X125908920Y-44655329D01*
X125928133Y-44669579D01*
X125945857Y-44685643D01*
X125961921Y-44703367D01*
X125976171Y-44722580D01*
X125988468Y-44743097D01*
X125998696Y-44764721D01*
X126006754Y-44787243D01*
X126012566Y-44810447D01*
X126016076Y-44834108D01*
X126017250Y-44858000D01*
X126017250Y-45345500D01*
X126016076Y-45369392D01*
X126012566Y-45393053D01*
X126006754Y-45416257D01*
X125998696Y-45438779D01*
X125988468Y-45460403D01*
X125976171Y-45480920D01*
X125961921Y-45500133D01*
X125945857Y-45517857D01*
X125928133Y-45533921D01*
X125908920Y-45548171D01*
X125888403Y-45560468D01*
X125866779Y-45570696D01*
X125844257Y-45578754D01*
X125821053Y-45584566D01*
X125797392Y-45588076D01*
X125773500Y-45589250D01*
X124861000Y-45589250D01*
X124837108Y-45588076D01*
X124813447Y-45584566D01*
X124790243Y-45578754D01*
X124767721Y-45570696D01*
X124746097Y-45560468D01*
X124725580Y-45548171D01*
X124706367Y-45533921D01*
X124688643Y-45517857D01*
X124672579Y-45500133D01*
X124658329Y-45480920D01*
X124646032Y-45460403D01*
X124635804Y-45438779D01*
X124627746Y-45416257D01*
X124621934Y-45393053D01*
X124618424Y-45369392D01*
X124617250Y-45345500D01*
X124617250Y-44858000D01*
X124618424Y-44834108D01*
X124621934Y-44810447D01*
X124627746Y-44787243D01*
X124635804Y-44764721D01*
X124646032Y-44743097D01*
X124658329Y-44722580D01*
X124672579Y-44703367D01*
X124688643Y-44685643D01*
X124706367Y-44669579D01*
X124725580Y-44655329D01*
X124746097Y-44643032D01*
X124767721Y-44632804D01*
X124790243Y-44624746D01*
X124813447Y-44618934D01*
X124837108Y-44615424D01*
X124861000Y-44614250D01*
X125773500Y-44614250D01*
X125797392Y-44615424D01*
G37*
G36*
X114113392Y-44615424D02*
G01*
X114137053Y-44618934D01*
X114160257Y-44624746D01*
X114182779Y-44632804D01*
X114204403Y-44643032D01*
X114224920Y-44655329D01*
X114244133Y-44669579D01*
X114261857Y-44685643D01*
X114277921Y-44703367D01*
X114292171Y-44722580D01*
X114304468Y-44743097D01*
X114314696Y-44764721D01*
X114322754Y-44787243D01*
X114328566Y-44810447D01*
X114332076Y-44834108D01*
X114333250Y-44858000D01*
X114333250Y-45345500D01*
X114332076Y-45369392D01*
X114328566Y-45393053D01*
X114322754Y-45416257D01*
X114314696Y-45438779D01*
X114304468Y-45460403D01*
X114292171Y-45480920D01*
X114277921Y-45500133D01*
X114261857Y-45517857D01*
X114244133Y-45533921D01*
X114224920Y-45548171D01*
X114204403Y-45560468D01*
X114182779Y-45570696D01*
X114160257Y-45578754D01*
X114137053Y-45584566D01*
X114113392Y-45588076D01*
X114089500Y-45589250D01*
X113177000Y-45589250D01*
X113153108Y-45588076D01*
X113129447Y-45584566D01*
X113106243Y-45578754D01*
X113083721Y-45570696D01*
X113062097Y-45560468D01*
X113041580Y-45548171D01*
X113022367Y-45533921D01*
X113004643Y-45517857D01*
X112988579Y-45500133D01*
X112974329Y-45480920D01*
X112962032Y-45460403D01*
X112951804Y-45438779D01*
X112943746Y-45416257D01*
X112937934Y-45393053D01*
X112934424Y-45369392D01*
X112933250Y-45345500D01*
X112933250Y-44858000D01*
X112934424Y-44834108D01*
X112937934Y-44810447D01*
X112943746Y-44787243D01*
X112951804Y-44764721D01*
X112962032Y-44743097D01*
X112974329Y-44722580D01*
X112988579Y-44703367D01*
X113004643Y-44685643D01*
X113022367Y-44669579D01*
X113041580Y-44655329D01*
X113062097Y-44643032D01*
X113083721Y-44632804D01*
X113106243Y-44624746D01*
X113129447Y-44618934D01*
X113153108Y-44615424D01*
X113177000Y-44614250D01*
X114089500Y-44614250D01*
X114113392Y-44615424D01*
G37*
G36*
X114113392Y-42740424D02*
G01*
X114137053Y-42743934D01*
X114160257Y-42749746D01*
X114182779Y-42757804D01*
X114204403Y-42768032D01*
X114224920Y-42780329D01*
X114244133Y-42794579D01*
X114261857Y-42810643D01*
X114277921Y-42828367D01*
X114292171Y-42847580D01*
X114304468Y-42868097D01*
X114314696Y-42889721D01*
X114322754Y-42912243D01*
X114328566Y-42935447D01*
X114332076Y-42959108D01*
X114333250Y-42983000D01*
X114333250Y-43470500D01*
X114332076Y-43494392D01*
X114328566Y-43518053D01*
X114322754Y-43541257D01*
X114314696Y-43563779D01*
X114304468Y-43585403D01*
X114292171Y-43605920D01*
X114277921Y-43625133D01*
X114261857Y-43642857D01*
X114244133Y-43658921D01*
X114224920Y-43673171D01*
X114204403Y-43685468D01*
X114182779Y-43695696D01*
X114160257Y-43703754D01*
X114137053Y-43709566D01*
X114113392Y-43713076D01*
X114089500Y-43714250D01*
X113177000Y-43714250D01*
X113153108Y-43713076D01*
X113129447Y-43709566D01*
X113106243Y-43703754D01*
X113083721Y-43695696D01*
X113062097Y-43685468D01*
X113041580Y-43673171D01*
X113022367Y-43658921D01*
X113004643Y-43642857D01*
X112988579Y-43625133D01*
X112974329Y-43605920D01*
X112962032Y-43585403D01*
X112951804Y-43563779D01*
X112943746Y-43541257D01*
X112937934Y-43518053D01*
X112934424Y-43494392D01*
X112933250Y-43470500D01*
X112933250Y-42983000D01*
X112934424Y-42959108D01*
X112937934Y-42935447D01*
X112943746Y-42912243D01*
X112951804Y-42889721D01*
X112962032Y-42868097D01*
X112974329Y-42847580D01*
X112988579Y-42828367D01*
X113004643Y-42810643D01*
X113022367Y-42794579D01*
X113041580Y-42780329D01*
X113062097Y-42768032D01*
X113083721Y-42757804D01*
X113106243Y-42749746D01*
X113129447Y-42743934D01*
X113153108Y-42740424D01*
X113177000Y-42739250D01*
X114089500Y-42739250D01*
X114113392Y-42740424D01*
G37*
G36*
X101376392Y-62324924D02*
G01*
X101400053Y-62328434D01*
X101423257Y-62334246D01*
X101445779Y-62342304D01*
X101467403Y-62352532D01*
X101487920Y-62364829D01*
X101507133Y-62379079D01*
X101524857Y-62395143D01*
X101540921Y-62412867D01*
X101555171Y-62432080D01*
X101567468Y-62452597D01*
X101577696Y-62474221D01*
X101585754Y-62496743D01*
X101591566Y-62519947D01*
X101595076Y-62543608D01*
X101596250Y-62567500D01*
X101596250Y-63480000D01*
X101595076Y-63503892D01*
X101591566Y-63527553D01*
X101585754Y-63550757D01*
X101577696Y-63573279D01*
X101567468Y-63594903D01*
X101555171Y-63615420D01*
X101540921Y-63634633D01*
X101524857Y-63652357D01*
X101507133Y-63668421D01*
X101487920Y-63682671D01*
X101467403Y-63694968D01*
X101445779Y-63705196D01*
X101423257Y-63713254D01*
X101400053Y-63719066D01*
X101376392Y-63722576D01*
X101352500Y-63723750D01*
X100865000Y-63723750D01*
X100841108Y-63722576D01*
X100817447Y-63719066D01*
X100794243Y-63713254D01*
X100771721Y-63705196D01*
X100750097Y-63694968D01*
X100729580Y-63682671D01*
X100710367Y-63668421D01*
X100692643Y-63652357D01*
X100676579Y-63634633D01*
X100662329Y-63615420D01*
X100650032Y-63594903D01*
X100639804Y-63573279D01*
X100631746Y-63550757D01*
X100625934Y-63527553D01*
X100622424Y-63503892D01*
X100621250Y-63480000D01*
X100621250Y-62567500D01*
X100622424Y-62543608D01*
X100625934Y-62519947D01*
X100631746Y-62496743D01*
X100639804Y-62474221D01*
X100650032Y-62452597D01*
X100662329Y-62432080D01*
X100676579Y-62412867D01*
X100692643Y-62395143D01*
X100710367Y-62379079D01*
X100729580Y-62364829D01*
X100750097Y-62352532D01*
X100771721Y-62342304D01*
X100794243Y-62334246D01*
X100817447Y-62328434D01*
X100841108Y-62324924D01*
X100865000Y-62323750D01*
X101352500Y-62323750D01*
X101376392Y-62324924D01*
G37*
G36*
X99501392Y-62324924D02*
G01*
X99525053Y-62328434D01*
X99548257Y-62334246D01*
X99570779Y-62342304D01*
X99592403Y-62352532D01*
X99612920Y-62364829D01*
X99632133Y-62379079D01*
X99649857Y-62395143D01*
X99665921Y-62412867D01*
X99680171Y-62432080D01*
X99692468Y-62452597D01*
X99702696Y-62474221D01*
X99710754Y-62496743D01*
X99716566Y-62519947D01*
X99720076Y-62543608D01*
X99721250Y-62567500D01*
X99721250Y-63480000D01*
X99720076Y-63503892D01*
X99716566Y-63527553D01*
X99710754Y-63550757D01*
X99702696Y-63573279D01*
X99692468Y-63594903D01*
X99680171Y-63615420D01*
X99665921Y-63634633D01*
X99649857Y-63652357D01*
X99632133Y-63668421D01*
X99612920Y-63682671D01*
X99592403Y-63694968D01*
X99570779Y-63705196D01*
X99548257Y-63713254D01*
X99525053Y-63719066D01*
X99501392Y-63722576D01*
X99477500Y-63723750D01*
X98990000Y-63723750D01*
X98966108Y-63722576D01*
X98942447Y-63719066D01*
X98919243Y-63713254D01*
X98896721Y-63705196D01*
X98875097Y-63694968D01*
X98854580Y-63682671D01*
X98835367Y-63668421D01*
X98817643Y-63652357D01*
X98801579Y-63634633D01*
X98787329Y-63615420D01*
X98775032Y-63594903D01*
X98764804Y-63573279D01*
X98756746Y-63550757D01*
X98750934Y-63527553D01*
X98747424Y-63503892D01*
X98746250Y-63480000D01*
X98746250Y-62567500D01*
X98747424Y-62543608D01*
X98750934Y-62519947D01*
X98756746Y-62496743D01*
X98764804Y-62474221D01*
X98775032Y-62452597D01*
X98787329Y-62432080D01*
X98801579Y-62412867D01*
X98817643Y-62395143D01*
X98835367Y-62379079D01*
X98854580Y-62364829D01*
X98875097Y-62352532D01*
X98896721Y-62342304D01*
X98919243Y-62334246D01*
X98942447Y-62328434D01*
X98966108Y-62324924D01*
X98990000Y-62323750D01*
X99477500Y-62323750D01*
X99501392Y-62324924D01*
G37*
G36*
X110613892Y-67341424D02*
G01*
X110637553Y-67344934D01*
X110660757Y-67350746D01*
X110683279Y-67358804D01*
X110704903Y-67369032D01*
X110725420Y-67381329D01*
X110744633Y-67395579D01*
X110762357Y-67411643D01*
X110778421Y-67429367D01*
X110792671Y-67448580D01*
X110804968Y-67469097D01*
X110815196Y-67490721D01*
X110823254Y-67513243D01*
X110829066Y-67536447D01*
X110832576Y-67560108D01*
X110833750Y-67584000D01*
X110833750Y-68496500D01*
X110832576Y-68520392D01*
X110829066Y-68544053D01*
X110823254Y-68567257D01*
X110815196Y-68589779D01*
X110804968Y-68611403D01*
X110792671Y-68631920D01*
X110778421Y-68651133D01*
X110762357Y-68668857D01*
X110744633Y-68684921D01*
X110725420Y-68699171D01*
X110704903Y-68711468D01*
X110683279Y-68721696D01*
X110660757Y-68729754D01*
X110637553Y-68735566D01*
X110613892Y-68739076D01*
X110590000Y-68740250D01*
X110102500Y-68740250D01*
X110078608Y-68739076D01*
X110054947Y-68735566D01*
X110031743Y-68729754D01*
X110009221Y-68721696D01*
X109987597Y-68711468D01*
X109967080Y-68699171D01*
X109947867Y-68684921D01*
X109930143Y-68668857D01*
X109914079Y-68651133D01*
X109899829Y-68631920D01*
X109887532Y-68611403D01*
X109877304Y-68589779D01*
X109869246Y-68567257D01*
X109863434Y-68544053D01*
X109859924Y-68520392D01*
X109858750Y-68496500D01*
X109858750Y-67584000D01*
X109859924Y-67560108D01*
X109863434Y-67536447D01*
X109869246Y-67513243D01*
X109877304Y-67490721D01*
X109887532Y-67469097D01*
X109899829Y-67448580D01*
X109914079Y-67429367D01*
X109930143Y-67411643D01*
X109947867Y-67395579D01*
X109967080Y-67381329D01*
X109987597Y-67369032D01*
X110009221Y-67358804D01*
X110031743Y-67350746D01*
X110054947Y-67344934D01*
X110078608Y-67341424D01*
X110102500Y-67340250D01*
X110590000Y-67340250D01*
X110613892Y-67341424D01*
G37*
G36*
X112488892Y-67341424D02*
G01*
X112512553Y-67344934D01*
X112535757Y-67350746D01*
X112558279Y-67358804D01*
X112579903Y-67369032D01*
X112600420Y-67381329D01*
X112619633Y-67395579D01*
X112637357Y-67411643D01*
X112653421Y-67429367D01*
X112667671Y-67448580D01*
X112679968Y-67469097D01*
X112690196Y-67490721D01*
X112698254Y-67513243D01*
X112704066Y-67536447D01*
X112707576Y-67560108D01*
X112708750Y-67584000D01*
X112708750Y-68496500D01*
X112707576Y-68520392D01*
X112704066Y-68544053D01*
X112698254Y-68567257D01*
X112690196Y-68589779D01*
X112679968Y-68611403D01*
X112667671Y-68631920D01*
X112653421Y-68651133D01*
X112637357Y-68668857D01*
X112619633Y-68684921D01*
X112600420Y-68699171D01*
X112579903Y-68711468D01*
X112558279Y-68721696D01*
X112535757Y-68729754D01*
X112512553Y-68735566D01*
X112488892Y-68739076D01*
X112465000Y-68740250D01*
X111977500Y-68740250D01*
X111953608Y-68739076D01*
X111929947Y-68735566D01*
X111906743Y-68729754D01*
X111884221Y-68721696D01*
X111862597Y-68711468D01*
X111842080Y-68699171D01*
X111822867Y-68684921D01*
X111805143Y-68668857D01*
X111789079Y-68651133D01*
X111774829Y-68631920D01*
X111762532Y-68611403D01*
X111752304Y-68589779D01*
X111744246Y-68567257D01*
X111738434Y-68544053D01*
X111734924Y-68520392D01*
X111733750Y-68496500D01*
X111733750Y-67584000D01*
X111734924Y-67560108D01*
X111738434Y-67536447D01*
X111744246Y-67513243D01*
X111752304Y-67490721D01*
X111762532Y-67469097D01*
X111774829Y-67448580D01*
X111789079Y-67429367D01*
X111805143Y-67411643D01*
X111822867Y-67395579D01*
X111842080Y-67381329D01*
X111862597Y-67369032D01*
X111884221Y-67358804D01*
X111906743Y-67350746D01*
X111929947Y-67344934D01*
X111953608Y-67341424D01*
X111977500Y-67340250D01*
X112465000Y-67340250D01*
X112488892Y-67341424D01*
G37*
G36*
X131607642Y-58424924D02*
G01*
X131631303Y-58428434D01*
X131654507Y-58434246D01*
X131677029Y-58442304D01*
X131698653Y-58452532D01*
X131719170Y-58464829D01*
X131738383Y-58479079D01*
X131756107Y-58495143D01*
X131772171Y-58512867D01*
X131786421Y-58532080D01*
X131798718Y-58552597D01*
X131808946Y-58574221D01*
X131817004Y-58596743D01*
X131822816Y-58619947D01*
X131826326Y-58643608D01*
X131827500Y-58667500D01*
X131827500Y-59155000D01*
X131826326Y-59178892D01*
X131822816Y-59202553D01*
X131817004Y-59225757D01*
X131808946Y-59248279D01*
X131798718Y-59269903D01*
X131786421Y-59290420D01*
X131772171Y-59309633D01*
X131756107Y-59327357D01*
X131738383Y-59343421D01*
X131719170Y-59357671D01*
X131698653Y-59369968D01*
X131677029Y-59380196D01*
X131654507Y-59388254D01*
X131631303Y-59394066D01*
X131607642Y-59397576D01*
X131583750Y-59398750D01*
X130671250Y-59398750D01*
X130647358Y-59397576D01*
X130623697Y-59394066D01*
X130600493Y-59388254D01*
X130577971Y-59380196D01*
X130556347Y-59369968D01*
X130535830Y-59357671D01*
X130516617Y-59343421D01*
X130498893Y-59327357D01*
X130482829Y-59309633D01*
X130468579Y-59290420D01*
X130456282Y-59269903D01*
X130446054Y-59248279D01*
X130437996Y-59225757D01*
X130432184Y-59202553D01*
X130428674Y-59178892D01*
X130427500Y-59155000D01*
X130427500Y-58667500D01*
X130428674Y-58643608D01*
X130432184Y-58619947D01*
X130437996Y-58596743D01*
X130446054Y-58574221D01*
X130456282Y-58552597D01*
X130468579Y-58532080D01*
X130482829Y-58512867D01*
X130498893Y-58495143D01*
X130516617Y-58479079D01*
X130535830Y-58464829D01*
X130556347Y-58452532D01*
X130577971Y-58442304D01*
X130600493Y-58434246D01*
X130623697Y-58428434D01*
X130647358Y-58424924D01*
X130671250Y-58423750D01*
X131583750Y-58423750D01*
X131607642Y-58424924D01*
G37*
G36*
X131607642Y-60299924D02*
G01*
X131631303Y-60303434D01*
X131654507Y-60309246D01*
X131677029Y-60317304D01*
X131698653Y-60327532D01*
X131719170Y-60339829D01*
X131738383Y-60354079D01*
X131756107Y-60370143D01*
X131772171Y-60387867D01*
X131786421Y-60407080D01*
X131798718Y-60427597D01*
X131808946Y-60449221D01*
X131817004Y-60471743D01*
X131822816Y-60494947D01*
X131826326Y-60518608D01*
X131827500Y-60542500D01*
X131827500Y-61030000D01*
X131826326Y-61053892D01*
X131822816Y-61077553D01*
X131817004Y-61100757D01*
X131808946Y-61123279D01*
X131798718Y-61144903D01*
X131786421Y-61165420D01*
X131772171Y-61184633D01*
X131756107Y-61202357D01*
X131738383Y-61218421D01*
X131719170Y-61232671D01*
X131698653Y-61244968D01*
X131677029Y-61255196D01*
X131654507Y-61263254D01*
X131631303Y-61269066D01*
X131607642Y-61272576D01*
X131583750Y-61273750D01*
X130671250Y-61273750D01*
X130647358Y-61272576D01*
X130623697Y-61269066D01*
X130600493Y-61263254D01*
X130577971Y-61255196D01*
X130556347Y-61244968D01*
X130535830Y-61232671D01*
X130516617Y-61218421D01*
X130498893Y-61202357D01*
X130482829Y-61184633D01*
X130468579Y-61165420D01*
X130456282Y-61144903D01*
X130446054Y-61123279D01*
X130437996Y-61100757D01*
X130432184Y-61077553D01*
X130428674Y-61053892D01*
X130427500Y-61030000D01*
X130427500Y-60542500D01*
X130428674Y-60518608D01*
X130432184Y-60494947D01*
X130437996Y-60471743D01*
X130446054Y-60449221D01*
X130456282Y-60427597D01*
X130468579Y-60407080D01*
X130482829Y-60387867D01*
X130498893Y-60370143D01*
X130516617Y-60354079D01*
X130535830Y-60339829D01*
X130556347Y-60327532D01*
X130577971Y-60317304D01*
X130600493Y-60309246D01*
X130623697Y-60303434D01*
X130647358Y-60299924D01*
X130671250Y-60298750D01*
X131583750Y-60298750D01*
X131607642Y-60299924D01*
G37*
G36*
X130457642Y-63912424D02*
G01*
X130481303Y-63915934D01*
X130504507Y-63921746D01*
X130527029Y-63929804D01*
X130548653Y-63940032D01*
X130569170Y-63952329D01*
X130588383Y-63966579D01*
X130606107Y-63982643D01*
X130622171Y-64000367D01*
X130636421Y-64019580D01*
X130648718Y-64040097D01*
X130658946Y-64061721D01*
X130667004Y-64084243D01*
X130672816Y-64107447D01*
X130676326Y-64131108D01*
X130677500Y-64155000D01*
X130677500Y-65067500D01*
X130676326Y-65091392D01*
X130672816Y-65115053D01*
X130667004Y-65138257D01*
X130658946Y-65160779D01*
X130648718Y-65182403D01*
X130636421Y-65202920D01*
X130622171Y-65222133D01*
X130606107Y-65239857D01*
X130588383Y-65255921D01*
X130569170Y-65270171D01*
X130548653Y-65282468D01*
X130527029Y-65292696D01*
X130504507Y-65300754D01*
X130481303Y-65306566D01*
X130457642Y-65310076D01*
X130433750Y-65311250D01*
X129946250Y-65311250D01*
X129922358Y-65310076D01*
X129898697Y-65306566D01*
X129875493Y-65300754D01*
X129852971Y-65292696D01*
X129831347Y-65282468D01*
X129810830Y-65270171D01*
X129791617Y-65255921D01*
X129773893Y-65239857D01*
X129757829Y-65222133D01*
X129743579Y-65202920D01*
X129731282Y-65182403D01*
X129721054Y-65160779D01*
X129712996Y-65138257D01*
X129707184Y-65115053D01*
X129703674Y-65091392D01*
X129702500Y-65067500D01*
X129702500Y-64155000D01*
X129703674Y-64131108D01*
X129707184Y-64107447D01*
X129712996Y-64084243D01*
X129721054Y-64061721D01*
X129731282Y-64040097D01*
X129743579Y-64019580D01*
X129757829Y-64000367D01*
X129773893Y-63982643D01*
X129791617Y-63966579D01*
X129810830Y-63952329D01*
X129831347Y-63940032D01*
X129852971Y-63929804D01*
X129875493Y-63921746D01*
X129898697Y-63915934D01*
X129922358Y-63912424D01*
X129946250Y-63911250D01*
X130433750Y-63911250D01*
X130457642Y-63912424D01*
G37*
G36*
X132332642Y-63912424D02*
G01*
X132356303Y-63915934D01*
X132379507Y-63921746D01*
X132402029Y-63929804D01*
X132423653Y-63940032D01*
X132444170Y-63952329D01*
X132463383Y-63966579D01*
X132481107Y-63982643D01*
X132497171Y-64000367D01*
X132511421Y-64019580D01*
X132523718Y-64040097D01*
X132533946Y-64061721D01*
X132542004Y-64084243D01*
X132547816Y-64107447D01*
X132551326Y-64131108D01*
X132552500Y-64155000D01*
X132552500Y-65067500D01*
X132551326Y-65091392D01*
X132547816Y-65115053D01*
X132542004Y-65138257D01*
X132533946Y-65160779D01*
X132523718Y-65182403D01*
X132511421Y-65202920D01*
X132497171Y-65222133D01*
X132481107Y-65239857D01*
X132463383Y-65255921D01*
X132444170Y-65270171D01*
X132423653Y-65282468D01*
X132402029Y-65292696D01*
X132379507Y-65300754D01*
X132356303Y-65306566D01*
X132332642Y-65310076D01*
X132308750Y-65311250D01*
X131821250Y-65311250D01*
X131797358Y-65310076D01*
X131773697Y-65306566D01*
X131750493Y-65300754D01*
X131727971Y-65292696D01*
X131706347Y-65282468D01*
X131685830Y-65270171D01*
X131666617Y-65255921D01*
X131648893Y-65239857D01*
X131632829Y-65222133D01*
X131618579Y-65202920D01*
X131606282Y-65182403D01*
X131596054Y-65160779D01*
X131587996Y-65138257D01*
X131582184Y-65115053D01*
X131578674Y-65091392D01*
X131577500Y-65067500D01*
X131577500Y-64155000D01*
X131578674Y-64131108D01*
X131582184Y-64107447D01*
X131587996Y-64084243D01*
X131596054Y-64061721D01*
X131606282Y-64040097D01*
X131618579Y-64019580D01*
X131632829Y-64000367D01*
X131648893Y-63982643D01*
X131666617Y-63966579D01*
X131685830Y-63952329D01*
X131706347Y-63940032D01*
X131727971Y-63929804D01*
X131750493Y-63921746D01*
X131773697Y-63915934D01*
X131797358Y-63912424D01*
X131821250Y-63911250D01*
X132308750Y-63911250D01*
X132332642Y-63912424D01*
G37*
G36*
X108588892Y-45218674D02*
G01*
X108612553Y-45222184D01*
X108635757Y-45227996D01*
X108658279Y-45236054D01*
X108679903Y-45246282D01*
X108700420Y-45258579D01*
X108719633Y-45272829D01*
X108737357Y-45288893D01*
X108753421Y-45306617D01*
X108767671Y-45325830D01*
X108779968Y-45346347D01*
X108790196Y-45367971D01*
X108798254Y-45390493D01*
X108804066Y-45413697D01*
X108807576Y-45437358D01*
X108808750Y-45461250D01*
X108808750Y-45948750D01*
X108807576Y-45972642D01*
X108804066Y-45996303D01*
X108798254Y-46019507D01*
X108790196Y-46042029D01*
X108779968Y-46063653D01*
X108767671Y-46084170D01*
X108753421Y-46103383D01*
X108737357Y-46121107D01*
X108719633Y-46137171D01*
X108700420Y-46151421D01*
X108679903Y-46163718D01*
X108658279Y-46173946D01*
X108635757Y-46182004D01*
X108612553Y-46187816D01*
X108588892Y-46191326D01*
X108565000Y-46192500D01*
X107652500Y-46192500D01*
X107628608Y-46191326D01*
X107604947Y-46187816D01*
X107581743Y-46182004D01*
X107559221Y-46173946D01*
X107537597Y-46163718D01*
X107517080Y-46151421D01*
X107497867Y-46137171D01*
X107480143Y-46121107D01*
X107464079Y-46103383D01*
X107449829Y-46084170D01*
X107437532Y-46063653D01*
X107427304Y-46042029D01*
X107419246Y-46019507D01*
X107413434Y-45996303D01*
X107409924Y-45972642D01*
X107408750Y-45948750D01*
X107408750Y-45461250D01*
X107409924Y-45437358D01*
X107413434Y-45413697D01*
X107419246Y-45390493D01*
X107427304Y-45367971D01*
X107437532Y-45346347D01*
X107449829Y-45325830D01*
X107464079Y-45306617D01*
X107480143Y-45288893D01*
X107497867Y-45272829D01*
X107517080Y-45258579D01*
X107537597Y-45246282D01*
X107559221Y-45236054D01*
X107581743Y-45227996D01*
X107604947Y-45222184D01*
X107628608Y-45218674D01*
X107652500Y-45217500D01*
X108565000Y-45217500D01*
X108588892Y-45218674D01*
G37*
G36*
X108588892Y-43343674D02*
G01*
X108612553Y-43347184D01*
X108635757Y-43352996D01*
X108658279Y-43361054D01*
X108679903Y-43371282D01*
X108700420Y-43383579D01*
X108719633Y-43397829D01*
X108737357Y-43413893D01*
X108753421Y-43431617D01*
X108767671Y-43450830D01*
X108779968Y-43471347D01*
X108790196Y-43492971D01*
X108798254Y-43515493D01*
X108804066Y-43538697D01*
X108807576Y-43562358D01*
X108808750Y-43586250D01*
X108808750Y-44073750D01*
X108807576Y-44097642D01*
X108804066Y-44121303D01*
X108798254Y-44144507D01*
X108790196Y-44167029D01*
X108779968Y-44188653D01*
X108767671Y-44209170D01*
X108753421Y-44228383D01*
X108737357Y-44246107D01*
X108719633Y-44262171D01*
X108700420Y-44276421D01*
X108679903Y-44288718D01*
X108658279Y-44298946D01*
X108635757Y-44307004D01*
X108612553Y-44312816D01*
X108588892Y-44316326D01*
X108565000Y-44317500D01*
X107652500Y-44317500D01*
X107628608Y-44316326D01*
X107604947Y-44312816D01*
X107581743Y-44307004D01*
X107559221Y-44298946D01*
X107537597Y-44288718D01*
X107517080Y-44276421D01*
X107497867Y-44262171D01*
X107480143Y-44246107D01*
X107464079Y-44228383D01*
X107449829Y-44209170D01*
X107437532Y-44188653D01*
X107427304Y-44167029D01*
X107419246Y-44144507D01*
X107413434Y-44121303D01*
X107409924Y-44097642D01*
X107408750Y-44073750D01*
X107408750Y-43586250D01*
X107409924Y-43562358D01*
X107413434Y-43538697D01*
X107419246Y-43515493D01*
X107427304Y-43492971D01*
X107437532Y-43471347D01*
X107449829Y-43450830D01*
X107464079Y-43431617D01*
X107480143Y-43413893D01*
X107497867Y-43397829D01*
X107517080Y-43383579D01*
X107537597Y-43371282D01*
X107559221Y-43361054D01*
X107581743Y-43352996D01*
X107604947Y-43347184D01*
X107628608Y-43343674D01*
X107652500Y-43342500D01*
X108565000Y-43342500D01*
X108588892Y-43343674D01*
G37*
M02*
