G04 #@! TF.GenerationSoftware,KiCad,Pcbnew,5.1.5-52549c5~84~ubuntu18.04.1*
G04 #@! TF.CreationDate,2020-02-13T16:35:18-05:00*
G04 #@! TF.ProjectId,metropolislefty,6d657472-6f70-46f6-9c69-736c65667479,0*
G04 #@! TF.SameCoordinates,Original*
G04 #@! TF.FileFunction,Legend,Top*
G04 #@! TF.FilePolarity,Positive*
%FSLAX46Y46*%
G04 Gerber Fmt 4.6, Leading zero omitted, Abs format (unit mm)*
G04 Created by KiCad (PCBNEW 5.1.5-52549c5~84~ubuntu18.04.1) date 2020-02-13 16:35:18*
%MOMM*%
%LPD*%
G04 APERTURE LIST*
%ADD10C,0.120000*%
%ADD11C,0.150000*%
G04 APERTURE END LIST*
D10*
X131602500Y-58630000D02*
X131602500Y-57480000D01*
X124302500Y-58630000D02*
X131602500Y-58630000D01*
X124302500Y-53130000D02*
X131602500Y-53130000D01*
X71460000Y-52506250D02*
G75*
G03X71460000Y-52506250I-3000000J0D01*
G01*
X70460000Y-46606250D02*
X74560000Y-46606250D01*
X74560000Y-58406250D02*
X70460000Y-58406250D01*
X66460000Y-58406250D02*
X62360000Y-58406250D01*
X66460000Y-46606250D02*
X62360000Y-46606250D01*
X62360000Y-46606250D02*
X62360000Y-58406250D01*
X60960000Y-48706250D02*
X60660000Y-48406250D01*
X60660000Y-48406250D02*
X61260000Y-48406250D01*
X61260000Y-48406250D02*
X60960000Y-48706250D01*
X74560000Y-46606250D02*
X74560000Y-49006250D01*
X74560000Y-51206250D02*
X74560000Y-53806250D01*
X74560000Y-56006250D02*
X74560000Y-58406250D01*
X68460000Y-52006250D02*
X68460000Y-53006250D01*
X67960000Y-52506250D02*
X68960000Y-52506250D01*
X118902500Y-58630000D02*
X118902500Y-57480000D01*
X111602500Y-58630000D02*
X118902500Y-58630000D01*
X111602500Y-53130000D02*
X118902500Y-53130000D01*
D11*
X126262023Y-52832380D02*
X126262023Y-51832380D01*
X126500119Y-51832380D01*
X126642976Y-51880000D01*
X126738214Y-51975238D01*
X126785833Y-52070476D01*
X126833452Y-52260952D01*
X126833452Y-52403809D01*
X126785833Y-52594285D01*
X126738214Y-52689523D01*
X126642976Y-52784761D01*
X126500119Y-52832380D01*
X126262023Y-52832380D01*
X127785833Y-52832380D02*
X127214404Y-52832380D01*
X127500119Y-52832380D02*
X127500119Y-51832380D01*
X127404880Y-51975238D01*
X127309642Y-52070476D01*
X127214404Y-52118095D01*
X128738214Y-52832380D02*
X128166785Y-52832380D01*
X128452500Y-52832380D02*
X128452500Y-51832380D01*
X128357261Y-51975238D01*
X128262023Y-52070476D01*
X128166785Y-52118095D01*
X129690595Y-52832380D02*
X129119166Y-52832380D01*
X129404880Y-52832380D02*
X129404880Y-51832380D01*
X129309642Y-51975238D01*
X129214404Y-52070476D01*
X129119166Y-52118095D01*
X124088214Y-54732380D02*
X123516785Y-54732380D01*
X123802500Y-54732380D02*
X123802500Y-53732380D01*
X123707261Y-53875238D01*
X123612023Y-53970476D01*
X123516785Y-54018095D01*
X62426666Y-45711011D02*
X62569523Y-45758630D01*
X62807619Y-45758630D01*
X62902857Y-45711011D01*
X62950476Y-45663392D01*
X62998095Y-45568154D01*
X62998095Y-45472916D01*
X62950476Y-45377678D01*
X62902857Y-45330059D01*
X62807619Y-45282440D01*
X62617142Y-45234821D01*
X62521904Y-45187202D01*
X62474285Y-45139583D01*
X62426666Y-45044345D01*
X62426666Y-44949107D01*
X62474285Y-44853869D01*
X62521904Y-44806250D01*
X62617142Y-44758630D01*
X62855238Y-44758630D01*
X62998095Y-44806250D01*
X63331428Y-44758630D02*
X63569523Y-45758630D01*
X63760000Y-45044345D01*
X63950476Y-45758630D01*
X64188571Y-44758630D01*
X64521904Y-44853869D02*
X64569523Y-44806250D01*
X64664761Y-44758630D01*
X64902857Y-44758630D01*
X64998095Y-44806250D01*
X65045714Y-44853869D01*
X65093333Y-44949107D01*
X65093333Y-45044345D01*
X65045714Y-45187202D01*
X64474285Y-45758630D01*
X65093333Y-45758630D01*
X113562023Y-52832380D02*
X113562023Y-51832380D01*
X113800119Y-51832380D01*
X113942976Y-51880000D01*
X114038214Y-51975238D01*
X114085833Y-52070476D01*
X114133452Y-52260952D01*
X114133452Y-52403809D01*
X114085833Y-52594285D01*
X114038214Y-52689523D01*
X113942976Y-52784761D01*
X113800119Y-52832380D01*
X113562023Y-52832380D01*
X115085833Y-52832380D02*
X114514404Y-52832380D01*
X114800119Y-52832380D02*
X114800119Y-51832380D01*
X114704880Y-51975238D01*
X114609642Y-52070476D01*
X114514404Y-52118095D01*
X116038214Y-52832380D02*
X115466785Y-52832380D01*
X115752500Y-52832380D02*
X115752500Y-51832380D01*
X115657261Y-51975238D01*
X115562023Y-52070476D01*
X115466785Y-52118095D01*
X116657261Y-51832380D02*
X116752500Y-51832380D01*
X116847738Y-51880000D01*
X116895357Y-51927619D01*
X116942976Y-52022857D01*
X116990595Y-52213333D01*
X116990595Y-52451428D01*
X116942976Y-52641904D01*
X116895357Y-52737142D01*
X116847738Y-52784761D01*
X116752500Y-52832380D01*
X116657261Y-52832380D01*
X116562023Y-52784761D01*
X116514404Y-52737142D01*
X116466785Y-52641904D01*
X116419166Y-52451428D01*
X116419166Y-52213333D01*
X116466785Y-52022857D01*
X116514404Y-51927619D01*
X116562023Y-51880000D01*
X116657261Y-51832380D01*
X111388214Y-54732380D02*
X110816785Y-54732380D01*
X111102500Y-54732380D02*
X111102500Y-53732380D01*
X111007261Y-53875238D01*
X110912023Y-53970476D01*
X110816785Y-54018095D01*
M02*
