G04 #@! TF.GenerationSoftware,KiCad,Pcbnew,5.1.5-52549c5~84~ubuntu18.04.1*
G04 #@! TF.CreationDate,2020-02-13T16:35:18-05:00*
G04 #@! TF.ProjectId,metropolislefty,6d657472-6f70-46f6-9c69-736c65667479,0*
G04 #@! TF.SameCoordinates,Original*
G04 #@! TF.FileFunction,Legend,Bot*
G04 #@! TF.FilePolarity,Positive*
%FSLAX46Y46*%
G04 Gerber Fmt 4.6, Leading zero omitted, Abs format (unit mm)*
G04 Created by KiCad (PCBNEW 5.1.5-52549c5~84~ubuntu18.04.1) date 2020-02-13 16:35:18*
%MOMM*%
%LPD*%
G04 APERTURE LIST*
%ADD10C,0.120000*%
%ADD11C,0.150000*%
G04 APERTURE END LIST*
D10*
X117571250Y-46164250D02*
X117571250Y-42164250D01*
X120871250Y-46164250D02*
X117571250Y-46164250D01*
D11*
X94952500Y-41667500D02*
X94952500Y-43917500D01*
X95702500Y-43917500D02*
X95702500Y-41667500D01*
X96702500Y-41667500D02*
X96702500Y-43917500D01*
X97452500Y-43917500D02*
X97452500Y-41667500D01*
X98202500Y-41667500D02*
X98202500Y-43917500D01*
X94202500Y-41667500D02*
X98202500Y-41667500D01*
X94202500Y-43917500D02*
X94202500Y-41667500D01*
X92352500Y-38417500D02*
X92352500Y-43867500D01*
X100052500Y-38417500D02*
X100052500Y-43867500D01*
X92352500Y-43867500D02*
X100052500Y-43867500D01*
X115062250Y-61972250D02*
X113787250Y-61972250D01*
X125412250Y-62547250D02*
X124737250Y-62547250D01*
X125412250Y-52197250D02*
X124737250Y-52197250D01*
X115062250Y-52197250D02*
X115737250Y-52197250D01*
X115062250Y-62547250D02*
X115737250Y-62547250D01*
X115062250Y-52197250D02*
X115062250Y-52872250D01*
X125412250Y-52197250D02*
X125412250Y-52872250D01*
X125412250Y-62547250D02*
X125412250Y-61872250D01*
X115062250Y-62547250D02*
X115062250Y-61972250D01*
X133378250Y-46580750D02*
X128178250Y-46580750D01*
X128178250Y-46580750D02*
X128178250Y-51780750D01*
X128178250Y-51780750D02*
X133378250Y-51780750D01*
X133378250Y-51780750D02*
X133378250Y-46580750D01*
X131778250Y-49180750D02*
G75*
G03X131778250Y-49180750I-1000000J0D01*
G01*
D10*
X126900172Y-67330250D02*
X127417328Y-67330250D01*
X126900172Y-68750250D02*
X127417328Y-68750250D01*
X70543922Y-65488750D02*
X71061078Y-65488750D01*
X70543922Y-66908750D02*
X71061078Y-66908750D01*
X57050172Y-65488750D02*
X57567328Y-65488750D01*
X57050172Y-66908750D02*
X57567328Y-66908750D01*
X84418672Y-46502250D02*
X84935828Y-46502250D01*
X84418672Y-47922250D02*
X84935828Y-47922250D01*
X91975172Y-67076250D02*
X92492328Y-67076250D01*
X91975172Y-68496250D02*
X92492328Y-68496250D01*
X135012500Y-58002672D02*
X135012500Y-58519828D01*
X133592500Y-58002672D02*
X133592500Y-58519828D01*
X94698750Y-48994828D02*
X94698750Y-48477672D01*
X96118750Y-48994828D02*
X96118750Y-48477672D01*
X97873750Y-48994828D02*
X97873750Y-48477672D01*
X99293750Y-48994828D02*
X99293750Y-48477672D01*
X107398750Y-40263578D02*
X107398750Y-39746422D01*
X108818750Y-40263578D02*
X108818750Y-39746422D01*
X91556250Y-48134186D02*
X91556250Y-49338314D01*
X89736250Y-48134186D02*
X89736250Y-49338314D01*
X117447828Y-68750250D02*
X116930672Y-68750250D01*
X117447828Y-67330250D02*
X116930672Y-67330250D01*
X108025000Y-54827672D02*
X108025000Y-55344828D01*
X106605000Y-54827672D02*
X106605000Y-55344828D01*
X124607250Y-44422828D02*
X124607250Y-43905672D01*
X126027250Y-44422828D02*
X126027250Y-43905672D01*
X114343250Y-43905672D02*
X114343250Y-44422828D01*
X112923250Y-43905672D02*
X112923250Y-44422828D01*
X99912672Y-62313750D02*
X100429828Y-62313750D01*
X99912672Y-63733750D02*
X100429828Y-63733750D01*
X111542328Y-68750250D02*
X111025172Y-68750250D01*
X111542328Y-67330250D02*
X111025172Y-67330250D01*
X130417500Y-60107328D02*
X130417500Y-59590172D01*
X131837500Y-60107328D02*
X131837500Y-59590172D01*
X131386078Y-65321250D02*
X130868922Y-65321250D01*
X131386078Y-63901250D02*
X130868922Y-63901250D01*
X108818750Y-44508922D02*
X108818750Y-45026078D01*
X107398750Y-44508922D02*
X107398750Y-45026078D01*
X120117500Y-181618750D02*
X120117500Y-179378750D01*
X120117500Y-179378750D02*
X124357500Y-179378750D01*
X124357500Y-179378750D02*
X124357500Y-181618750D01*
X124357500Y-181618750D02*
X120117500Y-181618750D01*
X119467500Y-180498750D02*
X120117500Y-180498750D01*
X125007500Y-180498750D02*
X124357500Y-180498750D01*
X120837500Y-181618750D02*
X120837500Y-179378750D01*
X120957500Y-181618750D02*
X120957500Y-179378750D01*
X120717500Y-181618750D02*
X120717500Y-179378750D01*
X120117500Y-145106250D02*
X120117500Y-142866250D01*
X120117500Y-142866250D02*
X124357500Y-142866250D01*
X124357500Y-142866250D02*
X124357500Y-145106250D01*
X124357500Y-145106250D02*
X120117500Y-145106250D01*
X119467500Y-143986250D02*
X120117500Y-143986250D01*
X125007500Y-143986250D02*
X124357500Y-143986250D01*
X120837500Y-145106250D02*
X120837500Y-142866250D01*
X120957500Y-145106250D02*
X120957500Y-142866250D01*
X120717500Y-145106250D02*
X120717500Y-142866250D01*
X120117500Y-107800000D02*
X120117500Y-105560000D01*
X120117500Y-105560000D02*
X124357500Y-105560000D01*
X124357500Y-105560000D02*
X124357500Y-107800000D01*
X124357500Y-107800000D02*
X120117500Y-107800000D01*
X119467500Y-106680000D02*
X120117500Y-106680000D01*
X125007500Y-106680000D02*
X124357500Y-106680000D01*
X120837500Y-107800000D02*
X120837500Y-105560000D01*
X120957500Y-107800000D02*
X120957500Y-105560000D01*
X120717500Y-107800000D02*
X120717500Y-105560000D01*
X118530000Y-87956250D02*
X118530000Y-85716250D01*
X118530000Y-85716250D02*
X122770000Y-85716250D01*
X122770000Y-85716250D02*
X122770000Y-87956250D01*
X122770000Y-87956250D02*
X118530000Y-87956250D01*
X117880000Y-86836250D02*
X118530000Y-86836250D01*
X123420000Y-86836250D02*
X122770000Y-86836250D01*
X119250000Y-87956250D02*
X119250000Y-85716250D01*
X119370000Y-87956250D02*
X119370000Y-85716250D01*
X119130000Y-87956250D02*
X119130000Y-85716250D01*
X94147500Y-174840000D02*
X91907500Y-174840000D01*
X91907500Y-174840000D02*
X91907500Y-170600000D01*
X91907500Y-170600000D02*
X94147500Y-170600000D01*
X94147500Y-170600000D02*
X94147500Y-174840000D01*
X93027500Y-175490000D02*
X93027500Y-174840000D01*
X93027500Y-169950000D02*
X93027500Y-170600000D01*
X94147500Y-174120000D02*
X91907500Y-174120000D01*
X94147500Y-174000000D02*
X91907500Y-174000000D01*
X94147500Y-174240000D02*
X91907500Y-174240000D01*
X101067500Y-164156250D02*
X101067500Y-161916250D01*
X101067500Y-161916250D02*
X105307500Y-161916250D01*
X105307500Y-161916250D02*
X105307500Y-164156250D01*
X105307500Y-164156250D02*
X101067500Y-164156250D01*
X100417500Y-163036250D02*
X101067500Y-163036250D01*
X105957500Y-163036250D02*
X105307500Y-163036250D01*
X101787500Y-164156250D02*
X101787500Y-161916250D01*
X101907500Y-164156250D02*
X101907500Y-161916250D01*
X101667500Y-164156250D02*
X101667500Y-161916250D01*
X101067500Y-145106250D02*
X101067500Y-142866250D01*
X101067500Y-142866250D02*
X105307500Y-142866250D01*
X105307500Y-142866250D02*
X105307500Y-145106250D01*
X105307500Y-145106250D02*
X101067500Y-145106250D01*
X100417500Y-143986250D02*
X101067500Y-143986250D01*
X105957500Y-143986250D02*
X105307500Y-143986250D01*
X101787500Y-145106250D02*
X101787500Y-142866250D01*
X101907500Y-145106250D02*
X101907500Y-142866250D01*
X101667500Y-145106250D02*
X101667500Y-142866250D01*
X101067500Y-126056250D02*
X101067500Y-123816250D01*
X101067500Y-123816250D02*
X105307500Y-123816250D01*
X105307500Y-123816250D02*
X105307500Y-126056250D01*
X105307500Y-126056250D02*
X101067500Y-126056250D01*
X100417500Y-124936250D02*
X101067500Y-124936250D01*
X105957500Y-124936250D02*
X105307500Y-124936250D01*
X101787500Y-126056250D02*
X101787500Y-123816250D01*
X101907500Y-126056250D02*
X101907500Y-123816250D01*
X101667500Y-126056250D02*
X101667500Y-123816250D01*
X113197500Y-98640000D02*
X110957500Y-98640000D01*
X110957500Y-98640000D02*
X110957500Y-94400000D01*
X110957500Y-94400000D02*
X113197500Y-94400000D01*
X113197500Y-94400000D02*
X113197500Y-98640000D01*
X112077500Y-99290000D02*
X112077500Y-98640000D01*
X112077500Y-93750000D02*
X112077500Y-94400000D01*
X113197500Y-97920000D02*
X110957500Y-97920000D01*
X113197500Y-97800000D02*
X110957500Y-97800000D01*
X113197500Y-98040000D02*
X110957500Y-98040000D01*
X113197500Y-81177500D02*
X110957500Y-81177500D01*
X110957500Y-81177500D02*
X110957500Y-76937500D01*
X110957500Y-76937500D02*
X113197500Y-76937500D01*
X113197500Y-76937500D02*
X113197500Y-81177500D01*
X112077500Y-81827500D02*
X112077500Y-81177500D01*
X112077500Y-76287500D02*
X112077500Y-76937500D01*
X113197500Y-80457500D02*
X110957500Y-80457500D01*
X113197500Y-80337500D02*
X110957500Y-80337500D01*
X113197500Y-80577500D02*
X110957500Y-80577500D01*
X94147500Y-155790000D02*
X91907500Y-155790000D01*
X91907500Y-155790000D02*
X91907500Y-151550000D01*
X91907500Y-151550000D02*
X94147500Y-151550000D01*
X94147500Y-151550000D02*
X94147500Y-155790000D01*
X93027500Y-156440000D02*
X93027500Y-155790000D01*
X93027500Y-150900000D02*
X93027500Y-151550000D01*
X94147500Y-155070000D02*
X91907500Y-155070000D01*
X94147500Y-154950000D02*
X91907500Y-154950000D01*
X94147500Y-155190000D02*
X91907500Y-155190000D01*
X94147500Y-136740000D02*
X91907500Y-136740000D01*
X91907500Y-136740000D02*
X91907500Y-132500000D01*
X91907500Y-132500000D02*
X94147500Y-132500000D01*
X94147500Y-132500000D02*
X94147500Y-136740000D01*
X93027500Y-137390000D02*
X93027500Y-136740000D01*
X93027500Y-131850000D02*
X93027500Y-132500000D01*
X94147500Y-136020000D02*
X91907500Y-136020000D01*
X94147500Y-135900000D02*
X91907500Y-135900000D01*
X94147500Y-136140000D02*
X91907500Y-136140000D01*
X94147500Y-117690000D02*
X91907500Y-117690000D01*
X91907500Y-117690000D02*
X91907500Y-113450000D01*
X91907500Y-113450000D02*
X94147500Y-113450000D01*
X94147500Y-113450000D02*
X94147500Y-117690000D01*
X93027500Y-118340000D02*
X93027500Y-117690000D01*
X93027500Y-112800000D02*
X93027500Y-113450000D01*
X94147500Y-116970000D02*
X91907500Y-116970000D01*
X94147500Y-116850000D02*
X91907500Y-116850000D01*
X94147500Y-117090000D02*
X91907500Y-117090000D01*
X94147500Y-98640000D02*
X91907500Y-98640000D01*
X91907500Y-98640000D02*
X91907500Y-94400000D01*
X91907500Y-94400000D02*
X94147500Y-94400000D01*
X94147500Y-94400000D02*
X94147500Y-98640000D01*
X93027500Y-99290000D02*
X93027500Y-98640000D01*
X93027500Y-93750000D02*
X93027500Y-94400000D01*
X94147500Y-97920000D02*
X91907500Y-97920000D01*
X94147500Y-97800000D02*
X91907500Y-97800000D01*
X94147500Y-98040000D02*
X91907500Y-98040000D01*
X94147500Y-81177500D02*
X91907500Y-81177500D01*
X91907500Y-81177500D02*
X91907500Y-76937500D01*
X91907500Y-76937500D02*
X94147500Y-76937500D01*
X94147500Y-76937500D02*
X94147500Y-81177500D01*
X93027500Y-81827500D02*
X93027500Y-81177500D01*
X93027500Y-76287500D02*
X93027500Y-76937500D01*
X94147500Y-80457500D02*
X91907500Y-80457500D01*
X94147500Y-80337500D02*
X91907500Y-80337500D01*
X94147500Y-80577500D02*
X91907500Y-80577500D01*
X57635000Y-174840000D02*
X55395000Y-174840000D01*
X55395000Y-174840000D02*
X55395000Y-170600000D01*
X55395000Y-170600000D02*
X57635000Y-170600000D01*
X57635000Y-170600000D02*
X57635000Y-174840000D01*
X56515000Y-175490000D02*
X56515000Y-174840000D01*
X56515000Y-169950000D02*
X56515000Y-170600000D01*
X57635000Y-174120000D02*
X55395000Y-174120000D01*
X57635000Y-174000000D02*
X55395000Y-174000000D01*
X57635000Y-174240000D02*
X55395000Y-174240000D01*
X75097500Y-155790000D02*
X72857500Y-155790000D01*
X72857500Y-155790000D02*
X72857500Y-151550000D01*
X72857500Y-151550000D02*
X75097500Y-151550000D01*
X75097500Y-151550000D02*
X75097500Y-155790000D01*
X73977500Y-156440000D02*
X73977500Y-155790000D01*
X73977500Y-150900000D02*
X73977500Y-151550000D01*
X75097500Y-155070000D02*
X72857500Y-155070000D01*
X75097500Y-154950000D02*
X72857500Y-154950000D01*
X75097500Y-155190000D02*
X72857500Y-155190000D01*
X75097500Y-136740000D02*
X72857500Y-136740000D01*
X72857500Y-136740000D02*
X72857500Y-132500000D01*
X72857500Y-132500000D02*
X75097500Y-132500000D01*
X75097500Y-132500000D02*
X75097500Y-136740000D01*
X73977500Y-137390000D02*
X73977500Y-136740000D01*
X73977500Y-131850000D02*
X73977500Y-132500000D01*
X75097500Y-136020000D02*
X72857500Y-136020000D01*
X75097500Y-135900000D02*
X72857500Y-135900000D01*
X75097500Y-136140000D02*
X72857500Y-136140000D01*
X75097500Y-117690000D02*
X72857500Y-117690000D01*
X72857500Y-117690000D02*
X72857500Y-113450000D01*
X72857500Y-113450000D02*
X75097500Y-113450000D01*
X75097500Y-113450000D02*
X75097500Y-117690000D01*
X73977500Y-118340000D02*
X73977500Y-117690000D01*
X73977500Y-112800000D02*
X73977500Y-113450000D01*
X75097500Y-116970000D02*
X72857500Y-116970000D01*
X75097500Y-116850000D02*
X72857500Y-116850000D01*
X75097500Y-117090000D02*
X72857500Y-117090000D01*
X75097500Y-98640000D02*
X72857500Y-98640000D01*
X72857500Y-98640000D02*
X72857500Y-94400000D01*
X72857500Y-94400000D02*
X75097500Y-94400000D01*
X75097500Y-94400000D02*
X75097500Y-98640000D01*
X73977500Y-99290000D02*
X73977500Y-98640000D01*
X73977500Y-93750000D02*
X73977500Y-94400000D01*
X75097500Y-97920000D02*
X72857500Y-97920000D01*
X75097500Y-97800000D02*
X72857500Y-97800000D01*
X75097500Y-98040000D02*
X72857500Y-98040000D01*
X75097500Y-81177500D02*
X72857500Y-81177500D01*
X72857500Y-81177500D02*
X72857500Y-76937500D01*
X72857500Y-76937500D02*
X75097500Y-76937500D01*
X75097500Y-76937500D02*
X75097500Y-81177500D01*
X73977500Y-81827500D02*
X73977500Y-81177500D01*
X73977500Y-76287500D02*
X73977500Y-76937500D01*
X75097500Y-80457500D02*
X72857500Y-80457500D01*
X75097500Y-80337500D02*
X72857500Y-80337500D01*
X75097500Y-80577500D02*
X72857500Y-80577500D01*
D11*
X119697440Y-47188440D02*
X119697440Y-47664630D01*
X120030773Y-46664630D02*
X119697440Y-47188440D01*
X119364107Y-46664630D01*
X118506964Y-47664630D02*
X119078392Y-47664630D01*
X118792678Y-47664630D02*
X118792678Y-46664630D01*
X118887916Y-46807488D01*
X118983154Y-46902726D01*
X119078392Y-46950345D01*
X97940595Y-39901880D02*
X97940595Y-40711404D01*
X97892976Y-40806642D01*
X97845357Y-40854261D01*
X97750119Y-40901880D01*
X97559642Y-40901880D01*
X97464404Y-40854261D01*
X97416785Y-40806642D01*
X97369166Y-40711404D01*
X97369166Y-39901880D01*
X96940595Y-40854261D02*
X96797738Y-40901880D01*
X96559642Y-40901880D01*
X96464404Y-40854261D01*
X96416785Y-40806642D01*
X96369166Y-40711404D01*
X96369166Y-40616166D01*
X96416785Y-40520928D01*
X96464404Y-40473309D01*
X96559642Y-40425690D01*
X96750119Y-40378071D01*
X96845357Y-40330452D01*
X96892976Y-40282833D01*
X96940595Y-40187595D01*
X96940595Y-40092357D01*
X96892976Y-39997119D01*
X96845357Y-39949500D01*
X96750119Y-39901880D01*
X96512023Y-39901880D01*
X96369166Y-39949500D01*
X95607261Y-40378071D02*
X95464404Y-40425690D01*
X95416785Y-40473309D01*
X95369166Y-40568547D01*
X95369166Y-40711404D01*
X95416785Y-40806642D01*
X95464404Y-40854261D01*
X95559642Y-40901880D01*
X95940595Y-40901880D01*
X95940595Y-39901880D01*
X95607261Y-39901880D01*
X95512023Y-39949500D01*
X95464404Y-39997119D01*
X95416785Y-40092357D01*
X95416785Y-40187595D01*
X95464404Y-40282833D01*
X95512023Y-40330452D01*
X95607261Y-40378071D01*
X95940595Y-40378071D01*
X94416785Y-40901880D02*
X94988214Y-40901880D01*
X94702500Y-40901880D02*
X94702500Y-39901880D01*
X94797738Y-40044738D01*
X94892976Y-40139976D01*
X94988214Y-40187595D01*
X97940595Y-39869880D02*
X97940595Y-40679404D01*
X97892976Y-40774642D01*
X97845357Y-40822261D01*
X97750119Y-40869880D01*
X97559642Y-40869880D01*
X97464404Y-40822261D01*
X97416785Y-40774642D01*
X97369166Y-40679404D01*
X97369166Y-39869880D01*
X96940595Y-40822261D02*
X96797738Y-40869880D01*
X96559642Y-40869880D01*
X96464404Y-40822261D01*
X96416785Y-40774642D01*
X96369166Y-40679404D01*
X96369166Y-40584166D01*
X96416785Y-40488928D01*
X96464404Y-40441309D01*
X96559642Y-40393690D01*
X96750119Y-40346071D01*
X96845357Y-40298452D01*
X96892976Y-40250833D01*
X96940595Y-40155595D01*
X96940595Y-40060357D01*
X96892976Y-39965119D01*
X96845357Y-39917500D01*
X96750119Y-39869880D01*
X96512023Y-39869880D01*
X96369166Y-39917500D01*
X95607261Y-40346071D02*
X95464404Y-40393690D01*
X95416785Y-40441309D01*
X95369166Y-40536547D01*
X95369166Y-40679404D01*
X95416785Y-40774642D01*
X95464404Y-40822261D01*
X95559642Y-40869880D01*
X95940595Y-40869880D01*
X95940595Y-39869880D01*
X95607261Y-39869880D01*
X95512023Y-39917500D01*
X95464404Y-39965119D01*
X95416785Y-40060357D01*
X95416785Y-40155595D01*
X95464404Y-40250833D01*
X95512023Y-40298452D01*
X95607261Y-40346071D01*
X95940595Y-40346071D01*
X94416785Y-40869880D02*
X94988214Y-40869880D01*
X94702500Y-40869880D02*
X94702500Y-39869880D01*
X94797738Y-40012738D01*
X94892976Y-40107976D01*
X94988214Y-40155595D01*
X120999154Y-64274630D02*
X120999154Y-65084154D01*
X120951535Y-65179392D01*
X120903916Y-65227011D01*
X120808678Y-65274630D01*
X120618202Y-65274630D01*
X120522964Y-65227011D01*
X120475345Y-65179392D01*
X120427726Y-65084154D01*
X120427726Y-64274630D01*
X119427726Y-65274630D02*
X119999154Y-65274630D01*
X119713440Y-65274630D02*
X119713440Y-64274630D01*
X119808678Y-64417488D01*
X119903916Y-64512726D01*
X119999154Y-64560345D01*
X132111583Y-45521511D02*
X131968726Y-45569130D01*
X131730630Y-45569130D01*
X131635392Y-45521511D01*
X131587773Y-45473892D01*
X131540154Y-45378654D01*
X131540154Y-45283416D01*
X131587773Y-45188178D01*
X131635392Y-45140559D01*
X131730630Y-45092940D01*
X131921107Y-45045321D01*
X132016345Y-44997702D01*
X132063964Y-44950083D01*
X132111583Y-44854845D01*
X132111583Y-44759607D01*
X132063964Y-44664369D01*
X132016345Y-44616750D01*
X131921107Y-44569130D01*
X131683011Y-44569130D01*
X131540154Y-44616750D01*
X131206821Y-44569130D02*
X130968726Y-45569130D01*
X130778250Y-44854845D01*
X130587773Y-45569130D01*
X130349678Y-44569130D01*
X129444916Y-45569130D02*
X130016345Y-45569130D01*
X129730630Y-45569130D02*
X129730630Y-44569130D01*
X129825869Y-44711988D01*
X129921107Y-44807226D01*
X130016345Y-44854845D01*
X127325416Y-70142630D02*
X127658750Y-69666440D01*
X127896845Y-70142630D02*
X127896845Y-69142630D01*
X127515892Y-69142630D01*
X127420654Y-69190250D01*
X127373035Y-69237869D01*
X127325416Y-69333107D01*
X127325416Y-69475964D01*
X127373035Y-69571202D01*
X127420654Y-69618821D01*
X127515892Y-69666440D01*
X127896845Y-69666440D01*
X126849226Y-70142630D02*
X126658750Y-70142630D01*
X126563511Y-70095011D01*
X126515892Y-70047392D01*
X126420654Y-69904535D01*
X126373035Y-69714059D01*
X126373035Y-69333107D01*
X126420654Y-69237869D01*
X126468273Y-69190250D01*
X126563511Y-69142630D01*
X126753988Y-69142630D01*
X126849226Y-69190250D01*
X126896845Y-69237869D01*
X126944464Y-69333107D01*
X126944464Y-69571202D01*
X126896845Y-69666440D01*
X126849226Y-69714059D01*
X126753988Y-69761678D01*
X126563511Y-69761678D01*
X126468273Y-69714059D01*
X126420654Y-69666440D01*
X126373035Y-69571202D01*
X70969166Y-68301130D02*
X71302500Y-67824940D01*
X71540595Y-68301130D02*
X71540595Y-67301130D01*
X71159642Y-67301130D01*
X71064404Y-67348750D01*
X71016785Y-67396369D01*
X70969166Y-67491607D01*
X70969166Y-67634464D01*
X71016785Y-67729702D01*
X71064404Y-67777321D01*
X71159642Y-67824940D01*
X71540595Y-67824940D01*
X70397738Y-67729702D02*
X70492976Y-67682083D01*
X70540595Y-67634464D01*
X70588214Y-67539226D01*
X70588214Y-67491607D01*
X70540595Y-67396369D01*
X70492976Y-67348750D01*
X70397738Y-67301130D01*
X70207261Y-67301130D01*
X70112023Y-67348750D01*
X70064404Y-67396369D01*
X70016785Y-67491607D01*
X70016785Y-67539226D01*
X70064404Y-67634464D01*
X70112023Y-67682083D01*
X70207261Y-67729702D01*
X70397738Y-67729702D01*
X70492976Y-67777321D01*
X70540595Y-67824940D01*
X70588214Y-67920178D01*
X70588214Y-68110654D01*
X70540595Y-68205892D01*
X70492976Y-68253511D01*
X70397738Y-68301130D01*
X70207261Y-68301130D01*
X70112023Y-68253511D01*
X70064404Y-68205892D01*
X70016785Y-68110654D01*
X70016785Y-67920178D01*
X70064404Y-67824940D01*
X70112023Y-67777321D01*
X70207261Y-67729702D01*
X57475416Y-68301130D02*
X57808750Y-67824940D01*
X58046845Y-68301130D02*
X58046845Y-67301130D01*
X57665892Y-67301130D01*
X57570654Y-67348750D01*
X57523035Y-67396369D01*
X57475416Y-67491607D01*
X57475416Y-67634464D01*
X57523035Y-67729702D01*
X57570654Y-67777321D01*
X57665892Y-67824940D01*
X58046845Y-67824940D01*
X57142083Y-67301130D02*
X56475416Y-67301130D01*
X56903988Y-68301130D01*
X84843916Y-49314630D02*
X85177250Y-48838440D01*
X85415345Y-49314630D02*
X85415345Y-48314630D01*
X85034392Y-48314630D01*
X84939154Y-48362250D01*
X84891535Y-48409869D01*
X84843916Y-48505107D01*
X84843916Y-48647964D01*
X84891535Y-48743202D01*
X84939154Y-48790821D01*
X85034392Y-48838440D01*
X85415345Y-48838440D01*
X83986773Y-48314630D02*
X84177250Y-48314630D01*
X84272488Y-48362250D01*
X84320107Y-48409869D01*
X84415345Y-48552726D01*
X84462964Y-48743202D01*
X84462964Y-49124154D01*
X84415345Y-49219392D01*
X84367726Y-49267011D01*
X84272488Y-49314630D01*
X84082011Y-49314630D01*
X83986773Y-49267011D01*
X83939154Y-49219392D01*
X83891535Y-49124154D01*
X83891535Y-48886059D01*
X83939154Y-48790821D01*
X83986773Y-48743202D01*
X84082011Y-48695583D01*
X84272488Y-48695583D01*
X84367726Y-48743202D01*
X84415345Y-48790821D01*
X84462964Y-48886059D01*
X92400416Y-69888630D02*
X92733750Y-69412440D01*
X92971845Y-69888630D02*
X92971845Y-68888630D01*
X92590892Y-68888630D01*
X92495654Y-68936250D01*
X92448035Y-68983869D01*
X92400416Y-69079107D01*
X92400416Y-69221964D01*
X92448035Y-69317202D01*
X92495654Y-69364821D01*
X92590892Y-69412440D01*
X92971845Y-69412440D01*
X91495654Y-68888630D02*
X91971845Y-68888630D01*
X92019464Y-69364821D01*
X91971845Y-69317202D01*
X91876607Y-69269583D01*
X91638511Y-69269583D01*
X91543273Y-69317202D01*
X91495654Y-69364821D01*
X91448035Y-69460059D01*
X91448035Y-69698154D01*
X91495654Y-69793392D01*
X91543273Y-69841011D01*
X91638511Y-69888630D01*
X91876607Y-69888630D01*
X91971845Y-69841011D01*
X92019464Y-69793392D01*
X134469166Y-61888630D02*
X134802500Y-61412440D01*
X135040595Y-61888630D02*
X135040595Y-60888630D01*
X134659642Y-60888630D01*
X134564404Y-60936250D01*
X134516785Y-60983869D01*
X134469166Y-61079107D01*
X134469166Y-61221964D01*
X134516785Y-61317202D01*
X134564404Y-61364821D01*
X134659642Y-61412440D01*
X135040595Y-61412440D01*
X133612023Y-61221964D02*
X133612023Y-61888630D01*
X133850119Y-60841011D02*
X134088214Y-61555297D01*
X133469166Y-61555297D01*
X95575416Y-52363630D02*
X95908750Y-51887440D01*
X96146845Y-52363630D02*
X96146845Y-51363630D01*
X95765892Y-51363630D01*
X95670654Y-51411250D01*
X95623035Y-51458869D01*
X95575416Y-51554107D01*
X95575416Y-51696964D01*
X95623035Y-51792202D01*
X95670654Y-51839821D01*
X95765892Y-51887440D01*
X96146845Y-51887440D01*
X95242083Y-51363630D02*
X94623035Y-51363630D01*
X94956369Y-51744583D01*
X94813511Y-51744583D01*
X94718273Y-51792202D01*
X94670654Y-51839821D01*
X94623035Y-51935059D01*
X94623035Y-52173154D01*
X94670654Y-52268392D01*
X94718273Y-52316011D01*
X94813511Y-52363630D01*
X95099226Y-52363630D01*
X95194464Y-52316011D01*
X95242083Y-52268392D01*
X98750416Y-52363630D02*
X99083750Y-51887440D01*
X99321845Y-52363630D02*
X99321845Y-51363630D01*
X98940892Y-51363630D01*
X98845654Y-51411250D01*
X98798035Y-51458869D01*
X98750416Y-51554107D01*
X98750416Y-51696964D01*
X98798035Y-51792202D01*
X98845654Y-51839821D01*
X98940892Y-51887440D01*
X99321845Y-51887440D01*
X98369464Y-51458869D02*
X98321845Y-51411250D01*
X98226607Y-51363630D01*
X97988511Y-51363630D01*
X97893273Y-51411250D01*
X97845654Y-51458869D01*
X97798035Y-51554107D01*
X97798035Y-51649345D01*
X97845654Y-51792202D01*
X98417083Y-52363630D01*
X97798035Y-52363630D01*
X108275416Y-43441880D02*
X108608750Y-42965690D01*
X108846845Y-43441880D02*
X108846845Y-42441880D01*
X108465892Y-42441880D01*
X108370654Y-42489500D01*
X108323035Y-42537119D01*
X108275416Y-42632357D01*
X108275416Y-42775214D01*
X108323035Y-42870452D01*
X108370654Y-42918071D01*
X108465892Y-42965690D01*
X108846845Y-42965690D01*
X107323035Y-43441880D02*
X107894464Y-43441880D01*
X107608750Y-43441880D02*
X107608750Y-42441880D01*
X107703988Y-42584738D01*
X107799226Y-42679976D01*
X107894464Y-42727595D01*
X90827183Y-51789021D02*
X91160516Y-51789021D01*
X91160516Y-52312830D02*
X91160516Y-51312830D01*
X90684326Y-51312830D01*
X89779564Y-52312830D02*
X90350992Y-52312830D01*
X90065278Y-52312830D02*
X90065278Y-51312830D01*
X90160516Y-51455688D01*
X90255754Y-51550926D01*
X90350992Y-51598545D01*
X117355916Y-70524642D02*
X117403535Y-70572261D01*
X117546392Y-70619880D01*
X117641630Y-70619880D01*
X117784488Y-70572261D01*
X117879726Y-70477023D01*
X117927345Y-70381785D01*
X117974964Y-70191309D01*
X117974964Y-70048452D01*
X117927345Y-69857976D01*
X117879726Y-69762738D01*
X117784488Y-69667500D01*
X117641630Y-69619880D01*
X117546392Y-69619880D01*
X117403535Y-69667500D01*
X117355916Y-69715119D01*
X116879726Y-70619880D02*
X116689250Y-70619880D01*
X116594011Y-70572261D01*
X116546392Y-70524642D01*
X116451154Y-70381785D01*
X116403535Y-70191309D01*
X116403535Y-69810357D01*
X116451154Y-69715119D01*
X116498773Y-69667500D01*
X116594011Y-69619880D01*
X116784488Y-69619880D01*
X116879726Y-69667500D01*
X116927345Y-69715119D01*
X116974964Y-69810357D01*
X116974964Y-70048452D01*
X116927345Y-70143690D01*
X116879726Y-70191309D01*
X116784488Y-70238928D01*
X116594011Y-70238928D01*
X116498773Y-70191309D01*
X116451154Y-70143690D01*
X116403535Y-70048452D01*
X107481666Y-57824642D02*
X107529285Y-57872261D01*
X107672142Y-57919880D01*
X107767380Y-57919880D01*
X107910238Y-57872261D01*
X108005476Y-57777023D01*
X108053095Y-57681785D01*
X108100714Y-57491309D01*
X108100714Y-57348452D01*
X108053095Y-57157976D01*
X108005476Y-57062738D01*
X107910238Y-56967500D01*
X107767380Y-56919880D01*
X107672142Y-56919880D01*
X107529285Y-56967500D01*
X107481666Y-57015119D01*
X106910238Y-57348452D02*
X107005476Y-57300833D01*
X107053095Y-57253214D01*
X107100714Y-57157976D01*
X107100714Y-57110357D01*
X107053095Y-57015119D01*
X107005476Y-56967500D01*
X106910238Y-56919880D01*
X106719761Y-56919880D01*
X106624523Y-56967500D01*
X106576904Y-57015119D01*
X106529285Y-57110357D01*
X106529285Y-57157976D01*
X106576904Y-57253214D01*
X106624523Y-57300833D01*
X106719761Y-57348452D01*
X106910238Y-57348452D01*
X107005476Y-57396071D01*
X107053095Y-57443690D01*
X107100714Y-57538928D01*
X107100714Y-57729404D01*
X107053095Y-57824642D01*
X107005476Y-57872261D01*
X106910238Y-57919880D01*
X106719761Y-57919880D01*
X106624523Y-57872261D01*
X106576904Y-57824642D01*
X106529285Y-57729404D01*
X106529285Y-57538928D01*
X106576904Y-57443690D01*
X106624523Y-57396071D01*
X106719761Y-57348452D01*
X125483916Y-47569392D02*
X125531535Y-47617011D01*
X125674392Y-47664630D01*
X125769630Y-47664630D01*
X125912488Y-47617011D01*
X126007726Y-47521773D01*
X126055345Y-47426535D01*
X126102964Y-47236059D01*
X126102964Y-47093202D01*
X126055345Y-46902726D01*
X126007726Y-46807488D01*
X125912488Y-46712250D01*
X125769630Y-46664630D01*
X125674392Y-46664630D01*
X125531535Y-46712250D01*
X125483916Y-46759869D01*
X125150583Y-46664630D02*
X124483916Y-46664630D01*
X124912488Y-47664630D01*
X113799916Y-47505892D02*
X113847535Y-47553511D01*
X113990392Y-47601130D01*
X114085630Y-47601130D01*
X114228488Y-47553511D01*
X114323726Y-47458273D01*
X114371345Y-47363035D01*
X114418964Y-47172559D01*
X114418964Y-47029702D01*
X114371345Y-46839226D01*
X114323726Y-46743988D01*
X114228488Y-46648750D01*
X114085630Y-46601130D01*
X113990392Y-46601130D01*
X113847535Y-46648750D01*
X113799916Y-46696369D01*
X112942773Y-46601130D02*
X113133250Y-46601130D01*
X113228488Y-46648750D01*
X113276107Y-46696369D01*
X113371345Y-46839226D01*
X113418964Y-47029702D01*
X113418964Y-47410654D01*
X113371345Y-47505892D01*
X113323726Y-47553511D01*
X113228488Y-47601130D01*
X113038011Y-47601130D01*
X112942773Y-47553511D01*
X112895154Y-47505892D01*
X112847535Y-47410654D01*
X112847535Y-47172559D01*
X112895154Y-47077321D01*
X112942773Y-47029702D01*
X113038011Y-46982083D01*
X113228488Y-46982083D01*
X113323726Y-47029702D01*
X113371345Y-47077321D01*
X113418964Y-47172559D01*
X100337916Y-65030892D02*
X100385535Y-65078511D01*
X100528392Y-65126130D01*
X100623630Y-65126130D01*
X100766488Y-65078511D01*
X100861726Y-64983273D01*
X100909345Y-64888035D01*
X100956964Y-64697559D01*
X100956964Y-64554702D01*
X100909345Y-64364226D01*
X100861726Y-64268988D01*
X100766488Y-64173750D01*
X100623630Y-64126130D01*
X100528392Y-64126130D01*
X100385535Y-64173750D01*
X100337916Y-64221369D01*
X99433154Y-64126130D02*
X99909345Y-64126130D01*
X99956964Y-64602321D01*
X99909345Y-64554702D01*
X99814107Y-64507083D01*
X99576011Y-64507083D01*
X99480773Y-64554702D01*
X99433154Y-64602321D01*
X99385535Y-64697559D01*
X99385535Y-64935654D01*
X99433154Y-65030892D01*
X99480773Y-65078511D01*
X99576011Y-65126130D01*
X99814107Y-65126130D01*
X99909345Y-65078511D01*
X99956964Y-65030892D01*
X111450416Y-70524642D02*
X111498035Y-70572261D01*
X111640892Y-70619880D01*
X111736130Y-70619880D01*
X111878988Y-70572261D01*
X111974226Y-70477023D01*
X112021845Y-70381785D01*
X112069464Y-70191309D01*
X112069464Y-70048452D01*
X112021845Y-69857976D01*
X111974226Y-69762738D01*
X111878988Y-69667500D01*
X111736130Y-69619880D01*
X111640892Y-69619880D01*
X111498035Y-69667500D01*
X111450416Y-69715119D01*
X110593273Y-69953214D02*
X110593273Y-70619880D01*
X110831369Y-69572261D02*
X111069464Y-70286547D01*
X110450416Y-70286547D01*
X131294166Y-63380892D02*
X131341785Y-63428511D01*
X131484642Y-63476130D01*
X131579880Y-63476130D01*
X131722738Y-63428511D01*
X131817976Y-63333273D01*
X131865595Y-63238035D01*
X131913214Y-63047559D01*
X131913214Y-62904702D01*
X131865595Y-62714226D01*
X131817976Y-62618988D01*
X131722738Y-62523750D01*
X131579880Y-62476130D01*
X131484642Y-62476130D01*
X131341785Y-62523750D01*
X131294166Y-62571369D01*
X130960833Y-62476130D02*
X130341785Y-62476130D01*
X130675119Y-62857083D01*
X130532261Y-62857083D01*
X130437023Y-62904702D01*
X130389404Y-62952321D01*
X130341785Y-63047559D01*
X130341785Y-63285654D01*
X130389404Y-63380892D01*
X130437023Y-63428511D01*
X130532261Y-63476130D01*
X130817976Y-63476130D01*
X130913214Y-63428511D01*
X130960833Y-63380892D01*
X131294166Y-66555892D02*
X131341785Y-66603511D01*
X131484642Y-66651130D01*
X131579880Y-66651130D01*
X131722738Y-66603511D01*
X131817976Y-66508273D01*
X131865595Y-66413035D01*
X131913214Y-66222559D01*
X131913214Y-66079702D01*
X131865595Y-65889226D01*
X131817976Y-65793988D01*
X131722738Y-65698750D01*
X131579880Y-65651130D01*
X131484642Y-65651130D01*
X131341785Y-65698750D01*
X131294166Y-65746369D01*
X130913214Y-65746369D02*
X130865595Y-65698750D01*
X130770357Y-65651130D01*
X130532261Y-65651130D01*
X130437023Y-65698750D01*
X130389404Y-65746369D01*
X130341785Y-65841607D01*
X130341785Y-65936845D01*
X130389404Y-66079702D01*
X130960833Y-66651130D01*
X130341785Y-66651130D01*
X108275416Y-47505892D02*
X108323035Y-47553511D01*
X108465892Y-47601130D01*
X108561130Y-47601130D01*
X108703988Y-47553511D01*
X108799226Y-47458273D01*
X108846845Y-47363035D01*
X108894464Y-47172559D01*
X108894464Y-47029702D01*
X108846845Y-46839226D01*
X108799226Y-46743988D01*
X108703988Y-46648750D01*
X108561130Y-46601130D01*
X108465892Y-46601130D01*
X108323035Y-46648750D01*
X108275416Y-46696369D01*
X107323035Y-47601130D02*
X107894464Y-47601130D01*
X107608750Y-47601130D02*
X107608750Y-46601130D01*
X107703988Y-46743988D01*
X107799226Y-46839226D01*
X107894464Y-46886845D01*
X123451785Y-183071130D02*
X123451785Y-182071130D01*
X123213690Y-182071130D01*
X123070833Y-182118750D01*
X122975595Y-182213988D01*
X122927976Y-182309226D01*
X122880357Y-182499702D01*
X122880357Y-182642559D01*
X122927976Y-182833035D01*
X122975595Y-182928273D01*
X123070833Y-183023511D01*
X123213690Y-183071130D01*
X123451785Y-183071130D01*
X122499404Y-182166369D02*
X122451785Y-182118750D01*
X122356547Y-182071130D01*
X122118452Y-182071130D01*
X122023214Y-182118750D01*
X121975595Y-182166369D01*
X121927976Y-182261607D01*
X121927976Y-182356845D01*
X121975595Y-182499702D01*
X122547023Y-183071130D01*
X121927976Y-183071130D01*
X120975595Y-183071130D02*
X121547023Y-183071130D01*
X121261309Y-183071130D02*
X121261309Y-182071130D01*
X121356547Y-182213988D01*
X121451785Y-182309226D01*
X121547023Y-182356845D01*
X118689404Y-182751130D02*
X118689404Y-181751130D01*
X118117976Y-182751130D02*
X118546547Y-182179702D01*
X118117976Y-181751130D02*
X118689404Y-182322559D01*
X123451785Y-146558630D02*
X123451785Y-145558630D01*
X123213690Y-145558630D01*
X123070833Y-145606250D01*
X122975595Y-145701488D01*
X122927976Y-145796726D01*
X122880357Y-145987202D01*
X122880357Y-146130059D01*
X122927976Y-146320535D01*
X122975595Y-146415773D01*
X123070833Y-146511011D01*
X123213690Y-146558630D01*
X123451785Y-146558630D01*
X122499404Y-145653869D02*
X122451785Y-145606250D01*
X122356547Y-145558630D01*
X122118452Y-145558630D01*
X122023214Y-145606250D01*
X121975595Y-145653869D01*
X121927976Y-145749107D01*
X121927976Y-145844345D01*
X121975595Y-145987202D01*
X122547023Y-146558630D01*
X121927976Y-146558630D01*
X121308928Y-145558630D02*
X121213690Y-145558630D01*
X121118452Y-145606250D01*
X121070833Y-145653869D01*
X121023214Y-145749107D01*
X120975595Y-145939583D01*
X120975595Y-146177678D01*
X121023214Y-146368154D01*
X121070833Y-146463392D01*
X121118452Y-146511011D01*
X121213690Y-146558630D01*
X121308928Y-146558630D01*
X121404166Y-146511011D01*
X121451785Y-146463392D01*
X121499404Y-146368154D01*
X121547023Y-146177678D01*
X121547023Y-145939583D01*
X121499404Y-145749107D01*
X121451785Y-145653869D01*
X121404166Y-145606250D01*
X121308928Y-145558630D01*
X118689404Y-146238630D02*
X118689404Y-145238630D01*
X118117976Y-146238630D02*
X118546547Y-145667202D01*
X118117976Y-145238630D02*
X118689404Y-145810059D01*
X123451785Y-109252380D02*
X123451785Y-108252380D01*
X123213690Y-108252380D01*
X123070833Y-108300000D01*
X122975595Y-108395238D01*
X122927976Y-108490476D01*
X122880357Y-108680952D01*
X122880357Y-108823809D01*
X122927976Y-109014285D01*
X122975595Y-109109523D01*
X123070833Y-109204761D01*
X123213690Y-109252380D01*
X123451785Y-109252380D01*
X121927976Y-109252380D02*
X122499404Y-109252380D01*
X122213690Y-109252380D02*
X122213690Y-108252380D01*
X122308928Y-108395238D01*
X122404166Y-108490476D01*
X122499404Y-108538095D01*
X121451785Y-109252380D02*
X121261309Y-109252380D01*
X121166071Y-109204761D01*
X121118452Y-109157142D01*
X121023214Y-109014285D01*
X120975595Y-108823809D01*
X120975595Y-108442857D01*
X121023214Y-108347619D01*
X121070833Y-108300000D01*
X121166071Y-108252380D01*
X121356547Y-108252380D01*
X121451785Y-108300000D01*
X121499404Y-108347619D01*
X121547023Y-108442857D01*
X121547023Y-108680952D01*
X121499404Y-108776190D01*
X121451785Y-108823809D01*
X121356547Y-108871428D01*
X121166071Y-108871428D01*
X121070833Y-108823809D01*
X121023214Y-108776190D01*
X120975595Y-108680952D01*
X118689404Y-108932380D02*
X118689404Y-107932380D01*
X118117976Y-108932380D02*
X118546547Y-108360952D01*
X118117976Y-107932380D02*
X118689404Y-108503809D01*
X121864285Y-89408630D02*
X121864285Y-88408630D01*
X121626190Y-88408630D01*
X121483333Y-88456250D01*
X121388095Y-88551488D01*
X121340476Y-88646726D01*
X121292857Y-88837202D01*
X121292857Y-88980059D01*
X121340476Y-89170535D01*
X121388095Y-89265773D01*
X121483333Y-89361011D01*
X121626190Y-89408630D01*
X121864285Y-89408630D01*
X120340476Y-89408630D02*
X120911904Y-89408630D01*
X120626190Y-89408630D02*
X120626190Y-88408630D01*
X120721428Y-88551488D01*
X120816666Y-88646726D01*
X120911904Y-88694345D01*
X119769047Y-88837202D02*
X119864285Y-88789583D01*
X119911904Y-88741964D01*
X119959523Y-88646726D01*
X119959523Y-88599107D01*
X119911904Y-88503869D01*
X119864285Y-88456250D01*
X119769047Y-88408630D01*
X119578571Y-88408630D01*
X119483333Y-88456250D01*
X119435714Y-88503869D01*
X119388095Y-88599107D01*
X119388095Y-88646726D01*
X119435714Y-88741964D01*
X119483333Y-88789583D01*
X119578571Y-88837202D01*
X119769047Y-88837202D01*
X119864285Y-88884821D01*
X119911904Y-88932440D01*
X119959523Y-89027678D01*
X119959523Y-89218154D01*
X119911904Y-89313392D01*
X119864285Y-89361011D01*
X119769047Y-89408630D01*
X119578571Y-89408630D01*
X119483333Y-89361011D01*
X119435714Y-89313392D01*
X119388095Y-89218154D01*
X119388095Y-89027678D01*
X119435714Y-88932440D01*
X119483333Y-88884821D01*
X119578571Y-88837202D01*
X117101904Y-89088630D02*
X117101904Y-88088630D01*
X116530476Y-89088630D02*
X116959047Y-88517202D01*
X116530476Y-88088630D02*
X117101904Y-88660059D01*
X95599880Y-171505714D02*
X94599880Y-171505714D01*
X94599880Y-171743809D01*
X94647500Y-171886666D01*
X94742738Y-171981904D01*
X94837976Y-172029523D01*
X95028452Y-172077142D01*
X95171309Y-172077142D01*
X95361785Y-172029523D01*
X95457023Y-171981904D01*
X95552261Y-171886666D01*
X95599880Y-171743809D01*
X95599880Y-171505714D01*
X95599880Y-173029523D02*
X95599880Y-172458095D01*
X95599880Y-172743809D02*
X94599880Y-172743809D01*
X94742738Y-172648571D01*
X94837976Y-172553333D01*
X94885595Y-172458095D01*
X94599880Y-173362857D02*
X94599880Y-174029523D01*
X95599880Y-173600952D01*
X95279880Y-176268095D02*
X94279880Y-176268095D01*
X95279880Y-176839523D02*
X94708452Y-176410952D01*
X94279880Y-176839523D02*
X94851309Y-176268095D01*
X104401785Y-165608630D02*
X104401785Y-164608630D01*
X104163690Y-164608630D01*
X104020833Y-164656250D01*
X103925595Y-164751488D01*
X103877976Y-164846726D01*
X103830357Y-165037202D01*
X103830357Y-165180059D01*
X103877976Y-165370535D01*
X103925595Y-165465773D01*
X104020833Y-165561011D01*
X104163690Y-165608630D01*
X104401785Y-165608630D01*
X102877976Y-165608630D02*
X103449404Y-165608630D01*
X103163690Y-165608630D02*
X103163690Y-164608630D01*
X103258928Y-164751488D01*
X103354166Y-164846726D01*
X103449404Y-164894345D01*
X102020833Y-164608630D02*
X102211309Y-164608630D01*
X102306547Y-164656250D01*
X102354166Y-164703869D01*
X102449404Y-164846726D01*
X102497023Y-165037202D01*
X102497023Y-165418154D01*
X102449404Y-165513392D01*
X102401785Y-165561011D01*
X102306547Y-165608630D01*
X102116071Y-165608630D01*
X102020833Y-165561011D01*
X101973214Y-165513392D01*
X101925595Y-165418154D01*
X101925595Y-165180059D01*
X101973214Y-165084821D01*
X102020833Y-165037202D01*
X102116071Y-164989583D01*
X102306547Y-164989583D01*
X102401785Y-165037202D01*
X102449404Y-165084821D01*
X102497023Y-165180059D01*
X99639404Y-165288630D02*
X99639404Y-164288630D01*
X99067976Y-165288630D02*
X99496547Y-164717202D01*
X99067976Y-164288630D02*
X99639404Y-164860059D01*
X104401785Y-146558630D02*
X104401785Y-145558630D01*
X104163690Y-145558630D01*
X104020833Y-145606250D01*
X103925595Y-145701488D01*
X103877976Y-145796726D01*
X103830357Y-145987202D01*
X103830357Y-146130059D01*
X103877976Y-146320535D01*
X103925595Y-146415773D01*
X104020833Y-146511011D01*
X104163690Y-146558630D01*
X104401785Y-146558630D01*
X102877976Y-146558630D02*
X103449404Y-146558630D01*
X103163690Y-146558630D02*
X103163690Y-145558630D01*
X103258928Y-145701488D01*
X103354166Y-145796726D01*
X103449404Y-145844345D01*
X101973214Y-145558630D02*
X102449404Y-145558630D01*
X102497023Y-146034821D01*
X102449404Y-145987202D01*
X102354166Y-145939583D01*
X102116071Y-145939583D01*
X102020833Y-145987202D01*
X101973214Y-146034821D01*
X101925595Y-146130059D01*
X101925595Y-146368154D01*
X101973214Y-146463392D01*
X102020833Y-146511011D01*
X102116071Y-146558630D01*
X102354166Y-146558630D01*
X102449404Y-146511011D01*
X102497023Y-146463392D01*
X99639404Y-146238630D02*
X99639404Y-145238630D01*
X99067976Y-146238630D02*
X99496547Y-145667202D01*
X99067976Y-145238630D02*
X99639404Y-145810059D01*
X104401785Y-127508630D02*
X104401785Y-126508630D01*
X104163690Y-126508630D01*
X104020833Y-126556250D01*
X103925595Y-126651488D01*
X103877976Y-126746726D01*
X103830357Y-126937202D01*
X103830357Y-127080059D01*
X103877976Y-127270535D01*
X103925595Y-127365773D01*
X104020833Y-127461011D01*
X104163690Y-127508630D01*
X104401785Y-127508630D01*
X102877976Y-127508630D02*
X103449404Y-127508630D01*
X103163690Y-127508630D02*
X103163690Y-126508630D01*
X103258928Y-126651488D01*
X103354166Y-126746726D01*
X103449404Y-126794345D01*
X102020833Y-126841964D02*
X102020833Y-127508630D01*
X102258928Y-126461011D02*
X102497023Y-127175297D01*
X101877976Y-127175297D01*
X99639404Y-127188630D02*
X99639404Y-126188630D01*
X99067976Y-127188630D02*
X99496547Y-126617202D01*
X99067976Y-126188630D02*
X99639404Y-126760059D01*
X114649880Y-95305714D02*
X113649880Y-95305714D01*
X113649880Y-95543809D01*
X113697500Y-95686666D01*
X113792738Y-95781904D01*
X113887976Y-95829523D01*
X114078452Y-95877142D01*
X114221309Y-95877142D01*
X114411785Y-95829523D01*
X114507023Y-95781904D01*
X114602261Y-95686666D01*
X114649880Y-95543809D01*
X114649880Y-95305714D01*
X114649880Y-96829523D02*
X114649880Y-96258095D01*
X114649880Y-96543809D02*
X113649880Y-96543809D01*
X113792738Y-96448571D01*
X113887976Y-96353333D01*
X113935595Y-96258095D01*
X113649880Y-97162857D02*
X113649880Y-97781904D01*
X114030833Y-97448571D01*
X114030833Y-97591428D01*
X114078452Y-97686666D01*
X114126071Y-97734285D01*
X114221309Y-97781904D01*
X114459404Y-97781904D01*
X114554642Y-97734285D01*
X114602261Y-97686666D01*
X114649880Y-97591428D01*
X114649880Y-97305714D01*
X114602261Y-97210476D01*
X114554642Y-97162857D01*
X114329880Y-100068095D02*
X113329880Y-100068095D01*
X114329880Y-100639523D02*
X113758452Y-100210952D01*
X113329880Y-100639523D02*
X113901309Y-100068095D01*
X114649880Y-77843214D02*
X113649880Y-77843214D01*
X113649880Y-78081309D01*
X113697500Y-78224166D01*
X113792738Y-78319404D01*
X113887976Y-78367023D01*
X114078452Y-78414642D01*
X114221309Y-78414642D01*
X114411785Y-78367023D01*
X114507023Y-78319404D01*
X114602261Y-78224166D01*
X114649880Y-78081309D01*
X114649880Y-77843214D01*
X114649880Y-79367023D02*
X114649880Y-78795595D01*
X114649880Y-79081309D02*
X113649880Y-79081309D01*
X113792738Y-78986071D01*
X113887976Y-78890833D01*
X113935595Y-78795595D01*
X113745119Y-79747976D02*
X113697500Y-79795595D01*
X113649880Y-79890833D01*
X113649880Y-80128928D01*
X113697500Y-80224166D01*
X113745119Y-80271785D01*
X113840357Y-80319404D01*
X113935595Y-80319404D01*
X114078452Y-80271785D01*
X114649880Y-79700357D01*
X114649880Y-80319404D01*
X114329880Y-82605595D02*
X113329880Y-82605595D01*
X114329880Y-83177023D02*
X113758452Y-82748452D01*
X113329880Y-83177023D02*
X113901309Y-82605595D01*
X95599880Y-152455714D02*
X94599880Y-152455714D01*
X94599880Y-152693809D01*
X94647500Y-152836666D01*
X94742738Y-152931904D01*
X94837976Y-152979523D01*
X95028452Y-153027142D01*
X95171309Y-153027142D01*
X95361785Y-152979523D01*
X95457023Y-152931904D01*
X95552261Y-152836666D01*
X95599880Y-152693809D01*
X95599880Y-152455714D01*
X95599880Y-153979523D02*
X95599880Y-153408095D01*
X95599880Y-153693809D02*
X94599880Y-153693809D01*
X94742738Y-153598571D01*
X94837976Y-153503333D01*
X94885595Y-153408095D01*
X95599880Y-154931904D02*
X95599880Y-154360476D01*
X95599880Y-154646190D02*
X94599880Y-154646190D01*
X94742738Y-154550952D01*
X94837976Y-154455714D01*
X94885595Y-154360476D01*
X95279880Y-157218095D02*
X94279880Y-157218095D01*
X95279880Y-157789523D02*
X94708452Y-157360952D01*
X94279880Y-157789523D02*
X94851309Y-157218095D01*
X95599880Y-133405714D02*
X94599880Y-133405714D01*
X94599880Y-133643809D01*
X94647500Y-133786666D01*
X94742738Y-133881904D01*
X94837976Y-133929523D01*
X95028452Y-133977142D01*
X95171309Y-133977142D01*
X95361785Y-133929523D01*
X95457023Y-133881904D01*
X95552261Y-133786666D01*
X95599880Y-133643809D01*
X95599880Y-133405714D01*
X95599880Y-134929523D02*
X95599880Y-134358095D01*
X95599880Y-134643809D02*
X94599880Y-134643809D01*
X94742738Y-134548571D01*
X94837976Y-134453333D01*
X94885595Y-134358095D01*
X94599880Y-135548571D02*
X94599880Y-135643809D01*
X94647500Y-135739047D01*
X94695119Y-135786666D01*
X94790357Y-135834285D01*
X94980833Y-135881904D01*
X95218928Y-135881904D01*
X95409404Y-135834285D01*
X95504642Y-135786666D01*
X95552261Y-135739047D01*
X95599880Y-135643809D01*
X95599880Y-135548571D01*
X95552261Y-135453333D01*
X95504642Y-135405714D01*
X95409404Y-135358095D01*
X95218928Y-135310476D01*
X94980833Y-135310476D01*
X94790357Y-135358095D01*
X94695119Y-135405714D01*
X94647500Y-135453333D01*
X94599880Y-135548571D01*
X95279880Y-138168095D02*
X94279880Y-138168095D01*
X95279880Y-138739523D02*
X94708452Y-138310952D01*
X94279880Y-138739523D02*
X94851309Y-138168095D01*
X95599880Y-114831904D02*
X94599880Y-114831904D01*
X94599880Y-115070000D01*
X94647500Y-115212857D01*
X94742738Y-115308095D01*
X94837976Y-115355714D01*
X95028452Y-115403333D01*
X95171309Y-115403333D01*
X95361785Y-115355714D01*
X95457023Y-115308095D01*
X95552261Y-115212857D01*
X95599880Y-115070000D01*
X95599880Y-114831904D01*
X95599880Y-115879523D02*
X95599880Y-116070000D01*
X95552261Y-116165238D01*
X95504642Y-116212857D01*
X95361785Y-116308095D01*
X95171309Y-116355714D01*
X94790357Y-116355714D01*
X94695119Y-116308095D01*
X94647500Y-116260476D01*
X94599880Y-116165238D01*
X94599880Y-115974761D01*
X94647500Y-115879523D01*
X94695119Y-115831904D01*
X94790357Y-115784285D01*
X95028452Y-115784285D01*
X95123690Y-115831904D01*
X95171309Y-115879523D01*
X95218928Y-115974761D01*
X95218928Y-116165238D01*
X95171309Y-116260476D01*
X95123690Y-116308095D01*
X95028452Y-116355714D01*
X95279880Y-119118095D02*
X94279880Y-119118095D01*
X95279880Y-119689523D02*
X94708452Y-119260952D01*
X94279880Y-119689523D02*
X94851309Y-119118095D01*
X95599880Y-95781904D02*
X94599880Y-95781904D01*
X94599880Y-96020000D01*
X94647500Y-96162857D01*
X94742738Y-96258095D01*
X94837976Y-96305714D01*
X95028452Y-96353333D01*
X95171309Y-96353333D01*
X95361785Y-96305714D01*
X95457023Y-96258095D01*
X95552261Y-96162857D01*
X95599880Y-96020000D01*
X95599880Y-95781904D01*
X95028452Y-96924761D02*
X94980833Y-96829523D01*
X94933214Y-96781904D01*
X94837976Y-96734285D01*
X94790357Y-96734285D01*
X94695119Y-96781904D01*
X94647500Y-96829523D01*
X94599880Y-96924761D01*
X94599880Y-97115238D01*
X94647500Y-97210476D01*
X94695119Y-97258095D01*
X94790357Y-97305714D01*
X94837976Y-97305714D01*
X94933214Y-97258095D01*
X94980833Y-97210476D01*
X95028452Y-97115238D01*
X95028452Y-96924761D01*
X95076071Y-96829523D01*
X95123690Y-96781904D01*
X95218928Y-96734285D01*
X95409404Y-96734285D01*
X95504642Y-96781904D01*
X95552261Y-96829523D01*
X95599880Y-96924761D01*
X95599880Y-97115238D01*
X95552261Y-97210476D01*
X95504642Y-97258095D01*
X95409404Y-97305714D01*
X95218928Y-97305714D01*
X95123690Y-97258095D01*
X95076071Y-97210476D01*
X95028452Y-97115238D01*
X95279880Y-100068095D02*
X94279880Y-100068095D01*
X95279880Y-100639523D02*
X94708452Y-100210952D01*
X94279880Y-100639523D02*
X94851309Y-100068095D01*
X95599880Y-78319404D02*
X94599880Y-78319404D01*
X94599880Y-78557500D01*
X94647500Y-78700357D01*
X94742738Y-78795595D01*
X94837976Y-78843214D01*
X95028452Y-78890833D01*
X95171309Y-78890833D01*
X95361785Y-78843214D01*
X95457023Y-78795595D01*
X95552261Y-78700357D01*
X95599880Y-78557500D01*
X95599880Y-78319404D01*
X94599880Y-79224166D02*
X94599880Y-79890833D01*
X95599880Y-79462261D01*
X95279880Y-82605595D02*
X94279880Y-82605595D01*
X95279880Y-83177023D02*
X94708452Y-82748452D01*
X94279880Y-83177023D02*
X94851309Y-82605595D01*
X59087380Y-171981904D02*
X58087380Y-171981904D01*
X58087380Y-172220000D01*
X58135000Y-172362857D01*
X58230238Y-172458095D01*
X58325476Y-172505714D01*
X58515952Y-172553333D01*
X58658809Y-172553333D01*
X58849285Y-172505714D01*
X58944523Y-172458095D01*
X59039761Y-172362857D01*
X59087380Y-172220000D01*
X59087380Y-171981904D01*
X58087380Y-173410476D02*
X58087380Y-173220000D01*
X58135000Y-173124761D01*
X58182619Y-173077142D01*
X58325476Y-172981904D01*
X58515952Y-172934285D01*
X58896904Y-172934285D01*
X58992142Y-172981904D01*
X59039761Y-173029523D01*
X59087380Y-173124761D01*
X59087380Y-173315238D01*
X59039761Y-173410476D01*
X58992142Y-173458095D01*
X58896904Y-173505714D01*
X58658809Y-173505714D01*
X58563571Y-173458095D01*
X58515952Y-173410476D01*
X58468333Y-173315238D01*
X58468333Y-173124761D01*
X58515952Y-173029523D01*
X58563571Y-172981904D01*
X58658809Y-172934285D01*
X58767380Y-176268095D02*
X57767380Y-176268095D01*
X58767380Y-176839523D02*
X58195952Y-176410952D01*
X57767380Y-176839523D02*
X58338809Y-176268095D01*
X76549880Y-152931904D02*
X75549880Y-152931904D01*
X75549880Y-153170000D01*
X75597500Y-153312857D01*
X75692738Y-153408095D01*
X75787976Y-153455714D01*
X75978452Y-153503333D01*
X76121309Y-153503333D01*
X76311785Y-153455714D01*
X76407023Y-153408095D01*
X76502261Y-153312857D01*
X76549880Y-153170000D01*
X76549880Y-152931904D01*
X75549880Y-154408095D02*
X75549880Y-153931904D01*
X76026071Y-153884285D01*
X75978452Y-153931904D01*
X75930833Y-154027142D01*
X75930833Y-154265238D01*
X75978452Y-154360476D01*
X76026071Y-154408095D01*
X76121309Y-154455714D01*
X76359404Y-154455714D01*
X76454642Y-154408095D01*
X76502261Y-154360476D01*
X76549880Y-154265238D01*
X76549880Y-154027142D01*
X76502261Y-153931904D01*
X76454642Y-153884285D01*
X76229880Y-157218095D02*
X75229880Y-157218095D01*
X76229880Y-157789523D02*
X75658452Y-157360952D01*
X75229880Y-157789523D02*
X75801309Y-157218095D01*
X76549880Y-133881904D02*
X75549880Y-133881904D01*
X75549880Y-134120000D01*
X75597500Y-134262857D01*
X75692738Y-134358095D01*
X75787976Y-134405714D01*
X75978452Y-134453333D01*
X76121309Y-134453333D01*
X76311785Y-134405714D01*
X76407023Y-134358095D01*
X76502261Y-134262857D01*
X76549880Y-134120000D01*
X76549880Y-133881904D01*
X75883214Y-135310476D02*
X76549880Y-135310476D01*
X75502261Y-135072380D02*
X76216547Y-134834285D01*
X76216547Y-135453333D01*
X76229880Y-138168095D02*
X75229880Y-138168095D01*
X76229880Y-138739523D02*
X75658452Y-138310952D01*
X75229880Y-138739523D02*
X75801309Y-138168095D01*
X76549880Y-114831904D02*
X75549880Y-114831904D01*
X75549880Y-115070000D01*
X75597500Y-115212857D01*
X75692738Y-115308095D01*
X75787976Y-115355714D01*
X75978452Y-115403333D01*
X76121309Y-115403333D01*
X76311785Y-115355714D01*
X76407023Y-115308095D01*
X76502261Y-115212857D01*
X76549880Y-115070000D01*
X76549880Y-114831904D01*
X75549880Y-115736666D02*
X75549880Y-116355714D01*
X75930833Y-116022380D01*
X75930833Y-116165238D01*
X75978452Y-116260476D01*
X76026071Y-116308095D01*
X76121309Y-116355714D01*
X76359404Y-116355714D01*
X76454642Y-116308095D01*
X76502261Y-116260476D01*
X76549880Y-116165238D01*
X76549880Y-115879523D01*
X76502261Y-115784285D01*
X76454642Y-115736666D01*
X76229880Y-119118095D02*
X75229880Y-119118095D01*
X76229880Y-119689523D02*
X75658452Y-119260952D01*
X75229880Y-119689523D02*
X75801309Y-119118095D01*
X76549880Y-95781904D02*
X75549880Y-95781904D01*
X75549880Y-96020000D01*
X75597500Y-96162857D01*
X75692738Y-96258095D01*
X75787976Y-96305714D01*
X75978452Y-96353333D01*
X76121309Y-96353333D01*
X76311785Y-96305714D01*
X76407023Y-96258095D01*
X76502261Y-96162857D01*
X76549880Y-96020000D01*
X76549880Y-95781904D01*
X75645119Y-96734285D02*
X75597500Y-96781904D01*
X75549880Y-96877142D01*
X75549880Y-97115238D01*
X75597500Y-97210476D01*
X75645119Y-97258095D01*
X75740357Y-97305714D01*
X75835595Y-97305714D01*
X75978452Y-97258095D01*
X76549880Y-96686666D01*
X76549880Y-97305714D01*
X76229880Y-100068095D02*
X75229880Y-100068095D01*
X76229880Y-100639523D02*
X75658452Y-100210952D01*
X75229880Y-100639523D02*
X75801309Y-100068095D01*
X76549880Y-78319404D02*
X75549880Y-78319404D01*
X75549880Y-78557500D01*
X75597500Y-78700357D01*
X75692738Y-78795595D01*
X75787976Y-78843214D01*
X75978452Y-78890833D01*
X76121309Y-78890833D01*
X76311785Y-78843214D01*
X76407023Y-78795595D01*
X76502261Y-78700357D01*
X76549880Y-78557500D01*
X76549880Y-78319404D01*
X76549880Y-79843214D02*
X76549880Y-79271785D01*
X76549880Y-79557500D02*
X75549880Y-79557500D01*
X75692738Y-79462261D01*
X75787976Y-79367023D01*
X75835595Y-79271785D01*
X76229880Y-82605595D02*
X75229880Y-82605595D01*
X76229880Y-83177023D02*
X75658452Y-82748452D01*
X75229880Y-83177023D02*
X75801309Y-82605595D01*
M02*
